G04 #@! TF.GenerationSoftware,KiCad,Pcbnew,(5.1.10)-1*
G04 #@! TF.CreationDate,2021-10-09T13:26:38+02:00*
G04 #@! TF.ProjectId,AirQualitySensor,41697251-7561-46c6-9974-7953656e736f,rev?*
G04 #@! TF.SameCoordinates,Original*
G04 #@! TF.FileFunction,Soldermask,Bot*
G04 #@! TF.FilePolarity,Negative*
%FSLAX46Y46*%
G04 Gerber Fmt 4.6, Leading zero omitted, Abs format (unit mm)*
G04 Created by KiCad (PCBNEW (5.1.10)-1) date 2021-10-09 13:26:38*
%MOMM*%
%LPD*%
G01*
G04 APERTURE LIST*
%ADD10C,5.000000*%
%ADD11C,1.800000*%
%ADD12R,1.800000X1.800000*%
%ADD13O,1.700000X1.700000*%
%ADD14R,1.700000X1.700000*%
%ADD15C,0.991000*%
%ADD16C,2.374900*%
%ADD17O,2.100000X1.000000*%
%ADD18C,0.650000*%
%ADD19O,1.600000X1.000000*%
%ADD20C,1.524000*%
%ADD21C,1.700000*%
%ADD22C,1.337000*%
%ADD23C,1.200000*%
G04 APERTURE END LIST*
D10*
X184150000Y-115570000D03*
X176530000Y-88900000D03*
X110490000Y-106680000D03*
D11*
X177800000Y-96150000D03*
D12*
X177800000Y-98690000D03*
D11*
X177800000Y-102050000D03*
D12*
X177800000Y-104590000D03*
D11*
X177800000Y-107950000D03*
D12*
X177800000Y-110490000D03*
D13*
X156972000Y-119888000D03*
X159512000Y-119888000D03*
X162052000Y-119888000D03*
X164592000Y-119888000D03*
X167132000Y-119888000D03*
D14*
X169672000Y-119888000D03*
D15*
X177546000Y-119761000D03*
X176531000Y-114681000D03*
X178561000Y-114681000D03*
D16*
X175006000Y-116586000D03*
X180086000Y-116586000D03*
X180086000Y-119761000D03*
X175006000Y-119761000D03*
D17*
X112096000Y-120144000D03*
X112096000Y-111504000D03*
D18*
X111566000Y-112934000D03*
D19*
X107916000Y-111504000D03*
D18*
X111566000Y-118714000D03*
D19*
X107916000Y-120144000D03*
D20*
X131826000Y-116840000D03*
X129286000Y-116840000D03*
X126746000Y-116840000D03*
X124206000Y-116840000D03*
D21*
X183370000Y-97790000D03*
X183370000Y-100330000D03*
X183370000Y-102870000D03*
X183370000Y-105410000D03*
X153670000Y-105410000D03*
D14*
X153670000Y-97790000D03*
D21*
X153670000Y-100330000D03*
X153670000Y-102870000D03*
X183370000Y-107950000D03*
D22*
X167640000Y-115570000D03*
D23*
X165100000Y-115570000D03*
D22*
X121920000Y-115570000D03*
X119380000Y-115570000D03*
X119380000Y-87630000D03*
X121920000Y-87630000D03*
X124460000Y-87630000D03*
X127000000Y-87630000D03*
X129540000Y-87630000D03*
X132080000Y-87630000D03*
X134620000Y-87630000D03*
X137160000Y-87630000D03*
X139700000Y-87630000D03*
X142240000Y-87630000D03*
X144780000Y-87630000D03*
X147320000Y-87630000D03*
X149860000Y-87630000D03*
X152400000Y-87630000D03*
X154940000Y-87630000D03*
X157480000Y-87630000D03*
X160020000Y-87630000D03*
X162560000Y-87630000D03*
X165100000Y-87630000D03*
X167640000Y-87630000D03*
M02*
