G04 #@! TF.GenerationSoftware,KiCad,Pcbnew,(5.1.10)-1*
G04 #@! TF.CreationDate,2021-10-09T13:26:38+02:00*
G04 #@! TF.ProjectId,AirQualitySensor,41697251-7561-46c6-9974-7953656e736f,rev?*
G04 #@! TF.SameCoordinates,Original*
G04 #@! TF.FileFunction,Legend,Bot*
G04 #@! TF.FilePolarity,Positive*
%FSLAX46Y46*%
G04 Gerber Fmt 4.6, Leading zero omitted, Abs format (unit mm)*
G04 Created by KiCad (PCBNEW (5.1.10)-1) date 2021-10-09 13:26:38*
%MOMM*%
%LPD*%
G01*
G04 APERTURE LIST*
%ADD10C,0.150000*%
%ADD11C,0.120000*%
%ADD12C,0.100000*%
%ADD13C,0.254000*%
%ADD14C,5.000000*%
%ADD15C,1.800000*%
%ADD16R,1.800000X1.800000*%
%ADD17O,1.700000X1.700000*%
%ADD18R,1.700000X1.700000*%
%ADD19C,0.991000*%
%ADD20C,2.374900*%
%ADD21O,2.100000X1.000000*%
%ADD22C,0.650000*%
%ADD23O,1.600000X1.000000*%
%ADD24C,1.524000*%
%ADD25C,1.700000*%
%ADD26C,1.337000*%
%ADD27C,1.200000*%
G04 APERTURE END LIST*
D10*
X135969047Y-109672380D02*
X135969047Y-108672380D01*
X135588095Y-108672380D01*
X135492857Y-108720000D01*
X135445238Y-108767619D01*
X135397619Y-108862857D01*
X135397619Y-109005714D01*
X135445238Y-109100952D01*
X135492857Y-109148571D01*
X135588095Y-109196190D01*
X135969047Y-109196190D01*
X134397619Y-109577142D02*
X134445238Y-109624761D01*
X134588095Y-109672380D01*
X134683333Y-109672380D01*
X134826190Y-109624761D01*
X134921428Y-109529523D01*
X134969047Y-109434285D01*
X135016666Y-109243809D01*
X135016666Y-109100952D01*
X134969047Y-108910476D01*
X134921428Y-108815238D01*
X134826190Y-108720000D01*
X134683333Y-108672380D01*
X134588095Y-108672380D01*
X134445238Y-108720000D01*
X134397619Y-108767619D01*
X133635714Y-109148571D02*
X133492857Y-109196190D01*
X133445238Y-109243809D01*
X133397619Y-109339047D01*
X133397619Y-109481904D01*
X133445238Y-109577142D01*
X133492857Y-109624761D01*
X133588095Y-109672380D01*
X133969047Y-109672380D01*
X133969047Y-108672380D01*
X133635714Y-108672380D01*
X133540476Y-108720000D01*
X133492857Y-108767619D01*
X133445238Y-108862857D01*
X133445238Y-108958095D01*
X133492857Y-109053333D01*
X133540476Y-109100952D01*
X133635714Y-109148571D01*
X133969047Y-109148571D01*
X132207142Y-109672380D02*
X132207142Y-108672380D01*
X131730952Y-109672380D02*
X131730952Y-108672380D01*
X131492857Y-108672380D01*
X131350000Y-108720000D01*
X131254761Y-108815238D01*
X131207142Y-108910476D01*
X131159523Y-109100952D01*
X131159523Y-109243809D01*
X131207142Y-109434285D01*
X131254761Y-109529523D01*
X131350000Y-109624761D01*
X131492857Y-109672380D01*
X131730952Y-109672380D01*
X130730952Y-109577142D02*
X130683333Y-109624761D01*
X130730952Y-109672380D01*
X130778571Y-109624761D01*
X130730952Y-109577142D01*
X130730952Y-109672380D01*
X130730952Y-109053333D02*
X130683333Y-109100952D01*
X130730952Y-109148571D01*
X130778571Y-109100952D01*
X130730952Y-109053333D01*
X130730952Y-109148571D01*
X129079047Y-108672380D02*
X129079047Y-109386666D01*
X129126666Y-109529523D01*
X129221904Y-109624761D01*
X129364761Y-109672380D01*
X129460000Y-109672380D01*
X128126666Y-109672380D02*
X128602857Y-109672380D01*
X128602857Y-108672380D01*
X127221904Y-109577142D02*
X127269523Y-109624761D01*
X127412380Y-109672380D01*
X127507619Y-109672380D01*
X127650476Y-109624761D01*
X127745714Y-109529523D01*
X127793333Y-109434285D01*
X127840952Y-109243809D01*
X127840952Y-109100952D01*
X127793333Y-108910476D01*
X127745714Y-108815238D01*
X127650476Y-108720000D01*
X127507619Y-108672380D01*
X127412380Y-108672380D01*
X127269523Y-108720000D01*
X127221904Y-108767619D01*
X126507619Y-108672380D02*
X126507619Y-109386666D01*
X126555238Y-109529523D01*
X126650476Y-109624761D01*
X126793333Y-109672380D01*
X126888571Y-109672380D01*
X125555238Y-109672380D02*
X126031428Y-109672380D01*
X126031428Y-108672380D01*
X124650476Y-109577142D02*
X124698095Y-109624761D01*
X124840952Y-109672380D01*
X124936190Y-109672380D01*
X125079047Y-109624761D01*
X125174285Y-109529523D01*
X125221904Y-109434285D01*
X125269523Y-109243809D01*
X125269523Y-109100952D01*
X125221904Y-108910476D01*
X125174285Y-108815238D01*
X125079047Y-108720000D01*
X124936190Y-108672380D01*
X124840952Y-108672380D01*
X124698095Y-108720000D01*
X124650476Y-108767619D01*
X123936190Y-108672380D02*
X123936190Y-109386666D01*
X123983809Y-109529523D01*
X124079047Y-109624761D01*
X124221904Y-109672380D01*
X124317142Y-109672380D01*
X122983809Y-109672380D02*
X123460000Y-109672380D01*
X123460000Y-108672380D01*
X122079047Y-109577142D02*
X122126666Y-109624761D01*
X122269523Y-109672380D01*
X122364761Y-109672380D01*
X122507619Y-109624761D01*
X122602857Y-109529523D01*
X122650476Y-109434285D01*
X122698095Y-109243809D01*
X122698095Y-109100952D01*
X122650476Y-108910476D01*
X122602857Y-108815238D01*
X122507619Y-108720000D01*
X122364761Y-108672380D01*
X122269523Y-108672380D01*
X122126666Y-108720000D01*
X122079047Y-108767619D01*
X121364761Y-108672380D02*
X121364761Y-109386666D01*
X121412380Y-109529523D01*
X121507619Y-109624761D01*
X121650476Y-109672380D01*
X121745714Y-109672380D01*
X120412380Y-109672380D02*
X120888571Y-109672380D01*
X120888571Y-108672380D01*
X119507619Y-109577142D02*
X119555238Y-109624761D01*
X119698095Y-109672380D01*
X119793333Y-109672380D01*
X119936190Y-109624761D01*
X120031428Y-109529523D01*
X120079047Y-109434285D01*
X120126666Y-109243809D01*
X120126666Y-109100952D01*
X120079047Y-108910476D01*
X120031428Y-108815238D01*
X119936190Y-108720000D01*
X119793333Y-108672380D01*
X119698095Y-108672380D01*
X119555238Y-108720000D01*
X119507619Y-108767619D01*
D11*
X176720000Y-98980000D02*
X176564000Y-98980000D01*
X179036000Y-98980000D02*
X178880000Y-98980000D01*
X176720163Y-96378870D02*
G75*
G03*
X176720000Y-98460961I1079837J-1041130D01*
G01*
X178879837Y-96378870D02*
G75*
G02*
X178880000Y-98460961I-1079837J-1041130D01*
G01*
X176721392Y-95747665D02*
G75*
G03*
X176564484Y-98980000I1078608J-1672335D01*
G01*
X178878608Y-95747665D02*
G75*
G02*
X179035516Y-98980000I-1078608J-1672335D01*
G01*
X176720000Y-104880000D02*
X176564000Y-104880000D01*
X179036000Y-104880000D02*
X178880000Y-104880000D01*
X176720163Y-102278870D02*
G75*
G03*
X176720000Y-104360961I1079837J-1041130D01*
G01*
X178879837Y-102278870D02*
G75*
G02*
X178880000Y-104360961I-1079837J-1041130D01*
G01*
X176721392Y-101647665D02*
G75*
G03*
X176564484Y-104880000I1078608J-1672335D01*
G01*
X178878608Y-101647665D02*
G75*
G02*
X179035516Y-104880000I-1078608J-1672335D01*
G01*
X176720000Y-110780000D02*
X176564000Y-110780000D01*
X179036000Y-110780000D02*
X178880000Y-110780000D01*
X176720163Y-108178870D02*
G75*
G03*
X176720000Y-110260961I1079837J-1041130D01*
G01*
X178879837Y-108178870D02*
G75*
G02*
X178880000Y-110260961I-1079837J-1041130D01*
G01*
X176721392Y-107547665D02*
G75*
G03*
X176564484Y-110780000I1078608J-1672335D01*
G01*
X178878608Y-107547665D02*
G75*
G02*
X179035516Y-110780000I-1078608J-1672335D01*
G01*
D12*
X171010000Y-117100000D02*
X171010000Y-86100000D01*
X116010000Y-117100000D02*
X171010000Y-117100000D01*
X116010000Y-86100000D02*
X116010000Y-117100000D01*
X171010000Y-86100000D02*
X116010000Y-86100000D01*
D11*
X170180000Y-111570000D02*
X116840000Y-111570000D01*
X116840000Y-111570000D02*
X116840000Y-95570000D01*
X116840000Y-95570000D02*
X170180000Y-95570000D01*
X170180000Y-95570000D02*
X170180000Y-111570000D01*
D10*
X180307619Y-98158095D02*
X181307619Y-98158095D01*
X181307619Y-97920000D01*
X181260000Y-97777142D01*
X181164761Y-97681904D01*
X181069523Y-97634285D01*
X180879047Y-97586666D01*
X180736190Y-97586666D01*
X180545714Y-97634285D01*
X180450476Y-97681904D01*
X180355238Y-97777142D01*
X180307619Y-97920000D01*
X180307619Y-98158095D01*
X181307619Y-97253333D02*
X181307619Y-96634285D01*
X180926666Y-96967619D01*
X180926666Y-96824761D01*
X180879047Y-96729523D01*
X180831428Y-96681904D01*
X180736190Y-96634285D01*
X180498095Y-96634285D01*
X180402857Y-96681904D01*
X180355238Y-96729523D01*
X180307619Y-96824761D01*
X180307619Y-97110476D01*
X180355238Y-97205714D01*
X180402857Y-97253333D01*
X180307619Y-104058095D02*
X181307619Y-104058095D01*
X181307619Y-103820000D01*
X181260000Y-103677142D01*
X181164761Y-103581904D01*
X181069523Y-103534285D01*
X180879047Y-103486666D01*
X180736190Y-103486666D01*
X180545714Y-103534285D01*
X180450476Y-103581904D01*
X180355238Y-103677142D01*
X180307619Y-103820000D01*
X180307619Y-104058095D01*
X181212380Y-103105714D02*
X181260000Y-103058095D01*
X181307619Y-102962857D01*
X181307619Y-102724761D01*
X181260000Y-102629523D01*
X181212380Y-102581904D01*
X181117142Y-102534285D01*
X181021904Y-102534285D01*
X180879047Y-102581904D01*
X180307619Y-103153333D01*
X180307619Y-102534285D01*
X180307619Y-109958095D02*
X181307619Y-109958095D01*
X181307619Y-109720000D01*
X181260000Y-109577142D01*
X181164761Y-109481904D01*
X181069523Y-109434285D01*
X180879047Y-109386666D01*
X180736190Y-109386666D01*
X180545714Y-109434285D01*
X180450476Y-109481904D01*
X180355238Y-109577142D01*
X180307619Y-109720000D01*
X180307619Y-109958095D01*
X180307619Y-108434285D02*
X180307619Y-109005714D01*
X180307619Y-108720000D02*
X181307619Y-108720000D01*
X181164761Y-108815238D01*
X181069523Y-108910476D01*
X181021904Y-109005714D01*
D13*
X169182142Y-90744523D02*
X169182142Y-89474523D01*
X168879761Y-89474523D01*
X168698333Y-89535000D01*
X168577380Y-89655952D01*
X168516904Y-89776904D01*
X168456428Y-90018809D01*
X168456428Y-90200238D01*
X168516904Y-90442142D01*
X168577380Y-90563095D01*
X168698333Y-90684047D01*
X168879761Y-90744523D01*
X169182142Y-90744523D01*
X167972619Y-90684047D02*
X167791190Y-90744523D01*
X167488809Y-90744523D01*
X167367857Y-90684047D01*
X167307380Y-90623571D01*
X167246904Y-90502619D01*
X167246904Y-90381666D01*
X167307380Y-90260714D01*
X167367857Y-90200238D01*
X167488809Y-90139761D01*
X167730714Y-90079285D01*
X167851666Y-90018809D01*
X167912142Y-89958333D01*
X167972619Y-89837380D01*
X167972619Y-89716428D01*
X167912142Y-89595476D01*
X167851666Y-89535000D01*
X167730714Y-89474523D01*
X167428333Y-89474523D01*
X167246904Y-89535000D01*
X166037380Y-90744523D02*
X166763095Y-90744523D01*
X166400238Y-90744523D02*
X166400238Y-89474523D01*
X166521190Y-89655952D01*
X166642142Y-89776904D01*
X166763095Y-89837380D01*
%LPC*%
D14*
X184150000Y-115570000D03*
X176530000Y-88900000D03*
X110490000Y-106680000D03*
D15*
X177800000Y-96150000D03*
D16*
X177800000Y-98690000D03*
D15*
X177800000Y-102050000D03*
D16*
X177800000Y-104590000D03*
D15*
X177800000Y-107950000D03*
D16*
X177800000Y-110490000D03*
D17*
X156972000Y-119888000D03*
X159512000Y-119888000D03*
X162052000Y-119888000D03*
X164592000Y-119888000D03*
X167132000Y-119888000D03*
D18*
X169672000Y-119888000D03*
D19*
X177546000Y-119761000D03*
X176531000Y-114681000D03*
X178561000Y-114681000D03*
D20*
X175006000Y-116586000D03*
X180086000Y-116586000D03*
X180086000Y-119761000D03*
X175006000Y-119761000D03*
D21*
X112096000Y-120144000D03*
X112096000Y-111504000D03*
D22*
X111566000Y-112934000D03*
D23*
X107916000Y-111504000D03*
D22*
X111566000Y-118714000D03*
D23*
X107916000Y-120144000D03*
D24*
X131826000Y-116840000D03*
X129286000Y-116840000D03*
X126746000Y-116840000D03*
X124206000Y-116840000D03*
D25*
X183370000Y-97790000D03*
X183370000Y-100330000D03*
X183370000Y-102870000D03*
X183370000Y-105410000D03*
X153670000Y-105410000D03*
D18*
X153670000Y-97790000D03*
D25*
X153670000Y-100330000D03*
X153670000Y-102870000D03*
X183370000Y-107950000D03*
D26*
X167640000Y-115570000D03*
D27*
X165100000Y-115570000D03*
D26*
X121920000Y-115570000D03*
X119380000Y-115570000D03*
X119380000Y-87630000D03*
X121920000Y-87630000D03*
X124460000Y-87630000D03*
X127000000Y-87630000D03*
X129540000Y-87630000D03*
X132080000Y-87630000D03*
X134620000Y-87630000D03*
X137160000Y-87630000D03*
X139700000Y-87630000D03*
X142240000Y-87630000D03*
X144780000Y-87630000D03*
X147320000Y-87630000D03*
X149860000Y-87630000D03*
X152400000Y-87630000D03*
X154940000Y-87630000D03*
X157480000Y-87630000D03*
X160020000Y-87630000D03*
X162560000Y-87630000D03*
X165100000Y-87630000D03*
X167640000Y-87630000D03*
M02*
