G04 #@! TF.GenerationSoftware,KiCad,Pcbnew,(5.1.10)-1*
G04 #@! TF.CreationDate,2021-10-09T12:44:35+02:00*
G04 #@! TF.ProjectId,AirQualitySensor,41697251-7561-46c6-9974-7953656e736f,rev?*
G04 #@! TF.SameCoordinates,Original*
G04 #@! TF.FileFunction,Copper,L1,Top*
G04 #@! TF.FilePolarity,Positive*
%FSLAX46Y46*%
G04 Gerber Fmt 4.6, Leading zero omitted, Abs format (unit mm)*
G04 Created by KiCad (PCBNEW (5.1.10)-1) date 2021-10-09 12:44:35*
%MOMM*%
%LPD*%
G01*
G04 APERTURE LIST*
G04 #@! TA.AperFunction,ComponentPad*
%ADD10C,5.000000*%
G04 #@! TD*
G04 #@! TA.AperFunction,ComponentPad*
%ADD11C,1.800000*%
G04 #@! TD*
G04 #@! TA.AperFunction,ComponentPad*
%ADD12R,1.800000X1.800000*%
G04 #@! TD*
G04 #@! TA.AperFunction,ComponentPad*
%ADD13O,1.700000X1.700000*%
G04 #@! TD*
G04 #@! TA.AperFunction,ComponentPad*
%ADD14R,1.700000X1.700000*%
G04 #@! TD*
G04 #@! TA.AperFunction,SMDPad,CuDef*
%ADD15C,0.787000*%
G04 #@! TD*
G04 #@! TA.AperFunction,SMDPad,CuDef*
%ADD16R,0.800000X0.900000*%
G04 #@! TD*
G04 #@! TA.AperFunction,SMDPad,CuDef*
%ADD17R,1.450000X0.600000*%
G04 #@! TD*
G04 #@! TA.AperFunction,SMDPad,CuDef*
%ADD18R,1.450000X0.300000*%
G04 #@! TD*
G04 #@! TA.AperFunction,ComponentPad*
%ADD19O,2.100000X1.000000*%
G04 #@! TD*
G04 #@! TA.AperFunction,ComponentPad*
%ADD20O,1.600000X1.000000*%
G04 #@! TD*
G04 #@! TA.AperFunction,ComponentPad*
%ADD21C,1.524000*%
G04 #@! TD*
G04 #@! TA.AperFunction,ComponentPad*
%ADD22C,1.700000*%
G04 #@! TD*
G04 #@! TA.AperFunction,ComponentPad*
%ADD23C,1.337000*%
G04 #@! TD*
G04 #@! TA.AperFunction,ComponentPad*
%ADD24C,1.200000*%
G04 #@! TD*
G04 #@! TA.AperFunction,ViaPad*
%ADD25C,0.800000*%
G04 #@! TD*
G04 #@! TA.AperFunction,Conductor*
%ADD26C,0.500000*%
G04 #@! TD*
G04 #@! TA.AperFunction,Conductor*
%ADD27C,0.400000*%
G04 #@! TD*
G04 #@! TA.AperFunction,Conductor*
%ADD28C,0.250000*%
G04 #@! TD*
G04 #@! TA.AperFunction,Conductor*
%ADD29C,0.200000*%
G04 #@! TD*
G04 #@! TA.AperFunction,Conductor*
%ADD30C,0.770000*%
G04 #@! TD*
G04 APERTURE END LIST*
G04 #@! TA.AperFunction,SMDPad,CuDef*
G36*
G01*
X142436000Y-100949000D02*
X142806000Y-100949000D01*
G75*
G02*
X142941000Y-101084000I0J-135000D01*
G01*
X142941000Y-101354000D01*
G75*
G02*
X142806000Y-101489000I-135000J0D01*
G01*
X142436000Y-101489000D01*
G75*
G02*
X142301000Y-101354000I0J135000D01*
G01*
X142301000Y-101084000D01*
G75*
G02*
X142436000Y-100949000I135000J0D01*
G01*
G37*
G04 #@! TD.AperFunction*
G04 #@! TA.AperFunction,SMDPad,CuDef*
G36*
G01*
X142436000Y-99929000D02*
X142806000Y-99929000D01*
G75*
G02*
X142941000Y-100064000I0J-135000D01*
G01*
X142941000Y-100334000D01*
G75*
G02*
X142806000Y-100469000I-135000J0D01*
G01*
X142436000Y-100469000D01*
G75*
G02*
X142301000Y-100334000I0J135000D01*
G01*
X142301000Y-100064000D01*
G75*
G02*
X142436000Y-99929000I135000J0D01*
G01*
G37*
G04 #@! TD.AperFunction*
G04 #@! TA.AperFunction,SMDPad,CuDef*
G36*
G01*
X140150000Y-100949000D02*
X140520000Y-100949000D01*
G75*
G02*
X140655000Y-101084000I0J-135000D01*
G01*
X140655000Y-101354000D01*
G75*
G02*
X140520000Y-101489000I-135000J0D01*
G01*
X140150000Y-101489000D01*
G75*
G02*
X140015000Y-101354000I0J135000D01*
G01*
X140015000Y-101084000D01*
G75*
G02*
X140150000Y-100949000I135000J0D01*
G01*
G37*
G04 #@! TD.AperFunction*
G04 #@! TA.AperFunction,SMDPad,CuDef*
G36*
G01*
X140150000Y-99929000D02*
X140520000Y-99929000D01*
G75*
G02*
X140655000Y-100064000I0J-135000D01*
G01*
X140655000Y-100334000D01*
G75*
G02*
X140520000Y-100469000I-135000J0D01*
G01*
X140150000Y-100469000D01*
G75*
G02*
X140015000Y-100334000I0J135000D01*
G01*
X140015000Y-100064000D01*
G75*
G02*
X140150000Y-99929000I135000J0D01*
G01*
G37*
G04 #@! TD.AperFunction*
G04 #@! TA.AperFunction,SMDPad,CuDef*
G36*
G01*
X142164750Y-98367000D02*
X143077250Y-98367000D01*
G75*
G02*
X143321000Y-98610750I0J-243750D01*
G01*
X143321000Y-99098250D01*
G75*
G02*
X143077250Y-99342000I-243750J0D01*
G01*
X142164750Y-99342000D01*
G75*
G02*
X141921000Y-99098250I0J243750D01*
G01*
X141921000Y-98610750D01*
G75*
G02*
X142164750Y-98367000I243750J0D01*
G01*
G37*
G04 #@! TD.AperFunction*
G04 #@! TA.AperFunction,SMDPad,CuDef*
G36*
G01*
X142164750Y-96492000D02*
X143077250Y-96492000D01*
G75*
G02*
X143321000Y-96735750I0J-243750D01*
G01*
X143321000Y-97223250D01*
G75*
G02*
X143077250Y-97467000I-243750J0D01*
G01*
X142164750Y-97467000D01*
G75*
G02*
X141921000Y-97223250I0J243750D01*
G01*
X141921000Y-96735750D01*
G75*
G02*
X142164750Y-96492000I243750J0D01*
G01*
G37*
G04 #@! TD.AperFunction*
G04 #@! TA.AperFunction,SMDPad,CuDef*
G36*
G01*
X139878750Y-98367000D02*
X140791250Y-98367000D01*
G75*
G02*
X141035000Y-98610750I0J-243750D01*
G01*
X141035000Y-99098250D01*
G75*
G02*
X140791250Y-99342000I-243750J0D01*
G01*
X139878750Y-99342000D01*
G75*
G02*
X139635000Y-99098250I0J243750D01*
G01*
X139635000Y-98610750D01*
G75*
G02*
X139878750Y-98367000I243750J0D01*
G01*
G37*
G04 #@! TD.AperFunction*
G04 #@! TA.AperFunction,SMDPad,CuDef*
G36*
G01*
X139878750Y-96492000D02*
X140791250Y-96492000D01*
G75*
G02*
X141035000Y-96735750I0J-243750D01*
G01*
X141035000Y-97223250D01*
G75*
G02*
X140791250Y-97467000I-243750J0D01*
G01*
X139878750Y-97467000D01*
G75*
G02*
X139635000Y-97223250I0J243750D01*
G01*
X139635000Y-96735750D01*
G75*
G02*
X139878750Y-96492000I243750J0D01*
G01*
G37*
G04 #@! TD.AperFunction*
G04 #@! TA.AperFunction,SMDPad,CuDef*
G36*
G01*
X157212000Y-115501000D02*
X157212000Y-115131000D01*
G75*
G02*
X157347000Y-114996000I135000J0D01*
G01*
X157617000Y-114996000D01*
G75*
G02*
X157752000Y-115131000I0J-135000D01*
G01*
X157752000Y-115501000D01*
G75*
G02*
X157617000Y-115636000I-135000J0D01*
G01*
X157347000Y-115636000D01*
G75*
G02*
X157212000Y-115501000I0J135000D01*
G01*
G37*
G04 #@! TD.AperFunction*
G04 #@! TA.AperFunction,SMDPad,CuDef*
G36*
G01*
X156192000Y-115501000D02*
X156192000Y-115131000D01*
G75*
G02*
X156327000Y-114996000I135000J0D01*
G01*
X156597000Y-114996000D01*
G75*
G02*
X156732000Y-115131000I0J-135000D01*
G01*
X156732000Y-115501000D01*
G75*
G02*
X156597000Y-115636000I-135000J0D01*
G01*
X156327000Y-115636000D01*
G75*
G02*
X156192000Y-115501000I0J135000D01*
G01*
G37*
G04 #@! TD.AperFunction*
G04 #@! TA.AperFunction,SMDPad,CuDef*
G36*
G01*
X160262000Y-115501000D02*
X160262000Y-115131000D01*
G75*
G02*
X160397000Y-114996000I135000J0D01*
G01*
X160667000Y-114996000D01*
G75*
G02*
X160802000Y-115131000I0J-135000D01*
G01*
X160802000Y-115501000D01*
G75*
G02*
X160667000Y-115636000I-135000J0D01*
G01*
X160397000Y-115636000D01*
G75*
G02*
X160262000Y-115501000I0J135000D01*
G01*
G37*
G04 #@! TD.AperFunction*
G04 #@! TA.AperFunction,SMDPad,CuDef*
G36*
G01*
X159242000Y-115501000D02*
X159242000Y-115131000D01*
G75*
G02*
X159377000Y-114996000I135000J0D01*
G01*
X159647000Y-114996000D01*
G75*
G02*
X159782000Y-115131000I0J-135000D01*
G01*
X159782000Y-115501000D01*
G75*
G02*
X159647000Y-115636000I-135000J0D01*
G01*
X159377000Y-115636000D01*
G75*
G02*
X159242000Y-115501000I0J135000D01*
G01*
G37*
G04 #@! TD.AperFunction*
D10*
X184150000Y-115570000D03*
X176530000Y-88900000D03*
X110490000Y-106680000D03*
G04 #@! TA.AperFunction,SMDPad,CuDef*
G36*
G01*
X147135000Y-98792000D02*
X147505000Y-98792000D01*
G75*
G02*
X147640000Y-98927000I0J-135000D01*
G01*
X147640000Y-99197000D01*
G75*
G02*
X147505000Y-99332000I-135000J0D01*
G01*
X147135000Y-99332000D01*
G75*
G02*
X147000000Y-99197000I0J135000D01*
G01*
X147000000Y-98927000D01*
G75*
G02*
X147135000Y-98792000I135000J0D01*
G01*
G37*
G04 #@! TD.AperFunction*
G04 #@! TA.AperFunction,SMDPad,CuDef*
G36*
G01*
X147135000Y-97772000D02*
X147505000Y-97772000D01*
G75*
G02*
X147640000Y-97907000I0J-135000D01*
G01*
X147640000Y-98177000D01*
G75*
G02*
X147505000Y-98312000I-135000J0D01*
G01*
X147135000Y-98312000D01*
G75*
G02*
X147000000Y-98177000I0J135000D01*
G01*
X147000000Y-97907000D01*
G75*
G02*
X147135000Y-97772000I135000J0D01*
G01*
G37*
G04 #@! TD.AperFunction*
G04 #@! TA.AperFunction,SMDPad,CuDef*
G36*
G01*
X148659000Y-98792000D02*
X149029000Y-98792000D01*
G75*
G02*
X149164000Y-98927000I0J-135000D01*
G01*
X149164000Y-99197000D01*
G75*
G02*
X149029000Y-99332000I-135000J0D01*
G01*
X148659000Y-99332000D01*
G75*
G02*
X148524000Y-99197000I0J135000D01*
G01*
X148524000Y-98927000D01*
G75*
G02*
X148659000Y-98792000I135000J0D01*
G01*
G37*
G04 #@! TD.AperFunction*
G04 #@! TA.AperFunction,SMDPad,CuDef*
G36*
G01*
X148659000Y-97772000D02*
X149029000Y-97772000D01*
G75*
G02*
X149164000Y-97907000I0J-135000D01*
G01*
X149164000Y-98177000D01*
G75*
G02*
X149029000Y-98312000I-135000J0D01*
G01*
X148659000Y-98312000D01*
G75*
G02*
X148524000Y-98177000I0J135000D01*
G01*
X148524000Y-97907000D01*
G75*
G02*
X148659000Y-97772000I135000J0D01*
G01*
G37*
G04 #@! TD.AperFunction*
G04 #@! TA.AperFunction,SMDPad,CuDef*
G36*
G01*
X150183000Y-98792000D02*
X150553000Y-98792000D01*
G75*
G02*
X150688000Y-98927000I0J-135000D01*
G01*
X150688000Y-99197000D01*
G75*
G02*
X150553000Y-99332000I-135000J0D01*
G01*
X150183000Y-99332000D01*
G75*
G02*
X150048000Y-99197000I0J135000D01*
G01*
X150048000Y-98927000D01*
G75*
G02*
X150183000Y-98792000I135000J0D01*
G01*
G37*
G04 #@! TD.AperFunction*
G04 #@! TA.AperFunction,SMDPad,CuDef*
G36*
G01*
X150183000Y-97772000D02*
X150553000Y-97772000D01*
G75*
G02*
X150688000Y-97907000I0J-135000D01*
G01*
X150688000Y-98177000D01*
G75*
G02*
X150553000Y-98312000I-135000J0D01*
G01*
X150183000Y-98312000D01*
G75*
G02*
X150048000Y-98177000I0J135000D01*
G01*
X150048000Y-97907000D01*
G75*
G02*
X150183000Y-97772000I135000J0D01*
G01*
G37*
G04 #@! TD.AperFunction*
D11*
X177800000Y-96150000D03*
D12*
X177800000Y-98690000D03*
D11*
X177800000Y-102050000D03*
D12*
X177800000Y-104590000D03*
D11*
X177800000Y-107950000D03*
D12*
X177800000Y-110490000D03*
G04 #@! TA.AperFunction,SMDPad,CuDef*
G36*
G01*
X150930000Y-88984000D02*
X150930000Y-89324000D01*
G75*
G02*
X150790000Y-89464000I-140000J0D01*
G01*
X150510000Y-89464000D01*
G75*
G02*
X150370000Y-89324000I0J140000D01*
G01*
X150370000Y-88984000D01*
G75*
G02*
X150510000Y-88844000I140000J0D01*
G01*
X150790000Y-88844000D01*
G75*
G02*
X150930000Y-88984000I0J-140000D01*
G01*
G37*
G04 #@! TD.AperFunction*
G04 #@! TA.AperFunction,SMDPad,CuDef*
G36*
G01*
X151890000Y-88984000D02*
X151890000Y-89324000D01*
G75*
G02*
X151750000Y-89464000I-140000J0D01*
G01*
X151470000Y-89464000D01*
G75*
G02*
X151330000Y-89324000I0J140000D01*
G01*
X151330000Y-88984000D01*
G75*
G02*
X151470000Y-88844000I140000J0D01*
G01*
X151750000Y-88844000D01*
G75*
G02*
X151890000Y-88984000I0J-140000D01*
G01*
G37*
G04 #@! TD.AperFunction*
D13*
X156972000Y-119888000D03*
X159512000Y-119888000D03*
X162052000Y-119888000D03*
X164592000Y-119888000D03*
X167132000Y-119888000D03*
D14*
X169672000Y-119888000D03*
D15*
X178181000Y-118491000D03*
X178181000Y-117221000D03*
X178181000Y-115951000D03*
X176911000Y-115951000D03*
X176911000Y-117221000D03*
X176911000Y-118491000D03*
G04 #@! TA.AperFunction,SMDPad,CuDef*
G36*
G01*
X116894000Y-89238000D02*
X116894000Y-89578000D01*
G75*
G02*
X116754000Y-89718000I-140000J0D01*
G01*
X116474000Y-89718000D01*
G75*
G02*
X116334000Y-89578000I0J140000D01*
G01*
X116334000Y-89238000D01*
G75*
G02*
X116474000Y-89098000I140000J0D01*
G01*
X116754000Y-89098000D01*
G75*
G02*
X116894000Y-89238000I0J-140000D01*
G01*
G37*
G04 #@! TD.AperFunction*
G04 #@! TA.AperFunction,SMDPad,CuDef*
G36*
G01*
X117854000Y-89238000D02*
X117854000Y-89578000D01*
G75*
G02*
X117714000Y-89718000I-140000J0D01*
G01*
X117434000Y-89718000D01*
G75*
G02*
X117294000Y-89578000I0J140000D01*
G01*
X117294000Y-89238000D01*
G75*
G02*
X117434000Y-89098000I140000J0D01*
G01*
X117714000Y-89098000D01*
G75*
G02*
X117854000Y-89238000I0J-140000D01*
G01*
G37*
G04 #@! TD.AperFunction*
G04 #@! TA.AperFunction,SMDPad,CuDef*
G36*
G01*
X147628000Y-88984000D02*
X147628000Y-89324000D01*
G75*
G02*
X147488000Y-89464000I-140000J0D01*
G01*
X147208000Y-89464000D01*
G75*
G02*
X147068000Y-89324000I0J140000D01*
G01*
X147068000Y-88984000D01*
G75*
G02*
X147208000Y-88844000I140000J0D01*
G01*
X147488000Y-88844000D01*
G75*
G02*
X147628000Y-88984000I0J-140000D01*
G01*
G37*
G04 #@! TD.AperFunction*
G04 #@! TA.AperFunction,SMDPad,CuDef*
G36*
G01*
X148588000Y-88984000D02*
X148588000Y-89324000D01*
G75*
G02*
X148448000Y-89464000I-140000J0D01*
G01*
X148168000Y-89464000D01*
G75*
G02*
X148028000Y-89324000I0J140000D01*
G01*
X148028000Y-88984000D01*
G75*
G02*
X148168000Y-88844000I140000J0D01*
G01*
X148448000Y-88844000D01*
G75*
G02*
X148588000Y-88984000I0J-140000D01*
G01*
G37*
G04 #@! TD.AperFunction*
G04 #@! TA.AperFunction,SMDPad,CuDef*
G36*
G01*
X116894000Y-90508000D02*
X116894000Y-90848000D01*
G75*
G02*
X116754000Y-90988000I-140000J0D01*
G01*
X116474000Y-90988000D01*
G75*
G02*
X116334000Y-90848000I0J140000D01*
G01*
X116334000Y-90508000D01*
G75*
G02*
X116474000Y-90368000I140000J0D01*
G01*
X116754000Y-90368000D01*
G75*
G02*
X116894000Y-90508000I0J-140000D01*
G01*
G37*
G04 #@! TD.AperFunction*
G04 #@! TA.AperFunction,SMDPad,CuDef*
G36*
G01*
X117854000Y-90508000D02*
X117854000Y-90848000D01*
G75*
G02*
X117714000Y-90988000I-140000J0D01*
G01*
X117434000Y-90988000D01*
G75*
G02*
X117294000Y-90848000I0J140000D01*
G01*
X117294000Y-90508000D01*
G75*
G02*
X117434000Y-90368000I140000J0D01*
G01*
X117714000Y-90368000D01*
G75*
G02*
X117854000Y-90508000I0J-140000D01*
G01*
G37*
G04 #@! TD.AperFunction*
G04 #@! TA.AperFunction,SMDPad,CuDef*
G36*
G01*
X116894000Y-91778000D02*
X116894000Y-92118000D01*
G75*
G02*
X116754000Y-92258000I-140000J0D01*
G01*
X116474000Y-92258000D01*
G75*
G02*
X116334000Y-92118000I0J140000D01*
G01*
X116334000Y-91778000D01*
G75*
G02*
X116474000Y-91638000I140000J0D01*
G01*
X116754000Y-91638000D01*
G75*
G02*
X116894000Y-91778000I0J-140000D01*
G01*
G37*
G04 #@! TD.AperFunction*
G04 #@! TA.AperFunction,SMDPad,CuDef*
G36*
G01*
X117854000Y-91778000D02*
X117854000Y-92118000D01*
G75*
G02*
X117714000Y-92258000I-140000J0D01*
G01*
X117434000Y-92258000D01*
G75*
G02*
X117294000Y-92118000I0J140000D01*
G01*
X117294000Y-91778000D01*
G75*
G02*
X117434000Y-91638000I140000J0D01*
G01*
X117714000Y-91638000D01*
G75*
G02*
X117854000Y-91778000I0J-140000D01*
G01*
G37*
G04 #@! TD.AperFunction*
G04 #@! TA.AperFunction,SMDPad,CuDef*
G36*
G01*
X140798000Y-88984000D02*
X140798000Y-89324000D01*
G75*
G02*
X140658000Y-89464000I-140000J0D01*
G01*
X140378000Y-89464000D01*
G75*
G02*
X140238000Y-89324000I0J140000D01*
G01*
X140238000Y-88984000D01*
G75*
G02*
X140378000Y-88844000I140000J0D01*
G01*
X140658000Y-88844000D01*
G75*
G02*
X140798000Y-88984000I0J-140000D01*
G01*
G37*
G04 #@! TD.AperFunction*
G04 #@! TA.AperFunction,SMDPad,CuDef*
G36*
G01*
X141758000Y-88984000D02*
X141758000Y-89324000D01*
G75*
G02*
X141618000Y-89464000I-140000J0D01*
G01*
X141338000Y-89464000D01*
G75*
G02*
X141198000Y-89324000I0J140000D01*
G01*
X141198000Y-88984000D01*
G75*
G02*
X141338000Y-88844000I140000J0D01*
G01*
X141618000Y-88844000D01*
G75*
G02*
X141758000Y-88984000I0J-140000D01*
G01*
G37*
G04 #@! TD.AperFunction*
G04 #@! TA.AperFunction,SMDPad,CuDef*
G36*
G01*
X116894000Y-93048000D02*
X116894000Y-93388000D01*
G75*
G02*
X116754000Y-93528000I-140000J0D01*
G01*
X116474000Y-93528000D01*
G75*
G02*
X116334000Y-93388000I0J140000D01*
G01*
X116334000Y-93048000D01*
G75*
G02*
X116474000Y-92908000I140000J0D01*
G01*
X116754000Y-92908000D01*
G75*
G02*
X116894000Y-93048000I0J-140000D01*
G01*
G37*
G04 #@! TD.AperFunction*
G04 #@! TA.AperFunction,SMDPad,CuDef*
G36*
G01*
X117854000Y-93048000D02*
X117854000Y-93388000D01*
G75*
G02*
X117714000Y-93528000I-140000J0D01*
G01*
X117434000Y-93528000D01*
G75*
G02*
X117294000Y-93388000I0J140000D01*
G01*
X117294000Y-93048000D01*
G75*
G02*
X117434000Y-92908000I140000J0D01*
G01*
X117714000Y-92908000D01*
G75*
G02*
X117854000Y-93048000I0J-140000D01*
G01*
G37*
G04 #@! TD.AperFunction*
G04 #@! TA.AperFunction,SMDPad,CuDef*
G36*
G01*
X136650000Y-88984000D02*
X136650000Y-89324000D01*
G75*
G02*
X136510000Y-89464000I-140000J0D01*
G01*
X136230000Y-89464000D01*
G75*
G02*
X136090000Y-89324000I0J140000D01*
G01*
X136090000Y-88984000D01*
G75*
G02*
X136230000Y-88844000I140000J0D01*
G01*
X136510000Y-88844000D01*
G75*
G02*
X136650000Y-88984000I0J-140000D01*
G01*
G37*
G04 #@! TD.AperFunction*
G04 #@! TA.AperFunction,SMDPad,CuDef*
G36*
G01*
X135690000Y-88984000D02*
X135690000Y-89324000D01*
G75*
G02*
X135550000Y-89464000I-140000J0D01*
G01*
X135270000Y-89464000D01*
G75*
G02*
X135130000Y-89324000I0J140000D01*
G01*
X135130000Y-88984000D01*
G75*
G02*
X135270000Y-88844000I140000J0D01*
G01*
X135550000Y-88844000D01*
G75*
G02*
X135690000Y-88984000I0J-140000D01*
G01*
G37*
G04 #@! TD.AperFunction*
G04 #@! TA.AperFunction,SMDPad,CuDef*
G36*
G01*
X116894000Y-94318000D02*
X116894000Y-94658000D01*
G75*
G02*
X116754000Y-94798000I-140000J0D01*
G01*
X116474000Y-94798000D01*
G75*
G02*
X116334000Y-94658000I0J140000D01*
G01*
X116334000Y-94318000D01*
G75*
G02*
X116474000Y-94178000I140000J0D01*
G01*
X116754000Y-94178000D01*
G75*
G02*
X116894000Y-94318000I0J-140000D01*
G01*
G37*
G04 #@! TD.AperFunction*
G04 #@! TA.AperFunction,SMDPad,CuDef*
G36*
G01*
X117854000Y-94318000D02*
X117854000Y-94658000D01*
G75*
G02*
X117714000Y-94798000I-140000J0D01*
G01*
X117434000Y-94798000D01*
G75*
G02*
X117294000Y-94658000I0J140000D01*
G01*
X117294000Y-94318000D01*
G75*
G02*
X117434000Y-94178000I140000J0D01*
G01*
X117714000Y-94178000D01*
G75*
G02*
X117854000Y-94318000I0J-140000D01*
G01*
G37*
G04 #@! TD.AperFunction*
G04 #@! TA.AperFunction,SMDPad,CuDef*
G36*
G01*
X134297000Y-115584000D02*
X133927000Y-115584000D01*
G75*
G02*
X133792000Y-115449000I0J135000D01*
G01*
X133792000Y-115179000D01*
G75*
G02*
X133927000Y-115044000I135000J0D01*
G01*
X134297000Y-115044000D01*
G75*
G02*
X134432000Y-115179000I0J-135000D01*
G01*
X134432000Y-115449000D01*
G75*
G02*
X134297000Y-115584000I-135000J0D01*
G01*
G37*
G04 #@! TD.AperFunction*
G04 #@! TA.AperFunction,SMDPad,CuDef*
G36*
G01*
X134297000Y-116604000D02*
X133927000Y-116604000D01*
G75*
G02*
X133792000Y-116469000I0J135000D01*
G01*
X133792000Y-116199000D01*
G75*
G02*
X133927000Y-116064000I135000J0D01*
G01*
X134297000Y-116064000D01*
G75*
G02*
X134432000Y-116199000I0J-135000D01*
G01*
X134432000Y-116469000D01*
G75*
G02*
X134297000Y-116604000I-135000J0D01*
G01*
G37*
G04 #@! TD.AperFunction*
G04 #@! TA.AperFunction,SMDPad,CuDef*
G36*
G01*
X186450000Y-100145000D02*
X186450000Y-100515000D01*
G75*
G02*
X186315000Y-100650000I-135000J0D01*
G01*
X186045000Y-100650000D01*
G75*
G02*
X185910000Y-100515000I0J135000D01*
G01*
X185910000Y-100145000D01*
G75*
G02*
X186045000Y-100010000I135000J0D01*
G01*
X186315000Y-100010000D01*
G75*
G02*
X186450000Y-100145000I0J-135000D01*
G01*
G37*
G04 #@! TD.AperFunction*
G04 #@! TA.AperFunction,SMDPad,CuDef*
G36*
G01*
X187470000Y-100145000D02*
X187470000Y-100515000D01*
G75*
G02*
X187335000Y-100650000I-135000J0D01*
G01*
X187065000Y-100650000D01*
G75*
G02*
X186930000Y-100515000I0J135000D01*
G01*
X186930000Y-100145000D01*
G75*
G02*
X187065000Y-100010000I135000J0D01*
G01*
X187335000Y-100010000D01*
G75*
G02*
X187470000Y-100145000I0J-135000D01*
G01*
G37*
G04 #@! TD.AperFunction*
G04 #@! TA.AperFunction,SMDPad,CuDef*
G36*
G01*
X186450000Y-102685000D02*
X186450000Y-103055000D01*
G75*
G02*
X186315000Y-103190000I-135000J0D01*
G01*
X186045000Y-103190000D01*
G75*
G02*
X185910000Y-103055000I0J135000D01*
G01*
X185910000Y-102685000D01*
G75*
G02*
X186045000Y-102550000I135000J0D01*
G01*
X186315000Y-102550000D01*
G75*
G02*
X186450000Y-102685000I0J-135000D01*
G01*
G37*
G04 #@! TD.AperFunction*
G04 #@! TA.AperFunction,SMDPad,CuDef*
G36*
G01*
X187470000Y-102685000D02*
X187470000Y-103055000D01*
G75*
G02*
X187335000Y-103190000I-135000J0D01*
G01*
X187065000Y-103190000D01*
G75*
G02*
X186930000Y-103055000I0J135000D01*
G01*
X186930000Y-102685000D01*
G75*
G02*
X187065000Y-102550000I135000J0D01*
G01*
X187335000Y-102550000D01*
G75*
G02*
X187470000Y-102685000I0J-135000D01*
G01*
G37*
G04 #@! TD.AperFunction*
G04 #@! TA.AperFunction,SMDPad,CuDef*
G36*
G01*
X150168000Y-102192000D02*
X150168000Y-102532000D01*
G75*
G02*
X150028000Y-102672000I-140000J0D01*
G01*
X149748000Y-102672000D01*
G75*
G02*
X149608000Y-102532000I0J140000D01*
G01*
X149608000Y-102192000D01*
G75*
G02*
X149748000Y-102052000I140000J0D01*
G01*
X150028000Y-102052000D01*
G75*
G02*
X150168000Y-102192000I0J-140000D01*
G01*
G37*
G04 #@! TD.AperFunction*
G04 #@! TA.AperFunction,SMDPad,CuDef*
G36*
G01*
X151128000Y-102192000D02*
X151128000Y-102532000D01*
G75*
G02*
X150988000Y-102672000I-140000J0D01*
G01*
X150708000Y-102672000D01*
G75*
G02*
X150568000Y-102532000I0J140000D01*
G01*
X150568000Y-102192000D01*
G75*
G02*
X150708000Y-102052000I140000J0D01*
G01*
X150988000Y-102052000D01*
G75*
G02*
X151128000Y-102192000I0J-140000D01*
G01*
G37*
G04 #@! TD.AperFunction*
D16*
X110871000Y-100187000D03*
X109921000Y-98187000D03*
X111821000Y-98187000D03*
G04 #@! TA.AperFunction,SMDPad,CuDef*
G36*
G01*
X118858000Y-120327000D02*
X118858000Y-119957000D01*
G75*
G02*
X118993000Y-119822000I135000J0D01*
G01*
X119263000Y-119822000D01*
G75*
G02*
X119398000Y-119957000I0J-135000D01*
G01*
X119398000Y-120327000D01*
G75*
G02*
X119263000Y-120462000I-135000J0D01*
G01*
X118993000Y-120462000D01*
G75*
G02*
X118858000Y-120327000I0J135000D01*
G01*
G37*
G04 #@! TD.AperFunction*
G04 #@! TA.AperFunction,SMDPad,CuDef*
G36*
G01*
X117838000Y-120327000D02*
X117838000Y-119957000D01*
G75*
G02*
X117973000Y-119822000I135000J0D01*
G01*
X118243000Y-119822000D01*
G75*
G02*
X118378000Y-119957000I0J-135000D01*
G01*
X118378000Y-120327000D01*
G75*
G02*
X118243000Y-120462000I-135000J0D01*
G01*
X117973000Y-120462000D01*
G75*
G02*
X117838000Y-120327000I0J135000D01*
G01*
G37*
G04 #@! TD.AperFunction*
G04 #@! TA.AperFunction,SMDPad,CuDef*
G36*
G01*
X115302000Y-110167000D02*
X115302000Y-109797000D01*
G75*
G02*
X115437000Y-109662000I135000J0D01*
G01*
X115707000Y-109662000D01*
G75*
G02*
X115842000Y-109797000I0J-135000D01*
G01*
X115842000Y-110167000D01*
G75*
G02*
X115707000Y-110302000I-135000J0D01*
G01*
X115437000Y-110302000D01*
G75*
G02*
X115302000Y-110167000I0J135000D01*
G01*
G37*
G04 #@! TD.AperFunction*
G04 #@! TA.AperFunction,SMDPad,CuDef*
G36*
G01*
X114282000Y-110167000D02*
X114282000Y-109797000D01*
G75*
G02*
X114417000Y-109662000I135000J0D01*
G01*
X114687000Y-109662000D01*
G75*
G02*
X114822000Y-109797000I0J-135000D01*
G01*
X114822000Y-110167000D01*
G75*
G02*
X114687000Y-110302000I-135000J0D01*
G01*
X114417000Y-110302000D01*
G75*
G02*
X114282000Y-110167000I0J135000D01*
G01*
G37*
G04 #@! TD.AperFunction*
D17*
X113011000Y-119074000D03*
X113011000Y-118274000D03*
X113011000Y-113374000D03*
X113011000Y-112574000D03*
X113011000Y-112574000D03*
X113011000Y-113374000D03*
X113011000Y-118274000D03*
X113011000Y-119074000D03*
D18*
X113011000Y-114074000D03*
X113011000Y-114574000D03*
X113011000Y-115074000D03*
X113011000Y-116074000D03*
X113011000Y-116574000D03*
X113011000Y-117074000D03*
X113011000Y-117574000D03*
X113011000Y-115574000D03*
D19*
X112096000Y-120144000D03*
X112096000Y-111504000D03*
D20*
X107916000Y-111504000D03*
X107916000Y-120144000D03*
G04 #@! TA.AperFunction,SMDPad,CuDef*
G36*
G01*
X113154750Y-102864500D02*
X113667250Y-102864500D01*
G75*
G02*
X113886000Y-103083250I0J-218750D01*
G01*
X113886000Y-103520750D01*
G75*
G02*
X113667250Y-103739500I-218750J0D01*
G01*
X113154750Y-103739500D01*
G75*
G02*
X112936000Y-103520750I0J218750D01*
G01*
X112936000Y-103083250D01*
G75*
G02*
X113154750Y-102864500I218750J0D01*
G01*
G37*
G04 #@! TD.AperFunction*
G04 #@! TA.AperFunction,SMDPad,CuDef*
G36*
G01*
X113154750Y-101289500D02*
X113667250Y-101289500D01*
G75*
G02*
X113886000Y-101508250I0J-218750D01*
G01*
X113886000Y-101945750D01*
G75*
G02*
X113667250Y-102164500I-218750J0D01*
G01*
X113154750Y-102164500D01*
G75*
G02*
X112936000Y-101945750I0J218750D01*
G01*
X112936000Y-101508250D01*
G75*
G02*
X113154750Y-101289500I218750J0D01*
G01*
G37*
G04 #@! TD.AperFunction*
G04 #@! TA.AperFunction,SMDPad,CuDef*
G36*
G01*
X121663750Y-120238000D02*
X122176250Y-120238000D01*
G75*
G02*
X122395000Y-120456750I0J-218750D01*
G01*
X122395000Y-120894250D01*
G75*
G02*
X122176250Y-121113000I-218750J0D01*
G01*
X121663750Y-121113000D01*
G75*
G02*
X121445000Y-120894250I0J218750D01*
G01*
X121445000Y-120456750D01*
G75*
G02*
X121663750Y-120238000I218750J0D01*
G01*
G37*
G04 #@! TD.AperFunction*
G04 #@! TA.AperFunction,SMDPad,CuDef*
G36*
G01*
X121663750Y-118663000D02*
X122176250Y-118663000D01*
G75*
G02*
X122395000Y-118881750I0J-218750D01*
G01*
X122395000Y-119319250D01*
G75*
G02*
X122176250Y-119538000I-218750J0D01*
G01*
X121663750Y-119538000D01*
G75*
G02*
X121445000Y-119319250I0J218750D01*
G01*
X121445000Y-118881750D01*
G75*
G02*
X121663750Y-118663000I218750J0D01*
G01*
G37*
G04 #@! TD.AperFunction*
G04 #@! TA.AperFunction,SMDPad,CuDef*
G36*
G01*
X110686000Y-94492000D02*
X110686000Y-94992000D01*
G75*
G02*
X110461000Y-95217000I-225000J0D01*
G01*
X110011000Y-95217000D01*
G75*
G02*
X109786000Y-94992000I0J225000D01*
G01*
X109786000Y-94492000D01*
G75*
G02*
X110011000Y-94267000I225000J0D01*
G01*
X110461000Y-94267000D01*
G75*
G02*
X110686000Y-94492000I0J-225000D01*
G01*
G37*
G04 #@! TD.AperFunction*
G04 #@! TA.AperFunction,SMDPad,CuDef*
G36*
G01*
X112236000Y-94492000D02*
X112236000Y-94992000D01*
G75*
G02*
X112011000Y-95217000I-225000J0D01*
G01*
X111561000Y-95217000D01*
G75*
G02*
X111336000Y-94992000I0J225000D01*
G01*
X111336000Y-94492000D01*
G75*
G02*
X111561000Y-94267000I225000J0D01*
G01*
X112011000Y-94267000D01*
G75*
G02*
X112236000Y-94492000I0J-225000D01*
G01*
G37*
G04 #@! TD.AperFunction*
G04 #@! TA.AperFunction,SMDPad,CuDef*
G36*
G01*
X125788000Y-119884000D02*
X125788000Y-119384000D01*
G75*
G02*
X126013000Y-119159000I225000J0D01*
G01*
X126463000Y-119159000D01*
G75*
G02*
X126688000Y-119384000I0J-225000D01*
G01*
X126688000Y-119884000D01*
G75*
G02*
X126463000Y-120109000I-225000J0D01*
G01*
X126013000Y-120109000D01*
G75*
G02*
X125788000Y-119884000I0J225000D01*
G01*
G37*
G04 #@! TD.AperFunction*
G04 #@! TA.AperFunction,SMDPad,CuDef*
G36*
G01*
X124238000Y-119884000D02*
X124238000Y-119384000D01*
G75*
G02*
X124463000Y-119159000I225000J0D01*
G01*
X124913000Y-119159000D01*
G75*
G02*
X125138000Y-119384000I0J-225000D01*
G01*
X125138000Y-119884000D01*
G75*
G02*
X124913000Y-120109000I-225000J0D01*
G01*
X124463000Y-120109000D01*
G75*
G02*
X124238000Y-119884000I0J225000D01*
G01*
G37*
G04 #@! TD.AperFunction*
G04 #@! TA.AperFunction,SMDPad,CuDef*
G36*
G01*
X110686000Y-96397000D02*
X110686000Y-96897000D01*
G75*
G02*
X110461000Y-97122000I-225000J0D01*
G01*
X110011000Y-97122000D01*
G75*
G02*
X109786000Y-96897000I0J225000D01*
G01*
X109786000Y-96397000D01*
G75*
G02*
X110011000Y-96172000I225000J0D01*
G01*
X110461000Y-96172000D01*
G75*
G02*
X110686000Y-96397000I0J-225000D01*
G01*
G37*
G04 #@! TD.AperFunction*
G04 #@! TA.AperFunction,SMDPad,CuDef*
G36*
G01*
X112236000Y-96397000D02*
X112236000Y-96897000D01*
G75*
G02*
X112011000Y-97122000I-225000J0D01*
G01*
X111561000Y-97122000D01*
G75*
G02*
X111336000Y-96897000I0J225000D01*
G01*
X111336000Y-96397000D01*
G75*
G02*
X111561000Y-96172000I225000J0D01*
G01*
X112011000Y-96172000D01*
G75*
G02*
X112236000Y-96397000I0J-225000D01*
G01*
G37*
G04 #@! TD.AperFunction*
G04 #@! TA.AperFunction,SMDPad,CuDef*
G36*
G01*
X113161000Y-99372000D02*
X113661000Y-99372000D01*
G75*
G02*
X113886000Y-99597000I0J-225000D01*
G01*
X113886000Y-100047000D01*
G75*
G02*
X113661000Y-100272000I-225000J0D01*
G01*
X113161000Y-100272000D01*
G75*
G02*
X112936000Y-100047000I0J225000D01*
G01*
X112936000Y-99597000D01*
G75*
G02*
X113161000Y-99372000I225000J0D01*
G01*
G37*
G04 #@! TD.AperFunction*
G04 #@! TA.AperFunction,SMDPad,CuDef*
G36*
G01*
X113161000Y-97822000D02*
X113661000Y-97822000D01*
G75*
G02*
X113886000Y-98047000I0J-225000D01*
G01*
X113886000Y-98497000D01*
G75*
G02*
X113661000Y-98722000I-225000J0D01*
G01*
X113161000Y-98722000D01*
G75*
G02*
X112936000Y-98497000I0J225000D01*
G01*
X112936000Y-98047000D01*
G75*
G02*
X113161000Y-97822000I225000J0D01*
G01*
G37*
G04 #@! TD.AperFunction*
D21*
X131826000Y-116840000D03*
X129286000Y-116840000D03*
X126746000Y-116840000D03*
X124206000Y-116840000D03*
D22*
X183370000Y-97790000D03*
X183370000Y-100330000D03*
X183370000Y-102870000D03*
X183370000Y-105410000D03*
X153670000Y-105410000D03*
D14*
X153670000Y-97790000D03*
D22*
X153670000Y-100330000D03*
X153670000Y-102870000D03*
X183370000Y-107950000D03*
D23*
X167640000Y-115570000D03*
D24*
X165100000Y-115570000D03*
D23*
X121920000Y-115570000D03*
X119380000Y-115570000D03*
X119380000Y-87630000D03*
X121920000Y-87630000D03*
X124460000Y-87630000D03*
X127000000Y-87630000D03*
X129540000Y-87630000D03*
X132080000Y-87630000D03*
X134620000Y-87630000D03*
X137160000Y-87630000D03*
X139700000Y-87630000D03*
X142240000Y-87630000D03*
X144780000Y-87630000D03*
X147320000Y-87630000D03*
X149860000Y-87630000D03*
X152400000Y-87630000D03*
X154940000Y-87630000D03*
X157480000Y-87630000D03*
X160020000Y-87630000D03*
X162560000Y-87630000D03*
X165100000Y-87630000D03*
X167640000Y-87630000D03*
G04 #@! TA.AperFunction,SMDPad,CuDef*
G36*
G01*
X138604500Y-103149000D02*
X138939500Y-103149000D01*
G75*
G02*
X139107000Y-103316500I0J-167500D01*
G01*
X139107000Y-104511500D01*
G75*
G02*
X138939500Y-104679000I-167500J0D01*
G01*
X138604500Y-104679000D01*
G75*
G02*
X138437000Y-104511500I0J167500D01*
G01*
X138437000Y-103316500D01*
G75*
G02*
X138604500Y-103149000I167500J0D01*
G01*
G37*
G04 #@! TD.AperFunction*
G04 #@! TA.AperFunction,SMDPad,CuDef*
G36*
G01*
X139704500Y-103149000D02*
X140039500Y-103149000D01*
G75*
G02*
X140207000Y-103316500I0J-167500D01*
G01*
X140207000Y-104511500D01*
G75*
G02*
X140039500Y-104679000I-167500J0D01*
G01*
X139704500Y-104679000D01*
G75*
G02*
X139537000Y-104511500I0J167500D01*
G01*
X139537000Y-103316500D01*
G75*
G02*
X139704500Y-103149000I167500J0D01*
G01*
G37*
G04 #@! TD.AperFunction*
G04 #@! TA.AperFunction,SMDPad,CuDef*
G36*
G01*
X140804500Y-103149000D02*
X141139500Y-103149000D01*
G75*
G02*
X141307000Y-103316500I0J-167500D01*
G01*
X141307000Y-104511500D01*
G75*
G02*
X141139500Y-104679000I-167500J0D01*
G01*
X140804500Y-104679000D01*
G75*
G02*
X140637000Y-104511500I0J167500D01*
G01*
X140637000Y-103316500D01*
G75*
G02*
X140804500Y-103149000I167500J0D01*
G01*
G37*
G04 #@! TD.AperFunction*
G04 #@! TA.AperFunction,SMDPad,CuDef*
G36*
G01*
X141904500Y-103149000D02*
X142239500Y-103149000D01*
G75*
G02*
X142407000Y-103316500I0J-167500D01*
G01*
X142407000Y-104511500D01*
G75*
G02*
X142239500Y-104679000I-167500J0D01*
G01*
X141904500Y-104679000D01*
G75*
G02*
X141737000Y-104511500I0J167500D01*
G01*
X141737000Y-103316500D01*
G75*
G02*
X141904500Y-103149000I167500J0D01*
G01*
G37*
G04 #@! TD.AperFunction*
G04 #@! TA.AperFunction,SMDPad,CuDef*
G36*
G01*
X143004500Y-103149000D02*
X143339500Y-103149000D01*
G75*
G02*
X143507000Y-103316500I0J-167500D01*
G01*
X143507000Y-104511500D01*
G75*
G02*
X143339500Y-104679000I-167500J0D01*
G01*
X143004500Y-104679000D01*
G75*
G02*
X142837000Y-104511500I0J167500D01*
G01*
X142837000Y-103316500D01*
G75*
G02*
X143004500Y-103149000I167500J0D01*
G01*
G37*
G04 #@! TD.AperFunction*
G04 #@! TA.AperFunction,SMDPad,CuDef*
G36*
G01*
X149604500Y-103149000D02*
X149939500Y-103149000D01*
G75*
G02*
X150107000Y-103316500I0J-167500D01*
G01*
X150107000Y-104511500D01*
G75*
G02*
X149939500Y-104679000I-167500J0D01*
G01*
X149604500Y-104679000D01*
G75*
G02*
X149437000Y-104511500I0J167500D01*
G01*
X149437000Y-103316500D01*
G75*
G02*
X149604500Y-103149000I167500J0D01*
G01*
G37*
G04 #@! TD.AperFunction*
G04 #@! TA.AperFunction,SMDPad,CuDef*
G36*
G01*
X148504500Y-103149000D02*
X148839500Y-103149000D01*
G75*
G02*
X149007000Y-103316500I0J-167500D01*
G01*
X149007000Y-104511500D01*
G75*
G02*
X148839500Y-104679000I-167500J0D01*
G01*
X148504500Y-104679000D01*
G75*
G02*
X148337000Y-104511500I0J167500D01*
G01*
X148337000Y-103316500D01*
G75*
G02*
X148504500Y-103149000I167500J0D01*
G01*
G37*
G04 #@! TD.AperFunction*
G04 #@! TA.AperFunction,SMDPad,CuDef*
G36*
G01*
X147404500Y-103149000D02*
X147739500Y-103149000D01*
G75*
G02*
X147907000Y-103316500I0J-167500D01*
G01*
X147907000Y-104511500D01*
G75*
G02*
X147739500Y-104679000I-167500J0D01*
G01*
X147404500Y-104679000D01*
G75*
G02*
X147237000Y-104511500I0J167500D01*
G01*
X147237000Y-103316500D01*
G75*
G02*
X147404500Y-103149000I167500J0D01*
G01*
G37*
G04 #@! TD.AperFunction*
G04 #@! TA.AperFunction,SMDPad,CuDef*
G36*
G01*
X146304500Y-103149000D02*
X146639500Y-103149000D01*
G75*
G02*
X146807000Y-103316500I0J-167500D01*
G01*
X146807000Y-104511500D01*
G75*
G02*
X146639500Y-104679000I-167500J0D01*
G01*
X146304500Y-104679000D01*
G75*
G02*
X146137000Y-104511500I0J167500D01*
G01*
X146137000Y-103316500D01*
G75*
G02*
X146304500Y-103149000I167500J0D01*
G01*
G37*
G04 #@! TD.AperFunction*
G04 #@! TA.AperFunction,SMDPad,CuDef*
G36*
G01*
X145204500Y-103149000D02*
X145539500Y-103149000D01*
G75*
G02*
X145707000Y-103316500I0J-167500D01*
G01*
X145707000Y-104511500D01*
G75*
G02*
X145539500Y-104679000I-167500J0D01*
G01*
X145204500Y-104679000D01*
G75*
G02*
X145037000Y-104511500I0J167500D01*
G01*
X145037000Y-103316500D01*
G75*
G02*
X145204500Y-103149000I167500J0D01*
G01*
G37*
G04 #@! TD.AperFunction*
G04 #@! TA.AperFunction,SMDPad,CuDef*
G36*
G01*
X138287000Y-105246500D02*
X138287000Y-105581500D01*
G75*
G02*
X138119500Y-105749000I-167500J0D01*
G01*
X136924500Y-105749000D01*
G75*
G02*
X136757000Y-105581500I0J167500D01*
G01*
X136757000Y-105246500D01*
G75*
G02*
X136924500Y-105079000I167500J0D01*
G01*
X138119500Y-105079000D01*
G75*
G02*
X138287000Y-105246500I0J-167500D01*
G01*
G37*
G04 #@! TD.AperFunction*
G04 #@! TA.AperFunction,SMDPad,CuDef*
G36*
G01*
X144104500Y-103149000D02*
X144439500Y-103149000D01*
G75*
G02*
X144607000Y-103316500I0J-167500D01*
G01*
X144607000Y-104511500D01*
G75*
G02*
X144439500Y-104679000I-167500J0D01*
G01*
X144104500Y-104679000D01*
G75*
G02*
X143937000Y-104511500I0J167500D01*
G01*
X143937000Y-103316500D01*
G75*
G02*
X144104500Y-103149000I167500J0D01*
G01*
G37*
G04 #@! TD.AperFunction*
G04 #@! TA.AperFunction,SMDPad,CuDef*
G36*
G01*
X138287000Y-106346500D02*
X138287000Y-106681500D01*
G75*
G02*
X138119500Y-106849000I-167500J0D01*
G01*
X136924500Y-106849000D01*
G75*
G02*
X136757000Y-106681500I0J167500D01*
G01*
X136757000Y-106346500D01*
G75*
G02*
X136924500Y-106179000I167500J0D01*
G01*
X138119500Y-106179000D01*
G75*
G02*
X138287000Y-106346500I0J-167500D01*
G01*
G37*
G04 #@! TD.AperFunction*
G04 #@! TA.AperFunction,SMDPad,CuDef*
G36*
G01*
X138287000Y-107446500D02*
X138287000Y-107781500D01*
G75*
G02*
X138119500Y-107949000I-167500J0D01*
G01*
X136924500Y-107949000D01*
G75*
G02*
X136757000Y-107781500I0J167500D01*
G01*
X136757000Y-107446500D01*
G75*
G02*
X136924500Y-107279000I167500J0D01*
G01*
X138119500Y-107279000D01*
G75*
G02*
X138287000Y-107446500I0J-167500D01*
G01*
G37*
G04 #@! TD.AperFunction*
G04 #@! TA.AperFunction,SMDPad,CuDef*
G36*
G01*
X138287000Y-108546500D02*
X138287000Y-108881500D01*
G75*
G02*
X138119500Y-109049000I-167500J0D01*
G01*
X136924500Y-109049000D01*
G75*
G02*
X136757000Y-108881500I0J167500D01*
G01*
X136757000Y-108546500D01*
G75*
G02*
X136924500Y-108379000I167500J0D01*
G01*
X138119500Y-108379000D01*
G75*
G02*
X138287000Y-108546500I0J-167500D01*
G01*
G37*
G04 #@! TD.AperFunction*
G04 #@! TA.AperFunction,SMDPad,CuDef*
G36*
G01*
X138287000Y-109646500D02*
X138287000Y-109981500D01*
G75*
G02*
X138119500Y-110149000I-167500J0D01*
G01*
X136924500Y-110149000D01*
G75*
G02*
X136757000Y-109981500I0J167500D01*
G01*
X136757000Y-109646500D01*
G75*
G02*
X136924500Y-109479000I167500J0D01*
G01*
X138119500Y-109479000D01*
G75*
G02*
X138287000Y-109646500I0J-167500D01*
G01*
G37*
G04 #@! TD.AperFunction*
G04 #@! TA.AperFunction,SMDPad,CuDef*
G36*
G01*
X138287000Y-110746500D02*
X138287000Y-111081500D01*
G75*
G02*
X138119500Y-111249000I-167500J0D01*
G01*
X136924500Y-111249000D01*
G75*
G02*
X136757000Y-111081500I0J167500D01*
G01*
X136757000Y-110746500D01*
G75*
G02*
X136924500Y-110579000I167500J0D01*
G01*
X138119500Y-110579000D01*
G75*
G02*
X138287000Y-110746500I0J-167500D01*
G01*
G37*
G04 #@! TD.AperFunction*
G04 #@! TA.AperFunction,SMDPad,CuDef*
G36*
G01*
X138287000Y-118446500D02*
X138287000Y-118781500D01*
G75*
G02*
X138119500Y-118949000I-167500J0D01*
G01*
X136924500Y-118949000D01*
G75*
G02*
X136757000Y-118781500I0J167500D01*
G01*
X136757000Y-118446500D01*
G75*
G02*
X136924500Y-118279000I167500J0D01*
G01*
X138119500Y-118279000D01*
G75*
G02*
X138287000Y-118446500I0J-167500D01*
G01*
G37*
G04 #@! TD.AperFunction*
G04 #@! TA.AperFunction,SMDPad,CuDef*
G36*
G01*
X138287000Y-117346500D02*
X138287000Y-117681500D01*
G75*
G02*
X138119500Y-117849000I-167500J0D01*
G01*
X136924500Y-117849000D01*
G75*
G02*
X136757000Y-117681500I0J167500D01*
G01*
X136757000Y-117346500D01*
G75*
G02*
X136924500Y-117179000I167500J0D01*
G01*
X138119500Y-117179000D01*
G75*
G02*
X138287000Y-117346500I0J-167500D01*
G01*
G37*
G04 #@! TD.AperFunction*
G04 #@! TA.AperFunction,SMDPad,CuDef*
G36*
G01*
X138287000Y-116246500D02*
X138287000Y-116581500D01*
G75*
G02*
X138119500Y-116749000I-167500J0D01*
G01*
X136924500Y-116749000D01*
G75*
G02*
X136757000Y-116581500I0J167500D01*
G01*
X136757000Y-116246500D01*
G75*
G02*
X136924500Y-116079000I167500J0D01*
G01*
X138119500Y-116079000D01*
G75*
G02*
X138287000Y-116246500I0J-167500D01*
G01*
G37*
G04 #@! TD.AperFunction*
G04 #@! TA.AperFunction,SMDPad,CuDef*
G36*
G01*
X138287000Y-115146500D02*
X138287000Y-115481500D01*
G75*
G02*
X138119500Y-115649000I-167500J0D01*
G01*
X136924500Y-115649000D01*
G75*
G02*
X136757000Y-115481500I0J167500D01*
G01*
X136757000Y-115146500D01*
G75*
G02*
X136924500Y-114979000I167500J0D01*
G01*
X138119500Y-114979000D01*
G75*
G02*
X138287000Y-115146500I0J-167500D01*
G01*
G37*
G04 #@! TD.AperFunction*
G04 #@! TA.AperFunction,SMDPad,CuDef*
G36*
G01*
X138287000Y-114046500D02*
X138287000Y-114381500D01*
G75*
G02*
X138119500Y-114549000I-167500J0D01*
G01*
X136924500Y-114549000D01*
G75*
G02*
X136757000Y-114381500I0J167500D01*
G01*
X136757000Y-114046500D01*
G75*
G02*
X136924500Y-113879000I167500J0D01*
G01*
X138119500Y-113879000D01*
G75*
G02*
X138287000Y-114046500I0J-167500D01*
G01*
G37*
G04 #@! TD.AperFunction*
G04 #@! TA.AperFunction,SMDPad,CuDef*
G36*
G01*
X138287000Y-112946500D02*
X138287000Y-113281500D01*
G75*
G02*
X138119500Y-113449000I-167500J0D01*
G01*
X136924500Y-113449000D01*
G75*
G02*
X136757000Y-113281500I0J167500D01*
G01*
X136757000Y-112946500D01*
G75*
G02*
X136924500Y-112779000I167500J0D01*
G01*
X138119500Y-112779000D01*
G75*
G02*
X138287000Y-112946500I0J-167500D01*
G01*
G37*
G04 #@! TD.AperFunction*
G04 #@! TA.AperFunction,SMDPad,CuDef*
G36*
G01*
X151787000Y-118446500D02*
X151787000Y-118781500D01*
G75*
G02*
X151619500Y-118949000I-167500J0D01*
G01*
X150424500Y-118949000D01*
G75*
G02*
X150257000Y-118781500I0J167500D01*
G01*
X150257000Y-118446500D01*
G75*
G02*
X150424500Y-118279000I167500J0D01*
G01*
X151619500Y-118279000D01*
G75*
G02*
X151787000Y-118446500I0J-167500D01*
G01*
G37*
G04 #@! TD.AperFunction*
G04 #@! TA.AperFunction,SMDPad,CuDef*
G36*
G01*
X151787000Y-117346500D02*
X151787000Y-117681500D01*
G75*
G02*
X151619500Y-117849000I-167500J0D01*
G01*
X150424500Y-117849000D01*
G75*
G02*
X150257000Y-117681500I0J167500D01*
G01*
X150257000Y-117346500D01*
G75*
G02*
X150424500Y-117179000I167500J0D01*
G01*
X151619500Y-117179000D01*
G75*
G02*
X151787000Y-117346500I0J-167500D01*
G01*
G37*
G04 #@! TD.AperFunction*
G04 #@! TA.AperFunction,SMDPad,CuDef*
G36*
G01*
X151787000Y-116246500D02*
X151787000Y-116581500D01*
G75*
G02*
X151619500Y-116749000I-167500J0D01*
G01*
X150424500Y-116749000D01*
G75*
G02*
X150257000Y-116581500I0J167500D01*
G01*
X150257000Y-116246500D01*
G75*
G02*
X150424500Y-116079000I167500J0D01*
G01*
X151619500Y-116079000D01*
G75*
G02*
X151787000Y-116246500I0J-167500D01*
G01*
G37*
G04 #@! TD.AperFunction*
G04 #@! TA.AperFunction,SMDPad,CuDef*
G36*
G01*
X151787000Y-115146500D02*
X151787000Y-115481500D01*
G75*
G02*
X151619500Y-115649000I-167500J0D01*
G01*
X150424500Y-115649000D01*
G75*
G02*
X150257000Y-115481500I0J167500D01*
G01*
X150257000Y-115146500D01*
G75*
G02*
X150424500Y-114979000I167500J0D01*
G01*
X151619500Y-114979000D01*
G75*
G02*
X151787000Y-115146500I0J-167500D01*
G01*
G37*
G04 #@! TD.AperFunction*
G04 #@! TA.AperFunction,SMDPad,CuDef*
G36*
G01*
X151787000Y-114046500D02*
X151787000Y-114381500D01*
G75*
G02*
X151619500Y-114549000I-167500J0D01*
G01*
X150424500Y-114549000D01*
G75*
G02*
X150257000Y-114381500I0J167500D01*
G01*
X150257000Y-114046500D01*
G75*
G02*
X150424500Y-113879000I167500J0D01*
G01*
X151619500Y-113879000D01*
G75*
G02*
X151787000Y-114046500I0J-167500D01*
G01*
G37*
G04 #@! TD.AperFunction*
G04 #@! TA.AperFunction,SMDPad,CuDef*
G36*
G01*
X151787000Y-112946500D02*
X151787000Y-113281500D01*
G75*
G02*
X151619500Y-113449000I-167500J0D01*
G01*
X150424500Y-113449000D01*
G75*
G02*
X150257000Y-113281500I0J167500D01*
G01*
X150257000Y-112946500D01*
G75*
G02*
X150424500Y-112779000I167500J0D01*
G01*
X151619500Y-112779000D01*
G75*
G02*
X151787000Y-112946500I0J-167500D01*
G01*
G37*
G04 #@! TD.AperFunction*
G04 #@! TA.AperFunction,SMDPad,CuDef*
G36*
G01*
X151787000Y-105246500D02*
X151787000Y-105581500D01*
G75*
G02*
X151619500Y-105749000I-167500J0D01*
G01*
X150424500Y-105749000D01*
G75*
G02*
X150257000Y-105581500I0J167500D01*
G01*
X150257000Y-105246500D01*
G75*
G02*
X150424500Y-105079000I167500J0D01*
G01*
X151619500Y-105079000D01*
G75*
G02*
X151787000Y-105246500I0J-167500D01*
G01*
G37*
G04 #@! TD.AperFunction*
G04 #@! TA.AperFunction,SMDPad,CuDef*
G36*
G01*
X151787000Y-106346500D02*
X151787000Y-106681500D01*
G75*
G02*
X151619500Y-106849000I-167500J0D01*
G01*
X150424500Y-106849000D01*
G75*
G02*
X150257000Y-106681500I0J167500D01*
G01*
X150257000Y-106346500D01*
G75*
G02*
X150424500Y-106179000I167500J0D01*
G01*
X151619500Y-106179000D01*
G75*
G02*
X151787000Y-106346500I0J-167500D01*
G01*
G37*
G04 #@! TD.AperFunction*
G04 #@! TA.AperFunction,SMDPad,CuDef*
G36*
G01*
X151787000Y-107446500D02*
X151787000Y-107781500D01*
G75*
G02*
X151619500Y-107949000I-167500J0D01*
G01*
X150424500Y-107949000D01*
G75*
G02*
X150257000Y-107781500I0J167500D01*
G01*
X150257000Y-107446500D01*
G75*
G02*
X150424500Y-107279000I167500J0D01*
G01*
X151619500Y-107279000D01*
G75*
G02*
X151787000Y-107446500I0J-167500D01*
G01*
G37*
G04 #@! TD.AperFunction*
G04 #@! TA.AperFunction,SMDPad,CuDef*
G36*
G01*
X151787000Y-108546500D02*
X151787000Y-108881500D01*
G75*
G02*
X151619500Y-109049000I-167500J0D01*
G01*
X150424500Y-109049000D01*
G75*
G02*
X150257000Y-108881500I0J167500D01*
G01*
X150257000Y-108546500D01*
G75*
G02*
X150424500Y-108379000I167500J0D01*
G01*
X151619500Y-108379000D01*
G75*
G02*
X151787000Y-108546500I0J-167500D01*
G01*
G37*
G04 #@! TD.AperFunction*
G04 #@! TA.AperFunction,SMDPad,CuDef*
G36*
G01*
X151787000Y-109646500D02*
X151787000Y-109981500D01*
G75*
G02*
X151619500Y-110149000I-167500J0D01*
G01*
X150424500Y-110149000D01*
G75*
G02*
X150257000Y-109981500I0J167500D01*
G01*
X150257000Y-109646500D01*
G75*
G02*
X150424500Y-109479000I167500J0D01*
G01*
X151619500Y-109479000D01*
G75*
G02*
X151787000Y-109646500I0J-167500D01*
G01*
G37*
G04 #@! TD.AperFunction*
G04 #@! TA.AperFunction,SMDPad,CuDef*
G36*
G01*
X151787000Y-110746500D02*
X151787000Y-111081500D01*
G75*
G02*
X151619500Y-111249000I-167500J0D01*
G01*
X150424500Y-111249000D01*
G75*
G02*
X150257000Y-111081500I0J167500D01*
G01*
X150257000Y-110746500D01*
G75*
G02*
X150424500Y-110579000I167500J0D01*
G01*
X151619500Y-110579000D01*
G75*
G02*
X151787000Y-110746500I0J-167500D01*
G01*
G37*
G04 #@! TD.AperFunction*
G04 #@! TA.AperFunction,SMDPad,CuDef*
G36*
G01*
X138287000Y-111846500D02*
X138287000Y-112181500D01*
G75*
G02*
X138119500Y-112349000I-167500J0D01*
G01*
X136924500Y-112349000D01*
G75*
G02*
X136757000Y-112181500I0J167500D01*
G01*
X136757000Y-111846500D01*
G75*
G02*
X136924500Y-111679000I167500J0D01*
G01*
X138119500Y-111679000D01*
G75*
G02*
X138287000Y-111846500I0J-167500D01*
G01*
G37*
G04 #@! TD.AperFunction*
G04 #@! TA.AperFunction,SMDPad,CuDef*
G36*
G01*
X151787000Y-111846500D02*
X151787000Y-112181500D01*
G75*
G02*
X151619500Y-112349000I-167500J0D01*
G01*
X150424500Y-112349000D01*
G75*
G02*
X150257000Y-112181500I0J167500D01*
G01*
X150257000Y-111846500D01*
G75*
G02*
X150424500Y-111679000I167500J0D01*
G01*
X151619500Y-111679000D01*
G75*
G02*
X151787000Y-111846500I0J-167500D01*
G01*
G37*
G04 #@! TD.AperFunction*
D25*
X153416000Y-115316000D03*
X177500000Y-120900000D03*
X147320000Y-115062000D03*
X135128000Y-116332000D03*
X158496000Y-115316000D03*
X114554000Y-120650000D03*
X114554000Y-119888000D03*
X113792000Y-111760000D03*
X113792000Y-119888000D03*
X113792000Y-110998000D03*
X114554000Y-110998000D03*
X113792000Y-120650000D03*
X114554000Y-111760000D03*
X139192000Y-105664000D03*
X113030000Y-97028000D03*
X113030000Y-96266000D03*
X113792000Y-96266000D03*
X113792000Y-97028000D03*
X120142000Y-120142000D03*
X115570000Y-91948000D03*
X115570000Y-93218000D03*
X115570000Y-94488000D03*
X115570000Y-90678000D03*
X138811000Y-96647000D03*
X144907000Y-94869000D03*
X153543000Y-107061000D03*
X142621000Y-102489000D03*
X140970000Y-102489000D03*
X152654000Y-120904000D03*
X153416000Y-120904000D03*
X152654000Y-120142000D03*
X153416000Y-120142000D03*
X140970000Y-116840000D03*
X134874000Y-120142000D03*
X134112000Y-120142000D03*
X134112000Y-120904000D03*
X134874000Y-120904000D03*
X156083000Y-107061000D03*
X175514000Y-106680000D03*
X179832000Y-105918000D03*
X151765000Y-104267000D03*
X156177999Y-104234999D03*
X179200000Y-118200000D03*
X144272000Y-113284000D03*
X162560000Y-112522000D03*
X172200000Y-117600000D03*
X160274000Y-110236000D03*
X139350000Y-107614000D03*
X161798000Y-111760000D03*
X139350000Y-113114000D03*
X161036000Y-110998000D03*
X139350000Y-112014000D03*
X150368000Y-100076000D03*
X152527000Y-108204000D03*
X148844000Y-100076000D03*
X153289000Y-109093000D03*
X147320000Y-100076000D03*
X154051000Y-109982000D03*
X148200000Y-109220000D03*
X148209000Y-108077000D03*
D26*
X124206000Y-116840000D02*
X124180500Y-116840000D01*
X121920000Y-119100500D02*
X124167500Y-119100500D01*
X124206000Y-116840000D02*
X124206000Y-119139000D01*
X154970001Y-99090001D02*
X153670000Y-97790000D01*
X154970001Y-113761999D02*
X154970001Y-99090001D01*
X153416000Y-115316000D02*
X154970001Y-113761999D01*
X124688000Y-119621000D02*
X124206000Y-119139000D01*
X124688000Y-119634000D02*
X124688000Y-119621000D01*
D27*
X187200000Y-116812002D02*
X187200000Y-102870000D01*
X182663551Y-121348451D02*
X187200000Y-116812002D01*
X179324023Y-121348451D02*
X182663551Y-121348451D01*
X178441501Y-120465929D02*
X179324023Y-121348451D01*
X178441501Y-118920841D02*
X178441501Y-120465929D01*
X178181000Y-118660340D02*
X178441501Y-118920841D01*
X178181000Y-118491000D02*
X178181000Y-118660340D01*
X187200000Y-100330000D02*
X187200000Y-102870000D01*
X152400000Y-88364000D02*
X151610000Y-89154000D01*
X152400000Y-87630000D02*
X152400000Y-88364000D01*
X152400000Y-87630000D02*
X154940000Y-87630000D01*
D26*
X110236000Y-94742000D02*
X110236000Y-96647000D01*
X110236000Y-97872000D02*
X109921000Y-98187000D01*
X110236000Y-96647000D02*
X110236000Y-97872000D01*
D27*
X187200000Y-100010000D02*
X186269999Y-99079999D01*
X187200000Y-100330000D02*
X187200000Y-100010000D01*
X182809997Y-99079999D02*
X175677998Y-91948000D01*
X186269999Y-99079999D02*
X182809997Y-99079999D01*
X156008501Y-86561499D02*
X154940000Y-87630000D01*
X168152881Y-86561499D02*
X156008501Y-86561499D01*
X173539382Y-91948000D02*
X168152881Y-86561499D01*
X175677998Y-91948000D02*
X173539382Y-91948000D01*
X149772000Y-102478000D02*
X149888000Y-102362000D01*
X149772000Y-103914000D02*
X149772000Y-102478000D01*
X151331499Y-86561499D02*
X152400000Y-87630000D01*
X117941501Y-86561499D02*
X151331499Y-86561499D01*
X110236000Y-94267000D02*
X117941501Y-86561499D01*
X110236000Y-94742000D02*
X110236000Y-94267000D01*
D28*
X134114000Y-116332000D02*
X134112000Y-116334000D01*
X135128000Y-116332000D02*
X134114000Y-116332000D01*
X147320000Y-107131000D02*
X147320000Y-115062000D01*
X149772000Y-104679000D02*
X147320000Y-107131000D01*
X149772000Y-103914000D02*
X149772000Y-104679000D01*
X157482000Y-115316000D02*
X158496000Y-115316000D01*
X158496000Y-115316000D02*
X159512000Y-115316000D01*
D27*
X178441501Y-120465929D02*
X178434071Y-120465929D01*
D28*
X178007430Y-120900000D02*
X178441501Y-120465929D01*
X177500000Y-120900000D02*
X178007430Y-120900000D01*
D26*
X113011000Y-112541000D02*
X113792000Y-111760000D01*
X113011000Y-112574000D02*
X113011000Y-112541000D01*
X113011000Y-119107000D02*
X113792000Y-119888000D01*
X113011000Y-119074000D02*
X113011000Y-119107000D01*
X113792000Y-119888000D02*
X113792000Y-120561999D01*
X113792000Y-111760000D02*
X113792000Y-110998000D01*
X113792000Y-119888000D02*
X114554000Y-119888000D01*
X114554000Y-119888000D02*
X114554000Y-120650000D01*
X114554000Y-120650000D02*
X113792000Y-120650000D01*
X113792000Y-120650000D02*
X114554000Y-119888000D01*
X113792000Y-111760000D02*
X114554000Y-111760000D01*
X114554000Y-111760000D02*
X114554000Y-110998000D01*
X114554000Y-110998000D02*
X113792000Y-110998000D01*
X113792000Y-111760000D02*
X114554000Y-110998000D01*
D27*
X177665499Y-110624501D02*
X177800000Y-110490000D01*
X177665499Y-115435499D02*
X177665499Y-110624501D01*
X178181000Y-115951000D02*
X177665499Y-115435499D01*
X148336000Y-89154000D02*
X149860000Y-87630000D01*
X148308000Y-89154000D02*
X148336000Y-89154000D01*
X149860000Y-88364000D02*
X150650000Y-89154000D01*
X149860000Y-87630000D02*
X149860000Y-88364000D01*
X116614000Y-89408000D02*
X116614000Y-94488000D01*
D26*
X111786000Y-98152000D02*
X111821000Y-98187000D01*
X111786000Y-94742000D02*
X111786000Y-98152000D01*
X113326000Y-98187000D02*
X113411000Y-98272000D01*
X111821000Y-98187000D02*
X113326000Y-98187000D01*
X131826000Y-116840000D02*
X129286000Y-119380000D01*
D27*
X133600000Y-118614000D02*
X137522000Y-118614000D01*
X131826000Y-116840000D02*
X133600000Y-118614000D01*
X137522000Y-118614000D02*
X151022000Y-118614000D01*
X138942000Y-105414000D02*
X139192000Y-105664000D01*
X137522000Y-105414000D02*
X138942000Y-105414000D01*
D26*
X113030000Y-96266000D02*
X113792000Y-96266000D01*
X113792000Y-97028000D02*
X113792000Y-96266000D01*
X113030000Y-97028000D02*
X113792000Y-97028000D01*
X113030000Y-97028000D02*
X113030000Y-96266000D01*
X113792000Y-96266000D02*
X113030000Y-97028000D01*
X113411000Y-97409000D02*
X113030000Y-97028000D01*
X113411000Y-98272000D02*
X113411000Y-97409000D01*
X113792000Y-97028000D02*
X113411000Y-97409000D01*
D27*
X151638000Y-102362000D02*
X153670000Y-100330000D01*
X150848000Y-102362000D02*
X151638000Y-102362000D01*
D28*
X120142000Y-120142000D02*
X119128000Y-120142000D01*
D27*
X115570000Y-91948000D02*
X116614000Y-91948000D01*
D26*
X114554000Y-109984000D02*
X114552000Y-109982000D01*
X114554000Y-110998000D02*
X114554000Y-109984000D01*
D27*
X116614000Y-93218000D02*
X115570000Y-93218000D01*
X116614000Y-94488000D02*
X115570000Y-94488000D01*
X115570000Y-94488000D02*
X115570000Y-91948000D01*
X116614000Y-90678000D02*
X115570000Y-90678000D01*
X115570000Y-90678000D02*
X115570000Y-91948000D01*
D26*
X129032000Y-119634000D02*
X129286000Y-119380000D01*
X126238000Y-119634000D02*
X129032000Y-119634000D01*
D28*
X140002500Y-96647000D02*
X140335000Y-96979500D01*
X138811000Y-96647000D02*
X140002500Y-96647000D01*
X142953500Y-96647000D02*
X142621000Y-96979500D01*
X144907000Y-95377000D02*
X144907000Y-94869000D01*
X143304500Y-96979500D02*
X144907000Y-95377000D01*
X142621000Y-96979500D02*
X143304500Y-96979500D01*
D29*
X113840322Y-116574000D02*
X113011000Y-116574000D01*
X113011000Y-115574000D02*
X113796000Y-115574000D01*
X113796000Y-115574000D02*
X114046000Y-115824000D01*
X114046000Y-116368322D02*
X113840322Y-116574000D01*
X114046000Y-115824000D02*
X114046000Y-116368322D01*
X114413926Y-116000396D02*
X114046000Y-116368322D01*
X114413926Y-115996410D02*
X114413926Y-116000396D01*
X114046000Y-116332000D02*
X114300000Y-116078000D01*
X114046000Y-116368322D02*
X114046000Y-116332000D01*
X115234410Y-115996410D02*
X114949410Y-115711410D01*
X113933410Y-115711410D02*
X113796000Y-115574000D01*
X114949410Y-115711410D02*
X114412590Y-115711410D01*
X114412590Y-115711410D02*
X115826838Y-115711410D01*
X114412590Y-115711410D02*
X113933410Y-115711410D01*
X114046000Y-116368322D02*
X115169926Y-116368322D01*
D30*
X114440640Y-116023124D02*
X114413926Y-115996410D01*
D29*
X115169926Y-116368322D02*
X115515124Y-116023124D01*
D30*
X138772000Y-102958000D02*
X138772000Y-103914000D01*
X138383200Y-102569200D02*
X138772000Y-102958000D01*
X128969048Y-102569200D02*
X138383200Y-102569200D01*
X127199124Y-104339124D02*
X128969048Y-102569200D01*
X127088129Y-104478309D02*
X127199124Y-104339124D01*
X127010887Y-104638703D02*
X127088129Y-104478309D01*
X126971273Y-104812263D02*
X127010887Y-104638703D01*
X126074826Y-106587724D02*
X126187963Y-106700861D01*
X127312262Y-105576562D02*
X127199124Y-105463424D01*
X125935643Y-106476728D02*
X126074826Y-106587724D01*
X125601689Y-106359872D02*
X125775249Y-106399486D01*
X125423665Y-106359873D02*
X125601689Y-106359872D01*
X127312263Y-106700860D02*
X127423257Y-106561677D01*
X125250105Y-106399487D02*
X125423665Y-106359873D01*
X126187963Y-106700861D02*
X126327147Y-106811857D01*
X125775249Y-106399486D02*
X125935643Y-106476728D01*
X125089711Y-106476729D02*
X125250105Y-106399487D01*
X126839125Y-106928712D02*
X127012685Y-106889098D01*
X126327147Y-106811857D02*
X126487541Y-106889099D01*
X126971274Y-104990285D02*
X126971273Y-104812263D01*
X124950526Y-106587723D02*
X125089711Y-106476729D01*
X127173079Y-106811856D02*
X127312263Y-106700860D01*
X115541838Y-115996410D02*
X124950526Y-106587723D01*
X126487541Y-106889099D02*
X126661101Y-106928713D01*
X114413926Y-115996410D02*
X115541838Y-115996410D01*
X127012685Y-106889098D02*
X127173079Y-106811856D01*
X127540114Y-106049699D02*
X127500500Y-105876139D01*
X127010888Y-105163845D02*
X126971274Y-104990285D01*
X126661101Y-106928713D02*
X126839125Y-106928712D01*
X127423257Y-106561677D02*
X127500499Y-106401283D01*
X127540113Y-106227723D02*
X127540114Y-106049699D01*
X127500499Y-106401283D02*
X127540113Y-106227723D01*
X127500500Y-105876139D02*
X127423258Y-105715745D01*
X127423258Y-105715745D02*
X127312262Y-105576562D01*
X127199124Y-105463424D02*
X127088130Y-105324239D01*
X127088130Y-105324239D02*
X127010888Y-105163845D01*
D29*
X113011000Y-115074000D02*
X112002000Y-115074000D01*
X112002000Y-115074000D02*
X111760000Y-115316000D01*
X112086000Y-116074000D02*
X113011000Y-116074000D01*
X111760000Y-115748000D02*
X112086000Y-116074000D01*
X111760000Y-115316000D02*
X111760000Y-115748000D01*
D30*
X139872000Y-102753516D02*
X139872000Y-103914000D01*
X128586964Y-101646800D02*
X138765284Y-101646800D01*
X115159764Y-115074000D02*
X128586964Y-101646800D01*
X138765284Y-101646800D02*
X139872000Y-102753516D01*
X115159764Y-115074000D02*
X114566000Y-115074000D01*
D29*
X113011000Y-115074000D02*
X114566000Y-115074000D01*
D27*
X112171000Y-113374000D02*
X111760000Y-113785000D01*
X113011000Y-113374000D02*
X112171000Y-113374000D01*
X112199002Y-118274000D02*
X113011000Y-118274000D01*
X111760000Y-117834998D02*
X112199002Y-118274000D01*
D26*
X164592000Y-120456002D02*
X164592000Y-119888000D01*
X163860001Y-121188001D02*
X164592000Y-120456002D01*
X113440001Y-108096001D02*
X110595990Y-110940012D01*
X113440001Y-103331001D02*
X113440001Y-108096001D01*
X110595990Y-110940012D02*
X110595990Y-113135990D01*
X113411000Y-103302000D02*
X113440001Y-103331001D01*
X114236000Y-118274000D02*
X117112003Y-121150003D01*
X113011000Y-118274000D02*
X114236000Y-118274000D01*
X134112000Y-120142000D02*
X134874000Y-120904000D01*
X134112000Y-120142000D02*
X134874000Y-120142000D01*
X134874000Y-120904000D02*
X134874000Y-120142000D01*
X134874000Y-120904000D02*
X134112000Y-120904000D01*
X134112000Y-120904000D02*
X134112000Y-120142000D01*
X134104003Y-120896003D02*
X134112000Y-120904000D01*
X134627997Y-121150003D02*
X134874000Y-120904000D01*
X153416000Y-120904000D02*
X153416000Y-120142000D01*
X153416000Y-120142000D02*
X152654000Y-120142000D01*
X152654000Y-120142000D02*
X152654000Y-120904000D01*
X152654000Y-120904000D02*
X153416000Y-120904000D01*
X153416000Y-120904000D02*
X152654000Y-120142000D01*
X152938001Y-121188001D02*
X152654000Y-120904000D01*
X163860001Y-121188001D02*
X152938001Y-121188001D01*
D27*
X140970000Y-103916000D02*
X140972000Y-103914000D01*
D26*
X121920000Y-121142006D02*
X121912003Y-121150003D01*
X121920000Y-120675500D02*
X121920000Y-121142006D01*
X121912003Y-121150003D02*
X134627997Y-121150003D01*
X117112003Y-121150003D02*
X121912003Y-121150003D01*
D27*
X140972000Y-116838000D02*
X140970000Y-116840000D01*
X140972000Y-103914000D02*
X140972000Y-116838000D01*
D26*
X111209990Y-114335010D02*
X111760000Y-113785000D01*
X111209990Y-115975821D02*
X111209990Y-114335010D01*
X111760000Y-116525831D02*
X111209990Y-115975821D01*
X111760000Y-117834998D02*
X111760000Y-116525831D01*
X111209990Y-113749990D02*
X110595990Y-113135990D01*
X111209990Y-114335010D02*
X111209990Y-113749990D01*
X113046000Y-100187000D02*
X113411000Y-99822000D01*
X110871000Y-100187000D02*
X113046000Y-100187000D01*
X113411000Y-100552000D02*
X113046000Y-100187000D01*
X113411000Y-101727000D02*
X113411000Y-100552000D01*
X113411000Y-101727000D02*
X113411000Y-99822000D01*
D28*
X115572000Y-112988000D02*
X115572000Y-109982000D01*
X113986000Y-114574000D02*
X115572000Y-112988000D01*
X113011000Y-114574000D02*
X113986000Y-114574000D01*
X115540000Y-117574000D02*
X118108000Y-120142000D01*
X113011000Y-117574000D02*
X115540000Y-117574000D01*
X134620000Y-88364000D02*
X135410000Y-89154000D01*
X134620000Y-87630000D02*
X134620000Y-88364000D01*
X137160000Y-88364000D02*
X136370000Y-89154000D01*
X137160000Y-87630000D02*
X137160000Y-88364000D01*
X139700000Y-88336000D02*
X140518000Y-89154000D01*
X139700000Y-87630000D02*
X139700000Y-88336000D01*
X142240000Y-88392000D02*
X141478000Y-89154000D01*
X142240000Y-87630000D02*
X142240000Y-88392000D01*
X143172000Y-103462000D02*
X144249963Y-102384037D01*
X143172000Y-103914000D02*
X143172000Y-103462000D01*
X144249963Y-102384037D02*
X144249964Y-97044396D01*
X144249964Y-97044396D02*
X149368400Y-91925960D01*
X153184040Y-91925960D02*
X157480000Y-87630000D01*
X149368400Y-91925960D02*
X153184040Y-91925960D01*
X144272000Y-103914000D02*
X144272000Y-103124000D01*
X144272000Y-103124000D02*
X144699972Y-102696028D01*
X144699973Y-97230797D02*
X149554800Y-92375970D01*
X144699972Y-102696028D02*
X144699973Y-97230797D01*
X149554800Y-92375970D02*
X153370441Y-92375969D01*
X159026499Y-88623501D02*
X160020000Y-87630000D01*
X157122909Y-88623501D02*
X159026499Y-88623501D01*
X153370441Y-92375969D02*
X157122909Y-88623501D01*
X145372000Y-103914000D02*
X145372000Y-102278000D01*
X145400090Y-102249910D02*
X145149981Y-101999799D01*
X145372000Y-102278000D02*
X145400090Y-102249910D01*
X145149981Y-101999799D02*
X145149982Y-97417198D01*
X145149982Y-97417198D02*
X149741200Y-92825980D01*
X152792022Y-92825978D02*
X153556842Y-92825978D01*
X152792020Y-92825980D02*
X152792022Y-92825978D01*
X149741200Y-92825980D02*
X152792020Y-92825980D01*
X153556842Y-92825978D02*
X157309309Y-89073511D01*
X161566499Y-88623501D02*
X162560000Y-87630000D01*
X159662909Y-88623501D02*
X161566499Y-88623501D01*
X159212900Y-89073510D02*
X159662909Y-88623501D01*
X157309309Y-89073511D02*
X159212900Y-89073510D01*
X164106499Y-88623501D02*
X165100000Y-87630000D01*
X161752900Y-89073510D02*
X162202909Y-88623501D01*
X157495711Y-89523519D02*
X159399301Y-89523519D01*
X159399301Y-89523519D02*
X159849309Y-89073511D01*
X153743242Y-93275988D02*
X157495711Y-89523519D01*
X149927602Y-93275988D02*
X153743242Y-93275988D01*
X162202909Y-88623501D02*
X164106499Y-88623501D01*
X145599991Y-97603599D02*
X149927602Y-93275988D01*
X145599990Y-101813400D02*
X145599991Y-97603599D01*
X146472000Y-102685410D02*
X145599990Y-101813400D01*
X159849309Y-89073511D02*
X161752900Y-89073510D01*
X146472000Y-103914000D02*
X146472000Y-102685410D01*
X147572000Y-103149000D02*
X146050000Y-101627000D01*
X147572000Y-103914000D02*
X147572000Y-103149000D01*
X146050000Y-101627000D02*
X146050000Y-97790000D01*
X146050000Y-97790000D02*
X150114000Y-93726000D01*
X151892002Y-93725998D02*
X153929643Y-93725997D01*
X151892000Y-93726000D02*
X151892002Y-93725998D01*
X150114000Y-93726000D02*
X151892000Y-93726000D01*
X153929643Y-93725997D02*
X157682111Y-89973529D01*
X157682111Y-89973529D02*
X159585702Y-89973528D01*
X160035711Y-89523519D02*
X161939301Y-89523519D01*
X159585702Y-89973528D02*
X160035711Y-89523519D01*
X164292900Y-89073510D02*
X164742909Y-88623501D01*
X162389309Y-89073511D02*
X164292900Y-89073510D01*
X161939301Y-89523519D02*
X162389309Y-89073511D01*
X166646499Y-88623501D02*
X167640000Y-87630000D01*
X164742909Y-88623501D02*
X166646499Y-88623501D01*
X186180000Y-102870000D02*
X183370000Y-102870000D01*
X182194999Y-104045001D02*
X183370000Y-102870000D01*
X182194999Y-105368003D02*
X182194999Y-104045001D01*
X178298003Y-109264999D02*
X182194999Y-105368003D01*
X158286999Y-109264999D02*
X178298003Y-109264999D01*
X156083000Y-107061000D02*
X158286999Y-109264999D01*
X152996000Y-106514000D02*
X153543000Y-107061000D01*
X151022000Y-106514000D02*
X152996000Y-106514000D01*
X186180000Y-100330000D02*
X183370000Y-100330000D01*
X173379011Y-108814989D02*
X175514000Y-106680000D01*
X175514000Y-106680000D02*
X175514000Y-106680000D01*
X182372000Y-100330000D02*
X183370000Y-100330000D01*
X179832000Y-102870000D02*
X182372000Y-100330000D01*
X179832000Y-105918000D02*
X179832000Y-102870000D01*
X151022000Y-105414000D02*
X151022000Y-105010000D01*
X151022000Y-105010000D02*
X151765000Y-104267000D01*
X151765000Y-104267000D02*
X151765000Y-104267000D01*
X173379011Y-108814989D02*
X158473399Y-108814989D01*
X156808001Y-104865001D02*
X156177999Y-104234999D01*
X156808001Y-107149591D02*
X156808001Y-104865001D01*
X158473399Y-108814989D02*
X156808001Y-107149591D01*
X128272000Y-115314000D02*
X134112000Y-115314000D01*
X126746000Y-116840000D02*
X128272000Y-115314000D01*
X164016961Y-111065039D02*
X162560000Y-112522000D01*
X169791467Y-111065039D02*
X164016961Y-111065039D01*
X172593529Y-113867101D02*
X169791467Y-111065039D01*
X172593529Y-117206471D02*
X172593529Y-113867101D01*
X172200000Y-117600000D02*
X172593529Y-117206471D01*
X142072000Y-111084000D02*
X142072000Y-103914000D01*
X144272000Y-113284000D02*
X142072000Y-111084000D01*
X179160000Y-118200000D02*
X178181000Y-117221000D01*
X179200000Y-118200000D02*
X179160000Y-118200000D01*
X160794991Y-109715009D02*
X160274000Y-110236000D01*
X170350667Y-109715009D02*
X160794991Y-109715009D01*
X176193159Y-115557501D02*
X170350667Y-109715009D01*
X176517501Y-115557501D02*
X176193159Y-115557501D01*
X176911000Y-115951000D02*
X176517501Y-115557501D01*
X139364000Y-107614000D02*
X139364000Y-107614000D01*
X137522000Y-107614000D02*
X139350000Y-107614000D01*
X176518451Y-120486977D02*
X175731977Y-121273451D01*
X175731977Y-121273451D02*
X174280023Y-121273451D01*
X176518451Y-119440042D02*
X176518451Y-120486977D01*
X176911000Y-119047493D02*
X176518451Y-119440042D01*
X176911000Y-118491000D02*
X176911000Y-119047493D01*
X173493549Y-117948387D02*
X173043539Y-117498377D01*
X173493549Y-120486977D02*
X173493549Y-117948387D01*
X174280023Y-121273451D02*
X173493549Y-120486977D01*
X173043539Y-117498377D02*
X173043539Y-113680701D01*
X173043539Y-113680701D02*
X169977867Y-110615029D01*
X162942971Y-110615029D02*
X161798000Y-111760000D01*
X169977867Y-110615029D02*
X162942971Y-110615029D01*
X139362000Y-113114000D02*
X139362000Y-113114000D01*
X137522000Y-113114000D02*
X139350000Y-113114000D01*
X170164267Y-110165019D02*
X161868981Y-110165019D01*
X173493549Y-117311977D02*
X173493549Y-113494301D01*
X174430121Y-118248549D02*
X173493549Y-117311977D01*
X175883451Y-118248549D02*
X174430121Y-118248549D01*
X161868981Y-110165019D02*
X161036000Y-110998000D01*
X173493549Y-113494301D02*
X170164267Y-110165019D01*
X176911000Y-117221000D02*
X175883451Y-118248549D01*
X139446000Y-112014000D02*
X139446000Y-112014000D01*
X137522000Y-112014000D02*
X139350000Y-112014000D01*
X159512000Y-119888000D02*
X159512000Y-118364000D01*
X159510000Y-118364000D02*
X156462000Y-115316000D01*
X159512000Y-118364000D02*
X159510000Y-118364000D01*
X156462000Y-115316000D02*
X155125412Y-115316000D01*
X152927412Y-117514000D02*
X151022000Y-117514000D01*
X155125412Y-115316000D02*
X152927412Y-117514000D01*
X162052000Y-116836000D02*
X160532000Y-115316000D01*
X162052000Y-119888000D02*
X162052000Y-116836000D01*
X153391002Y-116414000D02*
X151022000Y-116414000D01*
X155214003Y-114590999D02*
X153391002Y-116414000D01*
X160482554Y-115316000D02*
X159757553Y-114590999D01*
X159757553Y-114590999D02*
X155214003Y-114590999D01*
X160532000Y-115316000D02*
X160482554Y-115316000D01*
X150368000Y-100076000D02*
X150368000Y-99062000D01*
X134112000Y-115314000D02*
X134622000Y-115314000D01*
X134622000Y-115314000D02*
X135382000Y-114554000D01*
X137160484Y-106514000D02*
X137522000Y-106514000D01*
X135382000Y-108292484D02*
X137160484Y-106514000D01*
X135382000Y-114554000D02*
X135382000Y-108292484D01*
X151482685Y-109814000D02*
X151022000Y-109814000D01*
X152527000Y-108769685D02*
X151482685Y-109814000D01*
X152527000Y-108204000D02*
X152527000Y-108769685D01*
X148844000Y-100076000D02*
X148844000Y-99062000D01*
X151468000Y-110914000D02*
X151022000Y-110914000D01*
X153289000Y-109093000D02*
X151468000Y-110914000D01*
X147320000Y-100076000D02*
X147320000Y-99062000D01*
X152019000Y-112014000D02*
X151022000Y-112014000D01*
X154051000Y-109982000D02*
X152019000Y-112014000D01*
X176530000Y-106680000D02*
X177800000Y-107950000D01*
X176530000Y-101416410D02*
X176530000Y-106680000D01*
X176124989Y-98654989D02*
X176124990Y-101011400D01*
X172546030Y-95076030D02*
X176124989Y-98654989D01*
X176124990Y-101011400D02*
X176530000Y-101416410D01*
X150673200Y-95076030D02*
X172546030Y-95076030D01*
X150368000Y-95381230D02*
X150673200Y-95076030D01*
X150368000Y-98042000D02*
X150368000Y-95381230D01*
X176574999Y-100824999D02*
X177800000Y-102050000D01*
X176574999Y-98468589D02*
X176574999Y-100824999D01*
X172732430Y-94626020D02*
X176574999Y-98468589D01*
X150486800Y-94626020D02*
X172732430Y-94626020D01*
X148844000Y-96268820D02*
X150486800Y-94626020D01*
X148844000Y-98042000D02*
X148844000Y-96268820D01*
X174892820Y-96150000D02*
X177800000Y-96150000D01*
X150300400Y-94176010D02*
X172918830Y-94176010D01*
X147320000Y-97156410D02*
X150300400Y-94176010D01*
X147320000Y-98042000D02*
X147320000Y-97156410D01*
X172918830Y-94176010D02*
X174892820Y-96150000D01*
X117574000Y-94488000D02*
X118629020Y-93432980D01*
X118629020Y-93432980D02*
X118629020Y-91942620D01*
X118629020Y-91942620D02*
X121025620Y-89546020D01*
X127623980Y-89546020D02*
X129540000Y-87630000D01*
X121025620Y-89546020D02*
X127623980Y-89546020D01*
X117574000Y-93218000D02*
X118179010Y-92612990D01*
X118179010Y-92612990D02*
X118179010Y-91756220D01*
X118179010Y-91756220D02*
X120839220Y-89096010D01*
X125533990Y-89096010D02*
X127000000Y-87630000D01*
X120839220Y-89096010D02*
X125533990Y-89096010D01*
X117574000Y-91948000D02*
X117574000Y-91724820D01*
X117574000Y-91724820D02*
X120652820Y-88646000D01*
X123444000Y-88646000D02*
X124460000Y-87630000D01*
X120652820Y-88646000D02*
X123444000Y-88646000D01*
X117574000Y-90678000D02*
X117984410Y-90678000D01*
X121032410Y-87630000D02*
X121920000Y-87630000D01*
X117984410Y-90678000D02*
X121032410Y-87630000D01*
X144780000Y-87630000D02*
X147320000Y-87630000D01*
X147320000Y-89126000D02*
X147348000Y-89154000D01*
X147320000Y-87630000D02*
X147320000Y-89126000D01*
X119380000Y-87630000D02*
X119380000Y-88646000D01*
X118618000Y-89408000D02*
X119380000Y-88646000D01*
X117574000Y-89408000D02*
X118618000Y-89408000D01*
X140335000Y-98854500D02*
X140335000Y-100199000D01*
X142621000Y-100199000D02*
X142621000Y-98854500D01*
X140335000Y-101854000D02*
X140970000Y-102489000D01*
X140335000Y-101219000D02*
X140335000Y-101854000D01*
X149751000Y-109220000D02*
X148200000Y-109220000D01*
X150257000Y-108714000D02*
X149751000Y-109220000D01*
X151022000Y-108714000D02*
X150257000Y-108714000D01*
X142621000Y-102489000D02*
X142621000Y-101219000D01*
X149794000Y-108077000D02*
X148209000Y-108077000D01*
X150257000Y-107614000D02*
X149794000Y-108077000D01*
X151022000Y-107614000D02*
X150257000Y-107614000D01*
M02*
