M48
; DRILL file {KiCad (5.1.10)-1} date 10/09/21 12:46:09
; FORMAT={-:-/ absolute / metric / decimal}
; #@! TF.CreationDate,2021-10-09T12:46:09+02:00
; #@! TF.GenerationSoftware,Kicad,Pcbnew,(5.1.10)-1
; #@! TF.FileFunction,Plated,1,2,PTH
FMAT,2
METRIC
T1C0.400
T2C0.600
T3C0.750
T4C0.762
T5C0.780
T6C0.900
T7C1.000
T8C2.500
%
G90
G05
T1
X113.03Y-96.266
X113.03Y-97.028
X113.792Y-96.266
X113.792Y-97.028
X113.792Y-110.998
X113.792Y-111.76
X113.792Y-119.888
X113.792Y-120.65
X114.554Y-110.998
X114.554Y-111.76
X114.554Y-119.888
X114.554Y-120.65
X115.57Y-90.678
X115.57Y-91.948
X115.57Y-93.218
X115.57Y-94.488
X120.142Y-120.142
X134.112Y-120.142
X134.112Y-120.904
X134.874Y-120.142
X134.874Y-120.904
X135.128Y-116.332
X138.811Y-96.647
X139.192Y-105.664
X139.35Y-107.614
X139.35Y-112.014
X139.35Y-113.114
X140.97Y-102.489
X140.97Y-116.84
X142.621Y-102.489
X144.272Y-113.284
X144.907Y-94.869
X147.32Y-100.076
X147.32Y-115.062
X148.2Y-109.22
X148.209Y-108.077
X148.844Y-100.076
X150.368Y-100.076
X151.765Y-104.267
X152.527Y-108.204
X152.654Y-120.142
X152.654Y-120.904
X153.289Y-109.093
X153.416Y-115.316
X153.416Y-120.142
X153.416Y-120.904
X153.543Y-107.061
X154.051Y-109.982
X156.083Y-107.061
X156.178Y-104.235
X158.496Y-115.316
X160.274Y-110.236
X161.036Y-110.998
X161.798Y-111.76
X162.56Y-112.522
X172.2Y-117.6
X175.514Y-106.68
X177.5Y-120.9
X179.2Y-118.2
X179.832Y-105.918
T3
X165.1Y-115.57
T4
X124.206Y-116.84
X126.746Y-116.84
X129.286Y-116.84
X131.826Y-116.84
T5
X119.38Y-87.63
X119.38Y-115.57
X121.92Y-87.63
X121.92Y-115.57
X124.46Y-87.63
X127.0Y-87.63
X129.54Y-87.63
X132.08Y-87.63
X134.62Y-87.63
X137.16Y-87.63
X139.7Y-87.63
X142.24Y-87.63
X144.78Y-87.63
X147.32Y-87.63
X149.86Y-87.63
X152.4Y-87.63
X154.94Y-87.63
X157.48Y-87.63
X160.02Y-87.63
X162.56Y-87.63
X165.1Y-87.63
X167.64Y-87.63
X167.64Y-115.57
T6
X177.8Y-96.15
X177.8Y-98.69
X177.8Y-102.05
X177.8Y-104.59
X177.8Y-107.95
X177.8Y-110.49
T7
X153.67Y-97.79
X153.67Y-100.33
X153.67Y-102.87
X153.67Y-105.41
X156.972Y-119.888
X159.512Y-119.888
X162.052Y-119.888
X164.592Y-119.888
X167.132Y-119.888
X169.672Y-119.888
X183.37Y-97.79
X183.37Y-100.33
X183.37Y-102.87
X183.37Y-105.41
X183.37Y-107.95
T8
X110.49Y-106.68
X176.53Y-88.9
X184.15Y-115.57
T2
X108.216Y-111.504G85X107.616Y-111.504
G05
X108.216Y-120.144G85X107.616Y-120.144
G05
X112.646Y-111.504G85X111.546Y-111.504
G05
X112.646Y-120.144G85X111.546Y-120.144
G05
T0
M30
