G04 #@! TF.GenerationSoftware,KiCad,Pcbnew,(5.1.10)-1*
G04 #@! TF.CreationDate,2021-10-09T12:44:35+02:00*
G04 #@! TF.ProjectId,AirQualitySensor,41697251-7561-46c6-9974-7953656e736f,rev?*
G04 #@! TF.SameCoordinates,Original*
G04 #@! TF.FileFunction,Copper,L2,Bot*
G04 #@! TF.FilePolarity,Positive*
%FSLAX46Y46*%
G04 Gerber Fmt 4.6, Leading zero omitted, Abs format (unit mm)*
G04 Created by KiCad (PCBNEW (5.1.10)-1) date 2021-10-09 12:44:35*
%MOMM*%
%LPD*%
G01*
G04 APERTURE LIST*
G04 #@! TA.AperFunction,ComponentPad*
%ADD10C,5.000000*%
G04 #@! TD*
G04 #@! TA.AperFunction,ComponentPad*
%ADD11C,1.800000*%
G04 #@! TD*
G04 #@! TA.AperFunction,ComponentPad*
%ADD12R,1.800000X1.800000*%
G04 #@! TD*
G04 #@! TA.AperFunction,ComponentPad*
%ADD13O,1.700000X1.700000*%
G04 #@! TD*
G04 #@! TA.AperFunction,ComponentPad*
%ADD14R,1.700000X1.700000*%
G04 #@! TD*
G04 #@! TA.AperFunction,ComponentPad*
%ADD15O,2.100000X1.000000*%
G04 #@! TD*
G04 #@! TA.AperFunction,ComponentPad*
%ADD16O,1.600000X1.000000*%
G04 #@! TD*
G04 #@! TA.AperFunction,ComponentPad*
%ADD17C,1.524000*%
G04 #@! TD*
G04 #@! TA.AperFunction,ComponentPad*
%ADD18C,1.700000*%
G04 #@! TD*
G04 #@! TA.AperFunction,ComponentPad*
%ADD19C,1.337000*%
G04 #@! TD*
G04 #@! TA.AperFunction,ComponentPad*
%ADD20C,1.200000*%
G04 #@! TD*
G04 #@! TA.AperFunction,ViaPad*
%ADD21C,0.800000*%
G04 #@! TD*
G04 #@! TA.AperFunction,Conductor*
%ADD22C,0.500000*%
G04 #@! TD*
G04 #@! TA.AperFunction,Conductor*
%ADD23C,0.250000*%
G04 #@! TD*
G04 #@! TA.AperFunction,Conductor*
%ADD24C,0.400000*%
G04 #@! TD*
G04 #@! TA.AperFunction,Conductor*
%ADD25C,0.254000*%
G04 #@! TD*
G04 #@! TA.AperFunction,Conductor*
%ADD26C,0.100000*%
G04 #@! TD*
G04 APERTURE END LIST*
D10*
X184150000Y-115570000D03*
X176530000Y-88900000D03*
X110490000Y-106680000D03*
D11*
X177800000Y-96150000D03*
D12*
X177800000Y-98690000D03*
D11*
X177800000Y-102050000D03*
D12*
X177800000Y-104590000D03*
D11*
X177800000Y-107950000D03*
D12*
X177800000Y-110490000D03*
D13*
X156972000Y-119888000D03*
X159512000Y-119888000D03*
X162052000Y-119888000D03*
X164592000Y-119888000D03*
X167132000Y-119888000D03*
D14*
X169672000Y-119888000D03*
D15*
X112096000Y-120144000D03*
X112096000Y-111504000D03*
D16*
X107916000Y-111504000D03*
X107916000Y-120144000D03*
D17*
X131826000Y-116840000D03*
X129286000Y-116840000D03*
X126746000Y-116840000D03*
X124206000Y-116840000D03*
D18*
X183370000Y-97790000D03*
X183370000Y-100330000D03*
X183370000Y-102870000D03*
X183370000Y-105410000D03*
X153670000Y-105410000D03*
D14*
X153670000Y-97790000D03*
D18*
X153670000Y-100330000D03*
X153670000Y-102870000D03*
X183370000Y-107950000D03*
D19*
X167640000Y-115570000D03*
D20*
X165100000Y-115570000D03*
D19*
X121920000Y-115570000D03*
X119380000Y-115570000D03*
X119380000Y-87630000D03*
X121920000Y-87630000D03*
X124460000Y-87630000D03*
X127000000Y-87630000D03*
X129540000Y-87630000D03*
X132080000Y-87630000D03*
X134620000Y-87630000D03*
X137160000Y-87630000D03*
X139700000Y-87630000D03*
X142240000Y-87630000D03*
X144780000Y-87630000D03*
X147320000Y-87630000D03*
X149860000Y-87630000D03*
X152400000Y-87630000D03*
X154940000Y-87630000D03*
X157480000Y-87630000D03*
X160020000Y-87630000D03*
X162560000Y-87630000D03*
X165100000Y-87630000D03*
X167640000Y-87630000D03*
D21*
X153416000Y-115316000D03*
X177500000Y-120900000D03*
X147320000Y-115062000D03*
X135128000Y-116332000D03*
X158496000Y-115316000D03*
X114554000Y-120650000D03*
X114554000Y-119888000D03*
X113792000Y-111760000D03*
X113792000Y-119888000D03*
X113792000Y-110998000D03*
X114554000Y-110998000D03*
X113792000Y-120650000D03*
X114554000Y-111760000D03*
X139192000Y-105664000D03*
X113030000Y-97028000D03*
X113030000Y-96266000D03*
X113792000Y-96266000D03*
X113792000Y-97028000D03*
X120142000Y-120142000D03*
X115570000Y-91948000D03*
X115570000Y-93218000D03*
X115570000Y-94488000D03*
X115570000Y-90678000D03*
X138811000Y-96647000D03*
X144907000Y-94869000D03*
X153543000Y-107061000D03*
X142621000Y-102489000D03*
X140970000Y-102489000D03*
X152654000Y-120904000D03*
X153416000Y-120904000D03*
X152654000Y-120142000D03*
X153416000Y-120142000D03*
X140970000Y-116840000D03*
X134874000Y-120142000D03*
X134112000Y-120142000D03*
X134112000Y-120904000D03*
X134874000Y-120904000D03*
X156083000Y-107061000D03*
X175514000Y-106680000D03*
X179832000Y-105918000D03*
X151765000Y-104267000D03*
X156177999Y-104234999D03*
X179200000Y-118200000D03*
X144272000Y-113284000D03*
X162560000Y-112522000D03*
X172200000Y-117600000D03*
X160274000Y-110236000D03*
X139350000Y-107614000D03*
X161798000Y-111760000D03*
X139350000Y-113114000D03*
X161036000Y-110998000D03*
X139350000Y-112014000D03*
X150368000Y-100076000D03*
X152527000Y-108204000D03*
X148844000Y-100076000D03*
X153289000Y-109093000D03*
X147320000Y-100076000D03*
X154051000Y-109982000D03*
X148200000Y-109220000D03*
X148209000Y-108077000D03*
D22*
X124206000Y-116840000D02*
X126657999Y-119291999D01*
X134734039Y-119291999D02*
X137632047Y-116393990D01*
X126657999Y-119291999D02*
X134734039Y-119291999D01*
X137632047Y-116393990D02*
X139192000Y-116393990D01*
X140561999Y-115989999D02*
X141378001Y-115989999D01*
X141378001Y-115989999D02*
X141781992Y-116393990D01*
X140158008Y-116393990D02*
X140561999Y-115989999D01*
X139192000Y-116393990D02*
X140158008Y-116393990D01*
X141781992Y-116393990D02*
X149895953Y-116393990D01*
X149895953Y-116393990D02*
X152338010Y-116393990D01*
X152338010Y-116393990D02*
X153416000Y-115316000D01*
X153416000Y-115316000D02*
X153416000Y-115316000D01*
D23*
X135128000Y-116332000D02*
X136880851Y-116332000D01*
X137393871Y-115818980D02*
X138953824Y-115818980D01*
X136880851Y-116332000D02*
X137393871Y-115818980D01*
X139919832Y-115818980D02*
X140323823Y-115414989D01*
X138953824Y-115818980D02*
X139919832Y-115818980D01*
X147320000Y-115316000D02*
X147418989Y-115414989D01*
X147320000Y-115062000D02*
X147320000Y-115316000D01*
X140323823Y-115414989D02*
X147418989Y-115414989D01*
X157770999Y-114590999D02*
X153067999Y-114590999D01*
X158496000Y-115316000D02*
X157770999Y-114590999D01*
X152244009Y-115414989D02*
X147418989Y-115414989D01*
X153067999Y-114590999D02*
X152244009Y-115414989D01*
X171544999Y-121063001D02*
X171544999Y-121063001D01*
X177126549Y-121273451D02*
X177500000Y-120900000D01*
X174280023Y-121273451D02*
X177126549Y-121273451D01*
X161487999Y-121063001D02*
X174069573Y-121063001D01*
X174069573Y-121063001D02*
X174280023Y-121273451D01*
X160876999Y-120452001D02*
X161487999Y-121063001D01*
X160876999Y-117696999D02*
X160876999Y-120452001D01*
X158496000Y-115316000D02*
X160876999Y-117696999D01*
D22*
X134874000Y-120142000D02*
X137922000Y-117094000D01*
X149606000Y-117094000D02*
X152654000Y-120142000D01*
X140970000Y-117094000D02*
X149606000Y-117094000D01*
X137922000Y-117094000D02*
X140970000Y-117094000D01*
D24*
X140970000Y-116840000D02*
X140970000Y-117094000D01*
D22*
X112096000Y-111504000D02*
X107916000Y-111504000D01*
X107916000Y-111504000D02*
X107916000Y-120144000D01*
X107916000Y-120144000D02*
X112096000Y-120144000D01*
D23*
X153543000Y-107061000D02*
X156083000Y-107061000D01*
X156083000Y-107061000D02*
X156083000Y-107061000D01*
X175514000Y-106680000D02*
X178095002Y-106680000D01*
X178095002Y-106680000D02*
X179070000Y-106680000D01*
X179070000Y-106680000D02*
X179832000Y-105918000D01*
X179832000Y-105918000D02*
X179832000Y-105918000D01*
X151797001Y-104234999D02*
X156177999Y-104234999D01*
X151765000Y-104267000D02*
X151797001Y-104234999D01*
X156177999Y-104234999D02*
X156177999Y-104234999D01*
X179200000Y-118200000D02*
X178500000Y-118900000D01*
X175581879Y-118098451D02*
X172898451Y-118098451D01*
X176383428Y-118900000D02*
X175581879Y-118098451D01*
X178500000Y-118900000D02*
X176383428Y-118900000D01*
X172898451Y-118098451D02*
X172398451Y-118098451D01*
X172398451Y-118098451D02*
X172200000Y-117900000D01*
X172200000Y-117900000D02*
X172200000Y-117600000D01*
X172200000Y-117600000D02*
X172200000Y-117600000D01*
X162560000Y-112522000D02*
X160941011Y-114140989D01*
X145128989Y-114140989D02*
X144272000Y-113284000D01*
X160941011Y-114140989D02*
X145128989Y-114140989D01*
X160274000Y-110236000D02*
X160274000Y-112028959D01*
X159526959Y-112776000D02*
X146109822Y-112776000D01*
X160274000Y-112028959D02*
X159526959Y-112776000D01*
X140947822Y-107614000D02*
X139350000Y-107614000D01*
X146109822Y-112776000D02*
X140947822Y-107614000D01*
X161798000Y-111760000D02*
X161798000Y-112647590D01*
X161798000Y-112647590D02*
X160754611Y-113690979D01*
X145751981Y-113690979D02*
X144620001Y-112558999D01*
X160754611Y-113690979D02*
X145751981Y-113690979D01*
X139905001Y-112558999D02*
X139350000Y-113114000D01*
X144620001Y-112558999D02*
X139905001Y-112558999D01*
X139425011Y-112089011D02*
X139350000Y-112014000D01*
X161036000Y-110998000D02*
X161036000Y-112773180D01*
X161036000Y-112773180D02*
X160568211Y-113240969D01*
X160568211Y-113240969D02*
X145938381Y-113240969D01*
X144711412Y-112014000D02*
X139350000Y-112014000D01*
X145938381Y-113240969D02*
X144711412Y-112014000D01*
X150368000Y-106045000D02*
X150368000Y-100076000D01*
X152527000Y-108204000D02*
X150368000Y-106045000D01*
X148844000Y-100076000D02*
X148774999Y-100145001D01*
X152342998Y-109093000D02*
X151801999Y-108552001D01*
X153289000Y-109093000D02*
X152342998Y-109093000D01*
X151801999Y-108552001D02*
X151801999Y-108115409D01*
X151801999Y-108115409D02*
X149917990Y-106231400D01*
X149917990Y-101149990D02*
X148844000Y-100076000D01*
X149917990Y-106231400D02*
X149917990Y-101149990D01*
X154051000Y-109982000D02*
X152595588Y-109982000D01*
X152595588Y-109982000D02*
X151351989Y-108738401D01*
X151351989Y-108301809D02*
X149467980Y-106417800D01*
X151351989Y-108738401D02*
X151351989Y-108301809D01*
X149467980Y-106417800D02*
X149467980Y-101336390D01*
X149467980Y-101336390D02*
X148932591Y-100801001D01*
X147770998Y-100076000D02*
X147320000Y-100076000D01*
X148495999Y-100801001D02*
X147770998Y-100076000D01*
X148932591Y-100801001D02*
X148495999Y-100801001D01*
X148200000Y-109141002D02*
X148200000Y-109220000D01*
X147483999Y-108425001D02*
X148200000Y-109141002D01*
X147483999Y-107988409D02*
X147483999Y-108425001D01*
X142709591Y-103214001D02*
X147483999Y-107988409D01*
X141695001Y-103214001D02*
X142709591Y-103214001D01*
X140970000Y-102489000D02*
X141695001Y-103214001D01*
X142621000Y-102489000D02*
X148209000Y-108077000D01*
D25*
X175404272Y-85826293D02*
X175685425Y-85871578D01*
X175615554Y-85885476D01*
X175045021Y-86121799D01*
X174531554Y-86464886D01*
X174094886Y-86901554D01*
X173751799Y-87415021D01*
X173515476Y-87985554D01*
X173395000Y-88591229D01*
X173395000Y-89208771D01*
X173515476Y-89814446D01*
X173751799Y-90384979D01*
X174094886Y-90898446D01*
X174531554Y-91335114D01*
X175045021Y-91678201D01*
X175615554Y-91914524D01*
X176221229Y-92035000D01*
X176838771Y-92035000D01*
X177444446Y-91914524D01*
X178014979Y-91678201D01*
X178528446Y-91335114D01*
X178965114Y-90898446D01*
X179308201Y-90384979D01*
X179544524Y-89814446D01*
X179665000Y-89208771D01*
X179665000Y-88591229D01*
X179544524Y-87985554D01*
X179308201Y-87415021D01*
X178965114Y-86901554D01*
X178692085Y-86628525D01*
X179488033Y-86939653D01*
X180744860Y-87592523D01*
X181925201Y-88375255D01*
X183015672Y-89278976D01*
X184003940Y-90293462D01*
X184878807Y-91407219D01*
X185630370Y-92607639D01*
X186250114Y-93881120D01*
X186731024Y-95213253D01*
X187067657Y-96588952D01*
X187256771Y-97996924D01*
X187300001Y-99073266D01*
X187300000Y-121260000D01*
X181122911Y-121260000D01*
X181247744Y-121176589D01*
X181501589Y-120922744D01*
X181701034Y-120624254D01*
X181838414Y-120292589D01*
X181908450Y-119940496D01*
X181908450Y-119581504D01*
X181838414Y-119229411D01*
X181701034Y-118897746D01*
X181501589Y-118599256D01*
X181247744Y-118345411D01*
X180990461Y-118173500D01*
X181247744Y-118001589D01*
X181501589Y-117747744D01*
X181668139Y-117498484D01*
X181714886Y-117568446D01*
X182151554Y-118005114D01*
X182665021Y-118348201D01*
X183235554Y-118584524D01*
X183841229Y-118705000D01*
X184458771Y-118705000D01*
X185064446Y-118584524D01*
X185634979Y-118348201D01*
X186148446Y-118005114D01*
X186585114Y-117568446D01*
X186928201Y-117054979D01*
X187164524Y-116484446D01*
X187285000Y-115878771D01*
X187285000Y-115261229D01*
X187164524Y-114655554D01*
X186928201Y-114085021D01*
X186585114Y-113571554D01*
X186148446Y-113134886D01*
X185634979Y-112791799D01*
X185064446Y-112555476D01*
X184458771Y-112435000D01*
X183841229Y-112435000D01*
X183235554Y-112555476D01*
X182665021Y-112791799D01*
X182151554Y-113134886D01*
X181714886Y-113571554D01*
X181371799Y-114085021D01*
X181135476Y-114655554D01*
X181058250Y-115043795D01*
X180949254Y-114970966D01*
X180617589Y-114833586D01*
X180265496Y-114763550D01*
X179906504Y-114763550D01*
X179688606Y-114806893D01*
X179691500Y-114792345D01*
X179691500Y-114569655D01*
X179648056Y-114351245D01*
X179562836Y-114145507D01*
X179439117Y-113960348D01*
X179281652Y-113802883D01*
X179096493Y-113679164D01*
X178890755Y-113593944D01*
X178672345Y-113550500D01*
X178449655Y-113550500D01*
X178231245Y-113593944D01*
X178025507Y-113679164D01*
X177840348Y-113802883D01*
X177682883Y-113960348D01*
X177559164Y-114145507D01*
X177546000Y-114177288D01*
X177532836Y-114145507D01*
X177409117Y-113960348D01*
X177251652Y-113802883D01*
X177066493Y-113679164D01*
X176860755Y-113593944D01*
X176642345Y-113550500D01*
X176419655Y-113550500D01*
X176201245Y-113593944D01*
X175995507Y-113679164D01*
X175810348Y-113802883D01*
X175652883Y-113960348D01*
X175529164Y-114145507D01*
X175443944Y-114351245D01*
X175400500Y-114569655D01*
X175400500Y-114792345D01*
X175403394Y-114806893D01*
X175185496Y-114763550D01*
X174826504Y-114763550D01*
X174474411Y-114833586D01*
X174142746Y-114970966D01*
X173844256Y-115170411D01*
X173590411Y-115424256D01*
X173390966Y-115722746D01*
X173253586Y-116054411D01*
X173183550Y-116406504D01*
X173183550Y-116765496D01*
X173253586Y-117117589D01*
X173345070Y-117338451D01*
X173203252Y-117338451D01*
X173195226Y-117298102D01*
X173117205Y-117109744D01*
X173003937Y-116940226D01*
X172859774Y-116796063D01*
X172690256Y-116682795D01*
X172501898Y-116604774D01*
X172301939Y-116565000D01*
X172098061Y-116565000D01*
X171898102Y-116604774D01*
X171709744Y-116682795D01*
X171540226Y-116796063D01*
X171396063Y-116940226D01*
X171282795Y-117109744D01*
X171204774Y-117298102D01*
X171165000Y-117498061D01*
X171165000Y-117701939D01*
X171204774Y-117901898D01*
X171282795Y-118090256D01*
X171396063Y-118259774D01*
X171540226Y-118403937D01*
X171709744Y-118517205D01*
X171765498Y-118540299D01*
X171834647Y-118609448D01*
X171858450Y-118638452D01*
X171974175Y-118733425D01*
X172106204Y-118803997D01*
X172249465Y-118847454D01*
X172361118Y-118858451D01*
X172361127Y-118858451D01*
X172398450Y-118862127D01*
X172435773Y-118858451D01*
X173417222Y-118858451D01*
X173390966Y-118897746D01*
X173253586Y-119229411D01*
X173183550Y-119581504D01*
X173183550Y-119940496D01*
X173253586Y-120292589D01*
X173257899Y-120303001D01*
X171157704Y-120303001D01*
X171157000Y-120173750D01*
X170998250Y-120015000D01*
X169799000Y-120015000D01*
X169799000Y-120035000D01*
X169545000Y-120035000D01*
X169545000Y-120015000D01*
X169525000Y-120015000D01*
X169525000Y-119761000D01*
X169545000Y-119761000D01*
X169545000Y-118561750D01*
X169799000Y-118561750D01*
X169799000Y-119761000D01*
X170998250Y-119761000D01*
X171157000Y-119602250D01*
X171160072Y-119038000D01*
X171147812Y-118913518D01*
X171111502Y-118793820D01*
X171052537Y-118683506D01*
X170973185Y-118586815D01*
X170876494Y-118507463D01*
X170766180Y-118448498D01*
X170646482Y-118412188D01*
X170522000Y-118399928D01*
X169957750Y-118403000D01*
X169799000Y-118561750D01*
X169545000Y-118561750D01*
X169386250Y-118403000D01*
X168822000Y-118399928D01*
X168697518Y-118412188D01*
X168577820Y-118448498D01*
X168467506Y-118507463D01*
X168370815Y-118586815D01*
X168291463Y-118683506D01*
X168232498Y-118793820D01*
X168210487Y-118866380D01*
X168078632Y-118734525D01*
X167835411Y-118572010D01*
X167565158Y-118460068D01*
X167278260Y-118403000D01*
X166985740Y-118403000D01*
X166698842Y-118460068D01*
X166428589Y-118572010D01*
X166185368Y-118734525D01*
X165978525Y-118941368D01*
X165862000Y-119115760D01*
X165745475Y-118941368D01*
X165538632Y-118734525D01*
X165295411Y-118572010D01*
X165025158Y-118460068D01*
X164738260Y-118403000D01*
X164445740Y-118403000D01*
X164158842Y-118460068D01*
X163888589Y-118572010D01*
X163645368Y-118734525D01*
X163438525Y-118941368D01*
X163322000Y-119115760D01*
X163205475Y-118941368D01*
X162998632Y-118734525D01*
X162755411Y-118572010D01*
X162485158Y-118460068D01*
X162198260Y-118403000D01*
X161905740Y-118403000D01*
X161636999Y-118456456D01*
X161636999Y-117734321D01*
X161640675Y-117696998D01*
X161636999Y-117659675D01*
X161636999Y-117659666D01*
X161626002Y-117548013D01*
X161582545Y-117404752D01*
X161558624Y-117359999D01*
X161511973Y-117272722D01*
X161440798Y-117185996D01*
X161417000Y-117156998D01*
X161388003Y-117133201D01*
X159703165Y-115448363D01*
X163865000Y-115448363D01*
X163865000Y-115691637D01*
X163912460Y-115930236D01*
X164005557Y-116154992D01*
X164140713Y-116357267D01*
X164312733Y-116529287D01*
X164515008Y-116664443D01*
X164739764Y-116757540D01*
X164978363Y-116805000D01*
X165221637Y-116805000D01*
X165460236Y-116757540D01*
X165684992Y-116664443D01*
X165887267Y-116529287D01*
X166059287Y-116357267D01*
X166194443Y-116154992D01*
X166287540Y-115930236D01*
X166335000Y-115691637D01*
X166335000Y-115448363D01*
X166333658Y-115441616D01*
X166336500Y-115441616D01*
X166336500Y-115698384D01*
X166386593Y-115950217D01*
X166484853Y-116187439D01*
X166627505Y-116400933D01*
X166809067Y-116582495D01*
X167022561Y-116725147D01*
X167259783Y-116823407D01*
X167511616Y-116873500D01*
X167768384Y-116873500D01*
X168020217Y-116823407D01*
X168257439Y-116725147D01*
X168470933Y-116582495D01*
X168652495Y-116400933D01*
X168795147Y-116187439D01*
X168893407Y-115950217D01*
X168943500Y-115698384D01*
X168943500Y-115441616D01*
X168893407Y-115189783D01*
X168795147Y-114952561D01*
X168652495Y-114739067D01*
X168470933Y-114557505D01*
X168257439Y-114414853D01*
X168020217Y-114316593D01*
X167768384Y-114266500D01*
X167511616Y-114266500D01*
X167259783Y-114316593D01*
X167022561Y-114414853D01*
X166809067Y-114557505D01*
X166627505Y-114739067D01*
X166484853Y-114952561D01*
X166386593Y-115189783D01*
X166336500Y-115441616D01*
X166333658Y-115441616D01*
X166287540Y-115209764D01*
X166194443Y-114985008D01*
X166059287Y-114782733D01*
X165887267Y-114610713D01*
X165684992Y-114475557D01*
X165460236Y-114382460D01*
X165221637Y-114335000D01*
X164978363Y-114335000D01*
X164739764Y-114382460D01*
X164515008Y-114475557D01*
X164312733Y-114610713D01*
X164140713Y-114782733D01*
X164005557Y-114985008D01*
X163912460Y-115209764D01*
X163865000Y-115448363D01*
X159703165Y-115448363D01*
X159531000Y-115276199D01*
X159531000Y-115214061D01*
X159491226Y-115014102D01*
X159444373Y-114900989D01*
X160903689Y-114900989D01*
X160941011Y-114904665D01*
X160978333Y-114900989D01*
X160978344Y-114900989D01*
X161089997Y-114889992D01*
X161233258Y-114846535D01*
X161365287Y-114775963D01*
X161481012Y-114680990D01*
X161504815Y-114651986D01*
X162599802Y-113557000D01*
X162661939Y-113557000D01*
X162861898Y-113517226D01*
X163050256Y-113439205D01*
X163219774Y-113325937D01*
X163363937Y-113181774D01*
X163477205Y-113012256D01*
X163555226Y-112823898D01*
X163595000Y-112623939D01*
X163595000Y-112420061D01*
X163555226Y-112220102D01*
X163477205Y-112031744D01*
X163363937Y-111862226D01*
X163219774Y-111718063D01*
X163050256Y-111604795D01*
X162861898Y-111526774D01*
X162804619Y-111515381D01*
X162793226Y-111458102D01*
X162765018Y-111390000D01*
X176261928Y-111390000D01*
X176274188Y-111514482D01*
X176310498Y-111634180D01*
X176369463Y-111744494D01*
X176448815Y-111841185D01*
X176545506Y-111920537D01*
X176655820Y-111979502D01*
X176775518Y-112015812D01*
X176900000Y-112028072D01*
X177514250Y-112025000D01*
X177673000Y-111866250D01*
X177673000Y-110617000D01*
X177927000Y-110617000D01*
X177927000Y-111866250D01*
X178085750Y-112025000D01*
X178700000Y-112028072D01*
X178824482Y-112015812D01*
X178944180Y-111979502D01*
X179054494Y-111920537D01*
X179151185Y-111841185D01*
X179230537Y-111744494D01*
X179289502Y-111634180D01*
X179325812Y-111514482D01*
X179338072Y-111390000D01*
X179335000Y-110775750D01*
X179176250Y-110617000D01*
X177927000Y-110617000D01*
X177673000Y-110617000D01*
X176423750Y-110617000D01*
X176265000Y-110775750D01*
X176261928Y-111390000D01*
X162765018Y-111390000D01*
X162715205Y-111269744D01*
X162601937Y-111100226D01*
X162457774Y-110956063D01*
X162288256Y-110842795D01*
X162099898Y-110764774D01*
X162042619Y-110753381D01*
X162031226Y-110696102D01*
X161953205Y-110507744D01*
X161839937Y-110338226D01*
X161695774Y-110194063D01*
X161526256Y-110080795D01*
X161337898Y-110002774D01*
X161280619Y-109991381D01*
X161269226Y-109934102D01*
X161191205Y-109745744D01*
X161077937Y-109576226D01*
X160933774Y-109432063D01*
X160764256Y-109318795D01*
X160575898Y-109240774D01*
X160375939Y-109201000D01*
X160172061Y-109201000D01*
X159972102Y-109240774D01*
X159783744Y-109318795D01*
X159614226Y-109432063D01*
X159470063Y-109576226D01*
X159356795Y-109745744D01*
X159278774Y-109934102D01*
X159239000Y-110134061D01*
X159239000Y-110337939D01*
X159278774Y-110537898D01*
X159356795Y-110726256D01*
X159470063Y-110895774D01*
X159514000Y-110939711D01*
X159514001Y-111714156D01*
X159212158Y-112016000D01*
X146424625Y-112016000D01*
X141511626Y-107103003D01*
X141487823Y-107073999D01*
X141372098Y-106979026D01*
X141240069Y-106908454D01*
X141096808Y-106864997D01*
X140985155Y-106854000D01*
X140985144Y-106854000D01*
X140947822Y-106850324D01*
X140910500Y-106854000D01*
X140053711Y-106854000D01*
X140009774Y-106810063D01*
X139840256Y-106696795D01*
X139651898Y-106618774D01*
X139451939Y-106579000D01*
X139248061Y-106579000D01*
X139048102Y-106618774D01*
X138859744Y-106696795D01*
X138690226Y-106810063D01*
X138546063Y-106954226D01*
X138432795Y-107123744D01*
X138354774Y-107312102D01*
X138315000Y-107512061D01*
X138315000Y-107715939D01*
X138354774Y-107915898D01*
X138432795Y-108104256D01*
X138546063Y-108273774D01*
X138690226Y-108417937D01*
X138859744Y-108531205D01*
X139048102Y-108609226D01*
X139248061Y-108649000D01*
X139451939Y-108649000D01*
X139651898Y-108609226D01*
X139840256Y-108531205D01*
X140009774Y-108417937D01*
X140053711Y-108374000D01*
X140633021Y-108374000D01*
X143513020Y-111254000D01*
X140053711Y-111254000D01*
X140009774Y-111210063D01*
X139840256Y-111096795D01*
X139651898Y-111018774D01*
X139451939Y-110979000D01*
X139248061Y-110979000D01*
X139048102Y-111018774D01*
X138859744Y-111096795D01*
X138690226Y-111210063D01*
X138546063Y-111354226D01*
X138432795Y-111523744D01*
X138354774Y-111712102D01*
X138315000Y-111912061D01*
X138315000Y-112115939D01*
X138354774Y-112315898D01*
X138432795Y-112504256D01*
X138472715Y-112564000D01*
X138432795Y-112623744D01*
X138354774Y-112812102D01*
X138315000Y-113012061D01*
X138315000Y-113215939D01*
X138354774Y-113415898D01*
X138432795Y-113604256D01*
X138546063Y-113773774D01*
X138690226Y-113917937D01*
X138859744Y-114031205D01*
X139048102Y-114109226D01*
X139248061Y-114149000D01*
X139451939Y-114149000D01*
X139651898Y-114109226D01*
X139840256Y-114031205D01*
X140009774Y-113917937D01*
X140153937Y-113773774D01*
X140267205Y-113604256D01*
X140345226Y-113415898D01*
X140364500Y-113318999D01*
X143237000Y-113318999D01*
X143237000Y-113385939D01*
X143276774Y-113585898D01*
X143354795Y-113774256D01*
X143468063Y-113943774D01*
X143612226Y-114087937D01*
X143781744Y-114201205D01*
X143970102Y-114279226D01*
X144170061Y-114319000D01*
X144232198Y-114319000D01*
X144565194Y-114651997D01*
X144567650Y-114654989D01*
X140361156Y-114654989D01*
X140323823Y-114651312D01*
X140286490Y-114654989D01*
X140174837Y-114665986D01*
X140031576Y-114709443D01*
X139899547Y-114780015D01*
X139783822Y-114874988D01*
X139760019Y-114903992D01*
X139605031Y-115058980D01*
X137431194Y-115058980D01*
X137393871Y-115055304D01*
X137356548Y-115058980D01*
X137356538Y-115058980D01*
X137244885Y-115069977D01*
X137101624Y-115113434D01*
X136969595Y-115184006D01*
X136853870Y-115278979D01*
X136830071Y-115307978D01*
X136566050Y-115572000D01*
X135831711Y-115572000D01*
X135787774Y-115528063D01*
X135618256Y-115414795D01*
X135429898Y-115336774D01*
X135229939Y-115297000D01*
X135026061Y-115297000D01*
X134826102Y-115336774D01*
X134637744Y-115414795D01*
X134468226Y-115528063D01*
X134324063Y-115672226D01*
X134210795Y-115841744D01*
X134132774Y-116030102D01*
X134093000Y-116230061D01*
X134093000Y-116433939D01*
X134132774Y-116633898D01*
X134210795Y-116822256D01*
X134324063Y-116991774D01*
X134468226Y-117135937D01*
X134637744Y-117249205D01*
X134826102Y-117327226D01*
X135026061Y-117367000D01*
X135229939Y-117367000D01*
X135429898Y-117327226D01*
X135459491Y-117314968D01*
X134367461Y-118406999D01*
X127024578Y-118406999D01*
X126854579Y-118237000D01*
X126883592Y-118237000D01*
X127153490Y-118183314D01*
X127407727Y-118078005D01*
X127636535Y-117925120D01*
X127831120Y-117730535D01*
X127984005Y-117501727D01*
X128016000Y-117424485D01*
X128047995Y-117501727D01*
X128200880Y-117730535D01*
X128395465Y-117925120D01*
X128624273Y-118078005D01*
X128878510Y-118183314D01*
X129148408Y-118237000D01*
X129423592Y-118237000D01*
X129693490Y-118183314D01*
X129947727Y-118078005D01*
X130176535Y-117925120D01*
X130296090Y-117805565D01*
X131040040Y-117805565D01*
X131107020Y-118045656D01*
X131356048Y-118162756D01*
X131623135Y-118229023D01*
X131898017Y-118241910D01*
X132170133Y-118200922D01*
X132429023Y-118107636D01*
X132544980Y-118045656D01*
X132611960Y-117805565D01*
X131826000Y-117019605D01*
X131040040Y-117805565D01*
X130296090Y-117805565D01*
X130371120Y-117730535D01*
X130524005Y-117501727D01*
X130553692Y-117430057D01*
X130558364Y-117443023D01*
X130620344Y-117558980D01*
X130860435Y-117625960D01*
X131646395Y-116840000D01*
X132005605Y-116840000D01*
X132791565Y-117625960D01*
X133031656Y-117558980D01*
X133148756Y-117309952D01*
X133215023Y-117042865D01*
X133227910Y-116767983D01*
X133186922Y-116495867D01*
X133093636Y-116236977D01*
X133031656Y-116121020D01*
X132791565Y-116054040D01*
X132005605Y-116840000D01*
X131646395Y-116840000D01*
X130860435Y-116054040D01*
X130620344Y-116121020D01*
X130556515Y-116256760D01*
X130524005Y-116178273D01*
X130371120Y-115949465D01*
X130296090Y-115874435D01*
X131040040Y-115874435D01*
X131826000Y-116660395D01*
X132611960Y-115874435D01*
X132544980Y-115634344D01*
X132295952Y-115517244D01*
X132028865Y-115450977D01*
X131753983Y-115438090D01*
X131481867Y-115479078D01*
X131222977Y-115572364D01*
X131107020Y-115634344D01*
X131040040Y-115874435D01*
X130296090Y-115874435D01*
X130176535Y-115754880D01*
X129947727Y-115601995D01*
X129693490Y-115496686D01*
X129423592Y-115443000D01*
X129148408Y-115443000D01*
X128878510Y-115496686D01*
X128624273Y-115601995D01*
X128395465Y-115754880D01*
X128200880Y-115949465D01*
X128047995Y-116178273D01*
X128016000Y-116255515D01*
X127984005Y-116178273D01*
X127831120Y-115949465D01*
X127636535Y-115754880D01*
X127407727Y-115601995D01*
X127153490Y-115496686D01*
X126883592Y-115443000D01*
X126608408Y-115443000D01*
X126338510Y-115496686D01*
X126084273Y-115601995D01*
X125855465Y-115754880D01*
X125660880Y-115949465D01*
X125507995Y-116178273D01*
X125476000Y-116255515D01*
X125444005Y-116178273D01*
X125291120Y-115949465D01*
X125096535Y-115754880D01*
X124867727Y-115601995D01*
X124613490Y-115496686D01*
X124343592Y-115443000D01*
X124068408Y-115443000D01*
X123798510Y-115496686D01*
X123544273Y-115601995D01*
X123315465Y-115754880D01*
X123186636Y-115883709D01*
X123223500Y-115698384D01*
X123223500Y-115441616D01*
X123173407Y-115189783D01*
X123075147Y-114952561D01*
X122932495Y-114739067D01*
X122750933Y-114557505D01*
X122537439Y-114414853D01*
X122300217Y-114316593D01*
X122048384Y-114266500D01*
X121791616Y-114266500D01*
X121539783Y-114316593D01*
X121302561Y-114414853D01*
X121089067Y-114557505D01*
X120907505Y-114739067D01*
X120764853Y-114952561D01*
X120666593Y-115189783D01*
X120650000Y-115273201D01*
X120633407Y-115189783D01*
X120535147Y-114952561D01*
X120392495Y-114739067D01*
X120210933Y-114557505D01*
X119997439Y-114414853D01*
X119760217Y-114316593D01*
X119508384Y-114266500D01*
X119251616Y-114266500D01*
X118999783Y-114316593D01*
X118762561Y-114414853D01*
X118549067Y-114557505D01*
X118367505Y-114739067D01*
X118224853Y-114952561D01*
X118126593Y-115189783D01*
X118076500Y-115441616D01*
X118076500Y-115698384D01*
X118126593Y-115950217D01*
X118224853Y-116187439D01*
X118367505Y-116400933D01*
X118549067Y-116582495D01*
X118762561Y-116725147D01*
X118999783Y-116823407D01*
X119251616Y-116873500D01*
X119508384Y-116873500D01*
X119760217Y-116823407D01*
X119997439Y-116725147D01*
X120210933Y-116582495D01*
X120392495Y-116400933D01*
X120535147Y-116187439D01*
X120633407Y-115950217D01*
X120650000Y-115866799D01*
X120666593Y-115950217D01*
X120764853Y-116187439D01*
X120907505Y-116400933D01*
X121089067Y-116582495D01*
X121302561Y-116725147D01*
X121539783Y-116823407D01*
X121791616Y-116873500D01*
X122048384Y-116873500D01*
X122300217Y-116823407D01*
X122537439Y-116725147D01*
X122750933Y-116582495D01*
X122853193Y-116480235D01*
X122809000Y-116702408D01*
X122809000Y-116977592D01*
X122862686Y-117247490D01*
X122967995Y-117501727D01*
X123120880Y-117730535D01*
X123315465Y-117925120D01*
X123544273Y-118078005D01*
X123798510Y-118183314D01*
X124068408Y-118237000D01*
X124343592Y-118237000D01*
X124350123Y-118235701D01*
X126001469Y-119887048D01*
X126029182Y-119920816D01*
X126062950Y-119948529D01*
X126062952Y-119948531D01*
X126112250Y-119988989D01*
X126163940Y-120031410D01*
X126317686Y-120113588D01*
X126484509Y-120164194D01*
X126614522Y-120176999D01*
X126614532Y-120176999D01*
X126657998Y-120181280D01*
X126701464Y-120176999D01*
X133077000Y-120176999D01*
X133077000Y-120243939D01*
X133116774Y-120443898D01*
X133149539Y-120523000D01*
X133116774Y-120602102D01*
X133077000Y-120802061D01*
X133077000Y-121005939D01*
X133116774Y-121205898D01*
X133139184Y-121260000D01*
X112876994Y-121260000D01*
X113082447Y-121197676D01*
X113279623Y-121092284D01*
X113452449Y-120950449D01*
X113594284Y-120777623D01*
X113699676Y-120580447D01*
X113764577Y-120366499D01*
X113786491Y-120144000D01*
X113764577Y-119921501D01*
X113699676Y-119707553D01*
X113594284Y-119510377D01*
X113452449Y-119337551D01*
X113279623Y-119195716D01*
X113082447Y-119090324D01*
X112868499Y-119025423D01*
X112701752Y-119009000D01*
X112482904Y-119009000D01*
X112489108Y-118994022D01*
X112526000Y-118808552D01*
X112526000Y-118619448D01*
X112489108Y-118433978D01*
X112416741Y-118259269D01*
X112311681Y-118102036D01*
X112177964Y-117968319D01*
X112020731Y-117863259D01*
X111846022Y-117790892D01*
X111660552Y-117754000D01*
X111471448Y-117754000D01*
X111285978Y-117790892D01*
X111111269Y-117863259D01*
X110954036Y-117968319D01*
X110820319Y-118102036D01*
X110715259Y-118259269D01*
X110642892Y-118433978D01*
X110606000Y-118619448D01*
X110606000Y-118808552D01*
X110642892Y-118994022D01*
X110715259Y-119168731D01*
X110775575Y-119259000D01*
X108926735Y-119259000D01*
X108849623Y-119195716D01*
X108801000Y-119169727D01*
X108801000Y-112478273D01*
X108849623Y-112452284D01*
X108926735Y-112389000D01*
X110775575Y-112389000D01*
X110715259Y-112479269D01*
X110642892Y-112653978D01*
X110606000Y-112839448D01*
X110606000Y-113028552D01*
X110642892Y-113214022D01*
X110715259Y-113388731D01*
X110820319Y-113545964D01*
X110954036Y-113679681D01*
X111111269Y-113784741D01*
X111285978Y-113857108D01*
X111471448Y-113894000D01*
X111660552Y-113894000D01*
X111846022Y-113857108D01*
X112020731Y-113784741D01*
X112177964Y-113679681D01*
X112311681Y-113545964D01*
X112416741Y-113388731D01*
X112489108Y-113214022D01*
X112526000Y-113028552D01*
X112526000Y-112839448D01*
X112489108Y-112653978D01*
X112482904Y-112639000D01*
X112701752Y-112639000D01*
X112868499Y-112622577D01*
X113082447Y-112557676D01*
X113279623Y-112452284D01*
X113452449Y-112310449D01*
X113594284Y-112137623D01*
X113699676Y-111940447D01*
X113764577Y-111726499D01*
X113786491Y-111504000D01*
X113764577Y-111281501D01*
X113699676Y-111067553D01*
X113594284Y-110870377D01*
X113452449Y-110697551D01*
X113279623Y-110555716D01*
X113082447Y-110450324D01*
X112868499Y-110385423D01*
X112701752Y-110369000D01*
X111490248Y-110369000D01*
X111323501Y-110385423D01*
X111109553Y-110450324D01*
X110912377Y-110555716D01*
X110835265Y-110619000D01*
X108926735Y-110619000D01*
X108849623Y-110555716D01*
X108652447Y-110450324D01*
X108438499Y-110385423D01*
X108271752Y-110369000D01*
X107560248Y-110369000D01*
X107393501Y-110385423D01*
X107340000Y-110401652D01*
X107340000Y-106371229D01*
X107355000Y-106371229D01*
X107355000Y-106988771D01*
X107475476Y-107594446D01*
X107711799Y-108164979D01*
X108054886Y-108678446D01*
X108491554Y-109115114D01*
X109005021Y-109458201D01*
X109575554Y-109694524D01*
X110181229Y-109815000D01*
X110798771Y-109815000D01*
X111404446Y-109694524D01*
X111974979Y-109458201D01*
X112488446Y-109115114D01*
X112925114Y-108678446D01*
X113268201Y-108164979D01*
X113504524Y-107594446D01*
X113625000Y-106988771D01*
X113625000Y-106371229D01*
X113504524Y-105765554D01*
X113268201Y-105195021D01*
X112925114Y-104681554D01*
X112488446Y-104244886D01*
X111974979Y-103901799D01*
X111404446Y-103665476D01*
X110798771Y-103545000D01*
X110181229Y-103545000D01*
X109575554Y-103665476D01*
X109005021Y-103901799D01*
X108491554Y-104244886D01*
X108054886Y-104681554D01*
X107711799Y-105195021D01*
X107475476Y-105765554D01*
X107355000Y-106371229D01*
X107340000Y-106371229D01*
X107340000Y-102387061D01*
X139935000Y-102387061D01*
X139935000Y-102590939D01*
X139974774Y-102790898D01*
X140052795Y-102979256D01*
X140166063Y-103148774D01*
X140310226Y-103292937D01*
X140479744Y-103406205D01*
X140668102Y-103484226D01*
X140868061Y-103524000D01*
X140930198Y-103524000D01*
X141131202Y-103725003D01*
X141155000Y-103754002D01*
X141270725Y-103848975D01*
X141402754Y-103919547D01*
X141546015Y-103963004D01*
X141657668Y-103974001D01*
X141657677Y-103974001D01*
X141695000Y-103977677D01*
X141732323Y-103974001D01*
X142394790Y-103974001D01*
X146723999Y-108303211D01*
X146723999Y-108387679D01*
X146720323Y-108425001D01*
X146723999Y-108462323D01*
X146723999Y-108462334D01*
X146734996Y-108573987D01*
X146778453Y-108717248D01*
X146849025Y-108849277D01*
X146943999Y-108965002D01*
X146972997Y-108988800D01*
X147165000Y-109180803D01*
X147165000Y-109321939D01*
X147204774Y-109521898D01*
X147282795Y-109710256D01*
X147396063Y-109879774D01*
X147540226Y-110023937D01*
X147709744Y-110137205D01*
X147898102Y-110215226D01*
X148098061Y-110255000D01*
X148301939Y-110255000D01*
X148501898Y-110215226D01*
X148690256Y-110137205D01*
X148859774Y-110023937D01*
X149003937Y-109879774D01*
X149117205Y-109710256D01*
X149195226Y-109521898D01*
X149235000Y-109321939D01*
X149235000Y-109118061D01*
X149195226Y-108918102D01*
X149117205Y-108729744D01*
X149067420Y-108655235D01*
X149126205Y-108567256D01*
X149204226Y-108378898D01*
X149244000Y-108178939D01*
X149244000Y-107975061D01*
X149204226Y-107775102D01*
X149126205Y-107586744D01*
X149012937Y-107417226D01*
X148868774Y-107273063D01*
X148699256Y-107159795D01*
X148510898Y-107081774D01*
X148310939Y-107042000D01*
X148248803Y-107042000D01*
X143656000Y-102449199D01*
X143656000Y-102387061D01*
X143616226Y-102187102D01*
X143538205Y-101998744D01*
X143424937Y-101829226D01*
X143280774Y-101685063D01*
X143111256Y-101571795D01*
X142922898Y-101493774D01*
X142722939Y-101454000D01*
X142519061Y-101454000D01*
X142319102Y-101493774D01*
X142130744Y-101571795D01*
X141961226Y-101685063D01*
X141817063Y-101829226D01*
X141795500Y-101861497D01*
X141773937Y-101829226D01*
X141629774Y-101685063D01*
X141460256Y-101571795D01*
X141271898Y-101493774D01*
X141071939Y-101454000D01*
X140868061Y-101454000D01*
X140668102Y-101493774D01*
X140479744Y-101571795D01*
X140310226Y-101685063D01*
X140166063Y-101829226D01*
X140052795Y-101998744D01*
X139974774Y-102187102D01*
X139935000Y-102387061D01*
X107340000Y-102387061D01*
X107340000Y-99974061D01*
X146285000Y-99974061D01*
X146285000Y-100177939D01*
X146324774Y-100377898D01*
X146402795Y-100566256D01*
X146516063Y-100735774D01*
X146660226Y-100879937D01*
X146829744Y-100993205D01*
X147018102Y-101071226D01*
X147218061Y-101111000D01*
X147421939Y-101111000D01*
X147621898Y-101071226D01*
X147671059Y-101050863D01*
X147932200Y-101312003D01*
X147955998Y-101341002D01*
X148071723Y-101435975D01*
X148203752Y-101506547D01*
X148347013Y-101550004D01*
X148458666Y-101561001D01*
X148458675Y-101561001D01*
X148495998Y-101564677D01*
X148533321Y-101561001D01*
X148617789Y-101561001D01*
X148707981Y-101651193D01*
X148707980Y-106380477D01*
X148704304Y-106417800D01*
X148707980Y-106455122D01*
X148707980Y-106455132D01*
X148718977Y-106566785D01*
X148762434Y-106710046D01*
X148833006Y-106842076D01*
X148851817Y-106864997D01*
X148927979Y-106957801D01*
X148956983Y-106981604D01*
X150591989Y-108616611D01*
X150591989Y-108701079D01*
X150588313Y-108738401D01*
X150591989Y-108775723D01*
X150591989Y-108775733D01*
X150602986Y-108887386D01*
X150634725Y-108992016D01*
X150646443Y-109030647D01*
X150717015Y-109162677D01*
X150748466Y-109201000D01*
X150811988Y-109278402D01*
X150840992Y-109302205D01*
X152031789Y-110493003D01*
X152055587Y-110522001D01*
X152084585Y-110545799D01*
X152171312Y-110616974D01*
X152303341Y-110687546D01*
X152446602Y-110731003D01*
X152595588Y-110745677D01*
X152632921Y-110742000D01*
X153347289Y-110742000D01*
X153391226Y-110785937D01*
X153560744Y-110899205D01*
X153749102Y-110977226D01*
X153949061Y-111017000D01*
X154152939Y-111017000D01*
X154352898Y-110977226D01*
X154541256Y-110899205D01*
X154710774Y-110785937D01*
X154854937Y-110641774D01*
X154968205Y-110472256D01*
X155046226Y-110283898D01*
X155086000Y-110083939D01*
X155086000Y-109880061D01*
X155046226Y-109680102D01*
X154968205Y-109491744D01*
X154854937Y-109322226D01*
X154710774Y-109178063D01*
X154541256Y-109064795D01*
X154352898Y-108986774D01*
X154321922Y-108980612D01*
X154284226Y-108791102D01*
X154206205Y-108602744D01*
X154092937Y-108433226D01*
X153948774Y-108289063D01*
X153779256Y-108175795D01*
X153590898Y-108097774D01*
X153581979Y-108096000D01*
X153644939Y-108096000D01*
X153844898Y-108056226D01*
X154033256Y-107978205D01*
X154202774Y-107864937D01*
X154246711Y-107821000D01*
X155379289Y-107821000D01*
X155423226Y-107864937D01*
X155592744Y-107978205D01*
X155781102Y-108056226D01*
X155981061Y-108096000D01*
X156184939Y-108096000D01*
X156384898Y-108056226D01*
X156573256Y-107978205D01*
X156742774Y-107864937D01*
X156886937Y-107720774D01*
X157000205Y-107551256D01*
X157078226Y-107362898D01*
X157118000Y-107162939D01*
X157118000Y-106959061D01*
X157078226Y-106759102D01*
X157003236Y-106578061D01*
X174479000Y-106578061D01*
X174479000Y-106781939D01*
X174518774Y-106981898D01*
X174596795Y-107170256D01*
X174710063Y-107339774D01*
X174854226Y-107483937D01*
X175023744Y-107597205D01*
X175212102Y-107675226D01*
X175412061Y-107715000D01*
X175615939Y-107715000D01*
X175815898Y-107675226D01*
X176004256Y-107597205D01*
X176173774Y-107483937D01*
X176217711Y-107440000D01*
X176349777Y-107440000D01*
X176323989Y-107502257D01*
X176265000Y-107798816D01*
X176265000Y-108101184D01*
X176323989Y-108397743D01*
X176439701Y-108677095D01*
X176607688Y-108928505D01*
X176674127Y-108994944D01*
X176655820Y-109000498D01*
X176545506Y-109059463D01*
X176448815Y-109138815D01*
X176369463Y-109235506D01*
X176310498Y-109345820D01*
X176274188Y-109465518D01*
X176261928Y-109590000D01*
X176265000Y-110204250D01*
X176423750Y-110363000D01*
X177673000Y-110363000D01*
X177673000Y-110343000D01*
X177927000Y-110343000D01*
X177927000Y-110363000D01*
X179176250Y-110363000D01*
X179335000Y-110204250D01*
X179338072Y-109590000D01*
X179325812Y-109465518D01*
X179289502Y-109345820D01*
X179230537Y-109235506D01*
X179151185Y-109138815D01*
X179054494Y-109059463D01*
X178944180Y-109000498D01*
X178925873Y-108994944D01*
X178992312Y-108928505D01*
X179160299Y-108677095D01*
X179276011Y-108397743D01*
X179335000Y-108101184D01*
X179335000Y-107798816D01*
X179276011Y-107502257D01*
X179242690Y-107421813D01*
X179362247Y-107385546D01*
X179494276Y-107314974D01*
X179610001Y-107220001D01*
X179633803Y-107190998D01*
X179871801Y-106953000D01*
X179933939Y-106953000D01*
X180133898Y-106913226D01*
X180322256Y-106835205D01*
X180491774Y-106721937D01*
X180635937Y-106577774D01*
X180749205Y-106408256D01*
X180827226Y-106219898D01*
X180867000Y-106019939D01*
X180867000Y-105816061D01*
X180827226Y-105616102D01*
X180749205Y-105427744D01*
X180635937Y-105258226D01*
X180491774Y-105114063D01*
X180322256Y-105000795D01*
X180133898Y-104922774D01*
X179933939Y-104883000D01*
X179730061Y-104883000D01*
X179530102Y-104922774D01*
X179341744Y-105000795D01*
X179335646Y-105004870D01*
X179335000Y-104875750D01*
X179176250Y-104717000D01*
X177927000Y-104717000D01*
X177927000Y-104737000D01*
X177673000Y-104737000D01*
X177673000Y-104717000D01*
X176423750Y-104717000D01*
X176265000Y-104875750D01*
X176261928Y-105490000D01*
X176274188Y-105614482D01*
X176310498Y-105734180D01*
X176369463Y-105844494D01*
X176431429Y-105920000D01*
X176217711Y-105920000D01*
X176173774Y-105876063D01*
X176004256Y-105762795D01*
X175815898Y-105684774D01*
X175615939Y-105645000D01*
X175412061Y-105645000D01*
X175212102Y-105684774D01*
X175023744Y-105762795D01*
X174854226Y-105876063D01*
X174710063Y-106020226D01*
X174596795Y-106189744D01*
X174518774Y-106378102D01*
X174479000Y-106578061D01*
X157003236Y-106578061D01*
X157000205Y-106570744D01*
X156886937Y-106401226D01*
X156742774Y-106257063D01*
X156573256Y-106143795D01*
X156384898Y-106065774D01*
X156184939Y-106026000D01*
X155981061Y-106026000D01*
X155781102Y-106065774D01*
X155592744Y-106143795D01*
X155423226Y-106257063D01*
X155379289Y-106301000D01*
X154860647Y-106301000D01*
X154985990Y-106113411D01*
X155097932Y-105843158D01*
X155155000Y-105556260D01*
X155155000Y-105263740D01*
X155101544Y-104994999D01*
X155474288Y-104994999D01*
X155518225Y-105038936D01*
X155687743Y-105152204D01*
X155876101Y-105230225D01*
X156076060Y-105269999D01*
X156279938Y-105269999D01*
X156479897Y-105230225D01*
X156668255Y-105152204D01*
X156837773Y-105038936D01*
X156981936Y-104894773D01*
X157095204Y-104725255D01*
X157173225Y-104536897D01*
X157212999Y-104336938D01*
X157212999Y-104133060D01*
X157173225Y-103933101D01*
X157095204Y-103744743D01*
X157058626Y-103690000D01*
X176261928Y-103690000D01*
X176265000Y-104304250D01*
X176423750Y-104463000D01*
X177673000Y-104463000D01*
X177673000Y-104443000D01*
X177927000Y-104443000D01*
X177927000Y-104463000D01*
X179176250Y-104463000D01*
X179335000Y-104304250D01*
X179338072Y-103690000D01*
X179325812Y-103565518D01*
X179289502Y-103445820D01*
X179230537Y-103335506D01*
X179151185Y-103238815D01*
X179054494Y-103159463D01*
X178944180Y-103100498D01*
X178925873Y-103094944D01*
X178992312Y-103028505D01*
X179160299Y-102777095D01*
X179276011Y-102497743D01*
X179335000Y-102201184D01*
X179335000Y-101898816D01*
X179276011Y-101602257D01*
X179160299Y-101322905D01*
X178992312Y-101071495D01*
X178778505Y-100857688D01*
X178527095Y-100689701D01*
X178247743Y-100573989D01*
X177951184Y-100515000D01*
X177648816Y-100515000D01*
X177352257Y-100573989D01*
X177072905Y-100689701D01*
X176821495Y-100857688D01*
X176607688Y-101071495D01*
X176439701Y-101322905D01*
X176323989Y-101602257D01*
X176265000Y-101898816D01*
X176265000Y-102201184D01*
X176323989Y-102497743D01*
X176439701Y-102777095D01*
X176607688Y-103028505D01*
X176674127Y-103094944D01*
X176655820Y-103100498D01*
X176545506Y-103159463D01*
X176448815Y-103238815D01*
X176369463Y-103335506D01*
X176310498Y-103445820D01*
X176274188Y-103565518D01*
X176261928Y-103690000D01*
X157058626Y-103690000D01*
X156981936Y-103575225D01*
X156837773Y-103431062D01*
X156668255Y-103317794D01*
X156479897Y-103239773D01*
X156279938Y-103199999D01*
X156076060Y-103199999D01*
X155876101Y-103239773D01*
X155687743Y-103317794D01*
X155518225Y-103431062D01*
X155474288Y-103474999D01*
X155026753Y-103474999D01*
X155097932Y-103303158D01*
X155155000Y-103016260D01*
X155155000Y-102723740D01*
X155097932Y-102436842D01*
X154985990Y-102166589D01*
X154823475Y-101923368D01*
X154616632Y-101716525D01*
X154443271Y-101600689D01*
X154518792Y-101358397D01*
X153670000Y-100509605D01*
X152821208Y-101358397D01*
X152896729Y-101600689D01*
X152723368Y-101716525D01*
X152516525Y-101923368D01*
X152354010Y-102166589D01*
X152242068Y-102436842D01*
X152185000Y-102723740D01*
X152185000Y-103016260D01*
X152242068Y-103303158D01*
X152263731Y-103355458D01*
X152255256Y-103349795D01*
X152066898Y-103271774D01*
X151866939Y-103232000D01*
X151663061Y-103232000D01*
X151463102Y-103271774D01*
X151274744Y-103349795D01*
X151128000Y-103447846D01*
X151128000Y-100779711D01*
X151171937Y-100735774D01*
X151285205Y-100566256D01*
X151354679Y-100398531D01*
X152179389Y-100398531D01*
X152221401Y-100688019D01*
X152319081Y-100963747D01*
X152392528Y-101101157D01*
X152641603Y-101178792D01*
X153490395Y-100330000D01*
X153849605Y-100330000D01*
X154698397Y-101178792D01*
X154947472Y-101101157D01*
X155073371Y-100837117D01*
X155145339Y-100553589D01*
X155160611Y-100261469D01*
X155118599Y-99971981D01*
X155020919Y-99696253D01*
X154964126Y-99590000D01*
X176261928Y-99590000D01*
X176274188Y-99714482D01*
X176310498Y-99834180D01*
X176369463Y-99944494D01*
X176448815Y-100041185D01*
X176545506Y-100120537D01*
X176655820Y-100179502D01*
X176775518Y-100215812D01*
X176900000Y-100228072D01*
X177514250Y-100225000D01*
X177673000Y-100066250D01*
X177673000Y-98817000D01*
X177927000Y-98817000D01*
X177927000Y-100066250D01*
X178085750Y-100225000D01*
X178700000Y-100228072D01*
X178824482Y-100215812D01*
X178944180Y-100179502D01*
X179054494Y-100120537D01*
X179151185Y-100041185D01*
X179230537Y-99944494D01*
X179289502Y-99834180D01*
X179325812Y-99714482D01*
X179338072Y-99590000D01*
X179335000Y-98975750D01*
X179176250Y-98817000D01*
X177927000Y-98817000D01*
X177673000Y-98817000D01*
X176423750Y-98817000D01*
X176265000Y-98975750D01*
X176261928Y-99590000D01*
X154964126Y-99590000D01*
X154947472Y-99558843D01*
X154698397Y-99481208D01*
X153849605Y-100330000D01*
X153490395Y-100330000D01*
X152641603Y-99481208D01*
X152392528Y-99558843D01*
X152266629Y-99822883D01*
X152194661Y-100106411D01*
X152179389Y-100398531D01*
X151354679Y-100398531D01*
X151363226Y-100377898D01*
X151403000Y-100177939D01*
X151403000Y-99974061D01*
X151363226Y-99774102D01*
X151285205Y-99585744D01*
X151171937Y-99416226D01*
X151027774Y-99272063D01*
X150858256Y-99158795D01*
X150669898Y-99080774D01*
X150469939Y-99041000D01*
X150266061Y-99041000D01*
X150066102Y-99080774D01*
X149877744Y-99158795D01*
X149708226Y-99272063D01*
X149606000Y-99374289D01*
X149503774Y-99272063D01*
X149334256Y-99158795D01*
X149145898Y-99080774D01*
X148945939Y-99041000D01*
X148742061Y-99041000D01*
X148542102Y-99080774D01*
X148353744Y-99158795D01*
X148184226Y-99272063D01*
X148082000Y-99374289D01*
X147979774Y-99272063D01*
X147810256Y-99158795D01*
X147621898Y-99080774D01*
X147421939Y-99041000D01*
X147218061Y-99041000D01*
X147018102Y-99080774D01*
X146829744Y-99158795D01*
X146660226Y-99272063D01*
X146516063Y-99416226D01*
X146402795Y-99585744D01*
X146324774Y-99774102D01*
X146285000Y-99974061D01*
X107340000Y-99974061D01*
X107340000Y-99077569D01*
X107416293Y-97645728D01*
X107529963Y-96940000D01*
X152181928Y-96940000D01*
X152181928Y-98640000D01*
X152194188Y-98764482D01*
X152230498Y-98884180D01*
X152289463Y-98994494D01*
X152368815Y-99091185D01*
X152465506Y-99170537D01*
X152575820Y-99229502D01*
X152695518Y-99265812D01*
X152820000Y-99278072D01*
X152828542Y-99278072D01*
X152821208Y-99301603D01*
X153670000Y-100150395D01*
X154518792Y-99301603D01*
X154511458Y-99278072D01*
X154520000Y-99278072D01*
X154644482Y-99265812D01*
X154764180Y-99229502D01*
X154874494Y-99170537D01*
X154971185Y-99091185D01*
X155050537Y-98994494D01*
X155109502Y-98884180D01*
X155145812Y-98764482D01*
X155158072Y-98640000D01*
X155158072Y-97790000D01*
X176261928Y-97790000D01*
X176265000Y-98404250D01*
X176423750Y-98563000D01*
X177673000Y-98563000D01*
X177673000Y-98543000D01*
X177927000Y-98543000D01*
X177927000Y-98563000D01*
X179176250Y-98563000D01*
X179335000Y-98404250D01*
X179338072Y-97790000D01*
X179325812Y-97665518D01*
X179319206Y-97643740D01*
X181885000Y-97643740D01*
X181885000Y-97936260D01*
X181942068Y-98223158D01*
X182054010Y-98493411D01*
X182216525Y-98736632D01*
X182423368Y-98943475D01*
X182597760Y-99060000D01*
X182423368Y-99176525D01*
X182216525Y-99383368D01*
X182054010Y-99626589D01*
X181942068Y-99896842D01*
X181885000Y-100183740D01*
X181885000Y-100476260D01*
X181942068Y-100763158D01*
X182054010Y-101033411D01*
X182216525Y-101276632D01*
X182423368Y-101483475D01*
X182597760Y-101600000D01*
X182423368Y-101716525D01*
X182216525Y-101923368D01*
X182054010Y-102166589D01*
X181942068Y-102436842D01*
X181885000Y-102723740D01*
X181885000Y-103016260D01*
X181942068Y-103303158D01*
X182054010Y-103573411D01*
X182216525Y-103816632D01*
X182423368Y-104023475D01*
X182597760Y-104140000D01*
X182423368Y-104256525D01*
X182216525Y-104463368D01*
X182054010Y-104706589D01*
X181942068Y-104976842D01*
X181885000Y-105263740D01*
X181885000Y-105556260D01*
X181942068Y-105843158D01*
X182054010Y-106113411D01*
X182216525Y-106356632D01*
X182423368Y-106563475D01*
X182597760Y-106680000D01*
X182423368Y-106796525D01*
X182216525Y-107003368D01*
X182054010Y-107246589D01*
X181942068Y-107516842D01*
X181885000Y-107803740D01*
X181885000Y-108096260D01*
X181942068Y-108383158D01*
X182054010Y-108653411D01*
X182216525Y-108896632D01*
X182423368Y-109103475D01*
X182666589Y-109265990D01*
X182936842Y-109377932D01*
X183223740Y-109435000D01*
X183516260Y-109435000D01*
X183803158Y-109377932D01*
X184073411Y-109265990D01*
X184316632Y-109103475D01*
X184523475Y-108896632D01*
X184685990Y-108653411D01*
X184797932Y-108383158D01*
X184855000Y-108096260D01*
X184855000Y-107803740D01*
X184797932Y-107516842D01*
X184685990Y-107246589D01*
X184523475Y-107003368D01*
X184316632Y-106796525D01*
X184142240Y-106680000D01*
X184316632Y-106563475D01*
X184523475Y-106356632D01*
X184685990Y-106113411D01*
X184797932Y-105843158D01*
X184855000Y-105556260D01*
X184855000Y-105263740D01*
X184797932Y-104976842D01*
X184685990Y-104706589D01*
X184523475Y-104463368D01*
X184316632Y-104256525D01*
X184142240Y-104140000D01*
X184316632Y-104023475D01*
X184523475Y-103816632D01*
X184685990Y-103573411D01*
X184797932Y-103303158D01*
X184855000Y-103016260D01*
X184855000Y-102723740D01*
X184797932Y-102436842D01*
X184685990Y-102166589D01*
X184523475Y-101923368D01*
X184316632Y-101716525D01*
X184142240Y-101600000D01*
X184316632Y-101483475D01*
X184523475Y-101276632D01*
X184685990Y-101033411D01*
X184797932Y-100763158D01*
X184855000Y-100476260D01*
X184855000Y-100183740D01*
X184797932Y-99896842D01*
X184685990Y-99626589D01*
X184523475Y-99383368D01*
X184316632Y-99176525D01*
X184142240Y-99060000D01*
X184316632Y-98943475D01*
X184523475Y-98736632D01*
X184685990Y-98493411D01*
X184797932Y-98223158D01*
X184855000Y-97936260D01*
X184855000Y-97643740D01*
X184797932Y-97356842D01*
X184685990Y-97086589D01*
X184523475Y-96843368D01*
X184316632Y-96636525D01*
X184073411Y-96474010D01*
X183803158Y-96362068D01*
X183516260Y-96305000D01*
X183223740Y-96305000D01*
X182936842Y-96362068D01*
X182666589Y-96474010D01*
X182423368Y-96636525D01*
X182216525Y-96843368D01*
X182054010Y-97086589D01*
X181942068Y-97356842D01*
X181885000Y-97643740D01*
X179319206Y-97643740D01*
X179289502Y-97545820D01*
X179230537Y-97435506D01*
X179151185Y-97338815D01*
X179054494Y-97259463D01*
X178944180Y-97200498D01*
X178925873Y-97194944D01*
X178992312Y-97128505D01*
X179160299Y-96877095D01*
X179276011Y-96597743D01*
X179335000Y-96301184D01*
X179335000Y-95998816D01*
X179276011Y-95702257D01*
X179160299Y-95422905D01*
X178992312Y-95171495D01*
X178778505Y-94957688D01*
X178527095Y-94789701D01*
X178247743Y-94673989D01*
X177951184Y-94615000D01*
X177648816Y-94615000D01*
X177352257Y-94673989D01*
X177072905Y-94789701D01*
X176821495Y-94957688D01*
X176607688Y-95171495D01*
X176439701Y-95422905D01*
X176323989Y-95702257D01*
X176265000Y-95998816D01*
X176265000Y-96301184D01*
X176323989Y-96597743D01*
X176439701Y-96877095D01*
X176607688Y-97128505D01*
X176674127Y-97194944D01*
X176655820Y-97200498D01*
X176545506Y-97259463D01*
X176448815Y-97338815D01*
X176369463Y-97435506D01*
X176310498Y-97545820D01*
X176274188Y-97665518D01*
X176261928Y-97790000D01*
X155158072Y-97790000D01*
X155158072Y-96940000D01*
X155145812Y-96815518D01*
X155109502Y-96695820D01*
X155050537Y-96585506D01*
X154971185Y-96488815D01*
X154874494Y-96409463D01*
X154764180Y-96350498D01*
X154644482Y-96314188D01*
X154520000Y-96301928D01*
X152820000Y-96301928D01*
X152695518Y-96314188D01*
X152575820Y-96350498D01*
X152465506Y-96409463D01*
X152368815Y-96488815D01*
X152289463Y-96585506D01*
X152230498Y-96695820D01*
X152194188Y-96815518D01*
X152181928Y-96940000D01*
X107529963Y-96940000D01*
X107641510Y-96247465D01*
X108014036Y-94881053D01*
X108529653Y-93561967D01*
X109182523Y-92305140D01*
X109965255Y-91124799D01*
X110868976Y-90034328D01*
X111883462Y-89046060D01*
X112997219Y-88171193D01*
X114066688Y-87501616D01*
X118076500Y-87501616D01*
X118076500Y-87758384D01*
X118126593Y-88010217D01*
X118224853Y-88247439D01*
X118367505Y-88460933D01*
X118549067Y-88642495D01*
X118762561Y-88785147D01*
X118999783Y-88883407D01*
X119251616Y-88933500D01*
X119508384Y-88933500D01*
X119760217Y-88883407D01*
X119997439Y-88785147D01*
X120210933Y-88642495D01*
X120392495Y-88460933D01*
X120535147Y-88247439D01*
X120633407Y-88010217D01*
X120650000Y-87926799D01*
X120666593Y-88010217D01*
X120764853Y-88247439D01*
X120907505Y-88460933D01*
X121089067Y-88642495D01*
X121302561Y-88785147D01*
X121539783Y-88883407D01*
X121791616Y-88933500D01*
X122048384Y-88933500D01*
X122300217Y-88883407D01*
X122537439Y-88785147D01*
X122750933Y-88642495D01*
X122932495Y-88460933D01*
X123075147Y-88247439D01*
X123173407Y-88010217D01*
X123190000Y-87926799D01*
X123206593Y-88010217D01*
X123304853Y-88247439D01*
X123447505Y-88460933D01*
X123629067Y-88642495D01*
X123842561Y-88785147D01*
X124079783Y-88883407D01*
X124331616Y-88933500D01*
X124588384Y-88933500D01*
X124840217Y-88883407D01*
X125077439Y-88785147D01*
X125290933Y-88642495D01*
X125472495Y-88460933D01*
X125615147Y-88247439D01*
X125713407Y-88010217D01*
X125730000Y-87926799D01*
X125746593Y-88010217D01*
X125844853Y-88247439D01*
X125987505Y-88460933D01*
X126169067Y-88642495D01*
X126382561Y-88785147D01*
X126619783Y-88883407D01*
X126871616Y-88933500D01*
X127128384Y-88933500D01*
X127380217Y-88883407D01*
X127617439Y-88785147D01*
X127830933Y-88642495D01*
X128012495Y-88460933D01*
X128155147Y-88247439D01*
X128253407Y-88010217D01*
X128270000Y-87926799D01*
X128286593Y-88010217D01*
X128384853Y-88247439D01*
X128527505Y-88460933D01*
X128709067Y-88642495D01*
X128922561Y-88785147D01*
X129159783Y-88883407D01*
X129411616Y-88933500D01*
X129668384Y-88933500D01*
X129920217Y-88883407D01*
X130157439Y-88785147D01*
X130370933Y-88642495D01*
X130484675Y-88528753D01*
X131360852Y-88528753D01*
X131416488Y-88759312D01*
X131649555Y-88867057D01*
X131899164Y-88927263D01*
X132155722Y-88937617D01*
X132409370Y-88897718D01*
X132650361Y-88809102D01*
X132743512Y-88759312D01*
X132799148Y-88528753D01*
X132080000Y-87809605D01*
X131360852Y-88528753D01*
X130484675Y-88528753D01*
X130552495Y-88460933D01*
X130695147Y-88247439D01*
X130793407Y-88010217D01*
X130808413Y-87934776D01*
X130812282Y-87959370D01*
X130900898Y-88200361D01*
X130950688Y-88293512D01*
X131181247Y-88349148D01*
X131900395Y-87630000D01*
X132259605Y-87630000D01*
X132978753Y-88349148D01*
X133209312Y-88293512D01*
X133317057Y-88060445D01*
X133349680Y-87925192D01*
X133366593Y-88010217D01*
X133464853Y-88247439D01*
X133607505Y-88460933D01*
X133789067Y-88642495D01*
X134002561Y-88785147D01*
X134239783Y-88883407D01*
X134491616Y-88933500D01*
X134748384Y-88933500D01*
X135000217Y-88883407D01*
X135237439Y-88785147D01*
X135450933Y-88642495D01*
X135632495Y-88460933D01*
X135775147Y-88247439D01*
X135873407Y-88010217D01*
X135890000Y-87926799D01*
X135906593Y-88010217D01*
X136004853Y-88247439D01*
X136147505Y-88460933D01*
X136329067Y-88642495D01*
X136542561Y-88785147D01*
X136779783Y-88883407D01*
X137031616Y-88933500D01*
X137288384Y-88933500D01*
X137540217Y-88883407D01*
X137777439Y-88785147D01*
X137990933Y-88642495D01*
X138172495Y-88460933D01*
X138315147Y-88247439D01*
X138413407Y-88010217D01*
X138430000Y-87926799D01*
X138446593Y-88010217D01*
X138544853Y-88247439D01*
X138687505Y-88460933D01*
X138869067Y-88642495D01*
X139082561Y-88785147D01*
X139319783Y-88883407D01*
X139571616Y-88933500D01*
X139828384Y-88933500D01*
X140080217Y-88883407D01*
X140317439Y-88785147D01*
X140530933Y-88642495D01*
X140712495Y-88460933D01*
X140855147Y-88247439D01*
X140953407Y-88010217D01*
X140970000Y-87926799D01*
X140986593Y-88010217D01*
X141084853Y-88247439D01*
X141227505Y-88460933D01*
X141409067Y-88642495D01*
X141622561Y-88785147D01*
X141859783Y-88883407D01*
X142111616Y-88933500D01*
X142368384Y-88933500D01*
X142620217Y-88883407D01*
X142857439Y-88785147D01*
X143070933Y-88642495D01*
X143252495Y-88460933D01*
X143395147Y-88247439D01*
X143493407Y-88010217D01*
X143510000Y-87926799D01*
X143526593Y-88010217D01*
X143624853Y-88247439D01*
X143767505Y-88460933D01*
X143949067Y-88642495D01*
X144162561Y-88785147D01*
X144399783Y-88883407D01*
X144651616Y-88933500D01*
X144908384Y-88933500D01*
X145160217Y-88883407D01*
X145397439Y-88785147D01*
X145610933Y-88642495D01*
X145792495Y-88460933D01*
X145935147Y-88247439D01*
X146033407Y-88010217D01*
X146050000Y-87926799D01*
X146066593Y-88010217D01*
X146164853Y-88247439D01*
X146307505Y-88460933D01*
X146489067Y-88642495D01*
X146702561Y-88785147D01*
X146939783Y-88883407D01*
X147191616Y-88933500D01*
X147448384Y-88933500D01*
X147700217Y-88883407D01*
X147937439Y-88785147D01*
X148150933Y-88642495D01*
X148264675Y-88528753D01*
X149140852Y-88528753D01*
X149196488Y-88759312D01*
X149429555Y-88867057D01*
X149679164Y-88927263D01*
X149935722Y-88937617D01*
X150189370Y-88897718D01*
X150430361Y-88809102D01*
X150523512Y-88759312D01*
X150579148Y-88528753D01*
X149860000Y-87809605D01*
X149140852Y-88528753D01*
X148264675Y-88528753D01*
X148332495Y-88460933D01*
X148475147Y-88247439D01*
X148573407Y-88010217D01*
X148588413Y-87934776D01*
X148592282Y-87959370D01*
X148680898Y-88200361D01*
X148730688Y-88293512D01*
X148961247Y-88349148D01*
X149680395Y-87630000D01*
X150039605Y-87630000D01*
X150758753Y-88349148D01*
X150989312Y-88293512D01*
X151097057Y-88060445D01*
X151129680Y-87925192D01*
X151146593Y-88010217D01*
X151244853Y-88247439D01*
X151387505Y-88460933D01*
X151569067Y-88642495D01*
X151782561Y-88785147D01*
X152019783Y-88883407D01*
X152271616Y-88933500D01*
X152528384Y-88933500D01*
X152780217Y-88883407D01*
X153017439Y-88785147D01*
X153230933Y-88642495D01*
X153412495Y-88460933D01*
X153555147Y-88247439D01*
X153653407Y-88010217D01*
X153670000Y-87926799D01*
X153686593Y-88010217D01*
X153784853Y-88247439D01*
X153927505Y-88460933D01*
X154109067Y-88642495D01*
X154322561Y-88785147D01*
X154559783Y-88883407D01*
X154811616Y-88933500D01*
X155068384Y-88933500D01*
X155320217Y-88883407D01*
X155557439Y-88785147D01*
X155770933Y-88642495D01*
X155952495Y-88460933D01*
X156095147Y-88247439D01*
X156193407Y-88010217D01*
X156210000Y-87926799D01*
X156226593Y-88010217D01*
X156324853Y-88247439D01*
X156467505Y-88460933D01*
X156649067Y-88642495D01*
X156862561Y-88785147D01*
X157099783Y-88883407D01*
X157351616Y-88933500D01*
X157608384Y-88933500D01*
X157860217Y-88883407D01*
X158097439Y-88785147D01*
X158310933Y-88642495D01*
X158492495Y-88460933D01*
X158635147Y-88247439D01*
X158733407Y-88010217D01*
X158750000Y-87926799D01*
X158766593Y-88010217D01*
X158864853Y-88247439D01*
X159007505Y-88460933D01*
X159189067Y-88642495D01*
X159402561Y-88785147D01*
X159639783Y-88883407D01*
X159891616Y-88933500D01*
X160148384Y-88933500D01*
X160400217Y-88883407D01*
X160637439Y-88785147D01*
X160850933Y-88642495D01*
X161032495Y-88460933D01*
X161175147Y-88247439D01*
X161273407Y-88010217D01*
X161290000Y-87926799D01*
X161306593Y-88010217D01*
X161404853Y-88247439D01*
X161547505Y-88460933D01*
X161729067Y-88642495D01*
X161942561Y-88785147D01*
X162179783Y-88883407D01*
X162431616Y-88933500D01*
X162688384Y-88933500D01*
X162940217Y-88883407D01*
X163177439Y-88785147D01*
X163390933Y-88642495D01*
X163572495Y-88460933D01*
X163715147Y-88247439D01*
X163813407Y-88010217D01*
X163830000Y-87926799D01*
X163846593Y-88010217D01*
X163944853Y-88247439D01*
X164087505Y-88460933D01*
X164269067Y-88642495D01*
X164482561Y-88785147D01*
X164719783Y-88883407D01*
X164971616Y-88933500D01*
X165228384Y-88933500D01*
X165480217Y-88883407D01*
X165717439Y-88785147D01*
X165930933Y-88642495D01*
X166112495Y-88460933D01*
X166255147Y-88247439D01*
X166353407Y-88010217D01*
X166370000Y-87926799D01*
X166386593Y-88010217D01*
X166484853Y-88247439D01*
X166627505Y-88460933D01*
X166809067Y-88642495D01*
X167022561Y-88785147D01*
X167259783Y-88883407D01*
X167511616Y-88933500D01*
X167768384Y-88933500D01*
X168020217Y-88883407D01*
X168257439Y-88785147D01*
X168470933Y-88642495D01*
X168652495Y-88460933D01*
X168795147Y-88247439D01*
X168893407Y-88010217D01*
X168943500Y-87758384D01*
X168943500Y-87501616D01*
X168893407Y-87249783D01*
X168795147Y-87012561D01*
X168652495Y-86799067D01*
X168470933Y-86617505D01*
X168257439Y-86474853D01*
X168020217Y-86376593D01*
X167768384Y-86326500D01*
X167511616Y-86326500D01*
X167259783Y-86376593D01*
X167022561Y-86474853D01*
X166809067Y-86617505D01*
X166627505Y-86799067D01*
X166484853Y-87012561D01*
X166386593Y-87249783D01*
X166370000Y-87333201D01*
X166353407Y-87249783D01*
X166255147Y-87012561D01*
X166112495Y-86799067D01*
X165930933Y-86617505D01*
X165717439Y-86474853D01*
X165480217Y-86376593D01*
X165228384Y-86326500D01*
X164971616Y-86326500D01*
X164719783Y-86376593D01*
X164482561Y-86474853D01*
X164269067Y-86617505D01*
X164087505Y-86799067D01*
X163944853Y-87012561D01*
X163846593Y-87249783D01*
X163830000Y-87333201D01*
X163813407Y-87249783D01*
X163715147Y-87012561D01*
X163572495Y-86799067D01*
X163390933Y-86617505D01*
X163177439Y-86474853D01*
X162940217Y-86376593D01*
X162688384Y-86326500D01*
X162431616Y-86326500D01*
X162179783Y-86376593D01*
X161942561Y-86474853D01*
X161729067Y-86617505D01*
X161547505Y-86799067D01*
X161404853Y-87012561D01*
X161306593Y-87249783D01*
X161290000Y-87333201D01*
X161273407Y-87249783D01*
X161175147Y-87012561D01*
X161032495Y-86799067D01*
X160850933Y-86617505D01*
X160637439Y-86474853D01*
X160400217Y-86376593D01*
X160148384Y-86326500D01*
X159891616Y-86326500D01*
X159639783Y-86376593D01*
X159402561Y-86474853D01*
X159189067Y-86617505D01*
X159007505Y-86799067D01*
X158864853Y-87012561D01*
X158766593Y-87249783D01*
X158750000Y-87333201D01*
X158733407Y-87249783D01*
X158635147Y-87012561D01*
X158492495Y-86799067D01*
X158310933Y-86617505D01*
X158097439Y-86474853D01*
X157860217Y-86376593D01*
X157608384Y-86326500D01*
X157351616Y-86326500D01*
X157099783Y-86376593D01*
X156862561Y-86474853D01*
X156649067Y-86617505D01*
X156467505Y-86799067D01*
X156324853Y-87012561D01*
X156226593Y-87249783D01*
X156210000Y-87333201D01*
X156193407Y-87249783D01*
X156095147Y-87012561D01*
X155952495Y-86799067D01*
X155770933Y-86617505D01*
X155557439Y-86474853D01*
X155320217Y-86376593D01*
X155068384Y-86326500D01*
X154811616Y-86326500D01*
X154559783Y-86376593D01*
X154322561Y-86474853D01*
X154109067Y-86617505D01*
X153927505Y-86799067D01*
X153784853Y-87012561D01*
X153686593Y-87249783D01*
X153670000Y-87333201D01*
X153653407Y-87249783D01*
X153555147Y-87012561D01*
X153412495Y-86799067D01*
X153230933Y-86617505D01*
X153017439Y-86474853D01*
X152780217Y-86376593D01*
X152528384Y-86326500D01*
X152271616Y-86326500D01*
X152019783Y-86376593D01*
X151782561Y-86474853D01*
X151569067Y-86617505D01*
X151387505Y-86799067D01*
X151244853Y-87012561D01*
X151146593Y-87249783D01*
X151131587Y-87325224D01*
X151127718Y-87300630D01*
X151039102Y-87059639D01*
X150989312Y-86966488D01*
X150758753Y-86910852D01*
X150039605Y-87630000D01*
X149680395Y-87630000D01*
X148961247Y-86910852D01*
X148730688Y-86966488D01*
X148622943Y-87199555D01*
X148590320Y-87334808D01*
X148573407Y-87249783D01*
X148475147Y-87012561D01*
X148332495Y-86799067D01*
X148264675Y-86731247D01*
X149140852Y-86731247D01*
X149860000Y-87450395D01*
X150579148Y-86731247D01*
X150523512Y-86500688D01*
X150290445Y-86392943D01*
X150040836Y-86332737D01*
X149784278Y-86322383D01*
X149530630Y-86362282D01*
X149289639Y-86450898D01*
X149196488Y-86500688D01*
X149140852Y-86731247D01*
X148264675Y-86731247D01*
X148150933Y-86617505D01*
X147937439Y-86474853D01*
X147700217Y-86376593D01*
X147448384Y-86326500D01*
X147191616Y-86326500D01*
X146939783Y-86376593D01*
X146702561Y-86474853D01*
X146489067Y-86617505D01*
X146307505Y-86799067D01*
X146164853Y-87012561D01*
X146066593Y-87249783D01*
X146050000Y-87333201D01*
X146033407Y-87249783D01*
X145935147Y-87012561D01*
X145792495Y-86799067D01*
X145610933Y-86617505D01*
X145397439Y-86474853D01*
X145160217Y-86376593D01*
X144908384Y-86326500D01*
X144651616Y-86326500D01*
X144399783Y-86376593D01*
X144162561Y-86474853D01*
X143949067Y-86617505D01*
X143767505Y-86799067D01*
X143624853Y-87012561D01*
X143526593Y-87249783D01*
X143510000Y-87333201D01*
X143493407Y-87249783D01*
X143395147Y-87012561D01*
X143252495Y-86799067D01*
X143070933Y-86617505D01*
X142857439Y-86474853D01*
X142620217Y-86376593D01*
X142368384Y-86326500D01*
X142111616Y-86326500D01*
X141859783Y-86376593D01*
X141622561Y-86474853D01*
X141409067Y-86617505D01*
X141227505Y-86799067D01*
X141084853Y-87012561D01*
X140986593Y-87249783D01*
X140970000Y-87333201D01*
X140953407Y-87249783D01*
X140855147Y-87012561D01*
X140712495Y-86799067D01*
X140530933Y-86617505D01*
X140317439Y-86474853D01*
X140080217Y-86376593D01*
X139828384Y-86326500D01*
X139571616Y-86326500D01*
X139319783Y-86376593D01*
X139082561Y-86474853D01*
X138869067Y-86617505D01*
X138687505Y-86799067D01*
X138544853Y-87012561D01*
X138446593Y-87249783D01*
X138430000Y-87333201D01*
X138413407Y-87249783D01*
X138315147Y-87012561D01*
X138172495Y-86799067D01*
X137990933Y-86617505D01*
X137777439Y-86474853D01*
X137540217Y-86376593D01*
X137288384Y-86326500D01*
X137031616Y-86326500D01*
X136779783Y-86376593D01*
X136542561Y-86474853D01*
X136329067Y-86617505D01*
X136147505Y-86799067D01*
X136004853Y-87012561D01*
X135906593Y-87249783D01*
X135890000Y-87333201D01*
X135873407Y-87249783D01*
X135775147Y-87012561D01*
X135632495Y-86799067D01*
X135450933Y-86617505D01*
X135237439Y-86474853D01*
X135000217Y-86376593D01*
X134748384Y-86326500D01*
X134491616Y-86326500D01*
X134239783Y-86376593D01*
X134002561Y-86474853D01*
X133789067Y-86617505D01*
X133607505Y-86799067D01*
X133464853Y-87012561D01*
X133366593Y-87249783D01*
X133351587Y-87325224D01*
X133347718Y-87300630D01*
X133259102Y-87059639D01*
X133209312Y-86966488D01*
X132978753Y-86910852D01*
X132259605Y-87630000D01*
X131900395Y-87630000D01*
X131181247Y-86910852D01*
X130950688Y-86966488D01*
X130842943Y-87199555D01*
X130810320Y-87334808D01*
X130793407Y-87249783D01*
X130695147Y-87012561D01*
X130552495Y-86799067D01*
X130484675Y-86731247D01*
X131360852Y-86731247D01*
X132080000Y-87450395D01*
X132799148Y-86731247D01*
X132743512Y-86500688D01*
X132510445Y-86392943D01*
X132260836Y-86332737D01*
X132004278Y-86322383D01*
X131750630Y-86362282D01*
X131509639Y-86450898D01*
X131416488Y-86500688D01*
X131360852Y-86731247D01*
X130484675Y-86731247D01*
X130370933Y-86617505D01*
X130157439Y-86474853D01*
X129920217Y-86376593D01*
X129668384Y-86326500D01*
X129411616Y-86326500D01*
X129159783Y-86376593D01*
X128922561Y-86474853D01*
X128709067Y-86617505D01*
X128527505Y-86799067D01*
X128384853Y-87012561D01*
X128286593Y-87249783D01*
X128270000Y-87333201D01*
X128253407Y-87249783D01*
X128155147Y-87012561D01*
X128012495Y-86799067D01*
X127830933Y-86617505D01*
X127617439Y-86474853D01*
X127380217Y-86376593D01*
X127128384Y-86326500D01*
X126871616Y-86326500D01*
X126619783Y-86376593D01*
X126382561Y-86474853D01*
X126169067Y-86617505D01*
X125987505Y-86799067D01*
X125844853Y-87012561D01*
X125746593Y-87249783D01*
X125730000Y-87333201D01*
X125713407Y-87249783D01*
X125615147Y-87012561D01*
X125472495Y-86799067D01*
X125290933Y-86617505D01*
X125077439Y-86474853D01*
X124840217Y-86376593D01*
X124588384Y-86326500D01*
X124331616Y-86326500D01*
X124079783Y-86376593D01*
X123842561Y-86474853D01*
X123629067Y-86617505D01*
X123447505Y-86799067D01*
X123304853Y-87012561D01*
X123206593Y-87249783D01*
X123190000Y-87333201D01*
X123173407Y-87249783D01*
X123075147Y-87012561D01*
X122932495Y-86799067D01*
X122750933Y-86617505D01*
X122537439Y-86474853D01*
X122300217Y-86376593D01*
X122048384Y-86326500D01*
X121791616Y-86326500D01*
X121539783Y-86376593D01*
X121302561Y-86474853D01*
X121089067Y-86617505D01*
X120907505Y-86799067D01*
X120764853Y-87012561D01*
X120666593Y-87249783D01*
X120650000Y-87333201D01*
X120633407Y-87249783D01*
X120535147Y-87012561D01*
X120392495Y-86799067D01*
X120210933Y-86617505D01*
X119997439Y-86474853D01*
X119760217Y-86376593D01*
X119508384Y-86326500D01*
X119251616Y-86326500D01*
X118999783Y-86376593D01*
X118762561Y-86474853D01*
X118549067Y-86617505D01*
X118367505Y-86799067D01*
X118224853Y-87012561D01*
X118126593Y-87249783D01*
X118076500Y-87501616D01*
X114066688Y-87501616D01*
X114197639Y-87419630D01*
X115471120Y-86799886D01*
X116803253Y-86318976D01*
X118178952Y-85982343D01*
X119586924Y-85793229D01*
X120663241Y-85750000D01*
X173972431Y-85750000D01*
X175404272Y-85826293D01*
G04 #@! TA.AperFunction,Conductor*
D26*
G36*
X175404272Y-85826293D02*
G01*
X175685425Y-85871578D01*
X175615554Y-85885476D01*
X175045021Y-86121799D01*
X174531554Y-86464886D01*
X174094886Y-86901554D01*
X173751799Y-87415021D01*
X173515476Y-87985554D01*
X173395000Y-88591229D01*
X173395000Y-89208771D01*
X173515476Y-89814446D01*
X173751799Y-90384979D01*
X174094886Y-90898446D01*
X174531554Y-91335114D01*
X175045021Y-91678201D01*
X175615554Y-91914524D01*
X176221229Y-92035000D01*
X176838771Y-92035000D01*
X177444446Y-91914524D01*
X178014979Y-91678201D01*
X178528446Y-91335114D01*
X178965114Y-90898446D01*
X179308201Y-90384979D01*
X179544524Y-89814446D01*
X179665000Y-89208771D01*
X179665000Y-88591229D01*
X179544524Y-87985554D01*
X179308201Y-87415021D01*
X178965114Y-86901554D01*
X178692085Y-86628525D01*
X179488033Y-86939653D01*
X180744860Y-87592523D01*
X181925201Y-88375255D01*
X183015672Y-89278976D01*
X184003940Y-90293462D01*
X184878807Y-91407219D01*
X185630370Y-92607639D01*
X186250114Y-93881120D01*
X186731024Y-95213253D01*
X187067657Y-96588952D01*
X187256771Y-97996924D01*
X187300001Y-99073266D01*
X187300000Y-121260000D01*
X181122911Y-121260000D01*
X181247744Y-121176589D01*
X181501589Y-120922744D01*
X181701034Y-120624254D01*
X181838414Y-120292589D01*
X181908450Y-119940496D01*
X181908450Y-119581504D01*
X181838414Y-119229411D01*
X181701034Y-118897746D01*
X181501589Y-118599256D01*
X181247744Y-118345411D01*
X180990461Y-118173500D01*
X181247744Y-118001589D01*
X181501589Y-117747744D01*
X181668139Y-117498484D01*
X181714886Y-117568446D01*
X182151554Y-118005114D01*
X182665021Y-118348201D01*
X183235554Y-118584524D01*
X183841229Y-118705000D01*
X184458771Y-118705000D01*
X185064446Y-118584524D01*
X185634979Y-118348201D01*
X186148446Y-118005114D01*
X186585114Y-117568446D01*
X186928201Y-117054979D01*
X187164524Y-116484446D01*
X187285000Y-115878771D01*
X187285000Y-115261229D01*
X187164524Y-114655554D01*
X186928201Y-114085021D01*
X186585114Y-113571554D01*
X186148446Y-113134886D01*
X185634979Y-112791799D01*
X185064446Y-112555476D01*
X184458771Y-112435000D01*
X183841229Y-112435000D01*
X183235554Y-112555476D01*
X182665021Y-112791799D01*
X182151554Y-113134886D01*
X181714886Y-113571554D01*
X181371799Y-114085021D01*
X181135476Y-114655554D01*
X181058250Y-115043795D01*
X180949254Y-114970966D01*
X180617589Y-114833586D01*
X180265496Y-114763550D01*
X179906504Y-114763550D01*
X179688606Y-114806893D01*
X179691500Y-114792345D01*
X179691500Y-114569655D01*
X179648056Y-114351245D01*
X179562836Y-114145507D01*
X179439117Y-113960348D01*
X179281652Y-113802883D01*
X179096493Y-113679164D01*
X178890755Y-113593944D01*
X178672345Y-113550500D01*
X178449655Y-113550500D01*
X178231245Y-113593944D01*
X178025507Y-113679164D01*
X177840348Y-113802883D01*
X177682883Y-113960348D01*
X177559164Y-114145507D01*
X177546000Y-114177288D01*
X177532836Y-114145507D01*
X177409117Y-113960348D01*
X177251652Y-113802883D01*
X177066493Y-113679164D01*
X176860755Y-113593944D01*
X176642345Y-113550500D01*
X176419655Y-113550500D01*
X176201245Y-113593944D01*
X175995507Y-113679164D01*
X175810348Y-113802883D01*
X175652883Y-113960348D01*
X175529164Y-114145507D01*
X175443944Y-114351245D01*
X175400500Y-114569655D01*
X175400500Y-114792345D01*
X175403394Y-114806893D01*
X175185496Y-114763550D01*
X174826504Y-114763550D01*
X174474411Y-114833586D01*
X174142746Y-114970966D01*
X173844256Y-115170411D01*
X173590411Y-115424256D01*
X173390966Y-115722746D01*
X173253586Y-116054411D01*
X173183550Y-116406504D01*
X173183550Y-116765496D01*
X173253586Y-117117589D01*
X173345070Y-117338451D01*
X173203252Y-117338451D01*
X173195226Y-117298102D01*
X173117205Y-117109744D01*
X173003937Y-116940226D01*
X172859774Y-116796063D01*
X172690256Y-116682795D01*
X172501898Y-116604774D01*
X172301939Y-116565000D01*
X172098061Y-116565000D01*
X171898102Y-116604774D01*
X171709744Y-116682795D01*
X171540226Y-116796063D01*
X171396063Y-116940226D01*
X171282795Y-117109744D01*
X171204774Y-117298102D01*
X171165000Y-117498061D01*
X171165000Y-117701939D01*
X171204774Y-117901898D01*
X171282795Y-118090256D01*
X171396063Y-118259774D01*
X171540226Y-118403937D01*
X171709744Y-118517205D01*
X171765498Y-118540299D01*
X171834647Y-118609448D01*
X171858450Y-118638452D01*
X171974175Y-118733425D01*
X172106204Y-118803997D01*
X172249465Y-118847454D01*
X172361118Y-118858451D01*
X172361127Y-118858451D01*
X172398450Y-118862127D01*
X172435773Y-118858451D01*
X173417222Y-118858451D01*
X173390966Y-118897746D01*
X173253586Y-119229411D01*
X173183550Y-119581504D01*
X173183550Y-119940496D01*
X173253586Y-120292589D01*
X173257899Y-120303001D01*
X171157704Y-120303001D01*
X171157000Y-120173750D01*
X170998250Y-120015000D01*
X169799000Y-120015000D01*
X169799000Y-120035000D01*
X169545000Y-120035000D01*
X169545000Y-120015000D01*
X169525000Y-120015000D01*
X169525000Y-119761000D01*
X169545000Y-119761000D01*
X169545000Y-118561750D01*
X169799000Y-118561750D01*
X169799000Y-119761000D01*
X170998250Y-119761000D01*
X171157000Y-119602250D01*
X171160072Y-119038000D01*
X171147812Y-118913518D01*
X171111502Y-118793820D01*
X171052537Y-118683506D01*
X170973185Y-118586815D01*
X170876494Y-118507463D01*
X170766180Y-118448498D01*
X170646482Y-118412188D01*
X170522000Y-118399928D01*
X169957750Y-118403000D01*
X169799000Y-118561750D01*
X169545000Y-118561750D01*
X169386250Y-118403000D01*
X168822000Y-118399928D01*
X168697518Y-118412188D01*
X168577820Y-118448498D01*
X168467506Y-118507463D01*
X168370815Y-118586815D01*
X168291463Y-118683506D01*
X168232498Y-118793820D01*
X168210487Y-118866380D01*
X168078632Y-118734525D01*
X167835411Y-118572010D01*
X167565158Y-118460068D01*
X167278260Y-118403000D01*
X166985740Y-118403000D01*
X166698842Y-118460068D01*
X166428589Y-118572010D01*
X166185368Y-118734525D01*
X165978525Y-118941368D01*
X165862000Y-119115760D01*
X165745475Y-118941368D01*
X165538632Y-118734525D01*
X165295411Y-118572010D01*
X165025158Y-118460068D01*
X164738260Y-118403000D01*
X164445740Y-118403000D01*
X164158842Y-118460068D01*
X163888589Y-118572010D01*
X163645368Y-118734525D01*
X163438525Y-118941368D01*
X163322000Y-119115760D01*
X163205475Y-118941368D01*
X162998632Y-118734525D01*
X162755411Y-118572010D01*
X162485158Y-118460068D01*
X162198260Y-118403000D01*
X161905740Y-118403000D01*
X161636999Y-118456456D01*
X161636999Y-117734321D01*
X161640675Y-117696998D01*
X161636999Y-117659675D01*
X161636999Y-117659666D01*
X161626002Y-117548013D01*
X161582545Y-117404752D01*
X161558624Y-117359999D01*
X161511973Y-117272722D01*
X161440798Y-117185996D01*
X161417000Y-117156998D01*
X161388003Y-117133201D01*
X159703165Y-115448363D01*
X163865000Y-115448363D01*
X163865000Y-115691637D01*
X163912460Y-115930236D01*
X164005557Y-116154992D01*
X164140713Y-116357267D01*
X164312733Y-116529287D01*
X164515008Y-116664443D01*
X164739764Y-116757540D01*
X164978363Y-116805000D01*
X165221637Y-116805000D01*
X165460236Y-116757540D01*
X165684992Y-116664443D01*
X165887267Y-116529287D01*
X166059287Y-116357267D01*
X166194443Y-116154992D01*
X166287540Y-115930236D01*
X166335000Y-115691637D01*
X166335000Y-115448363D01*
X166333658Y-115441616D01*
X166336500Y-115441616D01*
X166336500Y-115698384D01*
X166386593Y-115950217D01*
X166484853Y-116187439D01*
X166627505Y-116400933D01*
X166809067Y-116582495D01*
X167022561Y-116725147D01*
X167259783Y-116823407D01*
X167511616Y-116873500D01*
X167768384Y-116873500D01*
X168020217Y-116823407D01*
X168257439Y-116725147D01*
X168470933Y-116582495D01*
X168652495Y-116400933D01*
X168795147Y-116187439D01*
X168893407Y-115950217D01*
X168943500Y-115698384D01*
X168943500Y-115441616D01*
X168893407Y-115189783D01*
X168795147Y-114952561D01*
X168652495Y-114739067D01*
X168470933Y-114557505D01*
X168257439Y-114414853D01*
X168020217Y-114316593D01*
X167768384Y-114266500D01*
X167511616Y-114266500D01*
X167259783Y-114316593D01*
X167022561Y-114414853D01*
X166809067Y-114557505D01*
X166627505Y-114739067D01*
X166484853Y-114952561D01*
X166386593Y-115189783D01*
X166336500Y-115441616D01*
X166333658Y-115441616D01*
X166287540Y-115209764D01*
X166194443Y-114985008D01*
X166059287Y-114782733D01*
X165887267Y-114610713D01*
X165684992Y-114475557D01*
X165460236Y-114382460D01*
X165221637Y-114335000D01*
X164978363Y-114335000D01*
X164739764Y-114382460D01*
X164515008Y-114475557D01*
X164312733Y-114610713D01*
X164140713Y-114782733D01*
X164005557Y-114985008D01*
X163912460Y-115209764D01*
X163865000Y-115448363D01*
X159703165Y-115448363D01*
X159531000Y-115276199D01*
X159531000Y-115214061D01*
X159491226Y-115014102D01*
X159444373Y-114900989D01*
X160903689Y-114900989D01*
X160941011Y-114904665D01*
X160978333Y-114900989D01*
X160978344Y-114900989D01*
X161089997Y-114889992D01*
X161233258Y-114846535D01*
X161365287Y-114775963D01*
X161481012Y-114680990D01*
X161504815Y-114651986D01*
X162599802Y-113557000D01*
X162661939Y-113557000D01*
X162861898Y-113517226D01*
X163050256Y-113439205D01*
X163219774Y-113325937D01*
X163363937Y-113181774D01*
X163477205Y-113012256D01*
X163555226Y-112823898D01*
X163595000Y-112623939D01*
X163595000Y-112420061D01*
X163555226Y-112220102D01*
X163477205Y-112031744D01*
X163363937Y-111862226D01*
X163219774Y-111718063D01*
X163050256Y-111604795D01*
X162861898Y-111526774D01*
X162804619Y-111515381D01*
X162793226Y-111458102D01*
X162765018Y-111390000D01*
X176261928Y-111390000D01*
X176274188Y-111514482D01*
X176310498Y-111634180D01*
X176369463Y-111744494D01*
X176448815Y-111841185D01*
X176545506Y-111920537D01*
X176655820Y-111979502D01*
X176775518Y-112015812D01*
X176900000Y-112028072D01*
X177514250Y-112025000D01*
X177673000Y-111866250D01*
X177673000Y-110617000D01*
X177927000Y-110617000D01*
X177927000Y-111866250D01*
X178085750Y-112025000D01*
X178700000Y-112028072D01*
X178824482Y-112015812D01*
X178944180Y-111979502D01*
X179054494Y-111920537D01*
X179151185Y-111841185D01*
X179230537Y-111744494D01*
X179289502Y-111634180D01*
X179325812Y-111514482D01*
X179338072Y-111390000D01*
X179335000Y-110775750D01*
X179176250Y-110617000D01*
X177927000Y-110617000D01*
X177673000Y-110617000D01*
X176423750Y-110617000D01*
X176265000Y-110775750D01*
X176261928Y-111390000D01*
X162765018Y-111390000D01*
X162715205Y-111269744D01*
X162601937Y-111100226D01*
X162457774Y-110956063D01*
X162288256Y-110842795D01*
X162099898Y-110764774D01*
X162042619Y-110753381D01*
X162031226Y-110696102D01*
X161953205Y-110507744D01*
X161839937Y-110338226D01*
X161695774Y-110194063D01*
X161526256Y-110080795D01*
X161337898Y-110002774D01*
X161280619Y-109991381D01*
X161269226Y-109934102D01*
X161191205Y-109745744D01*
X161077937Y-109576226D01*
X160933774Y-109432063D01*
X160764256Y-109318795D01*
X160575898Y-109240774D01*
X160375939Y-109201000D01*
X160172061Y-109201000D01*
X159972102Y-109240774D01*
X159783744Y-109318795D01*
X159614226Y-109432063D01*
X159470063Y-109576226D01*
X159356795Y-109745744D01*
X159278774Y-109934102D01*
X159239000Y-110134061D01*
X159239000Y-110337939D01*
X159278774Y-110537898D01*
X159356795Y-110726256D01*
X159470063Y-110895774D01*
X159514000Y-110939711D01*
X159514001Y-111714156D01*
X159212158Y-112016000D01*
X146424625Y-112016000D01*
X141511626Y-107103003D01*
X141487823Y-107073999D01*
X141372098Y-106979026D01*
X141240069Y-106908454D01*
X141096808Y-106864997D01*
X140985155Y-106854000D01*
X140985144Y-106854000D01*
X140947822Y-106850324D01*
X140910500Y-106854000D01*
X140053711Y-106854000D01*
X140009774Y-106810063D01*
X139840256Y-106696795D01*
X139651898Y-106618774D01*
X139451939Y-106579000D01*
X139248061Y-106579000D01*
X139048102Y-106618774D01*
X138859744Y-106696795D01*
X138690226Y-106810063D01*
X138546063Y-106954226D01*
X138432795Y-107123744D01*
X138354774Y-107312102D01*
X138315000Y-107512061D01*
X138315000Y-107715939D01*
X138354774Y-107915898D01*
X138432795Y-108104256D01*
X138546063Y-108273774D01*
X138690226Y-108417937D01*
X138859744Y-108531205D01*
X139048102Y-108609226D01*
X139248061Y-108649000D01*
X139451939Y-108649000D01*
X139651898Y-108609226D01*
X139840256Y-108531205D01*
X140009774Y-108417937D01*
X140053711Y-108374000D01*
X140633021Y-108374000D01*
X143513020Y-111254000D01*
X140053711Y-111254000D01*
X140009774Y-111210063D01*
X139840256Y-111096795D01*
X139651898Y-111018774D01*
X139451939Y-110979000D01*
X139248061Y-110979000D01*
X139048102Y-111018774D01*
X138859744Y-111096795D01*
X138690226Y-111210063D01*
X138546063Y-111354226D01*
X138432795Y-111523744D01*
X138354774Y-111712102D01*
X138315000Y-111912061D01*
X138315000Y-112115939D01*
X138354774Y-112315898D01*
X138432795Y-112504256D01*
X138472715Y-112564000D01*
X138432795Y-112623744D01*
X138354774Y-112812102D01*
X138315000Y-113012061D01*
X138315000Y-113215939D01*
X138354774Y-113415898D01*
X138432795Y-113604256D01*
X138546063Y-113773774D01*
X138690226Y-113917937D01*
X138859744Y-114031205D01*
X139048102Y-114109226D01*
X139248061Y-114149000D01*
X139451939Y-114149000D01*
X139651898Y-114109226D01*
X139840256Y-114031205D01*
X140009774Y-113917937D01*
X140153937Y-113773774D01*
X140267205Y-113604256D01*
X140345226Y-113415898D01*
X140364500Y-113318999D01*
X143237000Y-113318999D01*
X143237000Y-113385939D01*
X143276774Y-113585898D01*
X143354795Y-113774256D01*
X143468063Y-113943774D01*
X143612226Y-114087937D01*
X143781744Y-114201205D01*
X143970102Y-114279226D01*
X144170061Y-114319000D01*
X144232198Y-114319000D01*
X144565194Y-114651997D01*
X144567650Y-114654989D01*
X140361156Y-114654989D01*
X140323823Y-114651312D01*
X140286490Y-114654989D01*
X140174837Y-114665986D01*
X140031576Y-114709443D01*
X139899547Y-114780015D01*
X139783822Y-114874988D01*
X139760019Y-114903992D01*
X139605031Y-115058980D01*
X137431194Y-115058980D01*
X137393871Y-115055304D01*
X137356548Y-115058980D01*
X137356538Y-115058980D01*
X137244885Y-115069977D01*
X137101624Y-115113434D01*
X136969595Y-115184006D01*
X136853870Y-115278979D01*
X136830071Y-115307978D01*
X136566050Y-115572000D01*
X135831711Y-115572000D01*
X135787774Y-115528063D01*
X135618256Y-115414795D01*
X135429898Y-115336774D01*
X135229939Y-115297000D01*
X135026061Y-115297000D01*
X134826102Y-115336774D01*
X134637744Y-115414795D01*
X134468226Y-115528063D01*
X134324063Y-115672226D01*
X134210795Y-115841744D01*
X134132774Y-116030102D01*
X134093000Y-116230061D01*
X134093000Y-116433939D01*
X134132774Y-116633898D01*
X134210795Y-116822256D01*
X134324063Y-116991774D01*
X134468226Y-117135937D01*
X134637744Y-117249205D01*
X134826102Y-117327226D01*
X135026061Y-117367000D01*
X135229939Y-117367000D01*
X135429898Y-117327226D01*
X135459491Y-117314968D01*
X134367461Y-118406999D01*
X127024578Y-118406999D01*
X126854579Y-118237000D01*
X126883592Y-118237000D01*
X127153490Y-118183314D01*
X127407727Y-118078005D01*
X127636535Y-117925120D01*
X127831120Y-117730535D01*
X127984005Y-117501727D01*
X128016000Y-117424485D01*
X128047995Y-117501727D01*
X128200880Y-117730535D01*
X128395465Y-117925120D01*
X128624273Y-118078005D01*
X128878510Y-118183314D01*
X129148408Y-118237000D01*
X129423592Y-118237000D01*
X129693490Y-118183314D01*
X129947727Y-118078005D01*
X130176535Y-117925120D01*
X130296090Y-117805565D01*
X131040040Y-117805565D01*
X131107020Y-118045656D01*
X131356048Y-118162756D01*
X131623135Y-118229023D01*
X131898017Y-118241910D01*
X132170133Y-118200922D01*
X132429023Y-118107636D01*
X132544980Y-118045656D01*
X132611960Y-117805565D01*
X131826000Y-117019605D01*
X131040040Y-117805565D01*
X130296090Y-117805565D01*
X130371120Y-117730535D01*
X130524005Y-117501727D01*
X130553692Y-117430057D01*
X130558364Y-117443023D01*
X130620344Y-117558980D01*
X130860435Y-117625960D01*
X131646395Y-116840000D01*
X132005605Y-116840000D01*
X132791565Y-117625960D01*
X133031656Y-117558980D01*
X133148756Y-117309952D01*
X133215023Y-117042865D01*
X133227910Y-116767983D01*
X133186922Y-116495867D01*
X133093636Y-116236977D01*
X133031656Y-116121020D01*
X132791565Y-116054040D01*
X132005605Y-116840000D01*
X131646395Y-116840000D01*
X130860435Y-116054040D01*
X130620344Y-116121020D01*
X130556515Y-116256760D01*
X130524005Y-116178273D01*
X130371120Y-115949465D01*
X130296090Y-115874435D01*
X131040040Y-115874435D01*
X131826000Y-116660395D01*
X132611960Y-115874435D01*
X132544980Y-115634344D01*
X132295952Y-115517244D01*
X132028865Y-115450977D01*
X131753983Y-115438090D01*
X131481867Y-115479078D01*
X131222977Y-115572364D01*
X131107020Y-115634344D01*
X131040040Y-115874435D01*
X130296090Y-115874435D01*
X130176535Y-115754880D01*
X129947727Y-115601995D01*
X129693490Y-115496686D01*
X129423592Y-115443000D01*
X129148408Y-115443000D01*
X128878510Y-115496686D01*
X128624273Y-115601995D01*
X128395465Y-115754880D01*
X128200880Y-115949465D01*
X128047995Y-116178273D01*
X128016000Y-116255515D01*
X127984005Y-116178273D01*
X127831120Y-115949465D01*
X127636535Y-115754880D01*
X127407727Y-115601995D01*
X127153490Y-115496686D01*
X126883592Y-115443000D01*
X126608408Y-115443000D01*
X126338510Y-115496686D01*
X126084273Y-115601995D01*
X125855465Y-115754880D01*
X125660880Y-115949465D01*
X125507995Y-116178273D01*
X125476000Y-116255515D01*
X125444005Y-116178273D01*
X125291120Y-115949465D01*
X125096535Y-115754880D01*
X124867727Y-115601995D01*
X124613490Y-115496686D01*
X124343592Y-115443000D01*
X124068408Y-115443000D01*
X123798510Y-115496686D01*
X123544273Y-115601995D01*
X123315465Y-115754880D01*
X123186636Y-115883709D01*
X123223500Y-115698384D01*
X123223500Y-115441616D01*
X123173407Y-115189783D01*
X123075147Y-114952561D01*
X122932495Y-114739067D01*
X122750933Y-114557505D01*
X122537439Y-114414853D01*
X122300217Y-114316593D01*
X122048384Y-114266500D01*
X121791616Y-114266500D01*
X121539783Y-114316593D01*
X121302561Y-114414853D01*
X121089067Y-114557505D01*
X120907505Y-114739067D01*
X120764853Y-114952561D01*
X120666593Y-115189783D01*
X120650000Y-115273201D01*
X120633407Y-115189783D01*
X120535147Y-114952561D01*
X120392495Y-114739067D01*
X120210933Y-114557505D01*
X119997439Y-114414853D01*
X119760217Y-114316593D01*
X119508384Y-114266500D01*
X119251616Y-114266500D01*
X118999783Y-114316593D01*
X118762561Y-114414853D01*
X118549067Y-114557505D01*
X118367505Y-114739067D01*
X118224853Y-114952561D01*
X118126593Y-115189783D01*
X118076500Y-115441616D01*
X118076500Y-115698384D01*
X118126593Y-115950217D01*
X118224853Y-116187439D01*
X118367505Y-116400933D01*
X118549067Y-116582495D01*
X118762561Y-116725147D01*
X118999783Y-116823407D01*
X119251616Y-116873500D01*
X119508384Y-116873500D01*
X119760217Y-116823407D01*
X119997439Y-116725147D01*
X120210933Y-116582495D01*
X120392495Y-116400933D01*
X120535147Y-116187439D01*
X120633407Y-115950217D01*
X120650000Y-115866799D01*
X120666593Y-115950217D01*
X120764853Y-116187439D01*
X120907505Y-116400933D01*
X121089067Y-116582495D01*
X121302561Y-116725147D01*
X121539783Y-116823407D01*
X121791616Y-116873500D01*
X122048384Y-116873500D01*
X122300217Y-116823407D01*
X122537439Y-116725147D01*
X122750933Y-116582495D01*
X122853193Y-116480235D01*
X122809000Y-116702408D01*
X122809000Y-116977592D01*
X122862686Y-117247490D01*
X122967995Y-117501727D01*
X123120880Y-117730535D01*
X123315465Y-117925120D01*
X123544273Y-118078005D01*
X123798510Y-118183314D01*
X124068408Y-118237000D01*
X124343592Y-118237000D01*
X124350123Y-118235701D01*
X126001469Y-119887048D01*
X126029182Y-119920816D01*
X126062950Y-119948529D01*
X126062952Y-119948531D01*
X126112250Y-119988989D01*
X126163940Y-120031410D01*
X126317686Y-120113588D01*
X126484509Y-120164194D01*
X126614522Y-120176999D01*
X126614532Y-120176999D01*
X126657998Y-120181280D01*
X126701464Y-120176999D01*
X133077000Y-120176999D01*
X133077000Y-120243939D01*
X133116774Y-120443898D01*
X133149539Y-120523000D01*
X133116774Y-120602102D01*
X133077000Y-120802061D01*
X133077000Y-121005939D01*
X133116774Y-121205898D01*
X133139184Y-121260000D01*
X112876994Y-121260000D01*
X113082447Y-121197676D01*
X113279623Y-121092284D01*
X113452449Y-120950449D01*
X113594284Y-120777623D01*
X113699676Y-120580447D01*
X113764577Y-120366499D01*
X113786491Y-120144000D01*
X113764577Y-119921501D01*
X113699676Y-119707553D01*
X113594284Y-119510377D01*
X113452449Y-119337551D01*
X113279623Y-119195716D01*
X113082447Y-119090324D01*
X112868499Y-119025423D01*
X112701752Y-119009000D01*
X112482904Y-119009000D01*
X112489108Y-118994022D01*
X112526000Y-118808552D01*
X112526000Y-118619448D01*
X112489108Y-118433978D01*
X112416741Y-118259269D01*
X112311681Y-118102036D01*
X112177964Y-117968319D01*
X112020731Y-117863259D01*
X111846022Y-117790892D01*
X111660552Y-117754000D01*
X111471448Y-117754000D01*
X111285978Y-117790892D01*
X111111269Y-117863259D01*
X110954036Y-117968319D01*
X110820319Y-118102036D01*
X110715259Y-118259269D01*
X110642892Y-118433978D01*
X110606000Y-118619448D01*
X110606000Y-118808552D01*
X110642892Y-118994022D01*
X110715259Y-119168731D01*
X110775575Y-119259000D01*
X108926735Y-119259000D01*
X108849623Y-119195716D01*
X108801000Y-119169727D01*
X108801000Y-112478273D01*
X108849623Y-112452284D01*
X108926735Y-112389000D01*
X110775575Y-112389000D01*
X110715259Y-112479269D01*
X110642892Y-112653978D01*
X110606000Y-112839448D01*
X110606000Y-113028552D01*
X110642892Y-113214022D01*
X110715259Y-113388731D01*
X110820319Y-113545964D01*
X110954036Y-113679681D01*
X111111269Y-113784741D01*
X111285978Y-113857108D01*
X111471448Y-113894000D01*
X111660552Y-113894000D01*
X111846022Y-113857108D01*
X112020731Y-113784741D01*
X112177964Y-113679681D01*
X112311681Y-113545964D01*
X112416741Y-113388731D01*
X112489108Y-113214022D01*
X112526000Y-113028552D01*
X112526000Y-112839448D01*
X112489108Y-112653978D01*
X112482904Y-112639000D01*
X112701752Y-112639000D01*
X112868499Y-112622577D01*
X113082447Y-112557676D01*
X113279623Y-112452284D01*
X113452449Y-112310449D01*
X113594284Y-112137623D01*
X113699676Y-111940447D01*
X113764577Y-111726499D01*
X113786491Y-111504000D01*
X113764577Y-111281501D01*
X113699676Y-111067553D01*
X113594284Y-110870377D01*
X113452449Y-110697551D01*
X113279623Y-110555716D01*
X113082447Y-110450324D01*
X112868499Y-110385423D01*
X112701752Y-110369000D01*
X111490248Y-110369000D01*
X111323501Y-110385423D01*
X111109553Y-110450324D01*
X110912377Y-110555716D01*
X110835265Y-110619000D01*
X108926735Y-110619000D01*
X108849623Y-110555716D01*
X108652447Y-110450324D01*
X108438499Y-110385423D01*
X108271752Y-110369000D01*
X107560248Y-110369000D01*
X107393501Y-110385423D01*
X107340000Y-110401652D01*
X107340000Y-106371229D01*
X107355000Y-106371229D01*
X107355000Y-106988771D01*
X107475476Y-107594446D01*
X107711799Y-108164979D01*
X108054886Y-108678446D01*
X108491554Y-109115114D01*
X109005021Y-109458201D01*
X109575554Y-109694524D01*
X110181229Y-109815000D01*
X110798771Y-109815000D01*
X111404446Y-109694524D01*
X111974979Y-109458201D01*
X112488446Y-109115114D01*
X112925114Y-108678446D01*
X113268201Y-108164979D01*
X113504524Y-107594446D01*
X113625000Y-106988771D01*
X113625000Y-106371229D01*
X113504524Y-105765554D01*
X113268201Y-105195021D01*
X112925114Y-104681554D01*
X112488446Y-104244886D01*
X111974979Y-103901799D01*
X111404446Y-103665476D01*
X110798771Y-103545000D01*
X110181229Y-103545000D01*
X109575554Y-103665476D01*
X109005021Y-103901799D01*
X108491554Y-104244886D01*
X108054886Y-104681554D01*
X107711799Y-105195021D01*
X107475476Y-105765554D01*
X107355000Y-106371229D01*
X107340000Y-106371229D01*
X107340000Y-102387061D01*
X139935000Y-102387061D01*
X139935000Y-102590939D01*
X139974774Y-102790898D01*
X140052795Y-102979256D01*
X140166063Y-103148774D01*
X140310226Y-103292937D01*
X140479744Y-103406205D01*
X140668102Y-103484226D01*
X140868061Y-103524000D01*
X140930198Y-103524000D01*
X141131202Y-103725003D01*
X141155000Y-103754002D01*
X141270725Y-103848975D01*
X141402754Y-103919547D01*
X141546015Y-103963004D01*
X141657668Y-103974001D01*
X141657677Y-103974001D01*
X141695000Y-103977677D01*
X141732323Y-103974001D01*
X142394790Y-103974001D01*
X146723999Y-108303211D01*
X146723999Y-108387679D01*
X146720323Y-108425001D01*
X146723999Y-108462323D01*
X146723999Y-108462334D01*
X146734996Y-108573987D01*
X146778453Y-108717248D01*
X146849025Y-108849277D01*
X146943999Y-108965002D01*
X146972997Y-108988800D01*
X147165000Y-109180803D01*
X147165000Y-109321939D01*
X147204774Y-109521898D01*
X147282795Y-109710256D01*
X147396063Y-109879774D01*
X147540226Y-110023937D01*
X147709744Y-110137205D01*
X147898102Y-110215226D01*
X148098061Y-110255000D01*
X148301939Y-110255000D01*
X148501898Y-110215226D01*
X148690256Y-110137205D01*
X148859774Y-110023937D01*
X149003937Y-109879774D01*
X149117205Y-109710256D01*
X149195226Y-109521898D01*
X149235000Y-109321939D01*
X149235000Y-109118061D01*
X149195226Y-108918102D01*
X149117205Y-108729744D01*
X149067420Y-108655235D01*
X149126205Y-108567256D01*
X149204226Y-108378898D01*
X149244000Y-108178939D01*
X149244000Y-107975061D01*
X149204226Y-107775102D01*
X149126205Y-107586744D01*
X149012937Y-107417226D01*
X148868774Y-107273063D01*
X148699256Y-107159795D01*
X148510898Y-107081774D01*
X148310939Y-107042000D01*
X148248803Y-107042000D01*
X143656000Y-102449199D01*
X143656000Y-102387061D01*
X143616226Y-102187102D01*
X143538205Y-101998744D01*
X143424937Y-101829226D01*
X143280774Y-101685063D01*
X143111256Y-101571795D01*
X142922898Y-101493774D01*
X142722939Y-101454000D01*
X142519061Y-101454000D01*
X142319102Y-101493774D01*
X142130744Y-101571795D01*
X141961226Y-101685063D01*
X141817063Y-101829226D01*
X141795500Y-101861497D01*
X141773937Y-101829226D01*
X141629774Y-101685063D01*
X141460256Y-101571795D01*
X141271898Y-101493774D01*
X141071939Y-101454000D01*
X140868061Y-101454000D01*
X140668102Y-101493774D01*
X140479744Y-101571795D01*
X140310226Y-101685063D01*
X140166063Y-101829226D01*
X140052795Y-101998744D01*
X139974774Y-102187102D01*
X139935000Y-102387061D01*
X107340000Y-102387061D01*
X107340000Y-99974061D01*
X146285000Y-99974061D01*
X146285000Y-100177939D01*
X146324774Y-100377898D01*
X146402795Y-100566256D01*
X146516063Y-100735774D01*
X146660226Y-100879937D01*
X146829744Y-100993205D01*
X147018102Y-101071226D01*
X147218061Y-101111000D01*
X147421939Y-101111000D01*
X147621898Y-101071226D01*
X147671059Y-101050863D01*
X147932200Y-101312003D01*
X147955998Y-101341002D01*
X148071723Y-101435975D01*
X148203752Y-101506547D01*
X148347013Y-101550004D01*
X148458666Y-101561001D01*
X148458675Y-101561001D01*
X148495998Y-101564677D01*
X148533321Y-101561001D01*
X148617789Y-101561001D01*
X148707981Y-101651193D01*
X148707980Y-106380477D01*
X148704304Y-106417800D01*
X148707980Y-106455122D01*
X148707980Y-106455132D01*
X148718977Y-106566785D01*
X148762434Y-106710046D01*
X148833006Y-106842076D01*
X148851817Y-106864997D01*
X148927979Y-106957801D01*
X148956983Y-106981604D01*
X150591989Y-108616611D01*
X150591989Y-108701079D01*
X150588313Y-108738401D01*
X150591989Y-108775723D01*
X150591989Y-108775733D01*
X150602986Y-108887386D01*
X150634725Y-108992016D01*
X150646443Y-109030647D01*
X150717015Y-109162677D01*
X150748466Y-109201000D01*
X150811988Y-109278402D01*
X150840992Y-109302205D01*
X152031789Y-110493003D01*
X152055587Y-110522001D01*
X152084585Y-110545799D01*
X152171312Y-110616974D01*
X152303341Y-110687546D01*
X152446602Y-110731003D01*
X152595588Y-110745677D01*
X152632921Y-110742000D01*
X153347289Y-110742000D01*
X153391226Y-110785937D01*
X153560744Y-110899205D01*
X153749102Y-110977226D01*
X153949061Y-111017000D01*
X154152939Y-111017000D01*
X154352898Y-110977226D01*
X154541256Y-110899205D01*
X154710774Y-110785937D01*
X154854937Y-110641774D01*
X154968205Y-110472256D01*
X155046226Y-110283898D01*
X155086000Y-110083939D01*
X155086000Y-109880061D01*
X155046226Y-109680102D01*
X154968205Y-109491744D01*
X154854937Y-109322226D01*
X154710774Y-109178063D01*
X154541256Y-109064795D01*
X154352898Y-108986774D01*
X154321922Y-108980612D01*
X154284226Y-108791102D01*
X154206205Y-108602744D01*
X154092937Y-108433226D01*
X153948774Y-108289063D01*
X153779256Y-108175795D01*
X153590898Y-108097774D01*
X153581979Y-108096000D01*
X153644939Y-108096000D01*
X153844898Y-108056226D01*
X154033256Y-107978205D01*
X154202774Y-107864937D01*
X154246711Y-107821000D01*
X155379289Y-107821000D01*
X155423226Y-107864937D01*
X155592744Y-107978205D01*
X155781102Y-108056226D01*
X155981061Y-108096000D01*
X156184939Y-108096000D01*
X156384898Y-108056226D01*
X156573256Y-107978205D01*
X156742774Y-107864937D01*
X156886937Y-107720774D01*
X157000205Y-107551256D01*
X157078226Y-107362898D01*
X157118000Y-107162939D01*
X157118000Y-106959061D01*
X157078226Y-106759102D01*
X157003236Y-106578061D01*
X174479000Y-106578061D01*
X174479000Y-106781939D01*
X174518774Y-106981898D01*
X174596795Y-107170256D01*
X174710063Y-107339774D01*
X174854226Y-107483937D01*
X175023744Y-107597205D01*
X175212102Y-107675226D01*
X175412061Y-107715000D01*
X175615939Y-107715000D01*
X175815898Y-107675226D01*
X176004256Y-107597205D01*
X176173774Y-107483937D01*
X176217711Y-107440000D01*
X176349777Y-107440000D01*
X176323989Y-107502257D01*
X176265000Y-107798816D01*
X176265000Y-108101184D01*
X176323989Y-108397743D01*
X176439701Y-108677095D01*
X176607688Y-108928505D01*
X176674127Y-108994944D01*
X176655820Y-109000498D01*
X176545506Y-109059463D01*
X176448815Y-109138815D01*
X176369463Y-109235506D01*
X176310498Y-109345820D01*
X176274188Y-109465518D01*
X176261928Y-109590000D01*
X176265000Y-110204250D01*
X176423750Y-110363000D01*
X177673000Y-110363000D01*
X177673000Y-110343000D01*
X177927000Y-110343000D01*
X177927000Y-110363000D01*
X179176250Y-110363000D01*
X179335000Y-110204250D01*
X179338072Y-109590000D01*
X179325812Y-109465518D01*
X179289502Y-109345820D01*
X179230537Y-109235506D01*
X179151185Y-109138815D01*
X179054494Y-109059463D01*
X178944180Y-109000498D01*
X178925873Y-108994944D01*
X178992312Y-108928505D01*
X179160299Y-108677095D01*
X179276011Y-108397743D01*
X179335000Y-108101184D01*
X179335000Y-107798816D01*
X179276011Y-107502257D01*
X179242690Y-107421813D01*
X179362247Y-107385546D01*
X179494276Y-107314974D01*
X179610001Y-107220001D01*
X179633803Y-107190998D01*
X179871801Y-106953000D01*
X179933939Y-106953000D01*
X180133898Y-106913226D01*
X180322256Y-106835205D01*
X180491774Y-106721937D01*
X180635937Y-106577774D01*
X180749205Y-106408256D01*
X180827226Y-106219898D01*
X180867000Y-106019939D01*
X180867000Y-105816061D01*
X180827226Y-105616102D01*
X180749205Y-105427744D01*
X180635937Y-105258226D01*
X180491774Y-105114063D01*
X180322256Y-105000795D01*
X180133898Y-104922774D01*
X179933939Y-104883000D01*
X179730061Y-104883000D01*
X179530102Y-104922774D01*
X179341744Y-105000795D01*
X179335646Y-105004870D01*
X179335000Y-104875750D01*
X179176250Y-104717000D01*
X177927000Y-104717000D01*
X177927000Y-104737000D01*
X177673000Y-104737000D01*
X177673000Y-104717000D01*
X176423750Y-104717000D01*
X176265000Y-104875750D01*
X176261928Y-105490000D01*
X176274188Y-105614482D01*
X176310498Y-105734180D01*
X176369463Y-105844494D01*
X176431429Y-105920000D01*
X176217711Y-105920000D01*
X176173774Y-105876063D01*
X176004256Y-105762795D01*
X175815898Y-105684774D01*
X175615939Y-105645000D01*
X175412061Y-105645000D01*
X175212102Y-105684774D01*
X175023744Y-105762795D01*
X174854226Y-105876063D01*
X174710063Y-106020226D01*
X174596795Y-106189744D01*
X174518774Y-106378102D01*
X174479000Y-106578061D01*
X157003236Y-106578061D01*
X157000205Y-106570744D01*
X156886937Y-106401226D01*
X156742774Y-106257063D01*
X156573256Y-106143795D01*
X156384898Y-106065774D01*
X156184939Y-106026000D01*
X155981061Y-106026000D01*
X155781102Y-106065774D01*
X155592744Y-106143795D01*
X155423226Y-106257063D01*
X155379289Y-106301000D01*
X154860647Y-106301000D01*
X154985990Y-106113411D01*
X155097932Y-105843158D01*
X155155000Y-105556260D01*
X155155000Y-105263740D01*
X155101544Y-104994999D01*
X155474288Y-104994999D01*
X155518225Y-105038936D01*
X155687743Y-105152204D01*
X155876101Y-105230225D01*
X156076060Y-105269999D01*
X156279938Y-105269999D01*
X156479897Y-105230225D01*
X156668255Y-105152204D01*
X156837773Y-105038936D01*
X156981936Y-104894773D01*
X157095204Y-104725255D01*
X157173225Y-104536897D01*
X157212999Y-104336938D01*
X157212999Y-104133060D01*
X157173225Y-103933101D01*
X157095204Y-103744743D01*
X157058626Y-103690000D01*
X176261928Y-103690000D01*
X176265000Y-104304250D01*
X176423750Y-104463000D01*
X177673000Y-104463000D01*
X177673000Y-104443000D01*
X177927000Y-104443000D01*
X177927000Y-104463000D01*
X179176250Y-104463000D01*
X179335000Y-104304250D01*
X179338072Y-103690000D01*
X179325812Y-103565518D01*
X179289502Y-103445820D01*
X179230537Y-103335506D01*
X179151185Y-103238815D01*
X179054494Y-103159463D01*
X178944180Y-103100498D01*
X178925873Y-103094944D01*
X178992312Y-103028505D01*
X179160299Y-102777095D01*
X179276011Y-102497743D01*
X179335000Y-102201184D01*
X179335000Y-101898816D01*
X179276011Y-101602257D01*
X179160299Y-101322905D01*
X178992312Y-101071495D01*
X178778505Y-100857688D01*
X178527095Y-100689701D01*
X178247743Y-100573989D01*
X177951184Y-100515000D01*
X177648816Y-100515000D01*
X177352257Y-100573989D01*
X177072905Y-100689701D01*
X176821495Y-100857688D01*
X176607688Y-101071495D01*
X176439701Y-101322905D01*
X176323989Y-101602257D01*
X176265000Y-101898816D01*
X176265000Y-102201184D01*
X176323989Y-102497743D01*
X176439701Y-102777095D01*
X176607688Y-103028505D01*
X176674127Y-103094944D01*
X176655820Y-103100498D01*
X176545506Y-103159463D01*
X176448815Y-103238815D01*
X176369463Y-103335506D01*
X176310498Y-103445820D01*
X176274188Y-103565518D01*
X176261928Y-103690000D01*
X157058626Y-103690000D01*
X156981936Y-103575225D01*
X156837773Y-103431062D01*
X156668255Y-103317794D01*
X156479897Y-103239773D01*
X156279938Y-103199999D01*
X156076060Y-103199999D01*
X155876101Y-103239773D01*
X155687743Y-103317794D01*
X155518225Y-103431062D01*
X155474288Y-103474999D01*
X155026753Y-103474999D01*
X155097932Y-103303158D01*
X155155000Y-103016260D01*
X155155000Y-102723740D01*
X155097932Y-102436842D01*
X154985990Y-102166589D01*
X154823475Y-101923368D01*
X154616632Y-101716525D01*
X154443271Y-101600689D01*
X154518792Y-101358397D01*
X153670000Y-100509605D01*
X152821208Y-101358397D01*
X152896729Y-101600689D01*
X152723368Y-101716525D01*
X152516525Y-101923368D01*
X152354010Y-102166589D01*
X152242068Y-102436842D01*
X152185000Y-102723740D01*
X152185000Y-103016260D01*
X152242068Y-103303158D01*
X152263731Y-103355458D01*
X152255256Y-103349795D01*
X152066898Y-103271774D01*
X151866939Y-103232000D01*
X151663061Y-103232000D01*
X151463102Y-103271774D01*
X151274744Y-103349795D01*
X151128000Y-103447846D01*
X151128000Y-100779711D01*
X151171937Y-100735774D01*
X151285205Y-100566256D01*
X151354679Y-100398531D01*
X152179389Y-100398531D01*
X152221401Y-100688019D01*
X152319081Y-100963747D01*
X152392528Y-101101157D01*
X152641603Y-101178792D01*
X153490395Y-100330000D01*
X153849605Y-100330000D01*
X154698397Y-101178792D01*
X154947472Y-101101157D01*
X155073371Y-100837117D01*
X155145339Y-100553589D01*
X155160611Y-100261469D01*
X155118599Y-99971981D01*
X155020919Y-99696253D01*
X154964126Y-99590000D01*
X176261928Y-99590000D01*
X176274188Y-99714482D01*
X176310498Y-99834180D01*
X176369463Y-99944494D01*
X176448815Y-100041185D01*
X176545506Y-100120537D01*
X176655820Y-100179502D01*
X176775518Y-100215812D01*
X176900000Y-100228072D01*
X177514250Y-100225000D01*
X177673000Y-100066250D01*
X177673000Y-98817000D01*
X177927000Y-98817000D01*
X177927000Y-100066250D01*
X178085750Y-100225000D01*
X178700000Y-100228072D01*
X178824482Y-100215812D01*
X178944180Y-100179502D01*
X179054494Y-100120537D01*
X179151185Y-100041185D01*
X179230537Y-99944494D01*
X179289502Y-99834180D01*
X179325812Y-99714482D01*
X179338072Y-99590000D01*
X179335000Y-98975750D01*
X179176250Y-98817000D01*
X177927000Y-98817000D01*
X177673000Y-98817000D01*
X176423750Y-98817000D01*
X176265000Y-98975750D01*
X176261928Y-99590000D01*
X154964126Y-99590000D01*
X154947472Y-99558843D01*
X154698397Y-99481208D01*
X153849605Y-100330000D01*
X153490395Y-100330000D01*
X152641603Y-99481208D01*
X152392528Y-99558843D01*
X152266629Y-99822883D01*
X152194661Y-100106411D01*
X152179389Y-100398531D01*
X151354679Y-100398531D01*
X151363226Y-100377898D01*
X151403000Y-100177939D01*
X151403000Y-99974061D01*
X151363226Y-99774102D01*
X151285205Y-99585744D01*
X151171937Y-99416226D01*
X151027774Y-99272063D01*
X150858256Y-99158795D01*
X150669898Y-99080774D01*
X150469939Y-99041000D01*
X150266061Y-99041000D01*
X150066102Y-99080774D01*
X149877744Y-99158795D01*
X149708226Y-99272063D01*
X149606000Y-99374289D01*
X149503774Y-99272063D01*
X149334256Y-99158795D01*
X149145898Y-99080774D01*
X148945939Y-99041000D01*
X148742061Y-99041000D01*
X148542102Y-99080774D01*
X148353744Y-99158795D01*
X148184226Y-99272063D01*
X148082000Y-99374289D01*
X147979774Y-99272063D01*
X147810256Y-99158795D01*
X147621898Y-99080774D01*
X147421939Y-99041000D01*
X147218061Y-99041000D01*
X147018102Y-99080774D01*
X146829744Y-99158795D01*
X146660226Y-99272063D01*
X146516063Y-99416226D01*
X146402795Y-99585744D01*
X146324774Y-99774102D01*
X146285000Y-99974061D01*
X107340000Y-99974061D01*
X107340000Y-99077569D01*
X107416293Y-97645728D01*
X107529963Y-96940000D01*
X152181928Y-96940000D01*
X152181928Y-98640000D01*
X152194188Y-98764482D01*
X152230498Y-98884180D01*
X152289463Y-98994494D01*
X152368815Y-99091185D01*
X152465506Y-99170537D01*
X152575820Y-99229502D01*
X152695518Y-99265812D01*
X152820000Y-99278072D01*
X152828542Y-99278072D01*
X152821208Y-99301603D01*
X153670000Y-100150395D01*
X154518792Y-99301603D01*
X154511458Y-99278072D01*
X154520000Y-99278072D01*
X154644482Y-99265812D01*
X154764180Y-99229502D01*
X154874494Y-99170537D01*
X154971185Y-99091185D01*
X155050537Y-98994494D01*
X155109502Y-98884180D01*
X155145812Y-98764482D01*
X155158072Y-98640000D01*
X155158072Y-97790000D01*
X176261928Y-97790000D01*
X176265000Y-98404250D01*
X176423750Y-98563000D01*
X177673000Y-98563000D01*
X177673000Y-98543000D01*
X177927000Y-98543000D01*
X177927000Y-98563000D01*
X179176250Y-98563000D01*
X179335000Y-98404250D01*
X179338072Y-97790000D01*
X179325812Y-97665518D01*
X179319206Y-97643740D01*
X181885000Y-97643740D01*
X181885000Y-97936260D01*
X181942068Y-98223158D01*
X182054010Y-98493411D01*
X182216525Y-98736632D01*
X182423368Y-98943475D01*
X182597760Y-99060000D01*
X182423368Y-99176525D01*
X182216525Y-99383368D01*
X182054010Y-99626589D01*
X181942068Y-99896842D01*
X181885000Y-100183740D01*
X181885000Y-100476260D01*
X181942068Y-100763158D01*
X182054010Y-101033411D01*
X182216525Y-101276632D01*
X182423368Y-101483475D01*
X182597760Y-101600000D01*
X182423368Y-101716525D01*
X182216525Y-101923368D01*
X182054010Y-102166589D01*
X181942068Y-102436842D01*
X181885000Y-102723740D01*
X181885000Y-103016260D01*
X181942068Y-103303158D01*
X182054010Y-103573411D01*
X182216525Y-103816632D01*
X182423368Y-104023475D01*
X182597760Y-104140000D01*
X182423368Y-104256525D01*
X182216525Y-104463368D01*
X182054010Y-104706589D01*
X181942068Y-104976842D01*
X181885000Y-105263740D01*
X181885000Y-105556260D01*
X181942068Y-105843158D01*
X182054010Y-106113411D01*
X182216525Y-106356632D01*
X182423368Y-106563475D01*
X182597760Y-106680000D01*
X182423368Y-106796525D01*
X182216525Y-107003368D01*
X182054010Y-107246589D01*
X181942068Y-107516842D01*
X181885000Y-107803740D01*
X181885000Y-108096260D01*
X181942068Y-108383158D01*
X182054010Y-108653411D01*
X182216525Y-108896632D01*
X182423368Y-109103475D01*
X182666589Y-109265990D01*
X182936842Y-109377932D01*
X183223740Y-109435000D01*
X183516260Y-109435000D01*
X183803158Y-109377932D01*
X184073411Y-109265990D01*
X184316632Y-109103475D01*
X184523475Y-108896632D01*
X184685990Y-108653411D01*
X184797932Y-108383158D01*
X184855000Y-108096260D01*
X184855000Y-107803740D01*
X184797932Y-107516842D01*
X184685990Y-107246589D01*
X184523475Y-107003368D01*
X184316632Y-106796525D01*
X184142240Y-106680000D01*
X184316632Y-106563475D01*
X184523475Y-106356632D01*
X184685990Y-106113411D01*
X184797932Y-105843158D01*
X184855000Y-105556260D01*
X184855000Y-105263740D01*
X184797932Y-104976842D01*
X184685990Y-104706589D01*
X184523475Y-104463368D01*
X184316632Y-104256525D01*
X184142240Y-104140000D01*
X184316632Y-104023475D01*
X184523475Y-103816632D01*
X184685990Y-103573411D01*
X184797932Y-103303158D01*
X184855000Y-103016260D01*
X184855000Y-102723740D01*
X184797932Y-102436842D01*
X184685990Y-102166589D01*
X184523475Y-101923368D01*
X184316632Y-101716525D01*
X184142240Y-101600000D01*
X184316632Y-101483475D01*
X184523475Y-101276632D01*
X184685990Y-101033411D01*
X184797932Y-100763158D01*
X184855000Y-100476260D01*
X184855000Y-100183740D01*
X184797932Y-99896842D01*
X184685990Y-99626589D01*
X184523475Y-99383368D01*
X184316632Y-99176525D01*
X184142240Y-99060000D01*
X184316632Y-98943475D01*
X184523475Y-98736632D01*
X184685990Y-98493411D01*
X184797932Y-98223158D01*
X184855000Y-97936260D01*
X184855000Y-97643740D01*
X184797932Y-97356842D01*
X184685990Y-97086589D01*
X184523475Y-96843368D01*
X184316632Y-96636525D01*
X184073411Y-96474010D01*
X183803158Y-96362068D01*
X183516260Y-96305000D01*
X183223740Y-96305000D01*
X182936842Y-96362068D01*
X182666589Y-96474010D01*
X182423368Y-96636525D01*
X182216525Y-96843368D01*
X182054010Y-97086589D01*
X181942068Y-97356842D01*
X181885000Y-97643740D01*
X179319206Y-97643740D01*
X179289502Y-97545820D01*
X179230537Y-97435506D01*
X179151185Y-97338815D01*
X179054494Y-97259463D01*
X178944180Y-97200498D01*
X178925873Y-97194944D01*
X178992312Y-97128505D01*
X179160299Y-96877095D01*
X179276011Y-96597743D01*
X179335000Y-96301184D01*
X179335000Y-95998816D01*
X179276011Y-95702257D01*
X179160299Y-95422905D01*
X178992312Y-95171495D01*
X178778505Y-94957688D01*
X178527095Y-94789701D01*
X178247743Y-94673989D01*
X177951184Y-94615000D01*
X177648816Y-94615000D01*
X177352257Y-94673989D01*
X177072905Y-94789701D01*
X176821495Y-94957688D01*
X176607688Y-95171495D01*
X176439701Y-95422905D01*
X176323989Y-95702257D01*
X176265000Y-95998816D01*
X176265000Y-96301184D01*
X176323989Y-96597743D01*
X176439701Y-96877095D01*
X176607688Y-97128505D01*
X176674127Y-97194944D01*
X176655820Y-97200498D01*
X176545506Y-97259463D01*
X176448815Y-97338815D01*
X176369463Y-97435506D01*
X176310498Y-97545820D01*
X176274188Y-97665518D01*
X176261928Y-97790000D01*
X155158072Y-97790000D01*
X155158072Y-96940000D01*
X155145812Y-96815518D01*
X155109502Y-96695820D01*
X155050537Y-96585506D01*
X154971185Y-96488815D01*
X154874494Y-96409463D01*
X154764180Y-96350498D01*
X154644482Y-96314188D01*
X154520000Y-96301928D01*
X152820000Y-96301928D01*
X152695518Y-96314188D01*
X152575820Y-96350498D01*
X152465506Y-96409463D01*
X152368815Y-96488815D01*
X152289463Y-96585506D01*
X152230498Y-96695820D01*
X152194188Y-96815518D01*
X152181928Y-96940000D01*
X107529963Y-96940000D01*
X107641510Y-96247465D01*
X108014036Y-94881053D01*
X108529653Y-93561967D01*
X109182523Y-92305140D01*
X109965255Y-91124799D01*
X110868976Y-90034328D01*
X111883462Y-89046060D01*
X112997219Y-88171193D01*
X114066688Y-87501616D01*
X118076500Y-87501616D01*
X118076500Y-87758384D01*
X118126593Y-88010217D01*
X118224853Y-88247439D01*
X118367505Y-88460933D01*
X118549067Y-88642495D01*
X118762561Y-88785147D01*
X118999783Y-88883407D01*
X119251616Y-88933500D01*
X119508384Y-88933500D01*
X119760217Y-88883407D01*
X119997439Y-88785147D01*
X120210933Y-88642495D01*
X120392495Y-88460933D01*
X120535147Y-88247439D01*
X120633407Y-88010217D01*
X120650000Y-87926799D01*
X120666593Y-88010217D01*
X120764853Y-88247439D01*
X120907505Y-88460933D01*
X121089067Y-88642495D01*
X121302561Y-88785147D01*
X121539783Y-88883407D01*
X121791616Y-88933500D01*
X122048384Y-88933500D01*
X122300217Y-88883407D01*
X122537439Y-88785147D01*
X122750933Y-88642495D01*
X122932495Y-88460933D01*
X123075147Y-88247439D01*
X123173407Y-88010217D01*
X123190000Y-87926799D01*
X123206593Y-88010217D01*
X123304853Y-88247439D01*
X123447505Y-88460933D01*
X123629067Y-88642495D01*
X123842561Y-88785147D01*
X124079783Y-88883407D01*
X124331616Y-88933500D01*
X124588384Y-88933500D01*
X124840217Y-88883407D01*
X125077439Y-88785147D01*
X125290933Y-88642495D01*
X125472495Y-88460933D01*
X125615147Y-88247439D01*
X125713407Y-88010217D01*
X125730000Y-87926799D01*
X125746593Y-88010217D01*
X125844853Y-88247439D01*
X125987505Y-88460933D01*
X126169067Y-88642495D01*
X126382561Y-88785147D01*
X126619783Y-88883407D01*
X126871616Y-88933500D01*
X127128384Y-88933500D01*
X127380217Y-88883407D01*
X127617439Y-88785147D01*
X127830933Y-88642495D01*
X128012495Y-88460933D01*
X128155147Y-88247439D01*
X128253407Y-88010217D01*
X128270000Y-87926799D01*
X128286593Y-88010217D01*
X128384853Y-88247439D01*
X128527505Y-88460933D01*
X128709067Y-88642495D01*
X128922561Y-88785147D01*
X129159783Y-88883407D01*
X129411616Y-88933500D01*
X129668384Y-88933500D01*
X129920217Y-88883407D01*
X130157439Y-88785147D01*
X130370933Y-88642495D01*
X130484675Y-88528753D01*
X131360852Y-88528753D01*
X131416488Y-88759312D01*
X131649555Y-88867057D01*
X131899164Y-88927263D01*
X132155722Y-88937617D01*
X132409370Y-88897718D01*
X132650361Y-88809102D01*
X132743512Y-88759312D01*
X132799148Y-88528753D01*
X132080000Y-87809605D01*
X131360852Y-88528753D01*
X130484675Y-88528753D01*
X130552495Y-88460933D01*
X130695147Y-88247439D01*
X130793407Y-88010217D01*
X130808413Y-87934776D01*
X130812282Y-87959370D01*
X130900898Y-88200361D01*
X130950688Y-88293512D01*
X131181247Y-88349148D01*
X131900395Y-87630000D01*
X132259605Y-87630000D01*
X132978753Y-88349148D01*
X133209312Y-88293512D01*
X133317057Y-88060445D01*
X133349680Y-87925192D01*
X133366593Y-88010217D01*
X133464853Y-88247439D01*
X133607505Y-88460933D01*
X133789067Y-88642495D01*
X134002561Y-88785147D01*
X134239783Y-88883407D01*
X134491616Y-88933500D01*
X134748384Y-88933500D01*
X135000217Y-88883407D01*
X135237439Y-88785147D01*
X135450933Y-88642495D01*
X135632495Y-88460933D01*
X135775147Y-88247439D01*
X135873407Y-88010217D01*
X135890000Y-87926799D01*
X135906593Y-88010217D01*
X136004853Y-88247439D01*
X136147505Y-88460933D01*
X136329067Y-88642495D01*
X136542561Y-88785147D01*
X136779783Y-88883407D01*
X137031616Y-88933500D01*
X137288384Y-88933500D01*
X137540217Y-88883407D01*
X137777439Y-88785147D01*
X137990933Y-88642495D01*
X138172495Y-88460933D01*
X138315147Y-88247439D01*
X138413407Y-88010217D01*
X138430000Y-87926799D01*
X138446593Y-88010217D01*
X138544853Y-88247439D01*
X138687505Y-88460933D01*
X138869067Y-88642495D01*
X139082561Y-88785147D01*
X139319783Y-88883407D01*
X139571616Y-88933500D01*
X139828384Y-88933500D01*
X140080217Y-88883407D01*
X140317439Y-88785147D01*
X140530933Y-88642495D01*
X140712495Y-88460933D01*
X140855147Y-88247439D01*
X140953407Y-88010217D01*
X140970000Y-87926799D01*
X140986593Y-88010217D01*
X141084853Y-88247439D01*
X141227505Y-88460933D01*
X141409067Y-88642495D01*
X141622561Y-88785147D01*
X141859783Y-88883407D01*
X142111616Y-88933500D01*
X142368384Y-88933500D01*
X142620217Y-88883407D01*
X142857439Y-88785147D01*
X143070933Y-88642495D01*
X143252495Y-88460933D01*
X143395147Y-88247439D01*
X143493407Y-88010217D01*
X143510000Y-87926799D01*
X143526593Y-88010217D01*
X143624853Y-88247439D01*
X143767505Y-88460933D01*
X143949067Y-88642495D01*
X144162561Y-88785147D01*
X144399783Y-88883407D01*
X144651616Y-88933500D01*
X144908384Y-88933500D01*
X145160217Y-88883407D01*
X145397439Y-88785147D01*
X145610933Y-88642495D01*
X145792495Y-88460933D01*
X145935147Y-88247439D01*
X146033407Y-88010217D01*
X146050000Y-87926799D01*
X146066593Y-88010217D01*
X146164853Y-88247439D01*
X146307505Y-88460933D01*
X146489067Y-88642495D01*
X146702561Y-88785147D01*
X146939783Y-88883407D01*
X147191616Y-88933500D01*
X147448384Y-88933500D01*
X147700217Y-88883407D01*
X147937439Y-88785147D01*
X148150933Y-88642495D01*
X148264675Y-88528753D01*
X149140852Y-88528753D01*
X149196488Y-88759312D01*
X149429555Y-88867057D01*
X149679164Y-88927263D01*
X149935722Y-88937617D01*
X150189370Y-88897718D01*
X150430361Y-88809102D01*
X150523512Y-88759312D01*
X150579148Y-88528753D01*
X149860000Y-87809605D01*
X149140852Y-88528753D01*
X148264675Y-88528753D01*
X148332495Y-88460933D01*
X148475147Y-88247439D01*
X148573407Y-88010217D01*
X148588413Y-87934776D01*
X148592282Y-87959370D01*
X148680898Y-88200361D01*
X148730688Y-88293512D01*
X148961247Y-88349148D01*
X149680395Y-87630000D01*
X150039605Y-87630000D01*
X150758753Y-88349148D01*
X150989312Y-88293512D01*
X151097057Y-88060445D01*
X151129680Y-87925192D01*
X151146593Y-88010217D01*
X151244853Y-88247439D01*
X151387505Y-88460933D01*
X151569067Y-88642495D01*
X151782561Y-88785147D01*
X152019783Y-88883407D01*
X152271616Y-88933500D01*
X152528384Y-88933500D01*
X152780217Y-88883407D01*
X153017439Y-88785147D01*
X153230933Y-88642495D01*
X153412495Y-88460933D01*
X153555147Y-88247439D01*
X153653407Y-88010217D01*
X153670000Y-87926799D01*
X153686593Y-88010217D01*
X153784853Y-88247439D01*
X153927505Y-88460933D01*
X154109067Y-88642495D01*
X154322561Y-88785147D01*
X154559783Y-88883407D01*
X154811616Y-88933500D01*
X155068384Y-88933500D01*
X155320217Y-88883407D01*
X155557439Y-88785147D01*
X155770933Y-88642495D01*
X155952495Y-88460933D01*
X156095147Y-88247439D01*
X156193407Y-88010217D01*
X156210000Y-87926799D01*
X156226593Y-88010217D01*
X156324853Y-88247439D01*
X156467505Y-88460933D01*
X156649067Y-88642495D01*
X156862561Y-88785147D01*
X157099783Y-88883407D01*
X157351616Y-88933500D01*
X157608384Y-88933500D01*
X157860217Y-88883407D01*
X158097439Y-88785147D01*
X158310933Y-88642495D01*
X158492495Y-88460933D01*
X158635147Y-88247439D01*
X158733407Y-88010217D01*
X158750000Y-87926799D01*
X158766593Y-88010217D01*
X158864853Y-88247439D01*
X159007505Y-88460933D01*
X159189067Y-88642495D01*
X159402561Y-88785147D01*
X159639783Y-88883407D01*
X159891616Y-88933500D01*
X160148384Y-88933500D01*
X160400217Y-88883407D01*
X160637439Y-88785147D01*
X160850933Y-88642495D01*
X161032495Y-88460933D01*
X161175147Y-88247439D01*
X161273407Y-88010217D01*
X161290000Y-87926799D01*
X161306593Y-88010217D01*
X161404853Y-88247439D01*
X161547505Y-88460933D01*
X161729067Y-88642495D01*
X161942561Y-88785147D01*
X162179783Y-88883407D01*
X162431616Y-88933500D01*
X162688384Y-88933500D01*
X162940217Y-88883407D01*
X163177439Y-88785147D01*
X163390933Y-88642495D01*
X163572495Y-88460933D01*
X163715147Y-88247439D01*
X163813407Y-88010217D01*
X163830000Y-87926799D01*
X163846593Y-88010217D01*
X163944853Y-88247439D01*
X164087505Y-88460933D01*
X164269067Y-88642495D01*
X164482561Y-88785147D01*
X164719783Y-88883407D01*
X164971616Y-88933500D01*
X165228384Y-88933500D01*
X165480217Y-88883407D01*
X165717439Y-88785147D01*
X165930933Y-88642495D01*
X166112495Y-88460933D01*
X166255147Y-88247439D01*
X166353407Y-88010217D01*
X166370000Y-87926799D01*
X166386593Y-88010217D01*
X166484853Y-88247439D01*
X166627505Y-88460933D01*
X166809067Y-88642495D01*
X167022561Y-88785147D01*
X167259783Y-88883407D01*
X167511616Y-88933500D01*
X167768384Y-88933500D01*
X168020217Y-88883407D01*
X168257439Y-88785147D01*
X168470933Y-88642495D01*
X168652495Y-88460933D01*
X168795147Y-88247439D01*
X168893407Y-88010217D01*
X168943500Y-87758384D01*
X168943500Y-87501616D01*
X168893407Y-87249783D01*
X168795147Y-87012561D01*
X168652495Y-86799067D01*
X168470933Y-86617505D01*
X168257439Y-86474853D01*
X168020217Y-86376593D01*
X167768384Y-86326500D01*
X167511616Y-86326500D01*
X167259783Y-86376593D01*
X167022561Y-86474853D01*
X166809067Y-86617505D01*
X166627505Y-86799067D01*
X166484853Y-87012561D01*
X166386593Y-87249783D01*
X166370000Y-87333201D01*
X166353407Y-87249783D01*
X166255147Y-87012561D01*
X166112495Y-86799067D01*
X165930933Y-86617505D01*
X165717439Y-86474853D01*
X165480217Y-86376593D01*
X165228384Y-86326500D01*
X164971616Y-86326500D01*
X164719783Y-86376593D01*
X164482561Y-86474853D01*
X164269067Y-86617505D01*
X164087505Y-86799067D01*
X163944853Y-87012561D01*
X163846593Y-87249783D01*
X163830000Y-87333201D01*
X163813407Y-87249783D01*
X163715147Y-87012561D01*
X163572495Y-86799067D01*
X163390933Y-86617505D01*
X163177439Y-86474853D01*
X162940217Y-86376593D01*
X162688384Y-86326500D01*
X162431616Y-86326500D01*
X162179783Y-86376593D01*
X161942561Y-86474853D01*
X161729067Y-86617505D01*
X161547505Y-86799067D01*
X161404853Y-87012561D01*
X161306593Y-87249783D01*
X161290000Y-87333201D01*
X161273407Y-87249783D01*
X161175147Y-87012561D01*
X161032495Y-86799067D01*
X160850933Y-86617505D01*
X160637439Y-86474853D01*
X160400217Y-86376593D01*
X160148384Y-86326500D01*
X159891616Y-86326500D01*
X159639783Y-86376593D01*
X159402561Y-86474853D01*
X159189067Y-86617505D01*
X159007505Y-86799067D01*
X158864853Y-87012561D01*
X158766593Y-87249783D01*
X158750000Y-87333201D01*
X158733407Y-87249783D01*
X158635147Y-87012561D01*
X158492495Y-86799067D01*
X158310933Y-86617505D01*
X158097439Y-86474853D01*
X157860217Y-86376593D01*
X157608384Y-86326500D01*
X157351616Y-86326500D01*
X157099783Y-86376593D01*
X156862561Y-86474853D01*
X156649067Y-86617505D01*
X156467505Y-86799067D01*
X156324853Y-87012561D01*
X156226593Y-87249783D01*
X156210000Y-87333201D01*
X156193407Y-87249783D01*
X156095147Y-87012561D01*
X155952495Y-86799067D01*
X155770933Y-86617505D01*
X155557439Y-86474853D01*
X155320217Y-86376593D01*
X155068384Y-86326500D01*
X154811616Y-86326500D01*
X154559783Y-86376593D01*
X154322561Y-86474853D01*
X154109067Y-86617505D01*
X153927505Y-86799067D01*
X153784853Y-87012561D01*
X153686593Y-87249783D01*
X153670000Y-87333201D01*
X153653407Y-87249783D01*
X153555147Y-87012561D01*
X153412495Y-86799067D01*
X153230933Y-86617505D01*
X153017439Y-86474853D01*
X152780217Y-86376593D01*
X152528384Y-86326500D01*
X152271616Y-86326500D01*
X152019783Y-86376593D01*
X151782561Y-86474853D01*
X151569067Y-86617505D01*
X151387505Y-86799067D01*
X151244853Y-87012561D01*
X151146593Y-87249783D01*
X151131587Y-87325224D01*
X151127718Y-87300630D01*
X151039102Y-87059639D01*
X150989312Y-86966488D01*
X150758753Y-86910852D01*
X150039605Y-87630000D01*
X149680395Y-87630000D01*
X148961247Y-86910852D01*
X148730688Y-86966488D01*
X148622943Y-87199555D01*
X148590320Y-87334808D01*
X148573407Y-87249783D01*
X148475147Y-87012561D01*
X148332495Y-86799067D01*
X148264675Y-86731247D01*
X149140852Y-86731247D01*
X149860000Y-87450395D01*
X150579148Y-86731247D01*
X150523512Y-86500688D01*
X150290445Y-86392943D01*
X150040836Y-86332737D01*
X149784278Y-86322383D01*
X149530630Y-86362282D01*
X149289639Y-86450898D01*
X149196488Y-86500688D01*
X149140852Y-86731247D01*
X148264675Y-86731247D01*
X148150933Y-86617505D01*
X147937439Y-86474853D01*
X147700217Y-86376593D01*
X147448384Y-86326500D01*
X147191616Y-86326500D01*
X146939783Y-86376593D01*
X146702561Y-86474853D01*
X146489067Y-86617505D01*
X146307505Y-86799067D01*
X146164853Y-87012561D01*
X146066593Y-87249783D01*
X146050000Y-87333201D01*
X146033407Y-87249783D01*
X145935147Y-87012561D01*
X145792495Y-86799067D01*
X145610933Y-86617505D01*
X145397439Y-86474853D01*
X145160217Y-86376593D01*
X144908384Y-86326500D01*
X144651616Y-86326500D01*
X144399783Y-86376593D01*
X144162561Y-86474853D01*
X143949067Y-86617505D01*
X143767505Y-86799067D01*
X143624853Y-87012561D01*
X143526593Y-87249783D01*
X143510000Y-87333201D01*
X143493407Y-87249783D01*
X143395147Y-87012561D01*
X143252495Y-86799067D01*
X143070933Y-86617505D01*
X142857439Y-86474853D01*
X142620217Y-86376593D01*
X142368384Y-86326500D01*
X142111616Y-86326500D01*
X141859783Y-86376593D01*
X141622561Y-86474853D01*
X141409067Y-86617505D01*
X141227505Y-86799067D01*
X141084853Y-87012561D01*
X140986593Y-87249783D01*
X140970000Y-87333201D01*
X140953407Y-87249783D01*
X140855147Y-87012561D01*
X140712495Y-86799067D01*
X140530933Y-86617505D01*
X140317439Y-86474853D01*
X140080217Y-86376593D01*
X139828384Y-86326500D01*
X139571616Y-86326500D01*
X139319783Y-86376593D01*
X139082561Y-86474853D01*
X138869067Y-86617505D01*
X138687505Y-86799067D01*
X138544853Y-87012561D01*
X138446593Y-87249783D01*
X138430000Y-87333201D01*
X138413407Y-87249783D01*
X138315147Y-87012561D01*
X138172495Y-86799067D01*
X137990933Y-86617505D01*
X137777439Y-86474853D01*
X137540217Y-86376593D01*
X137288384Y-86326500D01*
X137031616Y-86326500D01*
X136779783Y-86376593D01*
X136542561Y-86474853D01*
X136329067Y-86617505D01*
X136147505Y-86799067D01*
X136004853Y-87012561D01*
X135906593Y-87249783D01*
X135890000Y-87333201D01*
X135873407Y-87249783D01*
X135775147Y-87012561D01*
X135632495Y-86799067D01*
X135450933Y-86617505D01*
X135237439Y-86474853D01*
X135000217Y-86376593D01*
X134748384Y-86326500D01*
X134491616Y-86326500D01*
X134239783Y-86376593D01*
X134002561Y-86474853D01*
X133789067Y-86617505D01*
X133607505Y-86799067D01*
X133464853Y-87012561D01*
X133366593Y-87249783D01*
X133351587Y-87325224D01*
X133347718Y-87300630D01*
X133259102Y-87059639D01*
X133209312Y-86966488D01*
X132978753Y-86910852D01*
X132259605Y-87630000D01*
X131900395Y-87630000D01*
X131181247Y-86910852D01*
X130950688Y-86966488D01*
X130842943Y-87199555D01*
X130810320Y-87334808D01*
X130793407Y-87249783D01*
X130695147Y-87012561D01*
X130552495Y-86799067D01*
X130484675Y-86731247D01*
X131360852Y-86731247D01*
X132080000Y-87450395D01*
X132799148Y-86731247D01*
X132743512Y-86500688D01*
X132510445Y-86392943D01*
X132260836Y-86332737D01*
X132004278Y-86322383D01*
X131750630Y-86362282D01*
X131509639Y-86450898D01*
X131416488Y-86500688D01*
X131360852Y-86731247D01*
X130484675Y-86731247D01*
X130370933Y-86617505D01*
X130157439Y-86474853D01*
X129920217Y-86376593D01*
X129668384Y-86326500D01*
X129411616Y-86326500D01*
X129159783Y-86376593D01*
X128922561Y-86474853D01*
X128709067Y-86617505D01*
X128527505Y-86799067D01*
X128384853Y-87012561D01*
X128286593Y-87249783D01*
X128270000Y-87333201D01*
X128253407Y-87249783D01*
X128155147Y-87012561D01*
X128012495Y-86799067D01*
X127830933Y-86617505D01*
X127617439Y-86474853D01*
X127380217Y-86376593D01*
X127128384Y-86326500D01*
X126871616Y-86326500D01*
X126619783Y-86376593D01*
X126382561Y-86474853D01*
X126169067Y-86617505D01*
X125987505Y-86799067D01*
X125844853Y-87012561D01*
X125746593Y-87249783D01*
X125730000Y-87333201D01*
X125713407Y-87249783D01*
X125615147Y-87012561D01*
X125472495Y-86799067D01*
X125290933Y-86617505D01*
X125077439Y-86474853D01*
X124840217Y-86376593D01*
X124588384Y-86326500D01*
X124331616Y-86326500D01*
X124079783Y-86376593D01*
X123842561Y-86474853D01*
X123629067Y-86617505D01*
X123447505Y-86799067D01*
X123304853Y-87012561D01*
X123206593Y-87249783D01*
X123190000Y-87333201D01*
X123173407Y-87249783D01*
X123075147Y-87012561D01*
X122932495Y-86799067D01*
X122750933Y-86617505D01*
X122537439Y-86474853D01*
X122300217Y-86376593D01*
X122048384Y-86326500D01*
X121791616Y-86326500D01*
X121539783Y-86376593D01*
X121302561Y-86474853D01*
X121089067Y-86617505D01*
X120907505Y-86799067D01*
X120764853Y-87012561D01*
X120666593Y-87249783D01*
X120650000Y-87333201D01*
X120633407Y-87249783D01*
X120535147Y-87012561D01*
X120392495Y-86799067D01*
X120210933Y-86617505D01*
X119997439Y-86474853D01*
X119760217Y-86376593D01*
X119508384Y-86326500D01*
X119251616Y-86326500D01*
X118999783Y-86376593D01*
X118762561Y-86474853D01*
X118549067Y-86617505D01*
X118367505Y-86799067D01*
X118224853Y-87012561D01*
X118126593Y-87249783D01*
X118076500Y-87501616D01*
X114066688Y-87501616D01*
X114197639Y-87419630D01*
X115471120Y-86799886D01*
X116803253Y-86318976D01*
X118178952Y-85982343D01*
X119586924Y-85793229D01*
X120663241Y-85750000D01*
X173972431Y-85750000D01*
X175404272Y-85826293D01*
G37*
G04 #@! TD.AperFunction*
M02*
