G04 #@! TF.GenerationSoftware,KiCad,Pcbnew,(5.1.10)-1*
G04 #@! TF.CreationDate,2021-10-09T12:44:35+02:00*
G04 #@! TF.ProjectId,AirQualitySensor,41697251-7561-46c6-9974-7953656e736f,rev?*
G04 #@! TF.SameCoordinates,Original*
G04 #@! TF.FileFunction,Soldermask,Top*
G04 #@! TF.FilePolarity,Negative*
%FSLAX46Y46*%
G04 Gerber Fmt 4.6, Leading zero omitted, Abs format (unit mm)*
G04 Created by KiCad (PCBNEW (5.1.10)-1) date 2021-10-09 12:44:35*
%MOMM*%
%LPD*%
G01*
G04 APERTURE LIST*
%ADD10C,5.000000*%
%ADD11C,1.800000*%
%ADD12R,1.800000X1.800000*%
%ADD13O,1.700000X1.700000*%
%ADD14R,1.700000X1.700000*%
%ADD15C,0.787000*%
%ADD16C,0.991000*%
%ADD17C,2.374900*%
%ADD18R,0.800000X0.900000*%
%ADD19R,1.450000X0.600000*%
%ADD20R,1.450000X0.300000*%
%ADD21O,2.100000X1.000000*%
%ADD22C,0.650000*%
%ADD23O,1.600000X1.000000*%
%ADD24C,1.524000*%
%ADD25C,1.700000*%
%ADD26C,1.337000*%
%ADD27C,1.200000*%
G04 APERTURE END LIST*
G36*
G01*
X142436000Y-100949000D02*
X142806000Y-100949000D01*
G75*
G02*
X142941000Y-101084000I0J-135000D01*
G01*
X142941000Y-101354000D01*
G75*
G02*
X142806000Y-101489000I-135000J0D01*
G01*
X142436000Y-101489000D01*
G75*
G02*
X142301000Y-101354000I0J135000D01*
G01*
X142301000Y-101084000D01*
G75*
G02*
X142436000Y-100949000I135000J0D01*
G01*
G37*
G36*
G01*
X142436000Y-99929000D02*
X142806000Y-99929000D01*
G75*
G02*
X142941000Y-100064000I0J-135000D01*
G01*
X142941000Y-100334000D01*
G75*
G02*
X142806000Y-100469000I-135000J0D01*
G01*
X142436000Y-100469000D01*
G75*
G02*
X142301000Y-100334000I0J135000D01*
G01*
X142301000Y-100064000D01*
G75*
G02*
X142436000Y-99929000I135000J0D01*
G01*
G37*
G36*
G01*
X140150000Y-100949000D02*
X140520000Y-100949000D01*
G75*
G02*
X140655000Y-101084000I0J-135000D01*
G01*
X140655000Y-101354000D01*
G75*
G02*
X140520000Y-101489000I-135000J0D01*
G01*
X140150000Y-101489000D01*
G75*
G02*
X140015000Y-101354000I0J135000D01*
G01*
X140015000Y-101084000D01*
G75*
G02*
X140150000Y-100949000I135000J0D01*
G01*
G37*
G36*
G01*
X140150000Y-99929000D02*
X140520000Y-99929000D01*
G75*
G02*
X140655000Y-100064000I0J-135000D01*
G01*
X140655000Y-100334000D01*
G75*
G02*
X140520000Y-100469000I-135000J0D01*
G01*
X140150000Y-100469000D01*
G75*
G02*
X140015000Y-100334000I0J135000D01*
G01*
X140015000Y-100064000D01*
G75*
G02*
X140150000Y-99929000I135000J0D01*
G01*
G37*
G36*
G01*
X142164750Y-98367000D02*
X143077250Y-98367000D01*
G75*
G02*
X143321000Y-98610750I0J-243750D01*
G01*
X143321000Y-99098250D01*
G75*
G02*
X143077250Y-99342000I-243750J0D01*
G01*
X142164750Y-99342000D01*
G75*
G02*
X141921000Y-99098250I0J243750D01*
G01*
X141921000Y-98610750D01*
G75*
G02*
X142164750Y-98367000I243750J0D01*
G01*
G37*
G36*
G01*
X142164750Y-96492000D02*
X143077250Y-96492000D01*
G75*
G02*
X143321000Y-96735750I0J-243750D01*
G01*
X143321000Y-97223250D01*
G75*
G02*
X143077250Y-97467000I-243750J0D01*
G01*
X142164750Y-97467000D01*
G75*
G02*
X141921000Y-97223250I0J243750D01*
G01*
X141921000Y-96735750D01*
G75*
G02*
X142164750Y-96492000I243750J0D01*
G01*
G37*
G36*
G01*
X139878750Y-98367000D02*
X140791250Y-98367000D01*
G75*
G02*
X141035000Y-98610750I0J-243750D01*
G01*
X141035000Y-99098250D01*
G75*
G02*
X140791250Y-99342000I-243750J0D01*
G01*
X139878750Y-99342000D01*
G75*
G02*
X139635000Y-99098250I0J243750D01*
G01*
X139635000Y-98610750D01*
G75*
G02*
X139878750Y-98367000I243750J0D01*
G01*
G37*
G36*
G01*
X139878750Y-96492000D02*
X140791250Y-96492000D01*
G75*
G02*
X141035000Y-96735750I0J-243750D01*
G01*
X141035000Y-97223250D01*
G75*
G02*
X140791250Y-97467000I-243750J0D01*
G01*
X139878750Y-97467000D01*
G75*
G02*
X139635000Y-97223250I0J243750D01*
G01*
X139635000Y-96735750D01*
G75*
G02*
X139878750Y-96492000I243750J0D01*
G01*
G37*
G36*
G01*
X157212000Y-115501000D02*
X157212000Y-115131000D01*
G75*
G02*
X157347000Y-114996000I135000J0D01*
G01*
X157617000Y-114996000D01*
G75*
G02*
X157752000Y-115131000I0J-135000D01*
G01*
X157752000Y-115501000D01*
G75*
G02*
X157617000Y-115636000I-135000J0D01*
G01*
X157347000Y-115636000D01*
G75*
G02*
X157212000Y-115501000I0J135000D01*
G01*
G37*
G36*
G01*
X156192000Y-115501000D02*
X156192000Y-115131000D01*
G75*
G02*
X156327000Y-114996000I135000J0D01*
G01*
X156597000Y-114996000D01*
G75*
G02*
X156732000Y-115131000I0J-135000D01*
G01*
X156732000Y-115501000D01*
G75*
G02*
X156597000Y-115636000I-135000J0D01*
G01*
X156327000Y-115636000D01*
G75*
G02*
X156192000Y-115501000I0J135000D01*
G01*
G37*
G36*
G01*
X160262000Y-115501000D02*
X160262000Y-115131000D01*
G75*
G02*
X160397000Y-114996000I135000J0D01*
G01*
X160667000Y-114996000D01*
G75*
G02*
X160802000Y-115131000I0J-135000D01*
G01*
X160802000Y-115501000D01*
G75*
G02*
X160667000Y-115636000I-135000J0D01*
G01*
X160397000Y-115636000D01*
G75*
G02*
X160262000Y-115501000I0J135000D01*
G01*
G37*
G36*
G01*
X159242000Y-115501000D02*
X159242000Y-115131000D01*
G75*
G02*
X159377000Y-114996000I135000J0D01*
G01*
X159647000Y-114996000D01*
G75*
G02*
X159782000Y-115131000I0J-135000D01*
G01*
X159782000Y-115501000D01*
G75*
G02*
X159647000Y-115636000I-135000J0D01*
G01*
X159377000Y-115636000D01*
G75*
G02*
X159242000Y-115501000I0J135000D01*
G01*
G37*
D10*
X184150000Y-115570000D03*
X176530000Y-88900000D03*
X110490000Y-106680000D03*
G36*
G01*
X147135000Y-98792000D02*
X147505000Y-98792000D01*
G75*
G02*
X147640000Y-98927000I0J-135000D01*
G01*
X147640000Y-99197000D01*
G75*
G02*
X147505000Y-99332000I-135000J0D01*
G01*
X147135000Y-99332000D01*
G75*
G02*
X147000000Y-99197000I0J135000D01*
G01*
X147000000Y-98927000D01*
G75*
G02*
X147135000Y-98792000I135000J0D01*
G01*
G37*
G36*
G01*
X147135000Y-97772000D02*
X147505000Y-97772000D01*
G75*
G02*
X147640000Y-97907000I0J-135000D01*
G01*
X147640000Y-98177000D01*
G75*
G02*
X147505000Y-98312000I-135000J0D01*
G01*
X147135000Y-98312000D01*
G75*
G02*
X147000000Y-98177000I0J135000D01*
G01*
X147000000Y-97907000D01*
G75*
G02*
X147135000Y-97772000I135000J0D01*
G01*
G37*
G36*
G01*
X148659000Y-98792000D02*
X149029000Y-98792000D01*
G75*
G02*
X149164000Y-98927000I0J-135000D01*
G01*
X149164000Y-99197000D01*
G75*
G02*
X149029000Y-99332000I-135000J0D01*
G01*
X148659000Y-99332000D01*
G75*
G02*
X148524000Y-99197000I0J135000D01*
G01*
X148524000Y-98927000D01*
G75*
G02*
X148659000Y-98792000I135000J0D01*
G01*
G37*
G36*
G01*
X148659000Y-97772000D02*
X149029000Y-97772000D01*
G75*
G02*
X149164000Y-97907000I0J-135000D01*
G01*
X149164000Y-98177000D01*
G75*
G02*
X149029000Y-98312000I-135000J0D01*
G01*
X148659000Y-98312000D01*
G75*
G02*
X148524000Y-98177000I0J135000D01*
G01*
X148524000Y-97907000D01*
G75*
G02*
X148659000Y-97772000I135000J0D01*
G01*
G37*
G36*
G01*
X150183000Y-98792000D02*
X150553000Y-98792000D01*
G75*
G02*
X150688000Y-98927000I0J-135000D01*
G01*
X150688000Y-99197000D01*
G75*
G02*
X150553000Y-99332000I-135000J0D01*
G01*
X150183000Y-99332000D01*
G75*
G02*
X150048000Y-99197000I0J135000D01*
G01*
X150048000Y-98927000D01*
G75*
G02*
X150183000Y-98792000I135000J0D01*
G01*
G37*
G36*
G01*
X150183000Y-97772000D02*
X150553000Y-97772000D01*
G75*
G02*
X150688000Y-97907000I0J-135000D01*
G01*
X150688000Y-98177000D01*
G75*
G02*
X150553000Y-98312000I-135000J0D01*
G01*
X150183000Y-98312000D01*
G75*
G02*
X150048000Y-98177000I0J135000D01*
G01*
X150048000Y-97907000D01*
G75*
G02*
X150183000Y-97772000I135000J0D01*
G01*
G37*
D11*
X177800000Y-96150000D03*
D12*
X177800000Y-98690000D03*
D11*
X177800000Y-102050000D03*
D12*
X177800000Y-104590000D03*
D11*
X177800000Y-107950000D03*
D12*
X177800000Y-110490000D03*
G36*
G01*
X150930000Y-88984000D02*
X150930000Y-89324000D01*
G75*
G02*
X150790000Y-89464000I-140000J0D01*
G01*
X150510000Y-89464000D01*
G75*
G02*
X150370000Y-89324000I0J140000D01*
G01*
X150370000Y-88984000D01*
G75*
G02*
X150510000Y-88844000I140000J0D01*
G01*
X150790000Y-88844000D01*
G75*
G02*
X150930000Y-88984000I0J-140000D01*
G01*
G37*
G36*
G01*
X151890000Y-88984000D02*
X151890000Y-89324000D01*
G75*
G02*
X151750000Y-89464000I-140000J0D01*
G01*
X151470000Y-89464000D01*
G75*
G02*
X151330000Y-89324000I0J140000D01*
G01*
X151330000Y-88984000D01*
G75*
G02*
X151470000Y-88844000I140000J0D01*
G01*
X151750000Y-88844000D01*
G75*
G02*
X151890000Y-88984000I0J-140000D01*
G01*
G37*
D13*
X156972000Y-119888000D03*
X159512000Y-119888000D03*
X162052000Y-119888000D03*
X164592000Y-119888000D03*
X167132000Y-119888000D03*
D14*
X169672000Y-119888000D03*
D15*
X178181000Y-118491000D03*
X178181000Y-117221000D03*
X178181000Y-115951000D03*
X176911000Y-115951000D03*
X176911000Y-117221000D03*
X176911000Y-118491000D03*
D16*
X177546000Y-119761000D03*
X176531000Y-114681000D03*
X178561000Y-114681000D03*
D17*
X175006000Y-116586000D03*
X180086000Y-116586000D03*
X180086000Y-119761000D03*
X175006000Y-119761000D03*
G36*
G01*
X116894000Y-89238000D02*
X116894000Y-89578000D01*
G75*
G02*
X116754000Y-89718000I-140000J0D01*
G01*
X116474000Y-89718000D01*
G75*
G02*
X116334000Y-89578000I0J140000D01*
G01*
X116334000Y-89238000D01*
G75*
G02*
X116474000Y-89098000I140000J0D01*
G01*
X116754000Y-89098000D01*
G75*
G02*
X116894000Y-89238000I0J-140000D01*
G01*
G37*
G36*
G01*
X117854000Y-89238000D02*
X117854000Y-89578000D01*
G75*
G02*
X117714000Y-89718000I-140000J0D01*
G01*
X117434000Y-89718000D01*
G75*
G02*
X117294000Y-89578000I0J140000D01*
G01*
X117294000Y-89238000D01*
G75*
G02*
X117434000Y-89098000I140000J0D01*
G01*
X117714000Y-89098000D01*
G75*
G02*
X117854000Y-89238000I0J-140000D01*
G01*
G37*
G36*
G01*
X147628000Y-88984000D02*
X147628000Y-89324000D01*
G75*
G02*
X147488000Y-89464000I-140000J0D01*
G01*
X147208000Y-89464000D01*
G75*
G02*
X147068000Y-89324000I0J140000D01*
G01*
X147068000Y-88984000D01*
G75*
G02*
X147208000Y-88844000I140000J0D01*
G01*
X147488000Y-88844000D01*
G75*
G02*
X147628000Y-88984000I0J-140000D01*
G01*
G37*
G36*
G01*
X148588000Y-88984000D02*
X148588000Y-89324000D01*
G75*
G02*
X148448000Y-89464000I-140000J0D01*
G01*
X148168000Y-89464000D01*
G75*
G02*
X148028000Y-89324000I0J140000D01*
G01*
X148028000Y-88984000D01*
G75*
G02*
X148168000Y-88844000I140000J0D01*
G01*
X148448000Y-88844000D01*
G75*
G02*
X148588000Y-88984000I0J-140000D01*
G01*
G37*
G36*
G01*
X116894000Y-90508000D02*
X116894000Y-90848000D01*
G75*
G02*
X116754000Y-90988000I-140000J0D01*
G01*
X116474000Y-90988000D01*
G75*
G02*
X116334000Y-90848000I0J140000D01*
G01*
X116334000Y-90508000D01*
G75*
G02*
X116474000Y-90368000I140000J0D01*
G01*
X116754000Y-90368000D01*
G75*
G02*
X116894000Y-90508000I0J-140000D01*
G01*
G37*
G36*
G01*
X117854000Y-90508000D02*
X117854000Y-90848000D01*
G75*
G02*
X117714000Y-90988000I-140000J0D01*
G01*
X117434000Y-90988000D01*
G75*
G02*
X117294000Y-90848000I0J140000D01*
G01*
X117294000Y-90508000D01*
G75*
G02*
X117434000Y-90368000I140000J0D01*
G01*
X117714000Y-90368000D01*
G75*
G02*
X117854000Y-90508000I0J-140000D01*
G01*
G37*
G36*
G01*
X116894000Y-91778000D02*
X116894000Y-92118000D01*
G75*
G02*
X116754000Y-92258000I-140000J0D01*
G01*
X116474000Y-92258000D01*
G75*
G02*
X116334000Y-92118000I0J140000D01*
G01*
X116334000Y-91778000D01*
G75*
G02*
X116474000Y-91638000I140000J0D01*
G01*
X116754000Y-91638000D01*
G75*
G02*
X116894000Y-91778000I0J-140000D01*
G01*
G37*
G36*
G01*
X117854000Y-91778000D02*
X117854000Y-92118000D01*
G75*
G02*
X117714000Y-92258000I-140000J0D01*
G01*
X117434000Y-92258000D01*
G75*
G02*
X117294000Y-92118000I0J140000D01*
G01*
X117294000Y-91778000D01*
G75*
G02*
X117434000Y-91638000I140000J0D01*
G01*
X117714000Y-91638000D01*
G75*
G02*
X117854000Y-91778000I0J-140000D01*
G01*
G37*
G36*
G01*
X140798000Y-88984000D02*
X140798000Y-89324000D01*
G75*
G02*
X140658000Y-89464000I-140000J0D01*
G01*
X140378000Y-89464000D01*
G75*
G02*
X140238000Y-89324000I0J140000D01*
G01*
X140238000Y-88984000D01*
G75*
G02*
X140378000Y-88844000I140000J0D01*
G01*
X140658000Y-88844000D01*
G75*
G02*
X140798000Y-88984000I0J-140000D01*
G01*
G37*
G36*
G01*
X141758000Y-88984000D02*
X141758000Y-89324000D01*
G75*
G02*
X141618000Y-89464000I-140000J0D01*
G01*
X141338000Y-89464000D01*
G75*
G02*
X141198000Y-89324000I0J140000D01*
G01*
X141198000Y-88984000D01*
G75*
G02*
X141338000Y-88844000I140000J0D01*
G01*
X141618000Y-88844000D01*
G75*
G02*
X141758000Y-88984000I0J-140000D01*
G01*
G37*
G36*
G01*
X116894000Y-93048000D02*
X116894000Y-93388000D01*
G75*
G02*
X116754000Y-93528000I-140000J0D01*
G01*
X116474000Y-93528000D01*
G75*
G02*
X116334000Y-93388000I0J140000D01*
G01*
X116334000Y-93048000D01*
G75*
G02*
X116474000Y-92908000I140000J0D01*
G01*
X116754000Y-92908000D01*
G75*
G02*
X116894000Y-93048000I0J-140000D01*
G01*
G37*
G36*
G01*
X117854000Y-93048000D02*
X117854000Y-93388000D01*
G75*
G02*
X117714000Y-93528000I-140000J0D01*
G01*
X117434000Y-93528000D01*
G75*
G02*
X117294000Y-93388000I0J140000D01*
G01*
X117294000Y-93048000D01*
G75*
G02*
X117434000Y-92908000I140000J0D01*
G01*
X117714000Y-92908000D01*
G75*
G02*
X117854000Y-93048000I0J-140000D01*
G01*
G37*
G36*
G01*
X136650000Y-88984000D02*
X136650000Y-89324000D01*
G75*
G02*
X136510000Y-89464000I-140000J0D01*
G01*
X136230000Y-89464000D01*
G75*
G02*
X136090000Y-89324000I0J140000D01*
G01*
X136090000Y-88984000D01*
G75*
G02*
X136230000Y-88844000I140000J0D01*
G01*
X136510000Y-88844000D01*
G75*
G02*
X136650000Y-88984000I0J-140000D01*
G01*
G37*
G36*
G01*
X135690000Y-88984000D02*
X135690000Y-89324000D01*
G75*
G02*
X135550000Y-89464000I-140000J0D01*
G01*
X135270000Y-89464000D01*
G75*
G02*
X135130000Y-89324000I0J140000D01*
G01*
X135130000Y-88984000D01*
G75*
G02*
X135270000Y-88844000I140000J0D01*
G01*
X135550000Y-88844000D01*
G75*
G02*
X135690000Y-88984000I0J-140000D01*
G01*
G37*
G36*
G01*
X116894000Y-94318000D02*
X116894000Y-94658000D01*
G75*
G02*
X116754000Y-94798000I-140000J0D01*
G01*
X116474000Y-94798000D01*
G75*
G02*
X116334000Y-94658000I0J140000D01*
G01*
X116334000Y-94318000D01*
G75*
G02*
X116474000Y-94178000I140000J0D01*
G01*
X116754000Y-94178000D01*
G75*
G02*
X116894000Y-94318000I0J-140000D01*
G01*
G37*
G36*
G01*
X117854000Y-94318000D02*
X117854000Y-94658000D01*
G75*
G02*
X117714000Y-94798000I-140000J0D01*
G01*
X117434000Y-94798000D01*
G75*
G02*
X117294000Y-94658000I0J140000D01*
G01*
X117294000Y-94318000D01*
G75*
G02*
X117434000Y-94178000I140000J0D01*
G01*
X117714000Y-94178000D01*
G75*
G02*
X117854000Y-94318000I0J-140000D01*
G01*
G37*
G36*
G01*
X134297000Y-115584000D02*
X133927000Y-115584000D01*
G75*
G02*
X133792000Y-115449000I0J135000D01*
G01*
X133792000Y-115179000D01*
G75*
G02*
X133927000Y-115044000I135000J0D01*
G01*
X134297000Y-115044000D01*
G75*
G02*
X134432000Y-115179000I0J-135000D01*
G01*
X134432000Y-115449000D01*
G75*
G02*
X134297000Y-115584000I-135000J0D01*
G01*
G37*
G36*
G01*
X134297000Y-116604000D02*
X133927000Y-116604000D01*
G75*
G02*
X133792000Y-116469000I0J135000D01*
G01*
X133792000Y-116199000D01*
G75*
G02*
X133927000Y-116064000I135000J0D01*
G01*
X134297000Y-116064000D01*
G75*
G02*
X134432000Y-116199000I0J-135000D01*
G01*
X134432000Y-116469000D01*
G75*
G02*
X134297000Y-116604000I-135000J0D01*
G01*
G37*
G36*
G01*
X186450000Y-100145000D02*
X186450000Y-100515000D01*
G75*
G02*
X186315000Y-100650000I-135000J0D01*
G01*
X186045000Y-100650000D01*
G75*
G02*
X185910000Y-100515000I0J135000D01*
G01*
X185910000Y-100145000D01*
G75*
G02*
X186045000Y-100010000I135000J0D01*
G01*
X186315000Y-100010000D01*
G75*
G02*
X186450000Y-100145000I0J-135000D01*
G01*
G37*
G36*
G01*
X187470000Y-100145000D02*
X187470000Y-100515000D01*
G75*
G02*
X187335000Y-100650000I-135000J0D01*
G01*
X187065000Y-100650000D01*
G75*
G02*
X186930000Y-100515000I0J135000D01*
G01*
X186930000Y-100145000D01*
G75*
G02*
X187065000Y-100010000I135000J0D01*
G01*
X187335000Y-100010000D01*
G75*
G02*
X187470000Y-100145000I0J-135000D01*
G01*
G37*
G36*
G01*
X186450000Y-102685000D02*
X186450000Y-103055000D01*
G75*
G02*
X186315000Y-103190000I-135000J0D01*
G01*
X186045000Y-103190000D01*
G75*
G02*
X185910000Y-103055000I0J135000D01*
G01*
X185910000Y-102685000D01*
G75*
G02*
X186045000Y-102550000I135000J0D01*
G01*
X186315000Y-102550000D01*
G75*
G02*
X186450000Y-102685000I0J-135000D01*
G01*
G37*
G36*
G01*
X187470000Y-102685000D02*
X187470000Y-103055000D01*
G75*
G02*
X187335000Y-103190000I-135000J0D01*
G01*
X187065000Y-103190000D01*
G75*
G02*
X186930000Y-103055000I0J135000D01*
G01*
X186930000Y-102685000D01*
G75*
G02*
X187065000Y-102550000I135000J0D01*
G01*
X187335000Y-102550000D01*
G75*
G02*
X187470000Y-102685000I0J-135000D01*
G01*
G37*
G36*
G01*
X150168000Y-102192000D02*
X150168000Y-102532000D01*
G75*
G02*
X150028000Y-102672000I-140000J0D01*
G01*
X149748000Y-102672000D01*
G75*
G02*
X149608000Y-102532000I0J140000D01*
G01*
X149608000Y-102192000D01*
G75*
G02*
X149748000Y-102052000I140000J0D01*
G01*
X150028000Y-102052000D01*
G75*
G02*
X150168000Y-102192000I0J-140000D01*
G01*
G37*
G36*
G01*
X151128000Y-102192000D02*
X151128000Y-102532000D01*
G75*
G02*
X150988000Y-102672000I-140000J0D01*
G01*
X150708000Y-102672000D01*
G75*
G02*
X150568000Y-102532000I0J140000D01*
G01*
X150568000Y-102192000D01*
G75*
G02*
X150708000Y-102052000I140000J0D01*
G01*
X150988000Y-102052000D01*
G75*
G02*
X151128000Y-102192000I0J-140000D01*
G01*
G37*
D18*
X110871000Y-100187000D03*
X109921000Y-98187000D03*
X111821000Y-98187000D03*
G36*
G01*
X118858000Y-120327000D02*
X118858000Y-119957000D01*
G75*
G02*
X118993000Y-119822000I135000J0D01*
G01*
X119263000Y-119822000D01*
G75*
G02*
X119398000Y-119957000I0J-135000D01*
G01*
X119398000Y-120327000D01*
G75*
G02*
X119263000Y-120462000I-135000J0D01*
G01*
X118993000Y-120462000D01*
G75*
G02*
X118858000Y-120327000I0J135000D01*
G01*
G37*
G36*
G01*
X117838000Y-120327000D02*
X117838000Y-119957000D01*
G75*
G02*
X117973000Y-119822000I135000J0D01*
G01*
X118243000Y-119822000D01*
G75*
G02*
X118378000Y-119957000I0J-135000D01*
G01*
X118378000Y-120327000D01*
G75*
G02*
X118243000Y-120462000I-135000J0D01*
G01*
X117973000Y-120462000D01*
G75*
G02*
X117838000Y-120327000I0J135000D01*
G01*
G37*
G36*
G01*
X115302000Y-110167000D02*
X115302000Y-109797000D01*
G75*
G02*
X115437000Y-109662000I135000J0D01*
G01*
X115707000Y-109662000D01*
G75*
G02*
X115842000Y-109797000I0J-135000D01*
G01*
X115842000Y-110167000D01*
G75*
G02*
X115707000Y-110302000I-135000J0D01*
G01*
X115437000Y-110302000D01*
G75*
G02*
X115302000Y-110167000I0J135000D01*
G01*
G37*
G36*
G01*
X114282000Y-110167000D02*
X114282000Y-109797000D01*
G75*
G02*
X114417000Y-109662000I135000J0D01*
G01*
X114687000Y-109662000D01*
G75*
G02*
X114822000Y-109797000I0J-135000D01*
G01*
X114822000Y-110167000D01*
G75*
G02*
X114687000Y-110302000I-135000J0D01*
G01*
X114417000Y-110302000D01*
G75*
G02*
X114282000Y-110167000I0J135000D01*
G01*
G37*
D19*
X113011000Y-119074000D03*
X113011000Y-118274000D03*
X113011000Y-113374000D03*
X113011000Y-112574000D03*
X113011000Y-112574000D03*
X113011000Y-113374000D03*
X113011000Y-118274000D03*
X113011000Y-119074000D03*
D20*
X113011000Y-114074000D03*
X113011000Y-114574000D03*
X113011000Y-115074000D03*
X113011000Y-116074000D03*
X113011000Y-116574000D03*
X113011000Y-117074000D03*
X113011000Y-117574000D03*
X113011000Y-115574000D03*
D21*
X112096000Y-120144000D03*
X112096000Y-111504000D03*
D22*
X111566000Y-112934000D03*
D23*
X107916000Y-111504000D03*
D22*
X111566000Y-118714000D03*
D23*
X107916000Y-120144000D03*
G36*
G01*
X113154750Y-102864500D02*
X113667250Y-102864500D01*
G75*
G02*
X113886000Y-103083250I0J-218750D01*
G01*
X113886000Y-103520750D01*
G75*
G02*
X113667250Y-103739500I-218750J0D01*
G01*
X113154750Y-103739500D01*
G75*
G02*
X112936000Y-103520750I0J218750D01*
G01*
X112936000Y-103083250D01*
G75*
G02*
X113154750Y-102864500I218750J0D01*
G01*
G37*
G36*
G01*
X113154750Y-101289500D02*
X113667250Y-101289500D01*
G75*
G02*
X113886000Y-101508250I0J-218750D01*
G01*
X113886000Y-101945750D01*
G75*
G02*
X113667250Y-102164500I-218750J0D01*
G01*
X113154750Y-102164500D01*
G75*
G02*
X112936000Y-101945750I0J218750D01*
G01*
X112936000Y-101508250D01*
G75*
G02*
X113154750Y-101289500I218750J0D01*
G01*
G37*
G36*
G01*
X121663750Y-120238000D02*
X122176250Y-120238000D01*
G75*
G02*
X122395000Y-120456750I0J-218750D01*
G01*
X122395000Y-120894250D01*
G75*
G02*
X122176250Y-121113000I-218750J0D01*
G01*
X121663750Y-121113000D01*
G75*
G02*
X121445000Y-120894250I0J218750D01*
G01*
X121445000Y-120456750D01*
G75*
G02*
X121663750Y-120238000I218750J0D01*
G01*
G37*
G36*
G01*
X121663750Y-118663000D02*
X122176250Y-118663000D01*
G75*
G02*
X122395000Y-118881750I0J-218750D01*
G01*
X122395000Y-119319250D01*
G75*
G02*
X122176250Y-119538000I-218750J0D01*
G01*
X121663750Y-119538000D01*
G75*
G02*
X121445000Y-119319250I0J218750D01*
G01*
X121445000Y-118881750D01*
G75*
G02*
X121663750Y-118663000I218750J0D01*
G01*
G37*
G36*
G01*
X110686000Y-94492000D02*
X110686000Y-94992000D01*
G75*
G02*
X110461000Y-95217000I-225000J0D01*
G01*
X110011000Y-95217000D01*
G75*
G02*
X109786000Y-94992000I0J225000D01*
G01*
X109786000Y-94492000D01*
G75*
G02*
X110011000Y-94267000I225000J0D01*
G01*
X110461000Y-94267000D01*
G75*
G02*
X110686000Y-94492000I0J-225000D01*
G01*
G37*
G36*
G01*
X112236000Y-94492000D02*
X112236000Y-94992000D01*
G75*
G02*
X112011000Y-95217000I-225000J0D01*
G01*
X111561000Y-95217000D01*
G75*
G02*
X111336000Y-94992000I0J225000D01*
G01*
X111336000Y-94492000D01*
G75*
G02*
X111561000Y-94267000I225000J0D01*
G01*
X112011000Y-94267000D01*
G75*
G02*
X112236000Y-94492000I0J-225000D01*
G01*
G37*
G36*
G01*
X125788000Y-119884000D02*
X125788000Y-119384000D01*
G75*
G02*
X126013000Y-119159000I225000J0D01*
G01*
X126463000Y-119159000D01*
G75*
G02*
X126688000Y-119384000I0J-225000D01*
G01*
X126688000Y-119884000D01*
G75*
G02*
X126463000Y-120109000I-225000J0D01*
G01*
X126013000Y-120109000D01*
G75*
G02*
X125788000Y-119884000I0J225000D01*
G01*
G37*
G36*
G01*
X124238000Y-119884000D02*
X124238000Y-119384000D01*
G75*
G02*
X124463000Y-119159000I225000J0D01*
G01*
X124913000Y-119159000D01*
G75*
G02*
X125138000Y-119384000I0J-225000D01*
G01*
X125138000Y-119884000D01*
G75*
G02*
X124913000Y-120109000I-225000J0D01*
G01*
X124463000Y-120109000D01*
G75*
G02*
X124238000Y-119884000I0J225000D01*
G01*
G37*
G36*
G01*
X110686000Y-96397000D02*
X110686000Y-96897000D01*
G75*
G02*
X110461000Y-97122000I-225000J0D01*
G01*
X110011000Y-97122000D01*
G75*
G02*
X109786000Y-96897000I0J225000D01*
G01*
X109786000Y-96397000D01*
G75*
G02*
X110011000Y-96172000I225000J0D01*
G01*
X110461000Y-96172000D01*
G75*
G02*
X110686000Y-96397000I0J-225000D01*
G01*
G37*
G36*
G01*
X112236000Y-96397000D02*
X112236000Y-96897000D01*
G75*
G02*
X112011000Y-97122000I-225000J0D01*
G01*
X111561000Y-97122000D01*
G75*
G02*
X111336000Y-96897000I0J225000D01*
G01*
X111336000Y-96397000D01*
G75*
G02*
X111561000Y-96172000I225000J0D01*
G01*
X112011000Y-96172000D01*
G75*
G02*
X112236000Y-96397000I0J-225000D01*
G01*
G37*
G36*
G01*
X113161000Y-99372000D02*
X113661000Y-99372000D01*
G75*
G02*
X113886000Y-99597000I0J-225000D01*
G01*
X113886000Y-100047000D01*
G75*
G02*
X113661000Y-100272000I-225000J0D01*
G01*
X113161000Y-100272000D01*
G75*
G02*
X112936000Y-100047000I0J225000D01*
G01*
X112936000Y-99597000D01*
G75*
G02*
X113161000Y-99372000I225000J0D01*
G01*
G37*
G36*
G01*
X113161000Y-97822000D02*
X113661000Y-97822000D01*
G75*
G02*
X113886000Y-98047000I0J-225000D01*
G01*
X113886000Y-98497000D01*
G75*
G02*
X113661000Y-98722000I-225000J0D01*
G01*
X113161000Y-98722000D01*
G75*
G02*
X112936000Y-98497000I0J225000D01*
G01*
X112936000Y-98047000D01*
G75*
G02*
X113161000Y-97822000I225000J0D01*
G01*
G37*
D24*
X131826000Y-116840000D03*
X129286000Y-116840000D03*
X126746000Y-116840000D03*
X124206000Y-116840000D03*
D25*
X183370000Y-97790000D03*
X183370000Y-100330000D03*
X183370000Y-102870000D03*
X183370000Y-105410000D03*
X153670000Y-105410000D03*
D14*
X153670000Y-97790000D03*
D25*
X153670000Y-100330000D03*
X153670000Y-102870000D03*
X183370000Y-107950000D03*
D26*
X167640000Y-115570000D03*
D27*
X165100000Y-115570000D03*
D26*
X121920000Y-115570000D03*
X119380000Y-115570000D03*
X119380000Y-87630000D03*
X121920000Y-87630000D03*
X124460000Y-87630000D03*
X127000000Y-87630000D03*
X129540000Y-87630000D03*
X132080000Y-87630000D03*
X134620000Y-87630000D03*
X137160000Y-87630000D03*
X139700000Y-87630000D03*
X142240000Y-87630000D03*
X144780000Y-87630000D03*
X147320000Y-87630000D03*
X149860000Y-87630000D03*
X152400000Y-87630000D03*
X154940000Y-87630000D03*
X157480000Y-87630000D03*
X160020000Y-87630000D03*
X162560000Y-87630000D03*
X165100000Y-87630000D03*
X167640000Y-87630000D03*
G36*
G01*
X138604500Y-103149000D02*
X138939500Y-103149000D01*
G75*
G02*
X139107000Y-103316500I0J-167500D01*
G01*
X139107000Y-104511500D01*
G75*
G02*
X138939500Y-104679000I-167500J0D01*
G01*
X138604500Y-104679000D01*
G75*
G02*
X138437000Y-104511500I0J167500D01*
G01*
X138437000Y-103316500D01*
G75*
G02*
X138604500Y-103149000I167500J0D01*
G01*
G37*
G36*
G01*
X139704500Y-103149000D02*
X140039500Y-103149000D01*
G75*
G02*
X140207000Y-103316500I0J-167500D01*
G01*
X140207000Y-104511500D01*
G75*
G02*
X140039500Y-104679000I-167500J0D01*
G01*
X139704500Y-104679000D01*
G75*
G02*
X139537000Y-104511500I0J167500D01*
G01*
X139537000Y-103316500D01*
G75*
G02*
X139704500Y-103149000I167500J0D01*
G01*
G37*
G36*
G01*
X140804500Y-103149000D02*
X141139500Y-103149000D01*
G75*
G02*
X141307000Y-103316500I0J-167500D01*
G01*
X141307000Y-104511500D01*
G75*
G02*
X141139500Y-104679000I-167500J0D01*
G01*
X140804500Y-104679000D01*
G75*
G02*
X140637000Y-104511500I0J167500D01*
G01*
X140637000Y-103316500D01*
G75*
G02*
X140804500Y-103149000I167500J0D01*
G01*
G37*
G36*
G01*
X141904500Y-103149000D02*
X142239500Y-103149000D01*
G75*
G02*
X142407000Y-103316500I0J-167500D01*
G01*
X142407000Y-104511500D01*
G75*
G02*
X142239500Y-104679000I-167500J0D01*
G01*
X141904500Y-104679000D01*
G75*
G02*
X141737000Y-104511500I0J167500D01*
G01*
X141737000Y-103316500D01*
G75*
G02*
X141904500Y-103149000I167500J0D01*
G01*
G37*
G36*
G01*
X143004500Y-103149000D02*
X143339500Y-103149000D01*
G75*
G02*
X143507000Y-103316500I0J-167500D01*
G01*
X143507000Y-104511500D01*
G75*
G02*
X143339500Y-104679000I-167500J0D01*
G01*
X143004500Y-104679000D01*
G75*
G02*
X142837000Y-104511500I0J167500D01*
G01*
X142837000Y-103316500D01*
G75*
G02*
X143004500Y-103149000I167500J0D01*
G01*
G37*
G36*
G01*
X149604500Y-103149000D02*
X149939500Y-103149000D01*
G75*
G02*
X150107000Y-103316500I0J-167500D01*
G01*
X150107000Y-104511500D01*
G75*
G02*
X149939500Y-104679000I-167500J0D01*
G01*
X149604500Y-104679000D01*
G75*
G02*
X149437000Y-104511500I0J167500D01*
G01*
X149437000Y-103316500D01*
G75*
G02*
X149604500Y-103149000I167500J0D01*
G01*
G37*
G36*
G01*
X148504500Y-103149000D02*
X148839500Y-103149000D01*
G75*
G02*
X149007000Y-103316500I0J-167500D01*
G01*
X149007000Y-104511500D01*
G75*
G02*
X148839500Y-104679000I-167500J0D01*
G01*
X148504500Y-104679000D01*
G75*
G02*
X148337000Y-104511500I0J167500D01*
G01*
X148337000Y-103316500D01*
G75*
G02*
X148504500Y-103149000I167500J0D01*
G01*
G37*
G36*
G01*
X147404500Y-103149000D02*
X147739500Y-103149000D01*
G75*
G02*
X147907000Y-103316500I0J-167500D01*
G01*
X147907000Y-104511500D01*
G75*
G02*
X147739500Y-104679000I-167500J0D01*
G01*
X147404500Y-104679000D01*
G75*
G02*
X147237000Y-104511500I0J167500D01*
G01*
X147237000Y-103316500D01*
G75*
G02*
X147404500Y-103149000I167500J0D01*
G01*
G37*
G36*
G01*
X146304500Y-103149000D02*
X146639500Y-103149000D01*
G75*
G02*
X146807000Y-103316500I0J-167500D01*
G01*
X146807000Y-104511500D01*
G75*
G02*
X146639500Y-104679000I-167500J0D01*
G01*
X146304500Y-104679000D01*
G75*
G02*
X146137000Y-104511500I0J167500D01*
G01*
X146137000Y-103316500D01*
G75*
G02*
X146304500Y-103149000I167500J0D01*
G01*
G37*
G36*
G01*
X145204500Y-103149000D02*
X145539500Y-103149000D01*
G75*
G02*
X145707000Y-103316500I0J-167500D01*
G01*
X145707000Y-104511500D01*
G75*
G02*
X145539500Y-104679000I-167500J0D01*
G01*
X145204500Y-104679000D01*
G75*
G02*
X145037000Y-104511500I0J167500D01*
G01*
X145037000Y-103316500D01*
G75*
G02*
X145204500Y-103149000I167500J0D01*
G01*
G37*
G36*
G01*
X138287000Y-105246500D02*
X138287000Y-105581500D01*
G75*
G02*
X138119500Y-105749000I-167500J0D01*
G01*
X136924500Y-105749000D01*
G75*
G02*
X136757000Y-105581500I0J167500D01*
G01*
X136757000Y-105246500D01*
G75*
G02*
X136924500Y-105079000I167500J0D01*
G01*
X138119500Y-105079000D01*
G75*
G02*
X138287000Y-105246500I0J-167500D01*
G01*
G37*
G36*
G01*
X144104500Y-103149000D02*
X144439500Y-103149000D01*
G75*
G02*
X144607000Y-103316500I0J-167500D01*
G01*
X144607000Y-104511500D01*
G75*
G02*
X144439500Y-104679000I-167500J0D01*
G01*
X144104500Y-104679000D01*
G75*
G02*
X143937000Y-104511500I0J167500D01*
G01*
X143937000Y-103316500D01*
G75*
G02*
X144104500Y-103149000I167500J0D01*
G01*
G37*
G36*
G01*
X138287000Y-106346500D02*
X138287000Y-106681500D01*
G75*
G02*
X138119500Y-106849000I-167500J0D01*
G01*
X136924500Y-106849000D01*
G75*
G02*
X136757000Y-106681500I0J167500D01*
G01*
X136757000Y-106346500D01*
G75*
G02*
X136924500Y-106179000I167500J0D01*
G01*
X138119500Y-106179000D01*
G75*
G02*
X138287000Y-106346500I0J-167500D01*
G01*
G37*
G36*
G01*
X138287000Y-107446500D02*
X138287000Y-107781500D01*
G75*
G02*
X138119500Y-107949000I-167500J0D01*
G01*
X136924500Y-107949000D01*
G75*
G02*
X136757000Y-107781500I0J167500D01*
G01*
X136757000Y-107446500D01*
G75*
G02*
X136924500Y-107279000I167500J0D01*
G01*
X138119500Y-107279000D01*
G75*
G02*
X138287000Y-107446500I0J-167500D01*
G01*
G37*
G36*
G01*
X138287000Y-108546500D02*
X138287000Y-108881500D01*
G75*
G02*
X138119500Y-109049000I-167500J0D01*
G01*
X136924500Y-109049000D01*
G75*
G02*
X136757000Y-108881500I0J167500D01*
G01*
X136757000Y-108546500D01*
G75*
G02*
X136924500Y-108379000I167500J0D01*
G01*
X138119500Y-108379000D01*
G75*
G02*
X138287000Y-108546500I0J-167500D01*
G01*
G37*
G36*
G01*
X138287000Y-109646500D02*
X138287000Y-109981500D01*
G75*
G02*
X138119500Y-110149000I-167500J0D01*
G01*
X136924500Y-110149000D01*
G75*
G02*
X136757000Y-109981500I0J167500D01*
G01*
X136757000Y-109646500D01*
G75*
G02*
X136924500Y-109479000I167500J0D01*
G01*
X138119500Y-109479000D01*
G75*
G02*
X138287000Y-109646500I0J-167500D01*
G01*
G37*
G36*
G01*
X138287000Y-110746500D02*
X138287000Y-111081500D01*
G75*
G02*
X138119500Y-111249000I-167500J0D01*
G01*
X136924500Y-111249000D01*
G75*
G02*
X136757000Y-111081500I0J167500D01*
G01*
X136757000Y-110746500D01*
G75*
G02*
X136924500Y-110579000I167500J0D01*
G01*
X138119500Y-110579000D01*
G75*
G02*
X138287000Y-110746500I0J-167500D01*
G01*
G37*
G36*
G01*
X138287000Y-118446500D02*
X138287000Y-118781500D01*
G75*
G02*
X138119500Y-118949000I-167500J0D01*
G01*
X136924500Y-118949000D01*
G75*
G02*
X136757000Y-118781500I0J167500D01*
G01*
X136757000Y-118446500D01*
G75*
G02*
X136924500Y-118279000I167500J0D01*
G01*
X138119500Y-118279000D01*
G75*
G02*
X138287000Y-118446500I0J-167500D01*
G01*
G37*
G36*
G01*
X138287000Y-117346500D02*
X138287000Y-117681500D01*
G75*
G02*
X138119500Y-117849000I-167500J0D01*
G01*
X136924500Y-117849000D01*
G75*
G02*
X136757000Y-117681500I0J167500D01*
G01*
X136757000Y-117346500D01*
G75*
G02*
X136924500Y-117179000I167500J0D01*
G01*
X138119500Y-117179000D01*
G75*
G02*
X138287000Y-117346500I0J-167500D01*
G01*
G37*
G36*
G01*
X138287000Y-116246500D02*
X138287000Y-116581500D01*
G75*
G02*
X138119500Y-116749000I-167500J0D01*
G01*
X136924500Y-116749000D01*
G75*
G02*
X136757000Y-116581500I0J167500D01*
G01*
X136757000Y-116246500D01*
G75*
G02*
X136924500Y-116079000I167500J0D01*
G01*
X138119500Y-116079000D01*
G75*
G02*
X138287000Y-116246500I0J-167500D01*
G01*
G37*
G36*
G01*
X138287000Y-115146500D02*
X138287000Y-115481500D01*
G75*
G02*
X138119500Y-115649000I-167500J0D01*
G01*
X136924500Y-115649000D01*
G75*
G02*
X136757000Y-115481500I0J167500D01*
G01*
X136757000Y-115146500D01*
G75*
G02*
X136924500Y-114979000I167500J0D01*
G01*
X138119500Y-114979000D01*
G75*
G02*
X138287000Y-115146500I0J-167500D01*
G01*
G37*
G36*
G01*
X138287000Y-114046500D02*
X138287000Y-114381500D01*
G75*
G02*
X138119500Y-114549000I-167500J0D01*
G01*
X136924500Y-114549000D01*
G75*
G02*
X136757000Y-114381500I0J167500D01*
G01*
X136757000Y-114046500D01*
G75*
G02*
X136924500Y-113879000I167500J0D01*
G01*
X138119500Y-113879000D01*
G75*
G02*
X138287000Y-114046500I0J-167500D01*
G01*
G37*
G36*
G01*
X138287000Y-112946500D02*
X138287000Y-113281500D01*
G75*
G02*
X138119500Y-113449000I-167500J0D01*
G01*
X136924500Y-113449000D01*
G75*
G02*
X136757000Y-113281500I0J167500D01*
G01*
X136757000Y-112946500D01*
G75*
G02*
X136924500Y-112779000I167500J0D01*
G01*
X138119500Y-112779000D01*
G75*
G02*
X138287000Y-112946500I0J-167500D01*
G01*
G37*
G36*
G01*
X151787000Y-118446500D02*
X151787000Y-118781500D01*
G75*
G02*
X151619500Y-118949000I-167500J0D01*
G01*
X150424500Y-118949000D01*
G75*
G02*
X150257000Y-118781500I0J167500D01*
G01*
X150257000Y-118446500D01*
G75*
G02*
X150424500Y-118279000I167500J0D01*
G01*
X151619500Y-118279000D01*
G75*
G02*
X151787000Y-118446500I0J-167500D01*
G01*
G37*
G36*
G01*
X151787000Y-117346500D02*
X151787000Y-117681500D01*
G75*
G02*
X151619500Y-117849000I-167500J0D01*
G01*
X150424500Y-117849000D01*
G75*
G02*
X150257000Y-117681500I0J167500D01*
G01*
X150257000Y-117346500D01*
G75*
G02*
X150424500Y-117179000I167500J0D01*
G01*
X151619500Y-117179000D01*
G75*
G02*
X151787000Y-117346500I0J-167500D01*
G01*
G37*
G36*
G01*
X151787000Y-116246500D02*
X151787000Y-116581500D01*
G75*
G02*
X151619500Y-116749000I-167500J0D01*
G01*
X150424500Y-116749000D01*
G75*
G02*
X150257000Y-116581500I0J167500D01*
G01*
X150257000Y-116246500D01*
G75*
G02*
X150424500Y-116079000I167500J0D01*
G01*
X151619500Y-116079000D01*
G75*
G02*
X151787000Y-116246500I0J-167500D01*
G01*
G37*
G36*
G01*
X151787000Y-115146500D02*
X151787000Y-115481500D01*
G75*
G02*
X151619500Y-115649000I-167500J0D01*
G01*
X150424500Y-115649000D01*
G75*
G02*
X150257000Y-115481500I0J167500D01*
G01*
X150257000Y-115146500D01*
G75*
G02*
X150424500Y-114979000I167500J0D01*
G01*
X151619500Y-114979000D01*
G75*
G02*
X151787000Y-115146500I0J-167500D01*
G01*
G37*
G36*
G01*
X151787000Y-114046500D02*
X151787000Y-114381500D01*
G75*
G02*
X151619500Y-114549000I-167500J0D01*
G01*
X150424500Y-114549000D01*
G75*
G02*
X150257000Y-114381500I0J167500D01*
G01*
X150257000Y-114046500D01*
G75*
G02*
X150424500Y-113879000I167500J0D01*
G01*
X151619500Y-113879000D01*
G75*
G02*
X151787000Y-114046500I0J-167500D01*
G01*
G37*
G36*
G01*
X151787000Y-112946500D02*
X151787000Y-113281500D01*
G75*
G02*
X151619500Y-113449000I-167500J0D01*
G01*
X150424500Y-113449000D01*
G75*
G02*
X150257000Y-113281500I0J167500D01*
G01*
X150257000Y-112946500D01*
G75*
G02*
X150424500Y-112779000I167500J0D01*
G01*
X151619500Y-112779000D01*
G75*
G02*
X151787000Y-112946500I0J-167500D01*
G01*
G37*
G36*
G01*
X151787000Y-105246500D02*
X151787000Y-105581500D01*
G75*
G02*
X151619500Y-105749000I-167500J0D01*
G01*
X150424500Y-105749000D01*
G75*
G02*
X150257000Y-105581500I0J167500D01*
G01*
X150257000Y-105246500D01*
G75*
G02*
X150424500Y-105079000I167500J0D01*
G01*
X151619500Y-105079000D01*
G75*
G02*
X151787000Y-105246500I0J-167500D01*
G01*
G37*
G36*
G01*
X151787000Y-106346500D02*
X151787000Y-106681500D01*
G75*
G02*
X151619500Y-106849000I-167500J0D01*
G01*
X150424500Y-106849000D01*
G75*
G02*
X150257000Y-106681500I0J167500D01*
G01*
X150257000Y-106346500D01*
G75*
G02*
X150424500Y-106179000I167500J0D01*
G01*
X151619500Y-106179000D01*
G75*
G02*
X151787000Y-106346500I0J-167500D01*
G01*
G37*
G36*
G01*
X151787000Y-107446500D02*
X151787000Y-107781500D01*
G75*
G02*
X151619500Y-107949000I-167500J0D01*
G01*
X150424500Y-107949000D01*
G75*
G02*
X150257000Y-107781500I0J167500D01*
G01*
X150257000Y-107446500D01*
G75*
G02*
X150424500Y-107279000I167500J0D01*
G01*
X151619500Y-107279000D01*
G75*
G02*
X151787000Y-107446500I0J-167500D01*
G01*
G37*
G36*
G01*
X151787000Y-108546500D02*
X151787000Y-108881500D01*
G75*
G02*
X151619500Y-109049000I-167500J0D01*
G01*
X150424500Y-109049000D01*
G75*
G02*
X150257000Y-108881500I0J167500D01*
G01*
X150257000Y-108546500D01*
G75*
G02*
X150424500Y-108379000I167500J0D01*
G01*
X151619500Y-108379000D01*
G75*
G02*
X151787000Y-108546500I0J-167500D01*
G01*
G37*
G36*
G01*
X151787000Y-109646500D02*
X151787000Y-109981500D01*
G75*
G02*
X151619500Y-110149000I-167500J0D01*
G01*
X150424500Y-110149000D01*
G75*
G02*
X150257000Y-109981500I0J167500D01*
G01*
X150257000Y-109646500D01*
G75*
G02*
X150424500Y-109479000I167500J0D01*
G01*
X151619500Y-109479000D01*
G75*
G02*
X151787000Y-109646500I0J-167500D01*
G01*
G37*
G36*
G01*
X151787000Y-110746500D02*
X151787000Y-111081500D01*
G75*
G02*
X151619500Y-111249000I-167500J0D01*
G01*
X150424500Y-111249000D01*
G75*
G02*
X150257000Y-111081500I0J167500D01*
G01*
X150257000Y-110746500D01*
G75*
G02*
X150424500Y-110579000I167500J0D01*
G01*
X151619500Y-110579000D01*
G75*
G02*
X151787000Y-110746500I0J-167500D01*
G01*
G37*
G36*
G01*
X138287000Y-111846500D02*
X138287000Y-112181500D01*
G75*
G02*
X138119500Y-112349000I-167500J0D01*
G01*
X136924500Y-112349000D01*
G75*
G02*
X136757000Y-112181500I0J167500D01*
G01*
X136757000Y-111846500D01*
G75*
G02*
X136924500Y-111679000I167500J0D01*
G01*
X138119500Y-111679000D01*
G75*
G02*
X138287000Y-111846500I0J-167500D01*
G01*
G37*
G36*
G01*
X151787000Y-111846500D02*
X151787000Y-112181500D01*
G75*
G02*
X151619500Y-112349000I-167500J0D01*
G01*
X150424500Y-112349000D01*
G75*
G02*
X150257000Y-112181500I0J167500D01*
G01*
X150257000Y-111846500D01*
G75*
G02*
X150424500Y-111679000I167500J0D01*
G01*
X151619500Y-111679000D01*
G75*
G02*
X151787000Y-111846500I0J-167500D01*
G01*
G37*
M02*
