%FSLAX45Y45*%
G04 Gerber Fmt 4.5, Leading zero omitted, Abs format (unit mm)*
G04 Created by KiCad (PCBNEW (5.1.10)-1) date 2021-10-09 12:46:32*
%MOMM*%
%LPD*%
G01*
G04 APERTURE LIST*
%TA.AperFunction,Profile*%
%ADD10C,0.050000*%
%TD*%
%ADD11C,0.200000*%
%ADD12C,0.300000*%
G04 APERTURE END LIST*
D10*
X13792200Y-11938000D02*
X15062200Y-11938000D01*
X13538200Y-12192000D02*
X10668000Y-12192000D01*
X15062200Y-11938000D02*
G75*
G02*
X15163800Y-12039600I0J-101600D01*
G01*
X13690600Y-12039600D02*
G75*
G02*
X13792200Y-11938000I101600J0D01*
G01*
X15316200Y-12192000D02*
G75*
G02*
X15163800Y-12039600I0J152400D01*
G01*
X13690600Y-12039600D02*
G75*
G02*
X13538200Y-12192000I-152400J0D01*
G01*
X17399000Y-8509000D02*
G75*
G02*
X18796000Y-9906000I0J-1397000D01*
G01*
X10668000Y-9906000D02*
G75*
G02*
X12065000Y-8509000I1397000J0D01*
G01*
X17399000Y-8509000D02*
X12065000Y-8509000D01*
X18796000Y-12192000D02*
X18796000Y-9906000D01*
X15316200Y-12192000D02*
X18796000Y-12192000D01*
X10668000Y-9906000D02*
X10668000Y-12192000D01*
D11*
X11283000Y-9606600D02*
X11323000Y-9646600D01*
X11323000Y-9606600D02*
X11283000Y-9646600D01*
X11283000Y-9682800D02*
X11323000Y-9722800D01*
X11323000Y-9682800D02*
X11283000Y-9722800D01*
X11359200Y-9606600D02*
X11399200Y-9646600D01*
X11399200Y-9606600D02*
X11359200Y-9646600D01*
X11359200Y-9682800D02*
X11399200Y-9722800D01*
X11399200Y-9682800D02*
X11359200Y-9722800D01*
X11359200Y-11079800D02*
X11399200Y-11119800D01*
X11399200Y-11079800D02*
X11359200Y-11119800D01*
X11359200Y-11156000D02*
X11399200Y-11196000D01*
X11399200Y-11156000D02*
X11359200Y-11196000D01*
X11359200Y-11968800D02*
X11399200Y-12008800D01*
X11399200Y-11968800D02*
X11359200Y-12008800D01*
X11359200Y-12045000D02*
X11399200Y-12085000D01*
X11399200Y-12045000D02*
X11359200Y-12085000D01*
X11435400Y-11079800D02*
X11475400Y-11119800D01*
X11475400Y-11079800D02*
X11435400Y-11119800D01*
X11435400Y-11156000D02*
X11475400Y-11196000D01*
X11475400Y-11156000D02*
X11435400Y-11196000D01*
X11435400Y-11968800D02*
X11475400Y-12008800D01*
X11475400Y-11968800D02*
X11435400Y-12008800D01*
X11435400Y-12045000D02*
X11475400Y-12085000D01*
X11475400Y-12045000D02*
X11435400Y-12085000D01*
X11537000Y-9047800D02*
X11577000Y-9087800D01*
X11577000Y-9047800D02*
X11537000Y-9087800D01*
X11537000Y-9174800D02*
X11577000Y-9214800D01*
X11577000Y-9174800D02*
X11537000Y-9214800D01*
X11537000Y-9301800D02*
X11577000Y-9341800D01*
X11577000Y-9301800D02*
X11537000Y-9341800D01*
X11537000Y-9428800D02*
X11577000Y-9468800D01*
X11577000Y-9428800D02*
X11537000Y-9468800D01*
X11994200Y-11994200D02*
X12034200Y-12034200D01*
X12034200Y-11994200D02*
X11994200Y-12034200D01*
X13391200Y-11994200D02*
X13431200Y-12034200D01*
X13431200Y-11994200D02*
X13391200Y-12034200D01*
X13391200Y-12070400D02*
X13431200Y-12110400D01*
X13431200Y-12070400D02*
X13391200Y-12110400D01*
X13467400Y-11994200D02*
X13507400Y-12034200D01*
X13507400Y-11994200D02*
X13467400Y-12034200D01*
X13467400Y-12070400D02*
X13507400Y-12110400D01*
X13507400Y-12070400D02*
X13467400Y-12110400D01*
X13492800Y-11613200D02*
X13532800Y-11653200D01*
X13532800Y-11613200D02*
X13492800Y-11653200D01*
X13861100Y-9644700D02*
X13901100Y-9684700D01*
X13901100Y-9644700D02*
X13861100Y-9684700D01*
X13899200Y-10546400D02*
X13939200Y-10586400D01*
X13939200Y-10546400D02*
X13899200Y-10586400D01*
X13915000Y-10741400D02*
X13955000Y-10781400D01*
X13955000Y-10741400D02*
X13915000Y-10781400D01*
X13915000Y-11181400D02*
X13955000Y-11221400D01*
X13955000Y-11181400D02*
X13915000Y-11221400D01*
X13915000Y-11291400D02*
X13955000Y-11331400D01*
X13955000Y-11291400D02*
X13915000Y-11331400D01*
X14077000Y-10228900D02*
X14117000Y-10268900D01*
X14117000Y-10228900D02*
X14077000Y-10268900D01*
X14077000Y-11664000D02*
X14117000Y-11704000D01*
X14117000Y-11664000D02*
X14077000Y-11704000D01*
X14242100Y-10228900D02*
X14282100Y-10268900D01*
X14282100Y-10228900D02*
X14242100Y-10268900D01*
X14407200Y-11308400D02*
X14447200Y-11348400D01*
X14447200Y-11308400D02*
X14407200Y-11348400D01*
X14470700Y-9466900D02*
X14510700Y-9506900D01*
X14510700Y-9466900D02*
X14470700Y-9506900D01*
X14712000Y-9987600D02*
X14752000Y-10027600D01*
X14752000Y-9987600D02*
X14712000Y-10027600D01*
X14712000Y-11486200D02*
X14752000Y-11526200D01*
X14752000Y-11486200D02*
X14712000Y-11526200D01*
X14800000Y-10902000D02*
X14840000Y-10942000D01*
X14840000Y-10902000D02*
X14800000Y-10942000D01*
X14800900Y-10787700D02*
X14840900Y-10827700D01*
X14840900Y-10787700D02*
X14800900Y-10827700D01*
X14864400Y-9987600D02*
X14904400Y-10027600D01*
X14904400Y-9987600D02*
X14864400Y-10027600D01*
X15016800Y-9987600D02*
X15056800Y-10027600D01*
X15056800Y-9987600D02*
X15016800Y-10027600D01*
X15156500Y-10406700D02*
X15196500Y-10446700D01*
X15196500Y-10406700D02*
X15156500Y-10446700D01*
X15232700Y-10800400D02*
X15272700Y-10840400D01*
X15272700Y-10800400D02*
X15232700Y-10840400D01*
X15245400Y-11994200D02*
X15285400Y-12034200D01*
X15285400Y-11994200D02*
X15245400Y-12034200D01*
X15245400Y-12070400D02*
X15285400Y-12110400D01*
X15285400Y-12070400D02*
X15245400Y-12110400D01*
X15308900Y-10889300D02*
X15348900Y-10929300D01*
X15348900Y-10889300D02*
X15308900Y-10929300D01*
X15321600Y-11511600D02*
X15361600Y-11551600D01*
X15361600Y-11511600D02*
X15321600Y-11551600D01*
X15321600Y-11994200D02*
X15361600Y-12034200D01*
X15361600Y-11994200D02*
X15321600Y-12034200D01*
X15321600Y-12070400D02*
X15361600Y-12110400D01*
X15361600Y-12070400D02*
X15321600Y-12110400D01*
X15334300Y-10686100D02*
X15374300Y-10726100D01*
X15374300Y-10686100D02*
X15334300Y-10726100D01*
X15385100Y-10978200D02*
X15425100Y-11018200D01*
X15425100Y-10978200D02*
X15385100Y-11018200D01*
X15588300Y-10686100D02*
X15628300Y-10726100D01*
X15628300Y-10686100D02*
X15588300Y-10726100D01*
X15597800Y-10403500D02*
X15637800Y-10443500D01*
X15637800Y-10403500D02*
X15597800Y-10443500D01*
X15829600Y-11511600D02*
X15869600Y-11551600D01*
X15869600Y-11511600D02*
X15829600Y-11551600D01*
X16007400Y-11003600D02*
X16047400Y-11043600D01*
X16047400Y-11003600D02*
X16007400Y-11043600D01*
X16083600Y-11079800D02*
X16123600Y-11119800D01*
X16123600Y-11079800D02*
X16083600Y-11119800D01*
X16159800Y-11156000D02*
X16199800Y-11196000D01*
X16199800Y-11156000D02*
X16159800Y-11196000D01*
X16236000Y-11232200D02*
X16276000Y-11272200D01*
X16276000Y-11232200D02*
X16236000Y-11272200D01*
X17200000Y-11740000D02*
X17240000Y-11780000D01*
X17240000Y-11740000D02*
X17200000Y-11780000D01*
X17531400Y-10648000D02*
X17571400Y-10688000D01*
X17571400Y-10648000D02*
X17531400Y-10688000D01*
X17730000Y-12070000D02*
X17770000Y-12110000D01*
X17770000Y-12070000D02*
X17730000Y-12110000D01*
X17900000Y-11800000D02*
X17940000Y-11840000D01*
X17940000Y-11800000D02*
X17900000Y-11840000D01*
X17963200Y-10571800D02*
X18003200Y-10611800D01*
X18003200Y-10571800D02*
X17963200Y-10611800D01*
X10821600Y-11150400D02*
G75*
G03*
X10821600Y-11150400I-30000J0D01*
G01*
X10821600Y-11130400D02*
X10761600Y-11130400D01*
X10821600Y-11170400D02*
X10761600Y-11170400D01*
X10761600Y-11130400D02*
G75*
G03*
X10761600Y-11170400I0J-20000D01*
G01*
X10821600Y-11170400D02*
G75*
G03*
X10821600Y-11130400I0J20000D01*
G01*
X10821600Y-12014400D02*
G75*
G03*
X10821600Y-12014400I-30000J0D01*
G01*
X10821600Y-11994400D02*
X10761600Y-11994400D01*
X10821600Y-12034400D02*
X10761600Y-12034400D01*
X10761600Y-11994400D02*
G75*
G03*
X10761600Y-12034400I0J-20000D01*
G01*
X10821600Y-12034400D02*
G75*
G03*
X10821600Y-11994400I0J20000D01*
G01*
X11239600Y-11150400D02*
G75*
G03*
X11239600Y-11150400I-30000J0D01*
G01*
X11264600Y-11130400D02*
X11154600Y-11130400D01*
X11264600Y-11170400D02*
X11154600Y-11170400D01*
X11154600Y-11130400D02*
G75*
G03*
X11154600Y-11170400I0J-20000D01*
G01*
X11264600Y-11170400D02*
G75*
G03*
X11264600Y-11130400I0J20000D01*
G01*
X11239600Y-12014400D02*
G75*
G03*
X11239600Y-12014400I-30000J0D01*
G01*
X11264600Y-11994400D02*
X11154600Y-11994400D01*
X11264600Y-12034400D02*
X11154600Y-12034400D01*
X11154600Y-11994400D02*
G75*
G03*
X11154600Y-12034400I0J-20000D01*
G01*
X11264600Y-12034400D02*
G75*
G03*
X11264600Y-11994400I0J20000D01*
G01*
X16510000Y-11519500D02*
X16510000Y-11594500D01*
X16472500Y-11557000D02*
X16547500Y-11557000D01*
X12447541Y-11710941D02*
X12447541Y-11657059D01*
X12393659Y-11657059D01*
X12393659Y-11710941D01*
X12447541Y-11710941D01*
X12701541Y-11710941D02*
X12701541Y-11657059D01*
X12647659Y-11657059D01*
X12647659Y-11710941D01*
X12701541Y-11710941D01*
X12955541Y-11710941D02*
X12955541Y-11657059D01*
X12901659Y-11657059D01*
X12901659Y-11710941D01*
X12955541Y-11710941D01*
X13209541Y-11710941D02*
X13209541Y-11657059D01*
X13155659Y-11657059D01*
X13155659Y-11710941D01*
X13209541Y-11710941D01*
X11938000Y-8802000D02*
X11977000Y-8763000D01*
X11938000Y-8724000D01*
X11899000Y-8763000D01*
X11938000Y-8802000D01*
X11938000Y-11596000D02*
X11977000Y-11557000D01*
X11938000Y-11518000D01*
X11899000Y-11557000D01*
X11938000Y-11596000D01*
X12192000Y-8802000D02*
X12231000Y-8763000D01*
X12192000Y-8724000D01*
X12153000Y-8763000D01*
X12192000Y-8802000D01*
X12192000Y-11596000D02*
X12231000Y-11557000D01*
X12192000Y-11518000D01*
X12153000Y-11557000D01*
X12192000Y-11596000D01*
X12446000Y-8802000D02*
X12485000Y-8763000D01*
X12446000Y-8724000D01*
X12407000Y-8763000D01*
X12446000Y-8802000D01*
X12700000Y-8802000D02*
X12739000Y-8763000D01*
X12700000Y-8724000D01*
X12661000Y-8763000D01*
X12700000Y-8802000D01*
X12954000Y-8802000D02*
X12993000Y-8763000D01*
X12954000Y-8724000D01*
X12915000Y-8763000D01*
X12954000Y-8802000D01*
X13208000Y-8802000D02*
X13247000Y-8763000D01*
X13208000Y-8724000D01*
X13169000Y-8763000D01*
X13208000Y-8802000D01*
X13462000Y-8802000D02*
X13501000Y-8763000D01*
X13462000Y-8724000D01*
X13423000Y-8763000D01*
X13462000Y-8802000D01*
X13716000Y-8802000D02*
X13755000Y-8763000D01*
X13716000Y-8724000D01*
X13677000Y-8763000D01*
X13716000Y-8802000D01*
X13970000Y-8802000D02*
X14009000Y-8763000D01*
X13970000Y-8724000D01*
X13931000Y-8763000D01*
X13970000Y-8802000D01*
X14224000Y-8802000D02*
X14263000Y-8763000D01*
X14224000Y-8724000D01*
X14185000Y-8763000D01*
X14224000Y-8802000D01*
X14478000Y-8802000D02*
X14517000Y-8763000D01*
X14478000Y-8724000D01*
X14439000Y-8763000D01*
X14478000Y-8802000D01*
X14732000Y-8802000D02*
X14771000Y-8763000D01*
X14732000Y-8724000D01*
X14693000Y-8763000D01*
X14732000Y-8802000D01*
X14986000Y-8802000D02*
X15025000Y-8763000D01*
X14986000Y-8724000D01*
X14947000Y-8763000D01*
X14986000Y-8802000D01*
X15240000Y-8802000D02*
X15279000Y-8763000D01*
X15240000Y-8724000D01*
X15201000Y-8763000D01*
X15240000Y-8802000D01*
X15494000Y-8802000D02*
X15533000Y-8763000D01*
X15494000Y-8724000D01*
X15455000Y-8763000D01*
X15494000Y-8802000D01*
X15748000Y-8802000D02*
X15787000Y-8763000D01*
X15748000Y-8724000D01*
X15709000Y-8763000D01*
X15748000Y-8802000D01*
X16002000Y-8802000D02*
X16041000Y-8763000D01*
X16002000Y-8724000D01*
X15963000Y-8763000D01*
X16002000Y-8802000D01*
X16256000Y-8802000D02*
X16295000Y-8763000D01*
X16256000Y-8724000D01*
X16217000Y-8763000D01*
X16256000Y-8802000D01*
X16510000Y-8802000D02*
X16549000Y-8763000D01*
X16510000Y-8724000D01*
X16471000Y-8763000D01*
X16510000Y-8802000D01*
X16764000Y-8802000D02*
X16803000Y-8763000D01*
X16764000Y-8724000D01*
X16725000Y-8763000D01*
X16764000Y-8802000D01*
X16764000Y-11596000D02*
X16803000Y-11557000D01*
X16764000Y-11518000D01*
X16725000Y-11557000D01*
X16764000Y-11596000D01*
X17735000Y-9570000D02*
X17825000Y-9660000D01*
X17825000Y-9570000D02*
X17735000Y-9660000D01*
X17825000Y-9615000D02*
G75*
G03*
X17825000Y-9615000I-45000J0D01*
G01*
X17735000Y-9824000D02*
X17825000Y-9914000D01*
X17825000Y-9824000D02*
X17735000Y-9914000D01*
X17825000Y-9869000D02*
G75*
G03*
X17825000Y-9869000I-45000J0D01*
G01*
X17735000Y-10160000D02*
X17825000Y-10250000D01*
X17825000Y-10160000D02*
X17735000Y-10250000D01*
X17825000Y-10205000D02*
G75*
G03*
X17825000Y-10205000I-45000J0D01*
G01*
X17735000Y-10414000D02*
X17825000Y-10504000D01*
X17825000Y-10414000D02*
X17735000Y-10504000D01*
X17825000Y-10459000D02*
G75*
G03*
X17825000Y-10459000I-45000J0D01*
G01*
X17735000Y-10750000D02*
X17825000Y-10840000D01*
X17825000Y-10750000D02*
X17735000Y-10840000D01*
X17825000Y-10795000D02*
G75*
G03*
X17825000Y-10795000I-45000J0D01*
G01*
X17735000Y-11004000D02*
X17825000Y-11094000D01*
X17825000Y-11004000D02*
X17735000Y-11094000D01*
X17825000Y-11049000D02*
G75*
G03*
X17825000Y-11049000I-45000J0D01*
G01*
X15317000Y-9729000D02*
X15417000Y-9829000D01*
X15417000Y-9729000D02*
X15317000Y-9829000D01*
X15367000Y-9729000D02*
X15367000Y-9829000D01*
X15317000Y-9779000D02*
X15417000Y-9779000D01*
X15317000Y-9983000D02*
X15417000Y-10083000D01*
X15417000Y-9983000D02*
X15317000Y-10083000D01*
X15367000Y-9983000D02*
X15367000Y-10083000D01*
X15317000Y-10033000D02*
X15417000Y-10033000D01*
X15317000Y-10237000D02*
X15417000Y-10337000D01*
X15417000Y-10237000D02*
X15317000Y-10337000D01*
X15367000Y-10237000D02*
X15367000Y-10337000D01*
X15317000Y-10287000D02*
X15417000Y-10287000D01*
X15317000Y-10491000D02*
X15417000Y-10591000D01*
X15417000Y-10491000D02*
X15317000Y-10591000D01*
X15367000Y-10491000D02*
X15367000Y-10591000D01*
X15317000Y-10541000D02*
X15417000Y-10541000D01*
X15647200Y-11938800D02*
X15747200Y-12038800D01*
X15747200Y-11938800D02*
X15647200Y-12038800D01*
X15697200Y-11938800D02*
X15697200Y-12038800D01*
X15647200Y-11988800D02*
X15747200Y-11988800D01*
X15901200Y-11938800D02*
X16001200Y-12038800D01*
X16001200Y-11938800D02*
X15901200Y-12038800D01*
X15951200Y-11938800D02*
X15951200Y-12038800D01*
X15901200Y-11988800D02*
X16001200Y-11988800D01*
X16155200Y-11938800D02*
X16255200Y-12038800D01*
X16255200Y-11938800D02*
X16155200Y-12038800D01*
X16205200Y-11938800D02*
X16205200Y-12038800D01*
X16155200Y-11988800D02*
X16255200Y-11988800D01*
X16409200Y-11938800D02*
X16509200Y-12038800D01*
X16509200Y-11938800D02*
X16409200Y-12038800D01*
X16459200Y-11938800D02*
X16459200Y-12038800D01*
X16409200Y-11988800D02*
X16509200Y-11988800D01*
X16663200Y-11938800D02*
X16763200Y-12038800D01*
X16763200Y-11938800D02*
X16663200Y-12038800D01*
X16713200Y-11938800D02*
X16713200Y-12038800D01*
X16663200Y-11988800D02*
X16763200Y-11988800D01*
X16917200Y-11938800D02*
X17017200Y-12038800D01*
X17017200Y-11938800D02*
X16917200Y-12038800D01*
X16967200Y-11938800D02*
X16967200Y-12038800D01*
X16917200Y-11988800D02*
X17017200Y-11988800D01*
X18287000Y-9729000D02*
X18387000Y-9829000D01*
X18387000Y-9729000D02*
X18287000Y-9829000D01*
X18337000Y-9729000D02*
X18337000Y-9829000D01*
X18287000Y-9779000D02*
X18387000Y-9779000D01*
X18287000Y-9983000D02*
X18387000Y-10083000D01*
X18387000Y-9983000D02*
X18287000Y-10083000D01*
X18337000Y-9983000D02*
X18337000Y-10083000D01*
X18287000Y-10033000D02*
X18387000Y-10033000D01*
X18287000Y-10237000D02*
X18387000Y-10337000D01*
X18387000Y-10237000D02*
X18287000Y-10337000D01*
X18337000Y-10237000D02*
X18337000Y-10337000D01*
X18287000Y-10287000D02*
X18387000Y-10287000D01*
X18287000Y-10491000D02*
X18387000Y-10591000D01*
X18387000Y-10491000D02*
X18287000Y-10591000D01*
X18337000Y-10491000D02*
X18337000Y-10591000D01*
X18287000Y-10541000D02*
X18387000Y-10541000D01*
X18287000Y-10745000D02*
X18387000Y-10845000D01*
X18387000Y-10745000D02*
X18287000Y-10845000D01*
X18337000Y-10745000D02*
X18337000Y-10845000D01*
X18287000Y-10795000D02*
X18387000Y-10795000D01*
X10924000Y-10543000D02*
X11174000Y-10793000D01*
X11174000Y-10543000D02*
X10924000Y-10793000D01*
X11137389Y-10756389D02*
X11137389Y-10579611D01*
X10960611Y-10579611D01*
X10960611Y-10756389D01*
X11137389Y-10756389D01*
X17528000Y-8765000D02*
X17778000Y-9015000D01*
X17778000Y-8765000D02*
X17528000Y-9015000D01*
X17741389Y-8978389D02*
X17741389Y-8801611D01*
X17564611Y-8801611D01*
X17564611Y-8978389D01*
X17741389Y-8978389D01*
X18290000Y-11432000D02*
X18540000Y-11682000D01*
X18540000Y-11432000D02*
X18290000Y-11682000D01*
X18503389Y-11645389D02*
X18503389Y-11468611D01*
X18326611Y-11468611D01*
X18326611Y-11645389D01*
X18503389Y-11645389D01*
D12*
X10951928Y-12660214D02*
X10951928Y-12360214D01*
X11023357Y-12360214D01*
X11066214Y-12374500D01*
X11094786Y-12403071D01*
X11109071Y-12431643D01*
X11123357Y-12488786D01*
X11123357Y-12531643D01*
X11109071Y-12588786D01*
X11094786Y-12617357D01*
X11066214Y-12645929D01*
X11023357Y-12660214D01*
X10951928Y-12660214D01*
X11251928Y-12660214D02*
X11251928Y-12460214D01*
X11251928Y-12517357D02*
X11266214Y-12488786D01*
X11280500Y-12474500D01*
X11309071Y-12460214D01*
X11337643Y-12460214D01*
X11437643Y-12660214D02*
X11437643Y-12460214D01*
X11437643Y-12360214D02*
X11423357Y-12374500D01*
X11437643Y-12388786D01*
X11451928Y-12374500D01*
X11437643Y-12360214D01*
X11437643Y-12388786D01*
X11623357Y-12660214D02*
X11594786Y-12645929D01*
X11580500Y-12617357D01*
X11580500Y-12360214D01*
X11780500Y-12660214D02*
X11751928Y-12645929D01*
X11737643Y-12617357D01*
X11737643Y-12360214D01*
X12123357Y-12660214D02*
X12123357Y-12360214D01*
X12223357Y-12574500D01*
X12323357Y-12360214D01*
X12323357Y-12660214D01*
X12594786Y-12660214D02*
X12594786Y-12503071D01*
X12580500Y-12474500D01*
X12551928Y-12460214D01*
X12494786Y-12460214D01*
X12466214Y-12474500D01*
X12594786Y-12645929D02*
X12566214Y-12660214D01*
X12494786Y-12660214D01*
X12466214Y-12645929D01*
X12451928Y-12617357D01*
X12451928Y-12588786D01*
X12466214Y-12560214D01*
X12494786Y-12545929D01*
X12566214Y-12545929D01*
X12594786Y-12531643D01*
X12737643Y-12460214D02*
X12737643Y-12760214D01*
X12737643Y-12474500D02*
X12766214Y-12460214D01*
X12823357Y-12460214D01*
X12851928Y-12474500D01*
X12866214Y-12488786D01*
X12880500Y-12517357D01*
X12880500Y-12603071D01*
X12866214Y-12631643D01*
X12851928Y-12645929D01*
X12823357Y-12660214D01*
X12766214Y-12660214D01*
X12737643Y-12645929D01*
X13009071Y-12631643D02*
X13023357Y-12645929D01*
X13009071Y-12660214D01*
X12994786Y-12645929D01*
X13009071Y-12631643D01*
X13009071Y-12660214D01*
X13009071Y-12474500D02*
X13023357Y-12488786D01*
X13009071Y-12503071D01*
X12994786Y-12488786D01*
X13009071Y-12474500D01*
X13009071Y-12503071D01*
X10625500Y-13134500D02*
X10665500Y-13174500D01*
X10665500Y-13134500D02*
X10625500Y-13174500D01*
X11009071Y-12990214D02*
X11037643Y-12990214D01*
X11066214Y-13004500D01*
X11080500Y-13018786D01*
X11094786Y-13047357D01*
X11109071Y-13104500D01*
X11109071Y-13175929D01*
X11094786Y-13233071D01*
X11080500Y-13261643D01*
X11066214Y-13275929D01*
X11037643Y-13290214D01*
X11009071Y-13290214D01*
X10980500Y-13275929D01*
X10966214Y-13261643D01*
X10951928Y-13233071D01*
X10937643Y-13175929D01*
X10937643Y-13104500D01*
X10951928Y-13047357D01*
X10966214Y-13018786D01*
X10980500Y-13004500D01*
X11009071Y-12990214D01*
X11237643Y-13261643D02*
X11251928Y-13275929D01*
X11237643Y-13290214D01*
X11223357Y-13275929D01*
X11237643Y-13261643D01*
X11237643Y-13290214D01*
X11509071Y-13090214D02*
X11509071Y-13290214D01*
X11437643Y-12975929D02*
X11366214Y-13190214D01*
X11551928Y-13190214D01*
X11723357Y-12990214D02*
X11751928Y-12990214D01*
X11780500Y-13004500D01*
X11794786Y-13018786D01*
X11809071Y-13047357D01*
X11823357Y-13104500D01*
X11823357Y-13175929D01*
X11809071Y-13233071D01*
X11794786Y-13261643D01*
X11780500Y-13275929D01*
X11751928Y-13290214D01*
X11723357Y-13290214D01*
X11694786Y-13275929D01*
X11680500Y-13261643D01*
X11666214Y-13233071D01*
X11651928Y-13175929D01*
X11651928Y-13104500D01*
X11666214Y-13047357D01*
X11680500Y-13018786D01*
X11694786Y-13004500D01*
X11723357Y-12990214D01*
X12009071Y-12990214D02*
X12037643Y-12990214D01*
X12066214Y-13004500D01*
X12080500Y-13018786D01*
X12094786Y-13047357D01*
X12109071Y-13104500D01*
X12109071Y-13175929D01*
X12094786Y-13233071D01*
X12080500Y-13261643D01*
X12066214Y-13275929D01*
X12037643Y-13290214D01*
X12009071Y-13290214D01*
X11980500Y-13275929D01*
X11966214Y-13261643D01*
X11951928Y-13233071D01*
X11937643Y-13175929D01*
X11937643Y-13104500D01*
X11951928Y-13047357D01*
X11966214Y-13018786D01*
X11980500Y-13004500D01*
X12009071Y-12990214D01*
X12237643Y-13290214D02*
X12237643Y-13090214D01*
X12237643Y-13118786D02*
X12251928Y-13104500D01*
X12280500Y-13090214D01*
X12323357Y-13090214D01*
X12351928Y-13104500D01*
X12366214Y-13133071D01*
X12366214Y-13290214D01*
X12366214Y-13133071D02*
X12380500Y-13104500D01*
X12409071Y-13090214D01*
X12451928Y-13090214D01*
X12480500Y-13104500D01*
X12494786Y-13133071D01*
X12494786Y-13290214D01*
X12637643Y-13290214D02*
X12637643Y-13090214D01*
X12637643Y-13118786D02*
X12651928Y-13104500D01*
X12680500Y-13090214D01*
X12723357Y-13090214D01*
X12751928Y-13104500D01*
X12766214Y-13133071D01*
X12766214Y-13290214D01*
X12766214Y-13133071D02*
X12780500Y-13104500D01*
X12809071Y-13090214D01*
X12851928Y-13090214D01*
X12880500Y-13104500D01*
X12894786Y-13133071D01*
X12894786Y-13290214D01*
X13480500Y-12975929D02*
X13223357Y-13361643D01*
X13866214Y-12990214D02*
X13894786Y-12990214D01*
X13923357Y-13004500D01*
X13937643Y-13018786D01*
X13951928Y-13047357D01*
X13966214Y-13104500D01*
X13966214Y-13175929D01*
X13951928Y-13233071D01*
X13937643Y-13261643D01*
X13923357Y-13275929D01*
X13894786Y-13290214D01*
X13866214Y-13290214D01*
X13837643Y-13275929D01*
X13823357Y-13261643D01*
X13809071Y-13233071D01*
X13794786Y-13175929D01*
X13794786Y-13104500D01*
X13809071Y-13047357D01*
X13823357Y-13018786D01*
X13837643Y-13004500D01*
X13866214Y-12990214D01*
X14094786Y-13261643D02*
X14109071Y-13275929D01*
X14094786Y-13290214D01*
X14080500Y-13275929D01*
X14094786Y-13261643D01*
X14094786Y-13290214D01*
X14294786Y-12990214D02*
X14323357Y-12990214D01*
X14351928Y-13004500D01*
X14366214Y-13018786D01*
X14380500Y-13047357D01*
X14394786Y-13104500D01*
X14394786Y-13175929D01*
X14380500Y-13233071D01*
X14366214Y-13261643D01*
X14351928Y-13275929D01*
X14323357Y-13290214D01*
X14294786Y-13290214D01*
X14266214Y-13275929D01*
X14251928Y-13261643D01*
X14237643Y-13233071D01*
X14223357Y-13175929D01*
X14223357Y-13104500D01*
X14237643Y-13047357D01*
X14251928Y-13018786D01*
X14266214Y-13004500D01*
X14294786Y-12990214D01*
X14680500Y-13290214D02*
X14509071Y-13290214D01*
X14594786Y-13290214D02*
X14594786Y-12990214D01*
X14566214Y-13033071D01*
X14537643Y-13061643D01*
X14509071Y-13075929D01*
X14951928Y-12990214D02*
X14809071Y-12990214D01*
X14794786Y-13133071D01*
X14809071Y-13118786D01*
X14837643Y-13104500D01*
X14909071Y-13104500D01*
X14937643Y-13118786D01*
X14951928Y-13133071D01*
X14966214Y-13161643D01*
X14966214Y-13233071D01*
X14951928Y-13261643D01*
X14937643Y-13275929D01*
X14909071Y-13290214D01*
X14837643Y-13290214D01*
X14809071Y-13275929D01*
X14794786Y-13261643D01*
X15066214Y-12990214D02*
X15266214Y-12990214D01*
X15137643Y-13290214D01*
X15366214Y-12990214D02*
X15366214Y-13047357D01*
X15480500Y-12990214D02*
X15480500Y-13047357D01*
X15923357Y-13404500D02*
X15909071Y-13390214D01*
X15880500Y-13347357D01*
X15866214Y-13318786D01*
X15851928Y-13275929D01*
X15837643Y-13204500D01*
X15837643Y-13147357D01*
X15851928Y-13075929D01*
X15866214Y-13033071D01*
X15880500Y-13004500D01*
X15909071Y-12961643D01*
X15923357Y-12947357D01*
X16166214Y-12990214D02*
X16109071Y-12990214D01*
X16080500Y-13004500D01*
X16066214Y-13018786D01*
X16037643Y-13061643D01*
X16023357Y-13118786D01*
X16023357Y-13233071D01*
X16037643Y-13261643D01*
X16051928Y-13275929D01*
X16080500Y-13290214D01*
X16137643Y-13290214D01*
X16166214Y-13275929D01*
X16180500Y-13261643D01*
X16194786Y-13233071D01*
X16194786Y-13161643D01*
X16180500Y-13133071D01*
X16166214Y-13118786D01*
X16137643Y-13104500D01*
X16080500Y-13104500D01*
X16051928Y-13118786D01*
X16037643Y-13133071D01*
X16023357Y-13161643D01*
X16380500Y-12990214D02*
X16409071Y-12990214D01*
X16437643Y-13004500D01*
X16451928Y-13018786D01*
X16466214Y-13047357D01*
X16480500Y-13104500D01*
X16480500Y-13175929D01*
X16466214Y-13233071D01*
X16451928Y-13261643D01*
X16437643Y-13275929D01*
X16409071Y-13290214D01*
X16380500Y-13290214D01*
X16351928Y-13275929D01*
X16337643Y-13261643D01*
X16323357Y-13233071D01*
X16309071Y-13175929D01*
X16309071Y-13104500D01*
X16323357Y-13047357D01*
X16337643Y-13018786D01*
X16351928Y-13004500D01*
X16380500Y-12990214D01*
X16837643Y-13290214D02*
X16837643Y-12990214D01*
X16966214Y-13290214D02*
X16966214Y-13133071D01*
X16951928Y-13104500D01*
X16923357Y-13090214D01*
X16880500Y-13090214D01*
X16851928Y-13104500D01*
X16837643Y-13118786D01*
X17151928Y-13290214D02*
X17123357Y-13275929D01*
X17109071Y-13261643D01*
X17094786Y-13233071D01*
X17094786Y-13147357D01*
X17109071Y-13118786D01*
X17123357Y-13104500D01*
X17151928Y-13090214D01*
X17194786Y-13090214D01*
X17223357Y-13104500D01*
X17237643Y-13118786D01*
X17251928Y-13147357D01*
X17251928Y-13233071D01*
X17237643Y-13261643D01*
X17223357Y-13275929D01*
X17194786Y-13290214D01*
X17151928Y-13290214D01*
X17423357Y-13290214D02*
X17394786Y-13275929D01*
X17380500Y-13247357D01*
X17380500Y-12990214D01*
X17651928Y-13275929D02*
X17623357Y-13290214D01*
X17566214Y-13290214D01*
X17537643Y-13275929D01*
X17523357Y-13247357D01*
X17523357Y-13133071D01*
X17537643Y-13104500D01*
X17566214Y-13090214D01*
X17623357Y-13090214D01*
X17651928Y-13104500D01*
X17666214Y-13133071D01*
X17666214Y-13161643D01*
X17523357Y-13190214D01*
X17780500Y-13275929D02*
X17809071Y-13290214D01*
X17866214Y-13290214D01*
X17894786Y-13275929D01*
X17909071Y-13247357D01*
X17909071Y-13233071D01*
X17894786Y-13204500D01*
X17866214Y-13190214D01*
X17823357Y-13190214D01*
X17794786Y-13175929D01*
X17780500Y-13147357D01*
X17780500Y-13133071D01*
X17794786Y-13104500D01*
X17823357Y-13090214D01*
X17866214Y-13090214D01*
X17894786Y-13104500D01*
X18009071Y-13404500D02*
X18023357Y-13390214D01*
X18051928Y-13347357D01*
X18066214Y-13318786D01*
X18080500Y-13275929D01*
X18094786Y-13204500D01*
X18094786Y-13147357D01*
X18080500Y-13075929D01*
X18066214Y-13033071D01*
X18051928Y-13004500D01*
X18023357Y-12961643D01*
X18009071Y-12947357D01*
X10665500Y-13550500D02*
G75*
G03*
X10665500Y-13550500I-30000J0D01*
G01*
X11009071Y-13386214D02*
X11037643Y-13386214D01*
X11066214Y-13400500D01*
X11080500Y-13414786D01*
X11094786Y-13443357D01*
X11109071Y-13500500D01*
X11109071Y-13571929D01*
X11094786Y-13629071D01*
X11080500Y-13657643D01*
X11066214Y-13671929D01*
X11037643Y-13686214D01*
X11009071Y-13686214D01*
X10980500Y-13671929D01*
X10966214Y-13657643D01*
X10951928Y-13629071D01*
X10937643Y-13571929D01*
X10937643Y-13500500D01*
X10951928Y-13443357D01*
X10966214Y-13414786D01*
X10980500Y-13400500D01*
X11009071Y-13386214D01*
X11237643Y-13657643D02*
X11251928Y-13671929D01*
X11237643Y-13686214D01*
X11223357Y-13671929D01*
X11237643Y-13657643D01*
X11237643Y-13686214D01*
X11509071Y-13386214D02*
X11451928Y-13386214D01*
X11423357Y-13400500D01*
X11409071Y-13414786D01*
X11380500Y-13457643D01*
X11366214Y-13514786D01*
X11366214Y-13629071D01*
X11380500Y-13657643D01*
X11394786Y-13671929D01*
X11423357Y-13686214D01*
X11480500Y-13686214D01*
X11509071Y-13671929D01*
X11523357Y-13657643D01*
X11537643Y-13629071D01*
X11537643Y-13557643D01*
X11523357Y-13529071D01*
X11509071Y-13514786D01*
X11480500Y-13500500D01*
X11423357Y-13500500D01*
X11394786Y-13514786D01*
X11380500Y-13529071D01*
X11366214Y-13557643D01*
X11723357Y-13386214D02*
X11751928Y-13386214D01*
X11780500Y-13400500D01*
X11794786Y-13414786D01*
X11809071Y-13443357D01*
X11823357Y-13500500D01*
X11823357Y-13571929D01*
X11809071Y-13629071D01*
X11794786Y-13657643D01*
X11780500Y-13671929D01*
X11751928Y-13686214D01*
X11723357Y-13686214D01*
X11694786Y-13671929D01*
X11680500Y-13657643D01*
X11666214Y-13629071D01*
X11651928Y-13571929D01*
X11651928Y-13500500D01*
X11666214Y-13443357D01*
X11680500Y-13414786D01*
X11694786Y-13400500D01*
X11723357Y-13386214D01*
X12009071Y-13386214D02*
X12037643Y-13386214D01*
X12066214Y-13400500D01*
X12080500Y-13414786D01*
X12094786Y-13443357D01*
X12109071Y-13500500D01*
X12109071Y-13571929D01*
X12094786Y-13629071D01*
X12080500Y-13657643D01*
X12066214Y-13671929D01*
X12037643Y-13686214D01*
X12009071Y-13686214D01*
X11980500Y-13671929D01*
X11966214Y-13657643D01*
X11951928Y-13629071D01*
X11937643Y-13571929D01*
X11937643Y-13500500D01*
X11951928Y-13443357D01*
X11966214Y-13414786D01*
X11980500Y-13400500D01*
X12009071Y-13386214D01*
X12237643Y-13686214D02*
X12237643Y-13486214D01*
X12237643Y-13514786D02*
X12251928Y-13500500D01*
X12280500Y-13486214D01*
X12323357Y-13486214D01*
X12351928Y-13500500D01*
X12366214Y-13529071D01*
X12366214Y-13686214D01*
X12366214Y-13529071D02*
X12380500Y-13500500D01*
X12409071Y-13486214D01*
X12451928Y-13486214D01*
X12480500Y-13500500D01*
X12494786Y-13529071D01*
X12494786Y-13686214D01*
X12637643Y-13686214D02*
X12637643Y-13486214D01*
X12637643Y-13514786D02*
X12651928Y-13500500D01*
X12680500Y-13486214D01*
X12723357Y-13486214D01*
X12751928Y-13500500D01*
X12766214Y-13529071D01*
X12766214Y-13686214D01*
X12766214Y-13529071D02*
X12780500Y-13500500D01*
X12809071Y-13486214D01*
X12851928Y-13486214D01*
X12880500Y-13500500D01*
X12894786Y-13529071D01*
X12894786Y-13686214D01*
X13480500Y-13371929D02*
X13223357Y-13757643D01*
X13866214Y-13386214D02*
X13894786Y-13386214D01*
X13923357Y-13400500D01*
X13937643Y-13414786D01*
X13951928Y-13443357D01*
X13966214Y-13500500D01*
X13966214Y-13571929D01*
X13951928Y-13629071D01*
X13937643Y-13657643D01*
X13923357Y-13671929D01*
X13894786Y-13686214D01*
X13866214Y-13686214D01*
X13837643Y-13671929D01*
X13823357Y-13657643D01*
X13809071Y-13629071D01*
X13794786Y-13571929D01*
X13794786Y-13500500D01*
X13809071Y-13443357D01*
X13823357Y-13414786D01*
X13837643Y-13400500D01*
X13866214Y-13386214D01*
X14094786Y-13657643D02*
X14109071Y-13671929D01*
X14094786Y-13686214D01*
X14080500Y-13671929D01*
X14094786Y-13657643D01*
X14094786Y-13686214D01*
X14294786Y-13386214D02*
X14323357Y-13386214D01*
X14351928Y-13400500D01*
X14366214Y-13414786D01*
X14380500Y-13443357D01*
X14394786Y-13500500D01*
X14394786Y-13571929D01*
X14380500Y-13629071D01*
X14366214Y-13657643D01*
X14351928Y-13671929D01*
X14323357Y-13686214D01*
X14294786Y-13686214D01*
X14266214Y-13671929D01*
X14251928Y-13657643D01*
X14237643Y-13629071D01*
X14223357Y-13571929D01*
X14223357Y-13500500D01*
X14237643Y-13443357D01*
X14251928Y-13414786D01*
X14266214Y-13400500D01*
X14294786Y-13386214D01*
X14509071Y-13414786D02*
X14523357Y-13400500D01*
X14551928Y-13386214D01*
X14623357Y-13386214D01*
X14651928Y-13400500D01*
X14666214Y-13414786D01*
X14680500Y-13443357D01*
X14680500Y-13471929D01*
X14666214Y-13514786D01*
X14494786Y-13686214D01*
X14680500Y-13686214D01*
X14780500Y-13386214D02*
X14966214Y-13386214D01*
X14866214Y-13500500D01*
X14909071Y-13500500D01*
X14937643Y-13514786D01*
X14951928Y-13529071D01*
X14966214Y-13557643D01*
X14966214Y-13629071D01*
X14951928Y-13657643D01*
X14937643Y-13671929D01*
X14909071Y-13686214D01*
X14823357Y-13686214D01*
X14794786Y-13671929D01*
X14780500Y-13657643D01*
X15223357Y-13386214D02*
X15166214Y-13386214D01*
X15137643Y-13400500D01*
X15123357Y-13414786D01*
X15094786Y-13457643D01*
X15080500Y-13514786D01*
X15080500Y-13629071D01*
X15094786Y-13657643D01*
X15109071Y-13671929D01*
X15137643Y-13686214D01*
X15194786Y-13686214D01*
X15223357Y-13671929D01*
X15237643Y-13657643D01*
X15251928Y-13629071D01*
X15251928Y-13557643D01*
X15237643Y-13529071D01*
X15223357Y-13514786D01*
X15194786Y-13500500D01*
X15137643Y-13500500D01*
X15109071Y-13514786D01*
X15094786Y-13529071D01*
X15080500Y-13557643D01*
X15366214Y-13386214D02*
X15366214Y-13443357D01*
X15480500Y-13386214D02*
X15480500Y-13443357D01*
X15923357Y-13800500D02*
X15909071Y-13786214D01*
X15880500Y-13743357D01*
X15866214Y-13714786D01*
X15851928Y-13671929D01*
X15837643Y-13600500D01*
X15837643Y-13543357D01*
X15851928Y-13471929D01*
X15866214Y-13429071D01*
X15880500Y-13400500D01*
X15909071Y-13357643D01*
X15923357Y-13343357D01*
X16094786Y-13386214D02*
X16123357Y-13386214D01*
X16151928Y-13400500D01*
X16166214Y-13414786D01*
X16180500Y-13443357D01*
X16194786Y-13500500D01*
X16194786Y-13571929D01*
X16180500Y-13629071D01*
X16166214Y-13657643D01*
X16151928Y-13671929D01*
X16123357Y-13686214D01*
X16094786Y-13686214D01*
X16066214Y-13671929D01*
X16051928Y-13657643D01*
X16037643Y-13629071D01*
X16023357Y-13571929D01*
X16023357Y-13500500D01*
X16037643Y-13443357D01*
X16051928Y-13414786D01*
X16066214Y-13400500D01*
X16094786Y-13386214D01*
X16551928Y-13686214D02*
X16551928Y-13386214D01*
X16680500Y-13686214D02*
X16680500Y-13529071D01*
X16666214Y-13500500D01*
X16637643Y-13486214D01*
X16594786Y-13486214D01*
X16566214Y-13500500D01*
X16551928Y-13514786D01*
X16866214Y-13686214D02*
X16837643Y-13671929D01*
X16823357Y-13657643D01*
X16809071Y-13629071D01*
X16809071Y-13543357D01*
X16823357Y-13514786D01*
X16837643Y-13500500D01*
X16866214Y-13486214D01*
X16909071Y-13486214D01*
X16937643Y-13500500D01*
X16951928Y-13514786D01*
X16966214Y-13543357D01*
X16966214Y-13629071D01*
X16951928Y-13657643D01*
X16937643Y-13671929D01*
X16909071Y-13686214D01*
X16866214Y-13686214D01*
X17137643Y-13686214D02*
X17109071Y-13671929D01*
X17094786Y-13643357D01*
X17094786Y-13386214D01*
X17366214Y-13671929D02*
X17337643Y-13686214D01*
X17280500Y-13686214D01*
X17251928Y-13671929D01*
X17237643Y-13643357D01*
X17237643Y-13529071D01*
X17251928Y-13500500D01*
X17280500Y-13486214D01*
X17337643Y-13486214D01*
X17366214Y-13500500D01*
X17380500Y-13529071D01*
X17380500Y-13557643D01*
X17237643Y-13586214D01*
X17494786Y-13671929D02*
X17523357Y-13686214D01*
X17580500Y-13686214D01*
X17609071Y-13671929D01*
X17623357Y-13643357D01*
X17623357Y-13629071D01*
X17609071Y-13600500D01*
X17580500Y-13586214D01*
X17537643Y-13586214D01*
X17509071Y-13571929D01*
X17494786Y-13543357D01*
X17494786Y-13529071D01*
X17509071Y-13500500D01*
X17537643Y-13486214D01*
X17580500Y-13486214D01*
X17609071Y-13500500D01*
X17980500Y-13571929D02*
X18209071Y-13571929D01*
X18094786Y-13686214D02*
X18094786Y-13457643D01*
X18709071Y-13486214D02*
X18709071Y-13686214D01*
X18637643Y-13371929D02*
X18566214Y-13586214D01*
X18751928Y-13586214D01*
X19080500Y-13671929D02*
X19109071Y-13686214D01*
X19166214Y-13686214D01*
X19194786Y-13671929D01*
X19209071Y-13643357D01*
X19209071Y-13629071D01*
X19194786Y-13600500D01*
X19166214Y-13586214D01*
X19123357Y-13586214D01*
X19094786Y-13571929D01*
X19080500Y-13543357D01*
X19080500Y-13529071D01*
X19094786Y-13500500D01*
X19123357Y-13486214D01*
X19166214Y-13486214D01*
X19194786Y-13500500D01*
X19380500Y-13686214D02*
X19351928Y-13671929D01*
X19337643Y-13643357D01*
X19337643Y-13386214D01*
X19537643Y-13686214D02*
X19509071Y-13671929D01*
X19494786Y-13657643D01*
X19480500Y-13629071D01*
X19480500Y-13543357D01*
X19494786Y-13514786D01*
X19509071Y-13500500D01*
X19537643Y-13486214D01*
X19580500Y-13486214D01*
X19609071Y-13500500D01*
X19623357Y-13514786D01*
X19637643Y-13543357D01*
X19637643Y-13629071D01*
X19623357Y-13657643D01*
X19609071Y-13671929D01*
X19580500Y-13686214D01*
X19537643Y-13686214D01*
X19723357Y-13486214D02*
X19837643Y-13486214D01*
X19766214Y-13386214D02*
X19766214Y-13643357D01*
X19780500Y-13671929D01*
X19809071Y-13686214D01*
X19837643Y-13686214D01*
X19923357Y-13671929D02*
X19951928Y-13686214D01*
X20009071Y-13686214D01*
X20037643Y-13671929D01*
X20051928Y-13643357D01*
X20051928Y-13629071D01*
X20037643Y-13600500D01*
X20009071Y-13586214D01*
X19966214Y-13586214D01*
X19937643Y-13571929D01*
X19923357Y-13543357D01*
X19923357Y-13529071D01*
X19937643Y-13500500D01*
X19966214Y-13486214D01*
X20009071Y-13486214D01*
X20037643Y-13500500D01*
X20151928Y-13800500D02*
X20166214Y-13786214D01*
X20194786Y-13743357D01*
X20209071Y-13714786D01*
X20223357Y-13671929D01*
X20237643Y-13600500D01*
X20237643Y-13543357D01*
X20223357Y-13471929D01*
X20209071Y-13429071D01*
X20194786Y-13400500D01*
X20166214Y-13357643D01*
X20151928Y-13343357D01*
X10628000Y-13909000D02*
X10628000Y-13984000D01*
X10590500Y-13946500D02*
X10665500Y-13946500D01*
X11009071Y-13782214D02*
X11037643Y-13782214D01*
X11066214Y-13796500D01*
X11080500Y-13810786D01*
X11094786Y-13839357D01*
X11109071Y-13896500D01*
X11109071Y-13967929D01*
X11094786Y-14025071D01*
X11080500Y-14053643D01*
X11066214Y-14067929D01*
X11037643Y-14082214D01*
X11009071Y-14082214D01*
X10980500Y-14067929D01*
X10966214Y-14053643D01*
X10951928Y-14025071D01*
X10937643Y-13967929D01*
X10937643Y-13896500D01*
X10951928Y-13839357D01*
X10966214Y-13810786D01*
X10980500Y-13796500D01*
X11009071Y-13782214D01*
X11237643Y-14053643D02*
X11251928Y-14067929D01*
X11237643Y-14082214D01*
X11223357Y-14067929D01*
X11237643Y-14053643D01*
X11237643Y-14082214D01*
X11351928Y-13782214D02*
X11551928Y-13782214D01*
X11423357Y-14082214D01*
X11809071Y-13782214D02*
X11666214Y-13782214D01*
X11651928Y-13925071D01*
X11666214Y-13910786D01*
X11694786Y-13896500D01*
X11766214Y-13896500D01*
X11794786Y-13910786D01*
X11809071Y-13925071D01*
X11823357Y-13953643D01*
X11823357Y-14025071D01*
X11809071Y-14053643D01*
X11794786Y-14067929D01*
X11766214Y-14082214D01*
X11694786Y-14082214D01*
X11666214Y-14067929D01*
X11651928Y-14053643D01*
X12009071Y-13782214D02*
X12037643Y-13782214D01*
X12066214Y-13796500D01*
X12080500Y-13810786D01*
X12094786Y-13839357D01*
X12109071Y-13896500D01*
X12109071Y-13967929D01*
X12094786Y-14025071D01*
X12080500Y-14053643D01*
X12066214Y-14067929D01*
X12037643Y-14082214D01*
X12009071Y-14082214D01*
X11980500Y-14067929D01*
X11966214Y-14053643D01*
X11951928Y-14025071D01*
X11937643Y-13967929D01*
X11937643Y-13896500D01*
X11951928Y-13839357D01*
X11966214Y-13810786D01*
X11980500Y-13796500D01*
X12009071Y-13782214D01*
X12237643Y-14082214D02*
X12237643Y-13882214D01*
X12237643Y-13910786D02*
X12251928Y-13896500D01*
X12280500Y-13882214D01*
X12323357Y-13882214D01*
X12351928Y-13896500D01*
X12366214Y-13925071D01*
X12366214Y-14082214D01*
X12366214Y-13925071D02*
X12380500Y-13896500D01*
X12409071Y-13882214D01*
X12451928Y-13882214D01*
X12480500Y-13896500D01*
X12494786Y-13925071D01*
X12494786Y-14082214D01*
X12637643Y-14082214D02*
X12637643Y-13882214D01*
X12637643Y-13910786D02*
X12651928Y-13896500D01*
X12680500Y-13882214D01*
X12723357Y-13882214D01*
X12751928Y-13896500D01*
X12766214Y-13925071D01*
X12766214Y-14082214D01*
X12766214Y-13925071D02*
X12780500Y-13896500D01*
X12809071Y-13882214D01*
X12851928Y-13882214D01*
X12880500Y-13896500D01*
X12894786Y-13925071D01*
X12894786Y-14082214D01*
X13480500Y-13767929D02*
X13223357Y-14153643D01*
X13866214Y-13782214D02*
X13894786Y-13782214D01*
X13923357Y-13796500D01*
X13937643Y-13810786D01*
X13951928Y-13839357D01*
X13966214Y-13896500D01*
X13966214Y-13967929D01*
X13951928Y-14025071D01*
X13937643Y-14053643D01*
X13923357Y-14067929D01*
X13894786Y-14082214D01*
X13866214Y-14082214D01*
X13837643Y-14067929D01*
X13823357Y-14053643D01*
X13809071Y-14025071D01*
X13794786Y-13967929D01*
X13794786Y-13896500D01*
X13809071Y-13839357D01*
X13823357Y-13810786D01*
X13837643Y-13796500D01*
X13866214Y-13782214D01*
X14094786Y-14053643D02*
X14109071Y-14067929D01*
X14094786Y-14082214D01*
X14080500Y-14067929D01*
X14094786Y-14053643D01*
X14094786Y-14082214D01*
X14294786Y-13782214D02*
X14323357Y-13782214D01*
X14351928Y-13796500D01*
X14366214Y-13810786D01*
X14380500Y-13839357D01*
X14394786Y-13896500D01*
X14394786Y-13967929D01*
X14380500Y-14025071D01*
X14366214Y-14053643D01*
X14351928Y-14067929D01*
X14323357Y-14082214D01*
X14294786Y-14082214D01*
X14266214Y-14067929D01*
X14251928Y-14053643D01*
X14237643Y-14025071D01*
X14223357Y-13967929D01*
X14223357Y-13896500D01*
X14237643Y-13839357D01*
X14251928Y-13810786D01*
X14266214Y-13796500D01*
X14294786Y-13782214D01*
X14509071Y-13810786D02*
X14523357Y-13796500D01*
X14551928Y-13782214D01*
X14623357Y-13782214D01*
X14651928Y-13796500D01*
X14666214Y-13810786D01*
X14680500Y-13839357D01*
X14680500Y-13867929D01*
X14666214Y-13910786D01*
X14494786Y-14082214D01*
X14680500Y-14082214D01*
X14823357Y-14082214D02*
X14880500Y-14082214D01*
X14909071Y-14067929D01*
X14923357Y-14053643D01*
X14951928Y-14010786D01*
X14966214Y-13953643D01*
X14966214Y-13839357D01*
X14951928Y-13810786D01*
X14937643Y-13796500D01*
X14909071Y-13782214D01*
X14851928Y-13782214D01*
X14823357Y-13796500D01*
X14809071Y-13810786D01*
X14794786Y-13839357D01*
X14794786Y-13910786D01*
X14809071Y-13939357D01*
X14823357Y-13953643D01*
X14851928Y-13967929D01*
X14909071Y-13967929D01*
X14937643Y-13953643D01*
X14951928Y-13939357D01*
X14966214Y-13910786D01*
X15237643Y-13782214D02*
X15094786Y-13782214D01*
X15080500Y-13925071D01*
X15094786Y-13910786D01*
X15123357Y-13896500D01*
X15194786Y-13896500D01*
X15223357Y-13910786D01*
X15237643Y-13925071D01*
X15251928Y-13953643D01*
X15251928Y-14025071D01*
X15237643Y-14053643D01*
X15223357Y-14067929D01*
X15194786Y-14082214D01*
X15123357Y-14082214D01*
X15094786Y-14067929D01*
X15080500Y-14053643D01*
X15366214Y-13782214D02*
X15366214Y-13839357D01*
X15480500Y-13782214D02*
X15480500Y-13839357D01*
X15923357Y-14196500D02*
X15909071Y-14182214D01*
X15880500Y-14139357D01*
X15866214Y-14110786D01*
X15851928Y-14067929D01*
X15837643Y-13996500D01*
X15837643Y-13939357D01*
X15851928Y-13867929D01*
X15866214Y-13825071D01*
X15880500Y-13796500D01*
X15909071Y-13753643D01*
X15923357Y-13739357D01*
X16194786Y-14082214D02*
X16023357Y-14082214D01*
X16109071Y-14082214D02*
X16109071Y-13782214D01*
X16080500Y-13825071D01*
X16051928Y-13853643D01*
X16023357Y-13867929D01*
X16551928Y-14082214D02*
X16551928Y-13782214D01*
X16680500Y-14082214D02*
X16680500Y-13925071D01*
X16666214Y-13896500D01*
X16637643Y-13882214D01*
X16594786Y-13882214D01*
X16566214Y-13896500D01*
X16551928Y-13910786D01*
X16866214Y-14082214D02*
X16837643Y-14067929D01*
X16823357Y-14053643D01*
X16809071Y-14025071D01*
X16809071Y-13939357D01*
X16823357Y-13910786D01*
X16837643Y-13896500D01*
X16866214Y-13882214D01*
X16909071Y-13882214D01*
X16937643Y-13896500D01*
X16951928Y-13910786D01*
X16966214Y-13939357D01*
X16966214Y-14025071D01*
X16951928Y-14053643D01*
X16937643Y-14067929D01*
X16909071Y-14082214D01*
X16866214Y-14082214D01*
X17137643Y-14082214D02*
X17109071Y-14067929D01*
X17094786Y-14039357D01*
X17094786Y-13782214D01*
X17366214Y-14067929D02*
X17337643Y-14082214D01*
X17280500Y-14082214D01*
X17251928Y-14067929D01*
X17237643Y-14039357D01*
X17237643Y-13925071D01*
X17251928Y-13896500D01*
X17280500Y-13882214D01*
X17337643Y-13882214D01*
X17366214Y-13896500D01*
X17380500Y-13925071D01*
X17380500Y-13953643D01*
X17237643Y-13982214D01*
X17480500Y-14196500D02*
X17494786Y-14182214D01*
X17523357Y-14139357D01*
X17537643Y-14110786D01*
X17551928Y-14067929D01*
X17566214Y-13996500D01*
X17566214Y-13939357D01*
X17551928Y-13867929D01*
X17537643Y-13825071D01*
X17523357Y-13796500D01*
X17494786Y-13753643D01*
X17480500Y-13739357D01*
X10654341Y-14369441D02*
X10654341Y-14315559D01*
X10600459Y-14315559D01*
X10600459Y-14369441D01*
X10654341Y-14369441D01*
X11009071Y-14178214D02*
X11037643Y-14178214D01*
X11066214Y-14192500D01*
X11080500Y-14206786D01*
X11094786Y-14235357D01*
X11109071Y-14292500D01*
X11109071Y-14363929D01*
X11094786Y-14421071D01*
X11080500Y-14449643D01*
X11066214Y-14463929D01*
X11037643Y-14478214D01*
X11009071Y-14478214D01*
X10980500Y-14463929D01*
X10966214Y-14449643D01*
X10951928Y-14421071D01*
X10937643Y-14363929D01*
X10937643Y-14292500D01*
X10951928Y-14235357D01*
X10966214Y-14206786D01*
X10980500Y-14192500D01*
X11009071Y-14178214D01*
X11237643Y-14449643D02*
X11251928Y-14463929D01*
X11237643Y-14478214D01*
X11223357Y-14463929D01*
X11237643Y-14449643D01*
X11237643Y-14478214D01*
X11351928Y-14178214D02*
X11551928Y-14178214D01*
X11423357Y-14478214D01*
X11794786Y-14178214D02*
X11737643Y-14178214D01*
X11709071Y-14192500D01*
X11694786Y-14206786D01*
X11666214Y-14249643D01*
X11651928Y-14306786D01*
X11651928Y-14421071D01*
X11666214Y-14449643D01*
X11680500Y-14463929D01*
X11709071Y-14478214D01*
X11766214Y-14478214D01*
X11794786Y-14463929D01*
X11809071Y-14449643D01*
X11823357Y-14421071D01*
X11823357Y-14349643D01*
X11809071Y-14321071D01*
X11794786Y-14306786D01*
X11766214Y-14292500D01*
X11709071Y-14292500D01*
X11680500Y-14306786D01*
X11666214Y-14321071D01*
X11651928Y-14349643D01*
X11937643Y-14206786D02*
X11951928Y-14192500D01*
X11980500Y-14178214D01*
X12051928Y-14178214D01*
X12080500Y-14192500D01*
X12094786Y-14206786D01*
X12109071Y-14235357D01*
X12109071Y-14263929D01*
X12094786Y-14306786D01*
X11923357Y-14478214D01*
X12109071Y-14478214D01*
X12237643Y-14478214D02*
X12237643Y-14278214D01*
X12237643Y-14306786D02*
X12251928Y-14292500D01*
X12280500Y-14278214D01*
X12323357Y-14278214D01*
X12351928Y-14292500D01*
X12366214Y-14321071D01*
X12366214Y-14478214D01*
X12366214Y-14321071D02*
X12380500Y-14292500D01*
X12409071Y-14278214D01*
X12451928Y-14278214D01*
X12480500Y-14292500D01*
X12494786Y-14321071D01*
X12494786Y-14478214D01*
X12637643Y-14478214D02*
X12637643Y-14278214D01*
X12637643Y-14306786D02*
X12651928Y-14292500D01*
X12680500Y-14278214D01*
X12723357Y-14278214D01*
X12751928Y-14292500D01*
X12766214Y-14321071D01*
X12766214Y-14478214D01*
X12766214Y-14321071D02*
X12780500Y-14292500D01*
X12809071Y-14278214D01*
X12851928Y-14278214D01*
X12880500Y-14292500D01*
X12894786Y-14321071D01*
X12894786Y-14478214D01*
X13480500Y-14163929D02*
X13223357Y-14549643D01*
X13866214Y-14178214D02*
X13894786Y-14178214D01*
X13923357Y-14192500D01*
X13937643Y-14206786D01*
X13951928Y-14235357D01*
X13966214Y-14292500D01*
X13966214Y-14363929D01*
X13951928Y-14421071D01*
X13937643Y-14449643D01*
X13923357Y-14463929D01*
X13894786Y-14478214D01*
X13866214Y-14478214D01*
X13837643Y-14463929D01*
X13823357Y-14449643D01*
X13809071Y-14421071D01*
X13794786Y-14363929D01*
X13794786Y-14292500D01*
X13809071Y-14235357D01*
X13823357Y-14206786D01*
X13837643Y-14192500D01*
X13866214Y-14178214D01*
X14094786Y-14449643D02*
X14109071Y-14463929D01*
X14094786Y-14478214D01*
X14080500Y-14463929D01*
X14094786Y-14449643D01*
X14094786Y-14478214D01*
X14294786Y-14178214D02*
X14323357Y-14178214D01*
X14351928Y-14192500D01*
X14366214Y-14206786D01*
X14380500Y-14235357D01*
X14394786Y-14292500D01*
X14394786Y-14363929D01*
X14380500Y-14421071D01*
X14366214Y-14449643D01*
X14351928Y-14463929D01*
X14323357Y-14478214D01*
X14294786Y-14478214D01*
X14266214Y-14463929D01*
X14251928Y-14449643D01*
X14237643Y-14421071D01*
X14223357Y-14363929D01*
X14223357Y-14292500D01*
X14237643Y-14235357D01*
X14251928Y-14206786D01*
X14266214Y-14192500D01*
X14294786Y-14178214D01*
X14494786Y-14178214D02*
X14680500Y-14178214D01*
X14580500Y-14292500D01*
X14623357Y-14292500D01*
X14651928Y-14306786D01*
X14666214Y-14321071D01*
X14680500Y-14349643D01*
X14680500Y-14421071D01*
X14666214Y-14449643D01*
X14651928Y-14463929D01*
X14623357Y-14478214D01*
X14537643Y-14478214D01*
X14509071Y-14463929D01*
X14494786Y-14449643D01*
X14866214Y-14178214D02*
X14894786Y-14178214D01*
X14923357Y-14192500D01*
X14937643Y-14206786D01*
X14951928Y-14235357D01*
X14966214Y-14292500D01*
X14966214Y-14363929D01*
X14951928Y-14421071D01*
X14937643Y-14449643D01*
X14923357Y-14463929D01*
X14894786Y-14478214D01*
X14866214Y-14478214D01*
X14837643Y-14463929D01*
X14823357Y-14449643D01*
X14809071Y-14421071D01*
X14794786Y-14363929D01*
X14794786Y-14292500D01*
X14809071Y-14235357D01*
X14823357Y-14206786D01*
X14837643Y-14192500D01*
X14866214Y-14178214D01*
X15151928Y-14178214D02*
X15180500Y-14178214D01*
X15209071Y-14192500D01*
X15223357Y-14206786D01*
X15237643Y-14235357D01*
X15251928Y-14292500D01*
X15251928Y-14363929D01*
X15237643Y-14421071D01*
X15223357Y-14449643D01*
X15209071Y-14463929D01*
X15180500Y-14478214D01*
X15151928Y-14478214D01*
X15123357Y-14463929D01*
X15109071Y-14449643D01*
X15094786Y-14421071D01*
X15080500Y-14363929D01*
X15080500Y-14292500D01*
X15094786Y-14235357D01*
X15109071Y-14206786D01*
X15123357Y-14192500D01*
X15151928Y-14178214D01*
X15366214Y-14178214D02*
X15366214Y-14235357D01*
X15480500Y-14178214D02*
X15480500Y-14235357D01*
X15923357Y-14592500D02*
X15909071Y-14578214D01*
X15880500Y-14535357D01*
X15866214Y-14506786D01*
X15851928Y-14463929D01*
X15837643Y-14392500D01*
X15837643Y-14335357D01*
X15851928Y-14263929D01*
X15866214Y-14221071D01*
X15880500Y-14192500D01*
X15909071Y-14149643D01*
X15923357Y-14135357D01*
X16166214Y-14278214D02*
X16166214Y-14478214D01*
X16094786Y-14163929D02*
X16023357Y-14378214D01*
X16209071Y-14378214D01*
X16551928Y-14478214D02*
X16551928Y-14178214D01*
X16680500Y-14478214D02*
X16680500Y-14321071D01*
X16666214Y-14292500D01*
X16637643Y-14278214D01*
X16594786Y-14278214D01*
X16566214Y-14292500D01*
X16551928Y-14306786D01*
X16866214Y-14478214D02*
X16837643Y-14463929D01*
X16823357Y-14449643D01*
X16809071Y-14421071D01*
X16809071Y-14335357D01*
X16823357Y-14306786D01*
X16837643Y-14292500D01*
X16866214Y-14278214D01*
X16909071Y-14278214D01*
X16937643Y-14292500D01*
X16951928Y-14306786D01*
X16966214Y-14335357D01*
X16966214Y-14421071D01*
X16951928Y-14449643D01*
X16937643Y-14463929D01*
X16909071Y-14478214D01*
X16866214Y-14478214D01*
X17137643Y-14478214D02*
X17109071Y-14463929D01*
X17094786Y-14435357D01*
X17094786Y-14178214D01*
X17366214Y-14463929D02*
X17337643Y-14478214D01*
X17280500Y-14478214D01*
X17251928Y-14463929D01*
X17237643Y-14435357D01*
X17237643Y-14321071D01*
X17251928Y-14292500D01*
X17280500Y-14278214D01*
X17337643Y-14278214D01*
X17366214Y-14292500D01*
X17380500Y-14321071D01*
X17380500Y-14349643D01*
X17237643Y-14378214D01*
X17494786Y-14463929D02*
X17523357Y-14478214D01*
X17580500Y-14478214D01*
X17609071Y-14463929D01*
X17623357Y-14435357D01*
X17623357Y-14421071D01*
X17609071Y-14392500D01*
X17580500Y-14378214D01*
X17537643Y-14378214D01*
X17509071Y-14363929D01*
X17494786Y-14335357D01*
X17494786Y-14321071D01*
X17509071Y-14292500D01*
X17537643Y-14278214D01*
X17580500Y-14278214D01*
X17609071Y-14292500D01*
X17723357Y-14592500D02*
X17737643Y-14578214D01*
X17766214Y-14535357D01*
X17780500Y-14506786D01*
X17794786Y-14463929D01*
X17809071Y-14392500D01*
X17809071Y-14335357D01*
X17794786Y-14263929D01*
X17780500Y-14221071D01*
X17766214Y-14192500D01*
X17737643Y-14149643D01*
X17723357Y-14135357D01*
X10626500Y-14777500D02*
X10665500Y-14738500D01*
X10626500Y-14699500D01*
X10587500Y-14738500D01*
X10626500Y-14777500D01*
X11009071Y-14574214D02*
X11037643Y-14574214D01*
X11066214Y-14588500D01*
X11080500Y-14602786D01*
X11094786Y-14631357D01*
X11109071Y-14688500D01*
X11109071Y-14759929D01*
X11094786Y-14817071D01*
X11080500Y-14845643D01*
X11066214Y-14859929D01*
X11037643Y-14874214D01*
X11009071Y-14874214D01*
X10980500Y-14859929D01*
X10966214Y-14845643D01*
X10951928Y-14817071D01*
X10937643Y-14759929D01*
X10937643Y-14688500D01*
X10951928Y-14631357D01*
X10966214Y-14602786D01*
X10980500Y-14588500D01*
X11009071Y-14574214D01*
X11237643Y-14845643D02*
X11251928Y-14859929D01*
X11237643Y-14874214D01*
X11223357Y-14859929D01*
X11237643Y-14845643D01*
X11237643Y-14874214D01*
X11351928Y-14574214D02*
X11551928Y-14574214D01*
X11423357Y-14874214D01*
X11709071Y-14702786D02*
X11680500Y-14688500D01*
X11666214Y-14674214D01*
X11651928Y-14645643D01*
X11651928Y-14631357D01*
X11666214Y-14602786D01*
X11680500Y-14588500D01*
X11709071Y-14574214D01*
X11766214Y-14574214D01*
X11794786Y-14588500D01*
X11809071Y-14602786D01*
X11823357Y-14631357D01*
X11823357Y-14645643D01*
X11809071Y-14674214D01*
X11794786Y-14688500D01*
X11766214Y-14702786D01*
X11709071Y-14702786D01*
X11680500Y-14717071D01*
X11666214Y-14731357D01*
X11651928Y-14759929D01*
X11651928Y-14817071D01*
X11666214Y-14845643D01*
X11680500Y-14859929D01*
X11709071Y-14874214D01*
X11766214Y-14874214D01*
X11794786Y-14859929D01*
X11809071Y-14845643D01*
X11823357Y-14817071D01*
X11823357Y-14759929D01*
X11809071Y-14731357D01*
X11794786Y-14717071D01*
X11766214Y-14702786D01*
X12009071Y-14574214D02*
X12037643Y-14574214D01*
X12066214Y-14588500D01*
X12080500Y-14602786D01*
X12094786Y-14631357D01*
X12109071Y-14688500D01*
X12109071Y-14759929D01*
X12094786Y-14817071D01*
X12080500Y-14845643D01*
X12066214Y-14859929D01*
X12037643Y-14874214D01*
X12009071Y-14874214D01*
X11980500Y-14859929D01*
X11966214Y-14845643D01*
X11951928Y-14817071D01*
X11937643Y-14759929D01*
X11937643Y-14688500D01*
X11951928Y-14631357D01*
X11966214Y-14602786D01*
X11980500Y-14588500D01*
X12009071Y-14574214D01*
X12237643Y-14874214D02*
X12237643Y-14674214D01*
X12237643Y-14702786D02*
X12251928Y-14688500D01*
X12280500Y-14674214D01*
X12323357Y-14674214D01*
X12351928Y-14688500D01*
X12366214Y-14717071D01*
X12366214Y-14874214D01*
X12366214Y-14717071D02*
X12380500Y-14688500D01*
X12409071Y-14674214D01*
X12451928Y-14674214D01*
X12480500Y-14688500D01*
X12494786Y-14717071D01*
X12494786Y-14874214D01*
X12637643Y-14874214D02*
X12637643Y-14674214D01*
X12637643Y-14702786D02*
X12651928Y-14688500D01*
X12680500Y-14674214D01*
X12723357Y-14674214D01*
X12751928Y-14688500D01*
X12766214Y-14717071D01*
X12766214Y-14874214D01*
X12766214Y-14717071D02*
X12780500Y-14688500D01*
X12809071Y-14674214D01*
X12851928Y-14674214D01*
X12880500Y-14688500D01*
X12894786Y-14717071D01*
X12894786Y-14874214D01*
X13480500Y-14559929D02*
X13223357Y-14945643D01*
X13866214Y-14574214D02*
X13894786Y-14574214D01*
X13923357Y-14588500D01*
X13937643Y-14602786D01*
X13951928Y-14631357D01*
X13966214Y-14688500D01*
X13966214Y-14759929D01*
X13951928Y-14817071D01*
X13937643Y-14845643D01*
X13923357Y-14859929D01*
X13894786Y-14874214D01*
X13866214Y-14874214D01*
X13837643Y-14859929D01*
X13823357Y-14845643D01*
X13809071Y-14817071D01*
X13794786Y-14759929D01*
X13794786Y-14688500D01*
X13809071Y-14631357D01*
X13823357Y-14602786D01*
X13837643Y-14588500D01*
X13866214Y-14574214D01*
X14094786Y-14845643D02*
X14109071Y-14859929D01*
X14094786Y-14874214D01*
X14080500Y-14859929D01*
X14094786Y-14845643D01*
X14094786Y-14874214D01*
X14294786Y-14574214D02*
X14323357Y-14574214D01*
X14351928Y-14588500D01*
X14366214Y-14602786D01*
X14380500Y-14631357D01*
X14394786Y-14688500D01*
X14394786Y-14759929D01*
X14380500Y-14817071D01*
X14366214Y-14845643D01*
X14351928Y-14859929D01*
X14323357Y-14874214D01*
X14294786Y-14874214D01*
X14266214Y-14859929D01*
X14251928Y-14845643D01*
X14237643Y-14817071D01*
X14223357Y-14759929D01*
X14223357Y-14688500D01*
X14237643Y-14631357D01*
X14251928Y-14602786D01*
X14266214Y-14588500D01*
X14294786Y-14574214D01*
X14494786Y-14574214D02*
X14680500Y-14574214D01*
X14580500Y-14688500D01*
X14623357Y-14688500D01*
X14651928Y-14702786D01*
X14666214Y-14717071D01*
X14680500Y-14745643D01*
X14680500Y-14817071D01*
X14666214Y-14845643D01*
X14651928Y-14859929D01*
X14623357Y-14874214D01*
X14537643Y-14874214D01*
X14509071Y-14859929D01*
X14494786Y-14845643D01*
X14866214Y-14574214D02*
X14894786Y-14574214D01*
X14923357Y-14588500D01*
X14937643Y-14602786D01*
X14951928Y-14631357D01*
X14966214Y-14688500D01*
X14966214Y-14759929D01*
X14951928Y-14817071D01*
X14937643Y-14845643D01*
X14923357Y-14859929D01*
X14894786Y-14874214D01*
X14866214Y-14874214D01*
X14837643Y-14859929D01*
X14823357Y-14845643D01*
X14809071Y-14817071D01*
X14794786Y-14759929D01*
X14794786Y-14688500D01*
X14809071Y-14631357D01*
X14823357Y-14602786D01*
X14837643Y-14588500D01*
X14866214Y-14574214D01*
X15066214Y-14574214D02*
X15266214Y-14574214D01*
X15137643Y-14874214D01*
X15366214Y-14574214D02*
X15366214Y-14631357D01*
X15480500Y-14574214D02*
X15480500Y-14631357D01*
X15923357Y-14988500D02*
X15909071Y-14974214D01*
X15880500Y-14931357D01*
X15866214Y-14902786D01*
X15851928Y-14859929D01*
X15837643Y-14788500D01*
X15837643Y-14731357D01*
X15851928Y-14659929D01*
X15866214Y-14617071D01*
X15880500Y-14588500D01*
X15909071Y-14545643D01*
X15923357Y-14531357D01*
X16023357Y-14602786D02*
X16037643Y-14588500D01*
X16066214Y-14574214D01*
X16137643Y-14574214D01*
X16166214Y-14588500D01*
X16180500Y-14602786D01*
X16194786Y-14631357D01*
X16194786Y-14659929D01*
X16180500Y-14702786D01*
X16009071Y-14874214D01*
X16194786Y-14874214D01*
X16294786Y-14574214D02*
X16480500Y-14574214D01*
X16380500Y-14688500D01*
X16423357Y-14688500D01*
X16451928Y-14702786D01*
X16466214Y-14717071D01*
X16480500Y-14745643D01*
X16480500Y-14817071D01*
X16466214Y-14845643D01*
X16451928Y-14859929D01*
X16423357Y-14874214D01*
X16337643Y-14874214D01*
X16309071Y-14859929D01*
X16294786Y-14845643D01*
X16837643Y-14874214D02*
X16837643Y-14574214D01*
X16966214Y-14874214D02*
X16966214Y-14717071D01*
X16951928Y-14688500D01*
X16923357Y-14674214D01*
X16880500Y-14674214D01*
X16851928Y-14688500D01*
X16837643Y-14702786D01*
X17151928Y-14874214D02*
X17123357Y-14859929D01*
X17109071Y-14845643D01*
X17094786Y-14817071D01*
X17094786Y-14731357D01*
X17109071Y-14702786D01*
X17123357Y-14688500D01*
X17151928Y-14674214D01*
X17194786Y-14674214D01*
X17223357Y-14688500D01*
X17237643Y-14702786D01*
X17251928Y-14731357D01*
X17251928Y-14817071D01*
X17237643Y-14845643D01*
X17223357Y-14859929D01*
X17194786Y-14874214D01*
X17151928Y-14874214D01*
X17423357Y-14874214D02*
X17394786Y-14859929D01*
X17380500Y-14831357D01*
X17380500Y-14574214D01*
X17651928Y-14859929D02*
X17623357Y-14874214D01*
X17566214Y-14874214D01*
X17537643Y-14859929D01*
X17523357Y-14831357D01*
X17523357Y-14717071D01*
X17537643Y-14688500D01*
X17566214Y-14674214D01*
X17623357Y-14674214D01*
X17651928Y-14688500D01*
X17666214Y-14717071D01*
X17666214Y-14745643D01*
X17523357Y-14774214D01*
X17780500Y-14859929D02*
X17809071Y-14874214D01*
X17866214Y-14874214D01*
X17894786Y-14859929D01*
X17909071Y-14831357D01*
X17909071Y-14817071D01*
X17894786Y-14788500D01*
X17866214Y-14774214D01*
X17823357Y-14774214D01*
X17794786Y-14759929D01*
X17780500Y-14731357D01*
X17780500Y-14717071D01*
X17794786Y-14688500D01*
X17823357Y-14674214D01*
X17866214Y-14674214D01*
X17894786Y-14688500D01*
X18009071Y-14988500D02*
X18023357Y-14974214D01*
X18051928Y-14931357D01*
X18066214Y-14902786D01*
X18080500Y-14859929D01*
X18094786Y-14788500D01*
X18094786Y-14731357D01*
X18080500Y-14659929D01*
X18066214Y-14617071D01*
X18051928Y-14588500D01*
X18023357Y-14545643D01*
X18009071Y-14531357D01*
X10575500Y-15089500D02*
X10665500Y-15179500D01*
X10665500Y-15089500D02*
X10575500Y-15179500D01*
X10665500Y-15134500D02*
G75*
G03*
X10665500Y-15134500I-45000J0D01*
G01*
X11009071Y-14970214D02*
X11037643Y-14970214D01*
X11066214Y-14984500D01*
X11080500Y-14998786D01*
X11094786Y-15027357D01*
X11109071Y-15084500D01*
X11109071Y-15155929D01*
X11094786Y-15213071D01*
X11080500Y-15241643D01*
X11066214Y-15255929D01*
X11037643Y-15270214D01*
X11009071Y-15270214D01*
X10980500Y-15255929D01*
X10966214Y-15241643D01*
X10951928Y-15213071D01*
X10937643Y-15155929D01*
X10937643Y-15084500D01*
X10951928Y-15027357D01*
X10966214Y-14998786D01*
X10980500Y-14984500D01*
X11009071Y-14970214D01*
X11237643Y-15241643D02*
X11251928Y-15255929D01*
X11237643Y-15270214D01*
X11223357Y-15255929D01*
X11237643Y-15241643D01*
X11237643Y-15270214D01*
X11394786Y-15270214D02*
X11451928Y-15270214D01*
X11480500Y-15255929D01*
X11494786Y-15241643D01*
X11523357Y-15198786D01*
X11537643Y-15141643D01*
X11537643Y-15027357D01*
X11523357Y-14998786D01*
X11509071Y-14984500D01*
X11480500Y-14970214D01*
X11423357Y-14970214D01*
X11394786Y-14984500D01*
X11380500Y-14998786D01*
X11366214Y-15027357D01*
X11366214Y-15098786D01*
X11380500Y-15127357D01*
X11394786Y-15141643D01*
X11423357Y-15155929D01*
X11480500Y-15155929D01*
X11509071Y-15141643D01*
X11523357Y-15127357D01*
X11537643Y-15098786D01*
X11723357Y-14970214D02*
X11751928Y-14970214D01*
X11780500Y-14984500D01*
X11794786Y-14998786D01*
X11809071Y-15027357D01*
X11823357Y-15084500D01*
X11823357Y-15155929D01*
X11809071Y-15213071D01*
X11794786Y-15241643D01*
X11780500Y-15255929D01*
X11751928Y-15270214D01*
X11723357Y-15270214D01*
X11694786Y-15255929D01*
X11680500Y-15241643D01*
X11666214Y-15213071D01*
X11651928Y-15155929D01*
X11651928Y-15084500D01*
X11666214Y-15027357D01*
X11680500Y-14998786D01*
X11694786Y-14984500D01*
X11723357Y-14970214D01*
X12009071Y-14970214D02*
X12037643Y-14970214D01*
X12066214Y-14984500D01*
X12080500Y-14998786D01*
X12094786Y-15027357D01*
X12109071Y-15084500D01*
X12109071Y-15155929D01*
X12094786Y-15213071D01*
X12080500Y-15241643D01*
X12066214Y-15255929D01*
X12037643Y-15270214D01*
X12009071Y-15270214D01*
X11980500Y-15255929D01*
X11966214Y-15241643D01*
X11951928Y-15213071D01*
X11937643Y-15155929D01*
X11937643Y-15084500D01*
X11951928Y-15027357D01*
X11966214Y-14998786D01*
X11980500Y-14984500D01*
X12009071Y-14970214D01*
X12237643Y-15270214D02*
X12237643Y-15070214D01*
X12237643Y-15098786D02*
X12251928Y-15084500D01*
X12280500Y-15070214D01*
X12323357Y-15070214D01*
X12351928Y-15084500D01*
X12366214Y-15113071D01*
X12366214Y-15270214D01*
X12366214Y-15113071D02*
X12380500Y-15084500D01*
X12409071Y-15070214D01*
X12451928Y-15070214D01*
X12480500Y-15084500D01*
X12494786Y-15113071D01*
X12494786Y-15270214D01*
X12637643Y-15270214D02*
X12637643Y-15070214D01*
X12637643Y-15098786D02*
X12651928Y-15084500D01*
X12680500Y-15070214D01*
X12723357Y-15070214D01*
X12751928Y-15084500D01*
X12766214Y-15113071D01*
X12766214Y-15270214D01*
X12766214Y-15113071D02*
X12780500Y-15084500D01*
X12809071Y-15070214D01*
X12851928Y-15070214D01*
X12880500Y-15084500D01*
X12894786Y-15113071D01*
X12894786Y-15270214D01*
X13480500Y-14955929D02*
X13223357Y-15341643D01*
X13866214Y-14970214D02*
X13894786Y-14970214D01*
X13923357Y-14984500D01*
X13937643Y-14998786D01*
X13951928Y-15027357D01*
X13966214Y-15084500D01*
X13966214Y-15155929D01*
X13951928Y-15213071D01*
X13937643Y-15241643D01*
X13923357Y-15255929D01*
X13894786Y-15270214D01*
X13866214Y-15270214D01*
X13837643Y-15255929D01*
X13823357Y-15241643D01*
X13809071Y-15213071D01*
X13794786Y-15155929D01*
X13794786Y-15084500D01*
X13809071Y-15027357D01*
X13823357Y-14998786D01*
X13837643Y-14984500D01*
X13866214Y-14970214D01*
X14094786Y-15241643D02*
X14109071Y-15255929D01*
X14094786Y-15270214D01*
X14080500Y-15255929D01*
X14094786Y-15241643D01*
X14094786Y-15270214D01*
X14294786Y-14970214D02*
X14323357Y-14970214D01*
X14351928Y-14984500D01*
X14366214Y-14998786D01*
X14380500Y-15027357D01*
X14394786Y-15084500D01*
X14394786Y-15155929D01*
X14380500Y-15213071D01*
X14366214Y-15241643D01*
X14351928Y-15255929D01*
X14323357Y-15270214D01*
X14294786Y-15270214D01*
X14266214Y-15255929D01*
X14251928Y-15241643D01*
X14237643Y-15213071D01*
X14223357Y-15155929D01*
X14223357Y-15084500D01*
X14237643Y-15027357D01*
X14251928Y-14998786D01*
X14266214Y-14984500D01*
X14294786Y-14970214D01*
X14494786Y-14970214D02*
X14680500Y-14970214D01*
X14580500Y-15084500D01*
X14623357Y-15084500D01*
X14651928Y-15098786D01*
X14666214Y-15113071D01*
X14680500Y-15141643D01*
X14680500Y-15213071D01*
X14666214Y-15241643D01*
X14651928Y-15255929D01*
X14623357Y-15270214D01*
X14537643Y-15270214D01*
X14509071Y-15255929D01*
X14494786Y-15241643D01*
X14951928Y-14970214D02*
X14809071Y-14970214D01*
X14794786Y-15113071D01*
X14809071Y-15098786D01*
X14837643Y-15084500D01*
X14909071Y-15084500D01*
X14937643Y-15098786D01*
X14951928Y-15113071D01*
X14966214Y-15141643D01*
X14966214Y-15213071D01*
X14951928Y-15241643D01*
X14937643Y-15255929D01*
X14909071Y-15270214D01*
X14837643Y-15270214D01*
X14809071Y-15255929D01*
X14794786Y-15241643D01*
X15223357Y-15070214D02*
X15223357Y-15270214D01*
X15151928Y-14955929D02*
X15080500Y-15170214D01*
X15266214Y-15170214D01*
X15366214Y-14970214D02*
X15366214Y-15027357D01*
X15480500Y-14970214D02*
X15480500Y-15027357D01*
X15923357Y-15384500D02*
X15909071Y-15370214D01*
X15880500Y-15327357D01*
X15866214Y-15298786D01*
X15851928Y-15255929D01*
X15837643Y-15184500D01*
X15837643Y-15127357D01*
X15851928Y-15055929D01*
X15866214Y-15013071D01*
X15880500Y-14984500D01*
X15909071Y-14941643D01*
X15923357Y-14927357D01*
X16166214Y-14970214D02*
X16109071Y-14970214D01*
X16080500Y-14984500D01*
X16066214Y-14998786D01*
X16037643Y-15041643D01*
X16023357Y-15098786D01*
X16023357Y-15213071D01*
X16037643Y-15241643D01*
X16051928Y-15255929D01*
X16080500Y-15270214D01*
X16137643Y-15270214D01*
X16166214Y-15255929D01*
X16180500Y-15241643D01*
X16194786Y-15213071D01*
X16194786Y-15141643D01*
X16180500Y-15113071D01*
X16166214Y-15098786D01*
X16137643Y-15084500D01*
X16080500Y-15084500D01*
X16051928Y-15098786D01*
X16037643Y-15113071D01*
X16023357Y-15141643D01*
X16551928Y-15270214D02*
X16551928Y-14970214D01*
X16680500Y-15270214D02*
X16680500Y-15113071D01*
X16666214Y-15084500D01*
X16637643Y-15070214D01*
X16594786Y-15070214D01*
X16566214Y-15084500D01*
X16551928Y-15098786D01*
X16866214Y-15270214D02*
X16837643Y-15255929D01*
X16823357Y-15241643D01*
X16809071Y-15213071D01*
X16809071Y-15127357D01*
X16823357Y-15098786D01*
X16837643Y-15084500D01*
X16866214Y-15070214D01*
X16909071Y-15070214D01*
X16937643Y-15084500D01*
X16951928Y-15098786D01*
X16966214Y-15127357D01*
X16966214Y-15213071D01*
X16951928Y-15241643D01*
X16937643Y-15255929D01*
X16909071Y-15270214D01*
X16866214Y-15270214D01*
X17137643Y-15270214D02*
X17109071Y-15255929D01*
X17094786Y-15227357D01*
X17094786Y-14970214D01*
X17366214Y-15255929D02*
X17337643Y-15270214D01*
X17280500Y-15270214D01*
X17251928Y-15255929D01*
X17237643Y-15227357D01*
X17237643Y-15113071D01*
X17251928Y-15084500D01*
X17280500Y-15070214D01*
X17337643Y-15070214D01*
X17366214Y-15084500D01*
X17380500Y-15113071D01*
X17380500Y-15141643D01*
X17237643Y-15170214D01*
X17494786Y-15255929D02*
X17523357Y-15270214D01*
X17580500Y-15270214D01*
X17609071Y-15255929D01*
X17623357Y-15227357D01*
X17623357Y-15213071D01*
X17609071Y-15184500D01*
X17580500Y-15170214D01*
X17537643Y-15170214D01*
X17509071Y-15155929D01*
X17494786Y-15127357D01*
X17494786Y-15113071D01*
X17509071Y-15084500D01*
X17537643Y-15070214D01*
X17580500Y-15070214D01*
X17609071Y-15084500D01*
X17723357Y-15384500D02*
X17737643Y-15370214D01*
X17766214Y-15327357D01*
X17780500Y-15298786D01*
X17794786Y-15255929D01*
X17809071Y-15184500D01*
X17809071Y-15127357D01*
X17794786Y-15055929D01*
X17780500Y-15013071D01*
X17766214Y-14984500D01*
X17737643Y-14941643D01*
X17723357Y-14927357D01*
X10565500Y-15480500D02*
X10665500Y-15580500D01*
X10665500Y-15480500D02*
X10565500Y-15580500D01*
X10615500Y-15480500D02*
X10615500Y-15580500D01*
X10565500Y-15530500D02*
X10665500Y-15530500D01*
X11109071Y-15666214D02*
X10937643Y-15666214D01*
X11023357Y-15666214D02*
X11023357Y-15366214D01*
X10994786Y-15409071D01*
X10966214Y-15437643D01*
X10937643Y-15451929D01*
X11237643Y-15637643D02*
X11251928Y-15651929D01*
X11237643Y-15666214D01*
X11223357Y-15651929D01*
X11237643Y-15637643D01*
X11237643Y-15666214D01*
X11437643Y-15366214D02*
X11466214Y-15366214D01*
X11494786Y-15380500D01*
X11509071Y-15394786D01*
X11523357Y-15423357D01*
X11537643Y-15480500D01*
X11537643Y-15551929D01*
X11523357Y-15609071D01*
X11509071Y-15637643D01*
X11494786Y-15651929D01*
X11466214Y-15666214D01*
X11437643Y-15666214D01*
X11409071Y-15651929D01*
X11394786Y-15637643D01*
X11380500Y-15609071D01*
X11366214Y-15551929D01*
X11366214Y-15480500D01*
X11380500Y-15423357D01*
X11394786Y-15394786D01*
X11409071Y-15380500D01*
X11437643Y-15366214D01*
X11723357Y-15366214D02*
X11751928Y-15366214D01*
X11780500Y-15380500D01*
X11794786Y-15394786D01*
X11809071Y-15423357D01*
X11823357Y-15480500D01*
X11823357Y-15551929D01*
X11809071Y-15609071D01*
X11794786Y-15637643D01*
X11780500Y-15651929D01*
X11751928Y-15666214D01*
X11723357Y-15666214D01*
X11694786Y-15651929D01*
X11680500Y-15637643D01*
X11666214Y-15609071D01*
X11651928Y-15551929D01*
X11651928Y-15480500D01*
X11666214Y-15423357D01*
X11680500Y-15394786D01*
X11694786Y-15380500D01*
X11723357Y-15366214D01*
X12009071Y-15366214D02*
X12037643Y-15366214D01*
X12066214Y-15380500D01*
X12080500Y-15394786D01*
X12094786Y-15423357D01*
X12109071Y-15480500D01*
X12109071Y-15551929D01*
X12094786Y-15609071D01*
X12080500Y-15637643D01*
X12066214Y-15651929D01*
X12037643Y-15666214D01*
X12009071Y-15666214D01*
X11980500Y-15651929D01*
X11966214Y-15637643D01*
X11951928Y-15609071D01*
X11937643Y-15551929D01*
X11937643Y-15480500D01*
X11951928Y-15423357D01*
X11966214Y-15394786D01*
X11980500Y-15380500D01*
X12009071Y-15366214D01*
X12237643Y-15666214D02*
X12237643Y-15466214D01*
X12237643Y-15494786D02*
X12251928Y-15480500D01*
X12280500Y-15466214D01*
X12323357Y-15466214D01*
X12351928Y-15480500D01*
X12366214Y-15509071D01*
X12366214Y-15666214D01*
X12366214Y-15509071D02*
X12380500Y-15480500D01*
X12409071Y-15466214D01*
X12451928Y-15466214D01*
X12480500Y-15480500D01*
X12494786Y-15509071D01*
X12494786Y-15666214D01*
X12637643Y-15666214D02*
X12637643Y-15466214D01*
X12637643Y-15494786D02*
X12651928Y-15480500D01*
X12680500Y-15466214D01*
X12723357Y-15466214D01*
X12751928Y-15480500D01*
X12766214Y-15509071D01*
X12766214Y-15666214D01*
X12766214Y-15509071D02*
X12780500Y-15480500D01*
X12809071Y-15466214D01*
X12851928Y-15466214D01*
X12880500Y-15480500D01*
X12894786Y-15509071D01*
X12894786Y-15666214D01*
X13480500Y-15351929D02*
X13223357Y-15737643D01*
X13866214Y-15366214D02*
X13894786Y-15366214D01*
X13923357Y-15380500D01*
X13937643Y-15394786D01*
X13951928Y-15423357D01*
X13966214Y-15480500D01*
X13966214Y-15551929D01*
X13951928Y-15609071D01*
X13937643Y-15637643D01*
X13923357Y-15651929D01*
X13894786Y-15666214D01*
X13866214Y-15666214D01*
X13837643Y-15651929D01*
X13823357Y-15637643D01*
X13809071Y-15609071D01*
X13794786Y-15551929D01*
X13794786Y-15480500D01*
X13809071Y-15423357D01*
X13823357Y-15394786D01*
X13837643Y-15380500D01*
X13866214Y-15366214D01*
X14094786Y-15637643D02*
X14109071Y-15651929D01*
X14094786Y-15666214D01*
X14080500Y-15651929D01*
X14094786Y-15637643D01*
X14094786Y-15666214D01*
X14294786Y-15366214D02*
X14323357Y-15366214D01*
X14351928Y-15380500D01*
X14366214Y-15394786D01*
X14380500Y-15423357D01*
X14394786Y-15480500D01*
X14394786Y-15551929D01*
X14380500Y-15609071D01*
X14366214Y-15637643D01*
X14351928Y-15651929D01*
X14323357Y-15666214D01*
X14294786Y-15666214D01*
X14266214Y-15651929D01*
X14251928Y-15637643D01*
X14237643Y-15609071D01*
X14223357Y-15551929D01*
X14223357Y-15480500D01*
X14237643Y-15423357D01*
X14251928Y-15394786D01*
X14266214Y-15380500D01*
X14294786Y-15366214D01*
X14494786Y-15366214D02*
X14680500Y-15366214D01*
X14580500Y-15480500D01*
X14623357Y-15480500D01*
X14651928Y-15494786D01*
X14666214Y-15509071D01*
X14680500Y-15537643D01*
X14680500Y-15609071D01*
X14666214Y-15637643D01*
X14651928Y-15651929D01*
X14623357Y-15666214D01*
X14537643Y-15666214D01*
X14509071Y-15651929D01*
X14494786Y-15637643D01*
X14823357Y-15666214D02*
X14880500Y-15666214D01*
X14909071Y-15651929D01*
X14923357Y-15637643D01*
X14951928Y-15594786D01*
X14966214Y-15537643D01*
X14966214Y-15423357D01*
X14951928Y-15394786D01*
X14937643Y-15380500D01*
X14909071Y-15366214D01*
X14851928Y-15366214D01*
X14823357Y-15380500D01*
X14809071Y-15394786D01*
X14794786Y-15423357D01*
X14794786Y-15494786D01*
X14809071Y-15523357D01*
X14823357Y-15537643D01*
X14851928Y-15551929D01*
X14909071Y-15551929D01*
X14937643Y-15537643D01*
X14951928Y-15523357D01*
X14966214Y-15494786D01*
X15223357Y-15466214D02*
X15223357Y-15666214D01*
X15151928Y-15351929D02*
X15080500Y-15566214D01*
X15266214Y-15566214D01*
X15366214Y-15366214D02*
X15366214Y-15423357D01*
X15480500Y-15366214D02*
X15480500Y-15423357D01*
X15923357Y-15780500D02*
X15909071Y-15766214D01*
X15880500Y-15723357D01*
X15866214Y-15694786D01*
X15851928Y-15651929D01*
X15837643Y-15580500D01*
X15837643Y-15523357D01*
X15851928Y-15451929D01*
X15866214Y-15409071D01*
X15880500Y-15380500D01*
X15909071Y-15337643D01*
X15923357Y-15323357D01*
X16194786Y-15666214D02*
X16023357Y-15666214D01*
X16109071Y-15666214D02*
X16109071Y-15366214D01*
X16080500Y-15409071D01*
X16051928Y-15437643D01*
X16023357Y-15451929D01*
X16466214Y-15366214D02*
X16323357Y-15366214D01*
X16309071Y-15509071D01*
X16323357Y-15494786D01*
X16351928Y-15480500D01*
X16423357Y-15480500D01*
X16451928Y-15494786D01*
X16466214Y-15509071D01*
X16480500Y-15537643D01*
X16480500Y-15609071D01*
X16466214Y-15637643D01*
X16451928Y-15651929D01*
X16423357Y-15666214D01*
X16351928Y-15666214D01*
X16323357Y-15651929D01*
X16309071Y-15637643D01*
X16837643Y-15666214D02*
X16837643Y-15366214D01*
X16966214Y-15666214D02*
X16966214Y-15509071D01*
X16951928Y-15480500D01*
X16923357Y-15466214D01*
X16880500Y-15466214D01*
X16851928Y-15480500D01*
X16837643Y-15494786D01*
X17151928Y-15666214D02*
X17123357Y-15651929D01*
X17109071Y-15637643D01*
X17094786Y-15609071D01*
X17094786Y-15523357D01*
X17109071Y-15494786D01*
X17123357Y-15480500D01*
X17151928Y-15466214D01*
X17194786Y-15466214D01*
X17223357Y-15480500D01*
X17237643Y-15494786D01*
X17251928Y-15523357D01*
X17251928Y-15609071D01*
X17237643Y-15637643D01*
X17223357Y-15651929D01*
X17194786Y-15666214D01*
X17151928Y-15666214D01*
X17423357Y-15666214D02*
X17394786Y-15651929D01*
X17380500Y-15623357D01*
X17380500Y-15366214D01*
X17651928Y-15651929D02*
X17623357Y-15666214D01*
X17566214Y-15666214D01*
X17537643Y-15651929D01*
X17523357Y-15623357D01*
X17523357Y-15509071D01*
X17537643Y-15480500D01*
X17566214Y-15466214D01*
X17623357Y-15466214D01*
X17651928Y-15480500D01*
X17666214Y-15509071D01*
X17666214Y-15537643D01*
X17523357Y-15566214D01*
X17780500Y-15651929D02*
X17809071Y-15666214D01*
X17866214Y-15666214D01*
X17894786Y-15651929D01*
X17909071Y-15623357D01*
X17909071Y-15609071D01*
X17894786Y-15580500D01*
X17866214Y-15566214D01*
X17823357Y-15566214D01*
X17794786Y-15551929D01*
X17780500Y-15523357D01*
X17780500Y-15509071D01*
X17794786Y-15480500D01*
X17823357Y-15466214D01*
X17866214Y-15466214D01*
X17894786Y-15480500D01*
X18009071Y-15780500D02*
X18023357Y-15766214D01*
X18051928Y-15723357D01*
X18066214Y-15694786D01*
X18080500Y-15651929D01*
X18094786Y-15580500D01*
X18094786Y-15523357D01*
X18080500Y-15451929D01*
X18066214Y-15409071D01*
X18051928Y-15380500D01*
X18023357Y-15337643D01*
X18009071Y-15323357D01*
X10415500Y-15801500D02*
X10665500Y-16051500D01*
X10665500Y-15801500D02*
X10415500Y-16051500D01*
X10628889Y-16014889D02*
X10628889Y-15838111D01*
X10452111Y-15838111D01*
X10452111Y-16014889D01*
X10628889Y-16014889D01*
X10937643Y-15790786D02*
X10951928Y-15776500D01*
X10980500Y-15762214D01*
X11051928Y-15762214D01*
X11080500Y-15776500D01*
X11094786Y-15790786D01*
X11109071Y-15819357D01*
X11109071Y-15847929D01*
X11094786Y-15890786D01*
X10923357Y-16062214D01*
X11109071Y-16062214D01*
X11237643Y-16033643D02*
X11251928Y-16047929D01*
X11237643Y-16062214D01*
X11223357Y-16047929D01*
X11237643Y-16033643D01*
X11237643Y-16062214D01*
X11523357Y-15762214D02*
X11380500Y-15762214D01*
X11366214Y-15905071D01*
X11380500Y-15890786D01*
X11409071Y-15876500D01*
X11480500Y-15876500D01*
X11509071Y-15890786D01*
X11523357Y-15905071D01*
X11537643Y-15933643D01*
X11537643Y-16005071D01*
X11523357Y-16033643D01*
X11509071Y-16047929D01*
X11480500Y-16062214D01*
X11409071Y-16062214D01*
X11380500Y-16047929D01*
X11366214Y-16033643D01*
X11723357Y-15762214D02*
X11751928Y-15762214D01*
X11780500Y-15776500D01*
X11794786Y-15790786D01*
X11809071Y-15819357D01*
X11823357Y-15876500D01*
X11823357Y-15947929D01*
X11809071Y-16005071D01*
X11794786Y-16033643D01*
X11780500Y-16047929D01*
X11751928Y-16062214D01*
X11723357Y-16062214D01*
X11694786Y-16047929D01*
X11680500Y-16033643D01*
X11666214Y-16005071D01*
X11651928Y-15947929D01*
X11651928Y-15876500D01*
X11666214Y-15819357D01*
X11680500Y-15790786D01*
X11694786Y-15776500D01*
X11723357Y-15762214D01*
X12009071Y-15762214D02*
X12037643Y-15762214D01*
X12066214Y-15776500D01*
X12080500Y-15790786D01*
X12094786Y-15819357D01*
X12109071Y-15876500D01*
X12109071Y-15947929D01*
X12094786Y-16005071D01*
X12080500Y-16033643D01*
X12066214Y-16047929D01*
X12037643Y-16062214D01*
X12009071Y-16062214D01*
X11980500Y-16047929D01*
X11966214Y-16033643D01*
X11951928Y-16005071D01*
X11937643Y-15947929D01*
X11937643Y-15876500D01*
X11951928Y-15819357D01*
X11966214Y-15790786D01*
X11980500Y-15776500D01*
X12009071Y-15762214D01*
X12237643Y-16062214D02*
X12237643Y-15862214D01*
X12237643Y-15890786D02*
X12251928Y-15876500D01*
X12280500Y-15862214D01*
X12323357Y-15862214D01*
X12351928Y-15876500D01*
X12366214Y-15905071D01*
X12366214Y-16062214D01*
X12366214Y-15905071D02*
X12380500Y-15876500D01*
X12409071Y-15862214D01*
X12451928Y-15862214D01*
X12480500Y-15876500D01*
X12494786Y-15905071D01*
X12494786Y-16062214D01*
X12637643Y-16062214D02*
X12637643Y-15862214D01*
X12637643Y-15890786D02*
X12651928Y-15876500D01*
X12680500Y-15862214D01*
X12723357Y-15862214D01*
X12751928Y-15876500D01*
X12766214Y-15905071D01*
X12766214Y-16062214D01*
X12766214Y-15905071D02*
X12780500Y-15876500D01*
X12809071Y-15862214D01*
X12851928Y-15862214D01*
X12880500Y-15876500D01*
X12894786Y-15905071D01*
X12894786Y-16062214D01*
X13480500Y-15747929D02*
X13223357Y-16133643D01*
X13866214Y-15762214D02*
X13894786Y-15762214D01*
X13923357Y-15776500D01*
X13937643Y-15790786D01*
X13951928Y-15819357D01*
X13966214Y-15876500D01*
X13966214Y-15947929D01*
X13951928Y-16005071D01*
X13937643Y-16033643D01*
X13923357Y-16047929D01*
X13894786Y-16062214D01*
X13866214Y-16062214D01*
X13837643Y-16047929D01*
X13823357Y-16033643D01*
X13809071Y-16005071D01*
X13794786Y-15947929D01*
X13794786Y-15876500D01*
X13809071Y-15819357D01*
X13823357Y-15790786D01*
X13837643Y-15776500D01*
X13866214Y-15762214D01*
X14094786Y-16033643D02*
X14109071Y-16047929D01*
X14094786Y-16062214D01*
X14080500Y-16047929D01*
X14094786Y-16033643D01*
X14094786Y-16062214D01*
X14294786Y-15762214D02*
X14323357Y-15762214D01*
X14351928Y-15776500D01*
X14366214Y-15790786D01*
X14380500Y-15819357D01*
X14394786Y-15876500D01*
X14394786Y-15947929D01*
X14380500Y-16005071D01*
X14366214Y-16033643D01*
X14351928Y-16047929D01*
X14323357Y-16062214D01*
X14294786Y-16062214D01*
X14266214Y-16047929D01*
X14251928Y-16033643D01*
X14237643Y-16005071D01*
X14223357Y-15947929D01*
X14223357Y-15876500D01*
X14237643Y-15819357D01*
X14251928Y-15790786D01*
X14266214Y-15776500D01*
X14294786Y-15762214D01*
X14537643Y-16062214D02*
X14594786Y-16062214D01*
X14623357Y-16047929D01*
X14637643Y-16033643D01*
X14666214Y-15990786D01*
X14680500Y-15933643D01*
X14680500Y-15819357D01*
X14666214Y-15790786D01*
X14651928Y-15776500D01*
X14623357Y-15762214D01*
X14566214Y-15762214D01*
X14537643Y-15776500D01*
X14523357Y-15790786D01*
X14509071Y-15819357D01*
X14509071Y-15890786D01*
X14523357Y-15919357D01*
X14537643Y-15933643D01*
X14566214Y-15947929D01*
X14623357Y-15947929D01*
X14651928Y-15933643D01*
X14666214Y-15919357D01*
X14680500Y-15890786D01*
X14851928Y-15890786D02*
X14823357Y-15876500D01*
X14809071Y-15862214D01*
X14794786Y-15833643D01*
X14794786Y-15819357D01*
X14809071Y-15790786D01*
X14823357Y-15776500D01*
X14851928Y-15762214D01*
X14909071Y-15762214D01*
X14937643Y-15776500D01*
X14951928Y-15790786D01*
X14966214Y-15819357D01*
X14966214Y-15833643D01*
X14951928Y-15862214D01*
X14937643Y-15876500D01*
X14909071Y-15890786D01*
X14851928Y-15890786D01*
X14823357Y-15905071D01*
X14809071Y-15919357D01*
X14794786Y-15947929D01*
X14794786Y-16005071D01*
X14809071Y-16033643D01*
X14823357Y-16047929D01*
X14851928Y-16062214D01*
X14909071Y-16062214D01*
X14937643Y-16047929D01*
X14951928Y-16033643D01*
X14966214Y-16005071D01*
X14966214Y-15947929D01*
X14951928Y-15919357D01*
X14937643Y-15905071D01*
X14909071Y-15890786D01*
X15223357Y-15862214D02*
X15223357Y-16062214D01*
X15151928Y-15747929D02*
X15080500Y-15962214D01*
X15266214Y-15962214D01*
X15366214Y-15762214D02*
X15366214Y-15819357D01*
X15480500Y-15762214D02*
X15480500Y-15819357D01*
X15923357Y-16176500D02*
X15909071Y-16162214D01*
X15880500Y-16119357D01*
X15866214Y-16090786D01*
X15851928Y-16047929D01*
X15837643Y-15976500D01*
X15837643Y-15919357D01*
X15851928Y-15847929D01*
X15866214Y-15805071D01*
X15880500Y-15776500D01*
X15909071Y-15733643D01*
X15923357Y-15719357D01*
X16009071Y-15762214D02*
X16194786Y-15762214D01*
X16094786Y-15876500D01*
X16137643Y-15876500D01*
X16166214Y-15890786D01*
X16180500Y-15905071D01*
X16194786Y-15933643D01*
X16194786Y-16005071D01*
X16180500Y-16033643D01*
X16166214Y-16047929D01*
X16137643Y-16062214D01*
X16051928Y-16062214D01*
X16023357Y-16047929D01*
X16009071Y-16033643D01*
X16551928Y-16062214D02*
X16551928Y-15762214D01*
X16680500Y-16062214D02*
X16680500Y-15905071D01*
X16666214Y-15876500D01*
X16637643Y-15862214D01*
X16594786Y-15862214D01*
X16566214Y-15876500D01*
X16551928Y-15890786D01*
X16866214Y-16062214D02*
X16837643Y-16047929D01*
X16823357Y-16033643D01*
X16809071Y-16005071D01*
X16809071Y-15919357D01*
X16823357Y-15890786D01*
X16837643Y-15876500D01*
X16866214Y-15862214D01*
X16909071Y-15862214D01*
X16937643Y-15876500D01*
X16951928Y-15890786D01*
X16966214Y-15919357D01*
X16966214Y-16005071D01*
X16951928Y-16033643D01*
X16937643Y-16047929D01*
X16909071Y-16062214D01*
X16866214Y-16062214D01*
X17137643Y-16062214D02*
X17109071Y-16047929D01*
X17094786Y-16019357D01*
X17094786Y-15762214D01*
X17366214Y-16047929D02*
X17337643Y-16062214D01*
X17280500Y-16062214D01*
X17251928Y-16047929D01*
X17237643Y-16019357D01*
X17237643Y-15905071D01*
X17251928Y-15876500D01*
X17280500Y-15862214D01*
X17337643Y-15862214D01*
X17366214Y-15876500D01*
X17380500Y-15905071D01*
X17380500Y-15933643D01*
X17237643Y-15962214D01*
X17494786Y-16047929D02*
X17523357Y-16062214D01*
X17580500Y-16062214D01*
X17609071Y-16047929D01*
X17623357Y-16019357D01*
X17623357Y-16005071D01*
X17609071Y-15976500D01*
X17580500Y-15962214D01*
X17537643Y-15962214D01*
X17509071Y-15947929D01*
X17494786Y-15919357D01*
X17494786Y-15905071D01*
X17509071Y-15876500D01*
X17537643Y-15862214D01*
X17580500Y-15862214D01*
X17609071Y-15876500D01*
X17723357Y-16176500D02*
X17737643Y-16162214D01*
X17766214Y-16119357D01*
X17780500Y-16090786D01*
X17794786Y-16047929D01*
X17809071Y-15976500D01*
X17809071Y-15919357D01*
X17794786Y-15847929D01*
X17780500Y-15805071D01*
X17766214Y-15776500D01*
X17737643Y-15733643D01*
X17723357Y-15719357D01*
M02*
