%FSLAX45Y45*%
G04 Gerber Fmt 4.5, Leading zero omitted, Abs format (unit mm)*
G04 Created by KiCad (PCBNEW (5.1.10)-1) date 2021-10-09 13:26:59*
%MOMM*%
%LPD*%
G01*
G04 APERTURE LIST*
%TA.AperFunction,Profile*%
%ADD10C,0.050000*%
%TD*%
%ADD11C,0.200000*%
%ADD12C,0.300000*%
G04 APERTURE END LIST*
D10*
X13792200Y-11938000D02*
X15062200Y-11938000D01*
X13538200Y-12192000D02*
X10668000Y-12192000D01*
X15062200Y-11938000D02*
G75*
G02*
X15163800Y-12039600I0J-101600D01*
G01*
X13690600Y-12039600D02*
G75*
G02*
X13792200Y-11938000I101600J0D01*
G01*
X15316200Y-12192000D02*
G75*
G02*
X15163800Y-12039600I0J152400D01*
G01*
X13690600Y-12039600D02*
G75*
G02*
X13538200Y-12192000I-152400J0D01*
G01*
X17399000Y-8509000D02*
G75*
G02*
X18796000Y-9906000I0J-1397000D01*
G01*
X10668000Y-9906000D02*
G75*
G02*
X12065000Y-8509000I1397000J0D01*
G01*
X17399000Y-8509000D02*
X12065000Y-8509000D01*
X18796000Y-12192000D02*
X18796000Y-9906000D01*
X15316200Y-12192000D02*
X18796000Y-12192000D01*
X10668000Y-9906000D02*
X10668000Y-12192000D01*
D11*
X11124100Y-11260900D02*
X11189100Y-11325900D01*
X11189100Y-11260900D02*
X11124100Y-11325900D01*
X11124100Y-11838900D02*
X11189100Y-11903900D01*
X11189100Y-11838900D02*
X11124100Y-11903900D01*
X17702650Y-11468100D02*
G75*
G03*
X17702650Y-11468100I-49550J0D01*
G01*
X17804150Y-11976100D02*
G75*
G03*
X17804150Y-11976100I-49550J0D01*
G01*
X17905650Y-11468100D02*
G75*
G03*
X17905650Y-11468100I-49550J0D01*
G01*
X17500600Y-11539855D02*
X17500600Y-11777345D01*
X17381855Y-11658600D02*
X17619345Y-11658600D01*
X17500600Y-11857355D02*
X17500600Y-12094845D01*
X17381855Y-11976100D02*
X17619345Y-11976100D01*
X18008600Y-11539855D02*
X18008600Y-11777345D01*
X17889855Y-11658600D02*
X18127345Y-11658600D01*
X18008600Y-11857355D02*
X18008600Y-12094845D01*
X17889855Y-11976100D02*
X18127345Y-11976100D01*
D12*
X10951928Y-12660214D02*
X10951928Y-12360214D01*
X11023357Y-12360214D01*
X11066214Y-12374500D01*
X11094786Y-12403071D01*
X11109071Y-12431643D01*
X11123357Y-12488786D01*
X11123357Y-12531643D01*
X11109071Y-12588786D01*
X11094786Y-12617357D01*
X11066214Y-12645929D01*
X11023357Y-12660214D01*
X10951928Y-12660214D01*
X11251928Y-12660214D02*
X11251928Y-12460214D01*
X11251928Y-12517357D02*
X11266214Y-12488786D01*
X11280500Y-12474500D01*
X11309071Y-12460214D01*
X11337643Y-12460214D01*
X11437643Y-12660214D02*
X11437643Y-12460214D01*
X11437643Y-12360214D02*
X11423357Y-12374500D01*
X11437643Y-12388786D01*
X11451928Y-12374500D01*
X11437643Y-12360214D01*
X11437643Y-12388786D01*
X11623357Y-12660214D02*
X11594786Y-12645929D01*
X11580500Y-12617357D01*
X11580500Y-12360214D01*
X11780500Y-12660214D02*
X11751928Y-12645929D01*
X11737643Y-12617357D01*
X11737643Y-12360214D01*
X12123357Y-12660214D02*
X12123357Y-12360214D01*
X12223357Y-12574500D01*
X12323357Y-12360214D01*
X12323357Y-12660214D01*
X12594786Y-12660214D02*
X12594786Y-12503071D01*
X12580500Y-12474500D01*
X12551928Y-12460214D01*
X12494786Y-12460214D01*
X12466214Y-12474500D01*
X12594786Y-12645929D02*
X12566214Y-12660214D01*
X12494786Y-12660214D01*
X12466214Y-12645929D01*
X12451928Y-12617357D01*
X12451928Y-12588786D01*
X12466214Y-12560214D01*
X12494786Y-12545929D01*
X12566214Y-12545929D01*
X12594786Y-12531643D01*
X12737643Y-12460214D02*
X12737643Y-12760214D01*
X12737643Y-12474500D02*
X12766214Y-12460214D01*
X12823357Y-12460214D01*
X12851928Y-12474500D01*
X12866214Y-12488786D01*
X12880500Y-12517357D01*
X12880500Y-12603071D01*
X12866214Y-12631643D01*
X12851928Y-12645929D01*
X12823357Y-12660214D01*
X12766214Y-12660214D01*
X12737643Y-12645929D01*
X13009071Y-12631643D02*
X13023357Y-12645929D01*
X13009071Y-12660214D01*
X12994786Y-12645929D01*
X13009071Y-12631643D01*
X13009071Y-12660214D01*
X13009071Y-12474500D02*
X13023357Y-12488786D01*
X13009071Y-12503071D01*
X12994786Y-12488786D01*
X13009071Y-12474500D01*
X13009071Y-12503071D01*
X10600500Y-13122000D02*
X10665500Y-13187000D01*
X10665500Y-13122000D02*
X10600500Y-13187000D01*
X11009071Y-12990214D02*
X11037643Y-12990214D01*
X11066214Y-13004500D01*
X11080500Y-13018786D01*
X11094786Y-13047357D01*
X11109071Y-13104500D01*
X11109071Y-13175929D01*
X11094786Y-13233071D01*
X11080500Y-13261643D01*
X11066214Y-13275929D01*
X11037643Y-13290214D01*
X11009071Y-13290214D01*
X10980500Y-13275929D01*
X10966214Y-13261643D01*
X10951928Y-13233071D01*
X10937643Y-13175929D01*
X10937643Y-13104500D01*
X10951928Y-13047357D01*
X10966214Y-13018786D01*
X10980500Y-13004500D01*
X11009071Y-12990214D01*
X11237643Y-13261643D02*
X11251928Y-13275929D01*
X11237643Y-13290214D01*
X11223357Y-13275929D01*
X11237643Y-13261643D01*
X11237643Y-13290214D01*
X11509071Y-12990214D02*
X11451928Y-12990214D01*
X11423357Y-13004500D01*
X11409071Y-13018786D01*
X11380500Y-13061643D01*
X11366214Y-13118786D01*
X11366214Y-13233071D01*
X11380500Y-13261643D01*
X11394786Y-13275929D01*
X11423357Y-13290214D01*
X11480500Y-13290214D01*
X11509071Y-13275929D01*
X11523357Y-13261643D01*
X11537643Y-13233071D01*
X11537643Y-13161643D01*
X11523357Y-13133071D01*
X11509071Y-13118786D01*
X11480500Y-13104500D01*
X11423357Y-13104500D01*
X11394786Y-13118786D01*
X11380500Y-13133071D01*
X11366214Y-13161643D01*
X11809071Y-12990214D02*
X11666214Y-12990214D01*
X11651928Y-13133071D01*
X11666214Y-13118786D01*
X11694786Y-13104500D01*
X11766214Y-13104500D01*
X11794786Y-13118786D01*
X11809071Y-13133071D01*
X11823357Y-13161643D01*
X11823357Y-13233071D01*
X11809071Y-13261643D01*
X11794786Y-13275929D01*
X11766214Y-13290214D01*
X11694786Y-13290214D01*
X11666214Y-13275929D01*
X11651928Y-13261643D01*
X12009071Y-12990214D02*
X12037643Y-12990214D01*
X12066214Y-13004500D01*
X12080500Y-13018786D01*
X12094786Y-13047357D01*
X12109071Y-13104500D01*
X12109071Y-13175929D01*
X12094786Y-13233071D01*
X12080500Y-13261643D01*
X12066214Y-13275929D01*
X12037643Y-13290214D01*
X12009071Y-13290214D01*
X11980500Y-13275929D01*
X11966214Y-13261643D01*
X11951928Y-13233071D01*
X11937643Y-13175929D01*
X11937643Y-13104500D01*
X11951928Y-13047357D01*
X11966214Y-13018786D01*
X11980500Y-13004500D01*
X12009071Y-12990214D01*
X12237643Y-13290214D02*
X12237643Y-13090214D01*
X12237643Y-13118786D02*
X12251928Y-13104500D01*
X12280500Y-13090214D01*
X12323357Y-13090214D01*
X12351928Y-13104500D01*
X12366214Y-13133071D01*
X12366214Y-13290214D01*
X12366214Y-13133071D02*
X12380500Y-13104500D01*
X12409071Y-13090214D01*
X12451928Y-13090214D01*
X12480500Y-13104500D01*
X12494786Y-13133071D01*
X12494786Y-13290214D01*
X12637643Y-13290214D02*
X12637643Y-13090214D01*
X12637643Y-13118786D02*
X12651928Y-13104500D01*
X12680500Y-13090214D01*
X12723357Y-13090214D01*
X12751928Y-13104500D01*
X12766214Y-13133071D01*
X12766214Y-13290214D01*
X12766214Y-13133071D02*
X12780500Y-13104500D01*
X12809071Y-13090214D01*
X12851928Y-13090214D01*
X12880500Y-13104500D01*
X12894786Y-13133071D01*
X12894786Y-13290214D01*
X13480500Y-12975929D02*
X13223357Y-13361643D01*
X13866214Y-12990214D02*
X13894786Y-12990214D01*
X13923357Y-13004500D01*
X13937643Y-13018786D01*
X13951928Y-13047357D01*
X13966214Y-13104500D01*
X13966214Y-13175929D01*
X13951928Y-13233071D01*
X13937643Y-13261643D01*
X13923357Y-13275929D01*
X13894786Y-13290214D01*
X13866214Y-13290214D01*
X13837643Y-13275929D01*
X13823357Y-13261643D01*
X13809071Y-13233071D01*
X13794786Y-13175929D01*
X13794786Y-13104500D01*
X13809071Y-13047357D01*
X13823357Y-13018786D01*
X13837643Y-13004500D01*
X13866214Y-12990214D01*
X14094786Y-13261643D02*
X14109071Y-13275929D01*
X14094786Y-13290214D01*
X14080500Y-13275929D01*
X14094786Y-13261643D01*
X14094786Y-13290214D01*
X14294786Y-12990214D02*
X14323357Y-12990214D01*
X14351928Y-13004500D01*
X14366214Y-13018786D01*
X14380500Y-13047357D01*
X14394786Y-13104500D01*
X14394786Y-13175929D01*
X14380500Y-13233071D01*
X14366214Y-13261643D01*
X14351928Y-13275929D01*
X14323357Y-13290214D01*
X14294786Y-13290214D01*
X14266214Y-13275929D01*
X14251928Y-13261643D01*
X14237643Y-13233071D01*
X14223357Y-13175929D01*
X14223357Y-13104500D01*
X14237643Y-13047357D01*
X14251928Y-13018786D01*
X14266214Y-13004500D01*
X14294786Y-12990214D01*
X14509071Y-13018786D02*
X14523357Y-13004500D01*
X14551928Y-12990214D01*
X14623357Y-12990214D01*
X14651928Y-13004500D01*
X14666214Y-13018786D01*
X14680500Y-13047357D01*
X14680500Y-13075929D01*
X14666214Y-13118786D01*
X14494786Y-13290214D01*
X14680500Y-13290214D01*
X14951928Y-12990214D02*
X14809071Y-12990214D01*
X14794786Y-13133071D01*
X14809071Y-13118786D01*
X14837643Y-13104500D01*
X14909071Y-13104500D01*
X14937643Y-13118786D01*
X14951928Y-13133071D01*
X14966214Y-13161643D01*
X14966214Y-13233071D01*
X14951928Y-13261643D01*
X14937643Y-13275929D01*
X14909071Y-13290214D01*
X14837643Y-13290214D01*
X14809071Y-13275929D01*
X14794786Y-13261643D01*
X15223357Y-12990214D02*
X15166214Y-12990214D01*
X15137643Y-13004500D01*
X15123357Y-13018786D01*
X15094786Y-13061643D01*
X15080500Y-13118786D01*
X15080500Y-13233071D01*
X15094786Y-13261643D01*
X15109071Y-13275929D01*
X15137643Y-13290214D01*
X15194786Y-13290214D01*
X15223357Y-13275929D01*
X15237643Y-13261643D01*
X15251928Y-13233071D01*
X15251928Y-13161643D01*
X15237643Y-13133071D01*
X15223357Y-13118786D01*
X15194786Y-13104500D01*
X15137643Y-13104500D01*
X15109071Y-13118786D01*
X15094786Y-13133071D01*
X15080500Y-13161643D01*
X15366214Y-12990214D02*
X15366214Y-13047357D01*
X15480500Y-12990214D02*
X15480500Y-13047357D01*
X15923357Y-13404500D02*
X15909071Y-13390214D01*
X15880500Y-13347357D01*
X15866214Y-13318786D01*
X15851928Y-13275929D01*
X15837643Y-13204500D01*
X15837643Y-13147357D01*
X15851928Y-13075929D01*
X15866214Y-13033071D01*
X15880500Y-13004500D01*
X15909071Y-12961643D01*
X15923357Y-12947357D01*
X16023357Y-13018786D02*
X16037643Y-13004500D01*
X16066214Y-12990214D01*
X16137643Y-12990214D01*
X16166214Y-13004500D01*
X16180500Y-13018786D01*
X16194786Y-13047357D01*
X16194786Y-13075929D01*
X16180500Y-13118786D01*
X16009071Y-13290214D01*
X16194786Y-13290214D01*
X16551928Y-13290214D02*
X16551928Y-12990214D01*
X16680500Y-13290214D02*
X16680500Y-13133071D01*
X16666214Y-13104500D01*
X16637643Y-13090214D01*
X16594786Y-13090214D01*
X16566214Y-13104500D01*
X16551928Y-13118786D01*
X16866214Y-13290214D02*
X16837643Y-13275929D01*
X16823357Y-13261643D01*
X16809071Y-13233071D01*
X16809071Y-13147357D01*
X16823357Y-13118786D01*
X16837643Y-13104500D01*
X16866214Y-13090214D01*
X16909071Y-13090214D01*
X16937643Y-13104500D01*
X16951928Y-13118786D01*
X16966214Y-13147357D01*
X16966214Y-13233071D01*
X16951928Y-13261643D01*
X16937643Y-13275929D01*
X16909071Y-13290214D01*
X16866214Y-13290214D01*
X17137643Y-13290214D02*
X17109071Y-13275929D01*
X17094786Y-13247357D01*
X17094786Y-12990214D01*
X17366214Y-13275929D02*
X17337643Y-13290214D01*
X17280500Y-13290214D01*
X17251928Y-13275929D01*
X17237643Y-13247357D01*
X17237643Y-13133071D01*
X17251928Y-13104500D01*
X17280500Y-13090214D01*
X17337643Y-13090214D01*
X17366214Y-13104500D01*
X17380500Y-13133071D01*
X17380500Y-13161643D01*
X17237643Y-13190214D01*
X17494786Y-13275929D02*
X17523357Y-13290214D01*
X17580500Y-13290214D01*
X17609071Y-13275929D01*
X17623357Y-13247357D01*
X17623357Y-13233071D01*
X17609071Y-13204500D01*
X17580500Y-13190214D01*
X17537643Y-13190214D01*
X17509071Y-13175929D01*
X17494786Y-13147357D01*
X17494786Y-13133071D01*
X17509071Y-13104500D01*
X17537643Y-13090214D01*
X17580500Y-13090214D01*
X17609071Y-13104500D01*
X17723357Y-13404500D02*
X17737643Y-13390214D01*
X17766214Y-13347357D01*
X17780500Y-13318786D01*
X17794786Y-13275929D01*
X17809071Y-13204500D01*
X17809071Y-13147357D01*
X17794786Y-13075929D01*
X17780500Y-13033071D01*
X17766214Y-13004500D01*
X17737643Y-12961643D01*
X17723357Y-12947357D01*
X18266214Y-13404500D02*
X18251928Y-13390214D01*
X18223357Y-13347357D01*
X18209071Y-13318786D01*
X18194786Y-13275929D01*
X18180500Y-13204500D01*
X18180500Y-13147357D01*
X18194786Y-13075929D01*
X18209071Y-13033071D01*
X18223357Y-13004500D01*
X18251928Y-12961643D01*
X18266214Y-12947357D01*
X18380500Y-13090214D02*
X18380500Y-13290214D01*
X18380500Y-13118786D02*
X18394786Y-13104500D01*
X18423357Y-13090214D01*
X18466214Y-13090214D01*
X18494786Y-13104500D01*
X18509071Y-13133071D01*
X18509071Y-13290214D01*
X18694786Y-13290214D02*
X18666214Y-13275929D01*
X18651928Y-13261643D01*
X18637643Y-13233071D01*
X18637643Y-13147357D01*
X18651928Y-13118786D01*
X18666214Y-13104500D01*
X18694786Y-13090214D01*
X18737643Y-13090214D01*
X18766214Y-13104500D01*
X18780500Y-13118786D01*
X18794786Y-13147357D01*
X18794786Y-13233071D01*
X18780500Y-13261643D01*
X18766214Y-13275929D01*
X18737643Y-13290214D01*
X18694786Y-13290214D01*
X18880500Y-13090214D02*
X18994786Y-13090214D01*
X18923357Y-12990214D02*
X18923357Y-13247357D01*
X18937643Y-13275929D01*
X18966214Y-13290214D01*
X18994786Y-13290214D01*
X19323357Y-13090214D02*
X19323357Y-13390214D01*
X19323357Y-13104500D02*
X19351928Y-13090214D01*
X19409071Y-13090214D01*
X19437643Y-13104500D01*
X19451928Y-13118786D01*
X19466214Y-13147357D01*
X19466214Y-13233071D01*
X19451928Y-13261643D01*
X19437643Y-13275929D01*
X19409071Y-13290214D01*
X19351928Y-13290214D01*
X19323357Y-13275929D01*
X19637643Y-13290214D02*
X19609071Y-13275929D01*
X19594786Y-13247357D01*
X19594786Y-12990214D01*
X19880500Y-13290214D02*
X19880500Y-13133071D01*
X19866214Y-13104500D01*
X19837643Y-13090214D01*
X19780500Y-13090214D01*
X19751928Y-13104500D01*
X19880500Y-13275929D02*
X19851928Y-13290214D01*
X19780500Y-13290214D01*
X19751928Y-13275929D01*
X19737643Y-13247357D01*
X19737643Y-13218786D01*
X19751928Y-13190214D01*
X19780500Y-13175929D01*
X19851928Y-13175929D01*
X19880500Y-13161643D01*
X19980500Y-13090214D02*
X20094786Y-13090214D01*
X20023357Y-12990214D02*
X20023357Y-13247357D01*
X20037643Y-13275929D01*
X20066214Y-13290214D01*
X20094786Y-13290214D01*
X20309071Y-13275929D02*
X20280500Y-13290214D01*
X20223357Y-13290214D01*
X20194786Y-13275929D01*
X20180500Y-13247357D01*
X20180500Y-13133071D01*
X20194786Y-13104500D01*
X20223357Y-13090214D01*
X20280500Y-13090214D01*
X20309071Y-13104500D01*
X20323357Y-13133071D01*
X20323357Y-13161643D01*
X20180500Y-13190214D01*
X20580500Y-13290214D02*
X20580500Y-12990214D01*
X20580500Y-13275929D02*
X20551928Y-13290214D01*
X20494786Y-13290214D01*
X20466214Y-13275929D01*
X20451928Y-13261643D01*
X20437643Y-13233071D01*
X20437643Y-13147357D01*
X20451928Y-13118786D01*
X20466214Y-13104500D01*
X20494786Y-13090214D01*
X20551928Y-13090214D01*
X20580500Y-13104500D01*
X20694786Y-13404500D02*
X20709071Y-13390214D01*
X20737643Y-13347357D01*
X20751928Y-13318786D01*
X20766214Y-13275929D01*
X20780500Y-13204500D01*
X20780500Y-13147357D01*
X20766214Y-13075929D01*
X20751928Y-13033071D01*
X20737643Y-13004500D01*
X20709071Y-12961643D01*
X20694786Y-12947357D01*
X10665500Y-13550500D02*
G75*
G03*
X10665500Y-13550500I-49550J0D01*
G01*
X11009071Y-13386214D02*
X11037643Y-13386214D01*
X11066214Y-13400500D01*
X11080500Y-13414786D01*
X11094786Y-13443357D01*
X11109071Y-13500500D01*
X11109071Y-13571929D01*
X11094786Y-13629071D01*
X11080500Y-13657643D01*
X11066214Y-13671929D01*
X11037643Y-13686214D01*
X11009071Y-13686214D01*
X10980500Y-13671929D01*
X10966214Y-13657643D01*
X10951928Y-13629071D01*
X10937643Y-13571929D01*
X10937643Y-13500500D01*
X10951928Y-13443357D01*
X10966214Y-13414786D01*
X10980500Y-13400500D01*
X11009071Y-13386214D01*
X11237643Y-13657643D02*
X11251928Y-13671929D01*
X11237643Y-13686214D01*
X11223357Y-13671929D01*
X11237643Y-13657643D01*
X11237643Y-13686214D01*
X11394786Y-13686214D02*
X11451928Y-13686214D01*
X11480500Y-13671929D01*
X11494786Y-13657643D01*
X11523357Y-13614786D01*
X11537643Y-13557643D01*
X11537643Y-13443357D01*
X11523357Y-13414786D01*
X11509071Y-13400500D01*
X11480500Y-13386214D01*
X11423357Y-13386214D01*
X11394786Y-13400500D01*
X11380500Y-13414786D01*
X11366214Y-13443357D01*
X11366214Y-13514786D01*
X11380500Y-13543357D01*
X11394786Y-13557643D01*
X11423357Y-13571929D01*
X11480500Y-13571929D01*
X11509071Y-13557643D01*
X11523357Y-13543357D01*
X11537643Y-13514786D01*
X11680500Y-13686214D02*
X11737643Y-13686214D01*
X11766214Y-13671929D01*
X11780500Y-13657643D01*
X11809071Y-13614786D01*
X11823357Y-13557643D01*
X11823357Y-13443357D01*
X11809071Y-13414786D01*
X11794786Y-13400500D01*
X11766214Y-13386214D01*
X11709071Y-13386214D01*
X11680500Y-13400500D01*
X11666214Y-13414786D01*
X11651928Y-13443357D01*
X11651928Y-13514786D01*
X11666214Y-13543357D01*
X11680500Y-13557643D01*
X11709071Y-13571929D01*
X11766214Y-13571929D01*
X11794786Y-13557643D01*
X11809071Y-13543357D01*
X11823357Y-13514786D01*
X12109071Y-13686214D02*
X11937643Y-13686214D01*
X12023357Y-13686214D02*
X12023357Y-13386214D01*
X11994786Y-13429071D01*
X11966214Y-13457643D01*
X11937643Y-13471929D01*
X12237643Y-13686214D02*
X12237643Y-13486214D01*
X12237643Y-13514786D02*
X12251928Y-13500500D01*
X12280500Y-13486214D01*
X12323357Y-13486214D01*
X12351928Y-13500500D01*
X12366214Y-13529071D01*
X12366214Y-13686214D01*
X12366214Y-13529071D02*
X12380500Y-13500500D01*
X12409071Y-13486214D01*
X12451928Y-13486214D01*
X12480500Y-13500500D01*
X12494786Y-13529071D01*
X12494786Y-13686214D01*
X12637643Y-13686214D02*
X12637643Y-13486214D01*
X12637643Y-13514786D02*
X12651928Y-13500500D01*
X12680500Y-13486214D01*
X12723357Y-13486214D01*
X12751928Y-13500500D01*
X12766214Y-13529071D01*
X12766214Y-13686214D01*
X12766214Y-13529071D02*
X12780500Y-13500500D01*
X12809071Y-13486214D01*
X12851928Y-13486214D01*
X12880500Y-13500500D01*
X12894786Y-13529071D01*
X12894786Y-13686214D01*
X13480500Y-13371929D02*
X13223357Y-13757643D01*
X13866214Y-13386214D02*
X13894786Y-13386214D01*
X13923357Y-13400500D01*
X13937643Y-13414786D01*
X13951928Y-13443357D01*
X13966214Y-13500500D01*
X13966214Y-13571929D01*
X13951928Y-13629071D01*
X13937643Y-13657643D01*
X13923357Y-13671929D01*
X13894786Y-13686214D01*
X13866214Y-13686214D01*
X13837643Y-13671929D01*
X13823357Y-13657643D01*
X13809071Y-13629071D01*
X13794786Y-13571929D01*
X13794786Y-13500500D01*
X13809071Y-13443357D01*
X13823357Y-13414786D01*
X13837643Y-13400500D01*
X13866214Y-13386214D01*
X14094786Y-13657643D02*
X14109071Y-13671929D01*
X14094786Y-13686214D01*
X14080500Y-13671929D01*
X14094786Y-13657643D01*
X14094786Y-13686214D01*
X14294786Y-13386214D02*
X14323357Y-13386214D01*
X14351928Y-13400500D01*
X14366214Y-13414786D01*
X14380500Y-13443357D01*
X14394786Y-13500500D01*
X14394786Y-13571929D01*
X14380500Y-13629071D01*
X14366214Y-13657643D01*
X14351928Y-13671929D01*
X14323357Y-13686214D01*
X14294786Y-13686214D01*
X14266214Y-13671929D01*
X14251928Y-13657643D01*
X14237643Y-13629071D01*
X14223357Y-13571929D01*
X14223357Y-13500500D01*
X14237643Y-13443357D01*
X14251928Y-13414786D01*
X14266214Y-13400500D01*
X14294786Y-13386214D01*
X14494786Y-13386214D02*
X14680500Y-13386214D01*
X14580500Y-13500500D01*
X14623357Y-13500500D01*
X14651928Y-13514786D01*
X14666214Y-13529071D01*
X14680500Y-13557643D01*
X14680500Y-13629071D01*
X14666214Y-13657643D01*
X14651928Y-13671929D01*
X14623357Y-13686214D01*
X14537643Y-13686214D01*
X14509071Y-13671929D01*
X14494786Y-13657643D01*
X14823357Y-13686214D02*
X14880500Y-13686214D01*
X14909071Y-13671929D01*
X14923357Y-13657643D01*
X14951928Y-13614786D01*
X14966214Y-13557643D01*
X14966214Y-13443357D01*
X14951928Y-13414786D01*
X14937643Y-13400500D01*
X14909071Y-13386214D01*
X14851928Y-13386214D01*
X14823357Y-13400500D01*
X14809071Y-13414786D01*
X14794786Y-13443357D01*
X14794786Y-13514786D01*
X14809071Y-13543357D01*
X14823357Y-13557643D01*
X14851928Y-13571929D01*
X14909071Y-13571929D01*
X14937643Y-13557643D01*
X14951928Y-13543357D01*
X14966214Y-13514786D01*
X15151928Y-13386214D02*
X15180500Y-13386214D01*
X15209071Y-13400500D01*
X15223357Y-13414786D01*
X15237643Y-13443357D01*
X15251928Y-13500500D01*
X15251928Y-13571929D01*
X15237643Y-13629071D01*
X15223357Y-13657643D01*
X15209071Y-13671929D01*
X15180500Y-13686214D01*
X15151928Y-13686214D01*
X15123357Y-13671929D01*
X15109071Y-13657643D01*
X15094786Y-13629071D01*
X15080500Y-13571929D01*
X15080500Y-13500500D01*
X15094786Y-13443357D01*
X15109071Y-13414786D01*
X15123357Y-13400500D01*
X15151928Y-13386214D01*
X15366214Y-13386214D02*
X15366214Y-13443357D01*
X15480500Y-13386214D02*
X15480500Y-13443357D01*
X15923357Y-13800500D02*
X15909071Y-13786214D01*
X15880500Y-13743357D01*
X15866214Y-13714786D01*
X15851928Y-13671929D01*
X15837643Y-13600500D01*
X15837643Y-13543357D01*
X15851928Y-13471929D01*
X15866214Y-13429071D01*
X15880500Y-13400500D01*
X15909071Y-13357643D01*
X15923357Y-13343357D01*
X16009071Y-13386214D02*
X16194786Y-13386214D01*
X16094786Y-13500500D01*
X16137643Y-13500500D01*
X16166214Y-13514786D01*
X16180500Y-13529071D01*
X16194786Y-13557643D01*
X16194786Y-13629071D01*
X16180500Y-13657643D01*
X16166214Y-13671929D01*
X16137643Y-13686214D01*
X16051928Y-13686214D01*
X16023357Y-13671929D01*
X16009071Y-13657643D01*
X16551928Y-13686214D02*
X16551928Y-13386214D01*
X16680500Y-13686214D02*
X16680500Y-13529071D01*
X16666214Y-13500500D01*
X16637643Y-13486214D01*
X16594786Y-13486214D01*
X16566214Y-13500500D01*
X16551928Y-13514786D01*
X16866214Y-13686214D02*
X16837643Y-13671929D01*
X16823357Y-13657643D01*
X16809071Y-13629071D01*
X16809071Y-13543357D01*
X16823357Y-13514786D01*
X16837643Y-13500500D01*
X16866214Y-13486214D01*
X16909071Y-13486214D01*
X16937643Y-13500500D01*
X16951928Y-13514786D01*
X16966214Y-13543357D01*
X16966214Y-13629071D01*
X16951928Y-13657643D01*
X16937643Y-13671929D01*
X16909071Y-13686214D01*
X16866214Y-13686214D01*
X17137643Y-13686214D02*
X17109071Y-13671929D01*
X17094786Y-13643357D01*
X17094786Y-13386214D01*
X17366214Y-13671929D02*
X17337643Y-13686214D01*
X17280500Y-13686214D01*
X17251928Y-13671929D01*
X17237643Y-13643357D01*
X17237643Y-13529071D01*
X17251928Y-13500500D01*
X17280500Y-13486214D01*
X17337643Y-13486214D01*
X17366214Y-13500500D01*
X17380500Y-13529071D01*
X17380500Y-13557643D01*
X17237643Y-13586214D01*
X17494786Y-13671929D02*
X17523357Y-13686214D01*
X17580500Y-13686214D01*
X17609071Y-13671929D01*
X17623357Y-13643357D01*
X17623357Y-13629071D01*
X17609071Y-13600500D01*
X17580500Y-13586214D01*
X17537643Y-13586214D01*
X17509071Y-13571929D01*
X17494786Y-13543357D01*
X17494786Y-13529071D01*
X17509071Y-13500500D01*
X17537643Y-13486214D01*
X17580500Y-13486214D01*
X17609071Y-13500500D01*
X17723357Y-13800500D02*
X17737643Y-13786214D01*
X17766214Y-13743357D01*
X17780500Y-13714786D01*
X17794786Y-13671929D01*
X17809071Y-13600500D01*
X17809071Y-13543357D01*
X17794786Y-13471929D01*
X17780500Y-13429071D01*
X17766214Y-13400500D01*
X17737643Y-13357643D01*
X17723357Y-13343357D01*
X18266214Y-13800500D02*
X18251928Y-13786214D01*
X18223357Y-13743357D01*
X18209071Y-13714786D01*
X18194786Y-13671929D01*
X18180500Y-13600500D01*
X18180500Y-13543357D01*
X18194786Y-13471929D01*
X18209071Y-13429071D01*
X18223357Y-13400500D01*
X18251928Y-13357643D01*
X18266214Y-13343357D01*
X18380500Y-13486214D02*
X18380500Y-13686214D01*
X18380500Y-13514786D02*
X18394786Y-13500500D01*
X18423357Y-13486214D01*
X18466214Y-13486214D01*
X18494786Y-13500500D01*
X18509071Y-13529071D01*
X18509071Y-13686214D01*
X18694786Y-13686214D02*
X18666214Y-13671929D01*
X18651928Y-13657643D01*
X18637643Y-13629071D01*
X18637643Y-13543357D01*
X18651928Y-13514786D01*
X18666214Y-13500500D01*
X18694786Y-13486214D01*
X18737643Y-13486214D01*
X18766214Y-13500500D01*
X18780500Y-13514786D01*
X18794786Y-13543357D01*
X18794786Y-13629071D01*
X18780500Y-13657643D01*
X18766214Y-13671929D01*
X18737643Y-13686214D01*
X18694786Y-13686214D01*
X18880500Y-13486214D02*
X18994786Y-13486214D01*
X18923357Y-13386214D02*
X18923357Y-13643357D01*
X18937643Y-13671929D01*
X18966214Y-13686214D01*
X18994786Y-13686214D01*
X19323357Y-13486214D02*
X19323357Y-13786214D01*
X19323357Y-13500500D02*
X19351928Y-13486214D01*
X19409071Y-13486214D01*
X19437643Y-13500500D01*
X19451928Y-13514786D01*
X19466214Y-13543357D01*
X19466214Y-13629071D01*
X19451928Y-13657643D01*
X19437643Y-13671929D01*
X19409071Y-13686214D01*
X19351928Y-13686214D01*
X19323357Y-13671929D01*
X19637643Y-13686214D02*
X19609071Y-13671929D01*
X19594786Y-13643357D01*
X19594786Y-13386214D01*
X19880500Y-13686214D02*
X19880500Y-13529071D01*
X19866214Y-13500500D01*
X19837643Y-13486214D01*
X19780500Y-13486214D01*
X19751928Y-13500500D01*
X19880500Y-13671929D02*
X19851928Y-13686214D01*
X19780500Y-13686214D01*
X19751928Y-13671929D01*
X19737643Y-13643357D01*
X19737643Y-13614786D01*
X19751928Y-13586214D01*
X19780500Y-13571929D01*
X19851928Y-13571929D01*
X19880500Y-13557643D01*
X19980500Y-13486214D02*
X20094786Y-13486214D01*
X20023357Y-13386214D02*
X20023357Y-13643357D01*
X20037643Y-13671929D01*
X20066214Y-13686214D01*
X20094786Y-13686214D01*
X20309071Y-13671929D02*
X20280500Y-13686214D01*
X20223357Y-13686214D01*
X20194786Y-13671929D01*
X20180500Y-13643357D01*
X20180500Y-13529071D01*
X20194786Y-13500500D01*
X20223357Y-13486214D01*
X20280500Y-13486214D01*
X20309071Y-13500500D01*
X20323357Y-13529071D01*
X20323357Y-13557643D01*
X20180500Y-13586214D01*
X20580500Y-13686214D02*
X20580500Y-13386214D01*
X20580500Y-13671929D02*
X20551928Y-13686214D01*
X20494786Y-13686214D01*
X20466214Y-13671929D01*
X20451928Y-13657643D01*
X20437643Y-13629071D01*
X20437643Y-13543357D01*
X20451928Y-13514786D01*
X20466214Y-13500500D01*
X20494786Y-13486214D01*
X20551928Y-13486214D01*
X20580500Y-13500500D01*
X20694786Y-13800500D02*
X20709071Y-13786214D01*
X20737643Y-13743357D01*
X20751928Y-13714786D01*
X20766214Y-13671929D01*
X20780500Y-13600500D01*
X20780500Y-13543357D01*
X20766214Y-13471929D01*
X20751928Y-13429071D01*
X20737643Y-13400500D01*
X20709071Y-13357643D01*
X20694786Y-13343357D01*
X10546755Y-13827755D02*
X10546755Y-14065245D01*
X10428010Y-13946500D02*
X10665500Y-13946500D01*
X10937643Y-13810786D02*
X10951928Y-13796500D01*
X10980500Y-13782214D01*
X11051928Y-13782214D01*
X11080500Y-13796500D01*
X11094786Y-13810786D01*
X11109071Y-13839357D01*
X11109071Y-13867929D01*
X11094786Y-13910786D01*
X10923357Y-14082214D01*
X11109071Y-14082214D01*
X11237643Y-14053643D02*
X11251928Y-14067929D01*
X11237643Y-14082214D01*
X11223357Y-14067929D01*
X11237643Y-14053643D01*
X11237643Y-14082214D01*
X11351928Y-13782214D02*
X11537643Y-13782214D01*
X11437643Y-13896500D01*
X11480500Y-13896500D01*
X11509071Y-13910786D01*
X11523357Y-13925071D01*
X11537643Y-13953643D01*
X11537643Y-14025071D01*
X11523357Y-14053643D01*
X11509071Y-14067929D01*
X11480500Y-14082214D01*
X11394786Y-14082214D01*
X11366214Y-14067929D01*
X11351928Y-14053643D01*
X11637643Y-13782214D02*
X11837643Y-13782214D01*
X11709071Y-14082214D01*
X12094786Y-13782214D02*
X11951928Y-13782214D01*
X11937643Y-13925071D01*
X11951928Y-13910786D01*
X11980500Y-13896500D01*
X12051928Y-13896500D01*
X12080500Y-13910786D01*
X12094786Y-13925071D01*
X12109071Y-13953643D01*
X12109071Y-14025071D01*
X12094786Y-14053643D01*
X12080500Y-14067929D01*
X12051928Y-14082214D01*
X11980500Y-14082214D01*
X11951928Y-14067929D01*
X11937643Y-14053643D01*
X12237643Y-14082214D02*
X12237643Y-13882214D01*
X12237643Y-13910786D02*
X12251928Y-13896500D01*
X12280500Y-13882214D01*
X12323357Y-13882214D01*
X12351928Y-13896500D01*
X12366214Y-13925071D01*
X12366214Y-14082214D01*
X12366214Y-13925071D02*
X12380500Y-13896500D01*
X12409071Y-13882214D01*
X12451928Y-13882214D01*
X12480500Y-13896500D01*
X12494786Y-13925071D01*
X12494786Y-14082214D01*
X12637643Y-14082214D02*
X12637643Y-13882214D01*
X12637643Y-13910786D02*
X12651928Y-13896500D01*
X12680500Y-13882214D01*
X12723357Y-13882214D01*
X12751928Y-13896500D01*
X12766214Y-13925071D01*
X12766214Y-14082214D01*
X12766214Y-13925071D02*
X12780500Y-13896500D01*
X12809071Y-13882214D01*
X12851928Y-13882214D01*
X12880500Y-13896500D01*
X12894786Y-13925071D01*
X12894786Y-14082214D01*
X13480500Y-13767929D02*
X13223357Y-14153643D01*
X13866214Y-13782214D02*
X13894786Y-13782214D01*
X13923357Y-13796500D01*
X13937643Y-13810786D01*
X13951928Y-13839357D01*
X13966214Y-13896500D01*
X13966214Y-13967929D01*
X13951928Y-14025071D01*
X13937643Y-14053643D01*
X13923357Y-14067929D01*
X13894786Y-14082214D01*
X13866214Y-14082214D01*
X13837643Y-14067929D01*
X13823357Y-14053643D01*
X13809071Y-14025071D01*
X13794786Y-13967929D01*
X13794786Y-13896500D01*
X13809071Y-13839357D01*
X13823357Y-13810786D01*
X13837643Y-13796500D01*
X13866214Y-13782214D01*
X14094786Y-14053643D02*
X14109071Y-14067929D01*
X14094786Y-14082214D01*
X14080500Y-14067929D01*
X14094786Y-14053643D01*
X14094786Y-14082214D01*
X14294786Y-13782214D02*
X14323357Y-13782214D01*
X14351928Y-13796500D01*
X14366214Y-13810786D01*
X14380500Y-13839357D01*
X14394786Y-13896500D01*
X14394786Y-13967929D01*
X14380500Y-14025071D01*
X14366214Y-14053643D01*
X14351928Y-14067929D01*
X14323357Y-14082214D01*
X14294786Y-14082214D01*
X14266214Y-14067929D01*
X14251928Y-14053643D01*
X14237643Y-14025071D01*
X14223357Y-13967929D01*
X14223357Y-13896500D01*
X14237643Y-13839357D01*
X14251928Y-13810786D01*
X14266214Y-13796500D01*
X14294786Y-13782214D01*
X14537643Y-14082214D02*
X14594786Y-14082214D01*
X14623357Y-14067929D01*
X14637643Y-14053643D01*
X14666214Y-14010786D01*
X14680500Y-13953643D01*
X14680500Y-13839357D01*
X14666214Y-13810786D01*
X14651928Y-13796500D01*
X14623357Y-13782214D01*
X14566214Y-13782214D01*
X14537643Y-13796500D01*
X14523357Y-13810786D01*
X14509071Y-13839357D01*
X14509071Y-13910786D01*
X14523357Y-13939357D01*
X14537643Y-13953643D01*
X14566214Y-13967929D01*
X14623357Y-13967929D01*
X14651928Y-13953643D01*
X14666214Y-13939357D01*
X14680500Y-13910786D01*
X14780500Y-13782214D02*
X14966214Y-13782214D01*
X14866214Y-13896500D01*
X14909071Y-13896500D01*
X14937643Y-13910786D01*
X14951928Y-13925071D01*
X14966214Y-13953643D01*
X14966214Y-14025071D01*
X14951928Y-14053643D01*
X14937643Y-14067929D01*
X14909071Y-14082214D01*
X14823357Y-14082214D01*
X14794786Y-14067929D01*
X14780500Y-14053643D01*
X15237643Y-13782214D02*
X15094786Y-13782214D01*
X15080500Y-13925071D01*
X15094786Y-13910786D01*
X15123357Y-13896500D01*
X15194786Y-13896500D01*
X15223357Y-13910786D01*
X15237643Y-13925071D01*
X15251928Y-13953643D01*
X15251928Y-14025071D01*
X15237643Y-14053643D01*
X15223357Y-14067929D01*
X15194786Y-14082214D01*
X15123357Y-14082214D01*
X15094786Y-14067929D01*
X15080500Y-14053643D01*
X15366214Y-13782214D02*
X15366214Y-13839357D01*
X15480500Y-13782214D02*
X15480500Y-13839357D01*
X15923357Y-14196500D02*
X15909071Y-14182214D01*
X15880500Y-14139357D01*
X15866214Y-14110786D01*
X15851928Y-14067929D01*
X15837643Y-13996500D01*
X15837643Y-13939357D01*
X15851928Y-13867929D01*
X15866214Y-13825071D01*
X15880500Y-13796500D01*
X15909071Y-13753643D01*
X15923357Y-13739357D01*
X16166214Y-13882214D02*
X16166214Y-14082214D01*
X16094786Y-13767929D02*
X16023357Y-13982214D01*
X16209071Y-13982214D01*
X16551928Y-14082214D02*
X16551928Y-13782214D01*
X16680500Y-14082214D02*
X16680500Y-13925071D01*
X16666214Y-13896500D01*
X16637643Y-13882214D01*
X16594786Y-13882214D01*
X16566214Y-13896500D01*
X16551928Y-13910786D01*
X16866214Y-14082214D02*
X16837643Y-14067929D01*
X16823357Y-14053643D01*
X16809071Y-14025071D01*
X16809071Y-13939357D01*
X16823357Y-13910786D01*
X16837643Y-13896500D01*
X16866214Y-13882214D01*
X16909071Y-13882214D01*
X16937643Y-13896500D01*
X16951928Y-13910786D01*
X16966214Y-13939357D01*
X16966214Y-14025071D01*
X16951928Y-14053643D01*
X16937643Y-14067929D01*
X16909071Y-14082214D01*
X16866214Y-14082214D01*
X17137643Y-14082214D02*
X17109071Y-14067929D01*
X17094786Y-14039357D01*
X17094786Y-13782214D01*
X17366214Y-14067929D02*
X17337643Y-14082214D01*
X17280500Y-14082214D01*
X17251928Y-14067929D01*
X17237643Y-14039357D01*
X17237643Y-13925071D01*
X17251928Y-13896500D01*
X17280500Y-13882214D01*
X17337643Y-13882214D01*
X17366214Y-13896500D01*
X17380500Y-13925071D01*
X17380500Y-13953643D01*
X17237643Y-13982214D01*
X17494786Y-14067929D02*
X17523357Y-14082214D01*
X17580500Y-14082214D01*
X17609071Y-14067929D01*
X17623357Y-14039357D01*
X17623357Y-14025071D01*
X17609071Y-13996500D01*
X17580500Y-13982214D01*
X17537643Y-13982214D01*
X17509071Y-13967929D01*
X17494786Y-13939357D01*
X17494786Y-13925071D01*
X17509071Y-13896500D01*
X17537643Y-13882214D01*
X17580500Y-13882214D01*
X17609071Y-13896500D01*
X17723357Y-14196500D02*
X17737643Y-14182214D01*
X17766214Y-14139357D01*
X17780500Y-14110786D01*
X17794786Y-14067929D01*
X17809071Y-13996500D01*
X17809071Y-13939357D01*
X17794786Y-13867929D01*
X17780500Y-13825071D01*
X17766214Y-13796500D01*
X17737643Y-13753643D01*
X17723357Y-13739357D01*
X18266214Y-14196500D02*
X18251928Y-14182214D01*
X18223357Y-14139357D01*
X18209071Y-14110786D01*
X18194786Y-14067929D01*
X18180500Y-13996500D01*
X18180500Y-13939357D01*
X18194786Y-13867929D01*
X18209071Y-13825071D01*
X18223357Y-13796500D01*
X18251928Y-13753643D01*
X18266214Y-13739357D01*
X18380500Y-13882214D02*
X18380500Y-14082214D01*
X18380500Y-13910786D02*
X18394786Y-13896500D01*
X18423357Y-13882214D01*
X18466214Y-13882214D01*
X18494786Y-13896500D01*
X18509071Y-13925071D01*
X18509071Y-14082214D01*
X18694786Y-14082214D02*
X18666214Y-14067929D01*
X18651928Y-14053643D01*
X18637643Y-14025071D01*
X18637643Y-13939357D01*
X18651928Y-13910786D01*
X18666214Y-13896500D01*
X18694786Y-13882214D01*
X18737643Y-13882214D01*
X18766214Y-13896500D01*
X18780500Y-13910786D01*
X18794786Y-13939357D01*
X18794786Y-14025071D01*
X18780500Y-14053643D01*
X18766214Y-14067929D01*
X18737643Y-14082214D01*
X18694786Y-14082214D01*
X18880500Y-13882214D02*
X18994786Y-13882214D01*
X18923357Y-13782214D02*
X18923357Y-14039357D01*
X18937643Y-14067929D01*
X18966214Y-14082214D01*
X18994786Y-14082214D01*
X19323357Y-13882214D02*
X19323357Y-14182214D01*
X19323357Y-13896500D02*
X19351928Y-13882214D01*
X19409071Y-13882214D01*
X19437643Y-13896500D01*
X19451928Y-13910786D01*
X19466214Y-13939357D01*
X19466214Y-14025071D01*
X19451928Y-14053643D01*
X19437643Y-14067929D01*
X19409071Y-14082214D01*
X19351928Y-14082214D01*
X19323357Y-14067929D01*
X19637643Y-14082214D02*
X19609071Y-14067929D01*
X19594786Y-14039357D01*
X19594786Y-13782214D01*
X19880500Y-14082214D02*
X19880500Y-13925071D01*
X19866214Y-13896500D01*
X19837643Y-13882214D01*
X19780500Y-13882214D01*
X19751928Y-13896500D01*
X19880500Y-14067929D02*
X19851928Y-14082214D01*
X19780500Y-14082214D01*
X19751928Y-14067929D01*
X19737643Y-14039357D01*
X19737643Y-14010786D01*
X19751928Y-13982214D01*
X19780500Y-13967929D01*
X19851928Y-13967929D01*
X19880500Y-13953643D01*
X19980500Y-13882214D02*
X20094786Y-13882214D01*
X20023357Y-13782214D02*
X20023357Y-14039357D01*
X20037643Y-14067929D01*
X20066214Y-14082214D01*
X20094786Y-14082214D01*
X20309071Y-14067929D02*
X20280500Y-14082214D01*
X20223357Y-14082214D01*
X20194786Y-14067929D01*
X20180500Y-14039357D01*
X20180500Y-13925071D01*
X20194786Y-13896500D01*
X20223357Y-13882214D01*
X20280500Y-13882214D01*
X20309071Y-13896500D01*
X20323357Y-13925071D01*
X20323357Y-13953643D01*
X20180500Y-13982214D01*
X20580500Y-14082214D02*
X20580500Y-13782214D01*
X20580500Y-14067929D02*
X20551928Y-14082214D01*
X20494786Y-14082214D01*
X20466214Y-14067929D01*
X20451928Y-14053643D01*
X20437643Y-14025071D01*
X20437643Y-13939357D01*
X20451928Y-13910786D01*
X20466214Y-13896500D01*
X20494786Y-13882214D01*
X20551928Y-13882214D01*
X20580500Y-13896500D01*
X20694786Y-14196500D02*
X20709071Y-14182214D01*
X20737643Y-14139357D01*
X20751928Y-14110786D01*
X20766214Y-14067929D01*
X20780500Y-13996500D01*
X20780500Y-13939357D01*
X20766214Y-13867929D01*
X20751928Y-13825071D01*
X20737643Y-13796500D01*
X20709071Y-13753643D01*
X20694786Y-13739357D01*
M02*
