G04 #@! TF.GenerationSoftware,KiCad,Pcbnew,(5.1.10)-1*
G04 #@! TF.CreationDate,2021-10-09T13:26:38+02:00*
G04 #@! TF.ProjectId,AirQualitySensor,41697251-7561-46c6-9974-7953656e736f,rev?*
G04 #@! TF.SameCoordinates,Original*
G04 #@! TF.FileFunction,Legend,Top*
G04 #@! TF.FilePolarity,Positive*
%FSLAX46Y46*%
G04 Gerber Fmt 4.6, Leading zero omitted, Abs format (unit mm)*
G04 Created by KiCad (PCBNEW (5.1.10)-1) date 2021-10-09 13:26:38*
%MOMM*%
%LPD*%
G01*
G04 APERTURE LIST*
%ADD10C,0.065000*%
%ADD11C,0.150000*%
%ADD12C,0.300000*%
%ADD13C,0.120000*%
%ADD14C,0.080000*%
%ADD15C,5.000000*%
%ADD16C,1.800000*%
%ADD17R,1.800000X1.800000*%
%ADD18O,1.700000X1.700000*%
%ADD19R,1.700000X1.700000*%
%ADD20C,0.787000*%
%ADD21C,0.991000*%
%ADD22C,2.374900*%
%ADD23R,0.800000X0.900000*%
%ADD24R,1.450000X0.600000*%
%ADD25R,1.450000X0.300000*%
%ADD26O,2.100000X1.000000*%
%ADD27C,0.650000*%
%ADD28O,1.600000X1.000000*%
%ADD29C,1.524000*%
%ADD30C,1.700000*%
%ADD31C,1.337000*%
%ADD32C,1.200000*%
G04 APERTURE END LIST*
D10*
X156537964Y-90134285D02*
X156371297Y-90134285D01*
X156371297Y-90396190D02*
X156371297Y-89896190D01*
X156609392Y-89896190D01*
X156799869Y-90396190D02*
X156799869Y-90062857D01*
X156799869Y-89896190D02*
X156776059Y-89920000D01*
X156799869Y-89943809D01*
X156823678Y-89920000D01*
X156799869Y-89896190D01*
X156799869Y-89943809D01*
X157037964Y-90062857D02*
X157037964Y-90396190D01*
X157037964Y-90110476D02*
X157061773Y-90086666D01*
X157109392Y-90062857D01*
X157180821Y-90062857D01*
X157228440Y-90086666D01*
X157252250Y-90134285D01*
X157252250Y-90396190D01*
X157561773Y-90396190D02*
X157514154Y-90372380D01*
X157490345Y-90348571D01*
X157466535Y-90300952D01*
X157466535Y-90158095D01*
X157490345Y-90110476D01*
X157514154Y-90086666D01*
X157561773Y-90062857D01*
X157633202Y-90062857D01*
X157680821Y-90086666D01*
X157704630Y-90110476D01*
X157728440Y-90158095D01*
X157728440Y-90300952D01*
X157704630Y-90348571D01*
X157680821Y-90372380D01*
X157633202Y-90396190D01*
X157561773Y-90396190D01*
X157942726Y-90396190D02*
X157942726Y-90062857D01*
X157942726Y-90110476D02*
X157966535Y-90086666D01*
X158014154Y-90062857D01*
X158085583Y-90062857D01*
X158133202Y-90086666D01*
X158157011Y-90134285D01*
X158157011Y-90396190D01*
X158157011Y-90134285D02*
X158180821Y-90086666D01*
X158228440Y-90062857D01*
X158299869Y-90062857D01*
X158347488Y-90086666D01*
X158371297Y-90134285D01*
X158371297Y-90396190D01*
X158609392Y-90062857D02*
X158609392Y-90396190D01*
X158609392Y-90110476D02*
X158633202Y-90086666D01*
X158680821Y-90062857D01*
X158752250Y-90062857D01*
X158799869Y-90086666D01*
X158823678Y-90134285D01*
X158823678Y-90396190D01*
X159061773Y-90396190D02*
X159061773Y-90062857D01*
X159061773Y-89896190D02*
X159037964Y-89920000D01*
X159061773Y-89943809D01*
X159085583Y-89920000D01*
X159061773Y-89896190D01*
X159061773Y-89943809D01*
X159276059Y-90372380D02*
X159323678Y-90396190D01*
X159418916Y-90396190D01*
X159466535Y-90372380D01*
X159490345Y-90324761D01*
X159490345Y-90300952D01*
X159466535Y-90253333D01*
X159418916Y-90229523D01*
X159347488Y-90229523D01*
X159299869Y-90205714D01*
X159276059Y-90158095D01*
X159276059Y-90134285D01*
X159299869Y-90086666D01*
X159347488Y-90062857D01*
X159418916Y-90062857D01*
X159466535Y-90086666D01*
X159728440Y-89896190D02*
X159680821Y-89991428D01*
X159918916Y-90372380D02*
X159966535Y-90396190D01*
X160061773Y-90396190D01*
X160109392Y-90372380D01*
X160133202Y-90324761D01*
X160133202Y-90300952D01*
X160109392Y-90253333D01*
X160061773Y-90229523D01*
X159990345Y-90229523D01*
X159942726Y-90205714D01*
X159918916Y-90158095D01*
X159918916Y-90134285D01*
X159942726Y-90086666D01*
X159990345Y-90062857D01*
X160061773Y-90062857D01*
X160109392Y-90086666D01*
D11*
X155227976Y-91606666D02*
X155704166Y-91606666D01*
X155132738Y-91892380D02*
X155466071Y-90892380D01*
X155799404Y-91892380D01*
X156132738Y-91892380D02*
X156132738Y-91225714D01*
X156132738Y-90892380D02*
X156085119Y-90940000D01*
X156132738Y-90987619D01*
X156180357Y-90940000D01*
X156132738Y-90892380D01*
X156132738Y-90987619D01*
X156608928Y-91892380D02*
X156608928Y-91225714D01*
X156608928Y-91416190D02*
X156656547Y-91320952D01*
X156704166Y-91273333D01*
X156799404Y-91225714D01*
X156894642Y-91225714D01*
X157894642Y-91987619D02*
X157799404Y-91940000D01*
X157704166Y-91844761D01*
X157561309Y-91701904D01*
X157466071Y-91654285D01*
X157370833Y-91654285D01*
X157418452Y-91892380D02*
X157323214Y-91844761D01*
X157227976Y-91749523D01*
X157180357Y-91559047D01*
X157180357Y-91225714D01*
X157227976Y-91035238D01*
X157323214Y-90940000D01*
X157418452Y-90892380D01*
X157608928Y-90892380D01*
X157704166Y-90940000D01*
X157799404Y-91035238D01*
X157847023Y-91225714D01*
X157847023Y-91559047D01*
X157799404Y-91749523D01*
X157704166Y-91844761D01*
X157608928Y-91892380D01*
X157418452Y-91892380D01*
X158704166Y-91225714D02*
X158704166Y-91892380D01*
X158275595Y-91225714D02*
X158275595Y-91749523D01*
X158323214Y-91844761D01*
X158418452Y-91892380D01*
X158561309Y-91892380D01*
X158656547Y-91844761D01*
X158704166Y-91797142D01*
X159608928Y-91892380D02*
X159608928Y-91368571D01*
X159561309Y-91273333D01*
X159466071Y-91225714D01*
X159275595Y-91225714D01*
X159180357Y-91273333D01*
X159608928Y-91844761D02*
X159513690Y-91892380D01*
X159275595Y-91892380D01*
X159180357Y-91844761D01*
X159132738Y-91749523D01*
X159132738Y-91654285D01*
X159180357Y-91559047D01*
X159275595Y-91511428D01*
X159513690Y-91511428D01*
X159608928Y-91463809D01*
X160227976Y-91892380D02*
X160132738Y-91844761D01*
X160085119Y-91749523D01*
X160085119Y-90892380D01*
X160608928Y-91892380D02*
X160608928Y-91225714D01*
X160608928Y-90892380D02*
X160561309Y-90940000D01*
X160608928Y-90987619D01*
X160656547Y-90940000D01*
X160608928Y-90892380D01*
X160608928Y-90987619D01*
X160942261Y-91225714D02*
X161323214Y-91225714D01*
X161085119Y-90892380D02*
X161085119Y-91749523D01*
X161132738Y-91844761D01*
X161227976Y-91892380D01*
X161323214Y-91892380D01*
X161561309Y-91225714D02*
X161799404Y-91892380D01*
X162037500Y-91225714D02*
X161799404Y-91892380D01*
X161704166Y-92130476D01*
X161656547Y-92178095D01*
X161561309Y-92225714D01*
X162370833Y-91844761D02*
X162513690Y-91892380D01*
X162751785Y-91892380D01*
X162847023Y-91844761D01*
X162894642Y-91797142D01*
X162942261Y-91701904D01*
X162942261Y-91606666D01*
X162894642Y-91511428D01*
X162847023Y-91463809D01*
X162751785Y-91416190D01*
X162561309Y-91368571D01*
X162466071Y-91320952D01*
X162418452Y-91273333D01*
X162370833Y-91178095D01*
X162370833Y-91082857D01*
X162418452Y-90987619D01*
X162466071Y-90940000D01*
X162561309Y-90892380D01*
X162799404Y-90892380D01*
X162942261Y-90940000D01*
X163751785Y-91844761D02*
X163656547Y-91892380D01*
X163466071Y-91892380D01*
X163370833Y-91844761D01*
X163323214Y-91749523D01*
X163323214Y-91368571D01*
X163370833Y-91273333D01*
X163466071Y-91225714D01*
X163656547Y-91225714D01*
X163751785Y-91273333D01*
X163799404Y-91368571D01*
X163799404Y-91463809D01*
X163323214Y-91559047D01*
X164227976Y-91225714D02*
X164227976Y-91892380D01*
X164227976Y-91320952D02*
X164275595Y-91273333D01*
X164370833Y-91225714D01*
X164513690Y-91225714D01*
X164608928Y-91273333D01*
X164656547Y-91368571D01*
X164656547Y-91892380D01*
X165085119Y-91844761D02*
X165180357Y-91892380D01*
X165370833Y-91892380D01*
X165466071Y-91844761D01*
X165513690Y-91749523D01*
X165513690Y-91701904D01*
X165466071Y-91606666D01*
X165370833Y-91559047D01*
X165227976Y-91559047D01*
X165132738Y-91511428D01*
X165085119Y-91416190D01*
X165085119Y-91368571D01*
X165132738Y-91273333D01*
X165227976Y-91225714D01*
X165370833Y-91225714D01*
X165466071Y-91273333D01*
X166085119Y-91892380D02*
X165989880Y-91844761D01*
X165942261Y-91797142D01*
X165894642Y-91701904D01*
X165894642Y-91416190D01*
X165942261Y-91320952D01*
X165989880Y-91273333D01*
X166085119Y-91225714D01*
X166227976Y-91225714D01*
X166323214Y-91273333D01*
X166370833Y-91320952D01*
X166418452Y-91416190D01*
X166418452Y-91701904D01*
X166370833Y-91797142D01*
X166323214Y-91844761D01*
X166227976Y-91892380D01*
X166085119Y-91892380D01*
X166847023Y-91892380D02*
X166847023Y-91225714D01*
X166847023Y-91416190D02*
X166894642Y-91320952D01*
X166942261Y-91273333D01*
X167037500Y-91225714D01*
X167132738Y-91225714D01*
X168132738Y-91225714D02*
X168370833Y-91892380D01*
X168608928Y-91225714D01*
X169513690Y-91892380D02*
X168942261Y-91892380D01*
X169227976Y-91892380D02*
X169227976Y-90892380D01*
X169132738Y-91035238D01*
X169037500Y-91130476D01*
X168942261Y-91178095D01*
X169942261Y-91797142D02*
X169989880Y-91844761D01*
X169942261Y-91892380D01*
X169894642Y-91844761D01*
X169942261Y-91797142D01*
X169942261Y-91892380D01*
X170608928Y-90892380D02*
X170704166Y-90892380D01*
X170799404Y-90940000D01*
X170847023Y-90987619D01*
X170894642Y-91082857D01*
X170942261Y-91273333D01*
X170942261Y-91511428D01*
X170894642Y-91701904D01*
X170847023Y-91797142D01*
X170799404Y-91844761D01*
X170704166Y-91892380D01*
X170608928Y-91892380D01*
X170513690Y-91844761D01*
X170466071Y-91797142D01*
X170418452Y-91701904D01*
X170370833Y-91511428D01*
X170370833Y-91273333D01*
X170418452Y-91082857D01*
X170466071Y-90987619D01*
X170513690Y-90940000D01*
X170608928Y-90892380D01*
D12*
X143426571Y-94896571D02*
X143426571Y-95610857D01*
X141926571Y-95610857D01*
X142640857Y-94396571D02*
X142640857Y-93896571D01*
X143426571Y-93682285D02*
X143426571Y-94396571D01*
X141926571Y-94396571D01*
X141926571Y-93682285D01*
X143426571Y-93039428D02*
X141926571Y-93039428D01*
X141926571Y-92682285D01*
X141998000Y-92468000D01*
X142140857Y-92325142D01*
X142283714Y-92253714D01*
X142569428Y-92182285D01*
X142783714Y-92182285D01*
X143069428Y-92253714D01*
X143212285Y-92325142D01*
X143355142Y-92468000D01*
X143426571Y-92682285D01*
X143426571Y-93039428D01*
X143426571Y-90753714D02*
X143426571Y-91610857D01*
X143426571Y-91182285D02*
X141926571Y-91182285D01*
X142140857Y-91325142D01*
X142283714Y-91468000D01*
X142355142Y-91610857D01*
X141140571Y-94896571D02*
X141140571Y-95610857D01*
X139640571Y-95610857D01*
X140354857Y-94396571D02*
X140354857Y-93896571D01*
X141140571Y-93682285D02*
X141140571Y-94396571D01*
X139640571Y-94396571D01*
X139640571Y-93682285D01*
X141140571Y-93039428D02*
X139640571Y-93039428D01*
X139640571Y-92682285D01*
X139712000Y-92468000D01*
X139854857Y-92325142D01*
X139997714Y-92253714D01*
X140283428Y-92182285D01*
X140497714Y-92182285D01*
X140783428Y-92253714D01*
X140926285Y-92325142D01*
X141069142Y-92468000D01*
X141140571Y-92682285D01*
X141140571Y-93039428D01*
X139640571Y-91253714D02*
X139640571Y-91110857D01*
X139712000Y-90968000D01*
X139783428Y-90896571D01*
X139926285Y-90825142D01*
X140212000Y-90753714D01*
X140569142Y-90753714D01*
X140854857Y-90825142D01*
X140997714Y-90896571D01*
X141069142Y-90968000D01*
X141140571Y-91110857D01*
X141140571Y-91253714D01*
X141069142Y-91396571D01*
X140997714Y-91468000D01*
X140854857Y-91539428D01*
X140569142Y-91610857D01*
X140212000Y-91610857D01*
X139926285Y-91539428D01*
X139783428Y-91468000D01*
X139712000Y-91396571D01*
X139640571Y-91253714D01*
D11*
X182776761Y-121245142D02*
X182824380Y-121102285D01*
X182824380Y-120864190D01*
X182776761Y-120768952D01*
X182729142Y-120721333D01*
X182633904Y-120673714D01*
X182538666Y-120673714D01*
X182443428Y-120721333D01*
X182395809Y-120768952D01*
X182348190Y-120864190D01*
X182300571Y-121054666D01*
X182252952Y-121149904D01*
X182205333Y-121197523D01*
X182110095Y-121245142D01*
X182014857Y-121245142D01*
X181919619Y-121197523D01*
X181872000Y-121149904D01*
X181824380Y-121054666D01*
X181824380Y-120816571D01*
X181872000Y-120673714D01*
X181824380Y-120340380D02*
X182824380Y-120102285D01*
X182110095Y-119911809D01*
X182824380Y-119721333D01*
X181824380Y-119483238D01*
X182824380Y-119102285D02*
X181824380Y-119102285D01*
X181824380Y-118864190D01*
X181872000Y-118721333D01*
X181967238Y-118626095D01*
X182062476Y-118578476D01*
X182252952Y-118530857D01*
X182395809Y-118530857D01*
X182586285Y-118578476D01*
X182681523Y-118626095D01*
X182776761Y-118721333D01*
X182824380Y-118864190D01*
X182824380Y-119102285D01*
X154138380Y-121483238D02*
X154947904Y-121483238D01*
X155043142Y-121435619D01*
X155090761Y-121388000D01*
X155138380Y-121292761D01*
X155138380Y-121102285D01*
X155090761Y-121007047D01*
X155043142Y-120959428D01*
X154947904Y-120911809D01*
X154138380Y-120911809D01*
X154852666Y-120483238D02*
X154852666Y-120007047D01*
X155138380Y-120578476D02*
X154138380Y-120245142D01*
X155138380Y-119911809D01*
X155138380Y-119007047D02*
X154662190Y-119340380D01*
X155138380Y-119578476D02*
X154138380Y-119578476D01*
X154138380Y-119197523D01*
X154186000Y-119102285D01*
X154233619Y-119054666D01*
X154328857Y-119007047D01*
X154471714Y-119007047D01*
X154566952Y-119054666D01*
X154614571Y-119102285D01*
X154662190Y-119197523D01*
X154662190Y-119578476D01*
X154138380Y-118721333D02*
X154138380Y-118149904D01*
X155138380Y-118435619D02*
X154138380Y-118435619D01*
X158964380Y-118425261D02*
X158964380Y-117853833D01*
X159964380Y-118139547D02*
X158964380Y-118139547D01*
X158964380Y-117615738D02*
X159964380Y-116949071D01*
X158964380Y-116949071D02*
X159964380Y-117615738D01*
X159964380Y-116568119D02*
X158964380Y-116568119D01*
X158964380Y-116330023D01*
X159012000Y-116187166D01*
X159107238Y-116091928D01*
X159202476Y-116044309D01*
X159392952Y-115996690D01*
X159535809Y-115996690D01*
X159726285Y-116044309D01*
X159821523Y-116091928D01*
X159916761Y-116187166D01*
X159964380Y-116330023D01*
X159964380Y-116568119D01*
X162504380Y-117710976D02*
X162028190Y-118044309D01*
X162504380Y-118282404D02*
X161504380Y-118282404D01*
X161504380Y-117901452D01*
X161552000Y-117806214D01*
X161599619Y-117758595D01*
X161694857Y-117710976D01*
X161837714Y-117710976D01*
X161932952Y-117758595D01*
X161980571Y-117806214D01*
X162028190Y-117901452D01*
X162028190Y-118282404D01*
X161504380Y-117377642D02*
X162504380Y-116710976D01*
X161504380Y-116710976D02*
X162504380Y-117377642D01*
X162504380Y-116330023D02*
X161504380Y-116330023D01*
X161504380Y-116091928D01*
X161552000Y-115949071D01*
X161647238Y-115853833D01*
X161742476Y-115806214D01*
X161932952Y-115758595D01*
X162075809Y-115758595D01*
X162266285Y-115806214D01*
X162361523Y-115853833D01*
X162456761Y-115949071D01*
X162504380Y-116091928D01*
X162504380Y-116330023D01*
X169172000Y-117758595D02*
X169124380Y-117853833D01*
X169124380Y-117996690D01*
X169172000Y-118139547D01*
X169267238Y-118234785D01*
X169362476Y-118282404D01*
X169552952Y-118330023D01*
X169695809Y-118330023D01*
X169886285Y-118282404D01*
X169981523Y-118234785D01*
X170076761Y-118139547D01*
X170124380Y-117996690D01*
X170124380Y-117901452D01*
X170076761Y-117758595D01*
X170029142Y-117710976D01*
X169695809Y-117710976D01*
X169695809Y-117901452D01*
X170124380Y-117282404D02*
X169124380Y-117282404D01*
X170124380Y-116710976D01*
X169124380Y-116710976D01*
X170124380Y-116234785D02*
X169124380Y-116234785D01*
X169124380Y-115996690D01*
X169172000Y-115853833D01*
X169267238Y-115758595D01*
X169362476Y-115710976D01*
X169552952Y-115663357D01*
X169695809Y-115663357D01*
X169886285Y-115710976D01*
X169981523Y-115758595D01*
X170076761Y-115853833D01*
X170124380Y-115996690D01*
X170124380Y-116234785D01*
X164044380Y-117806214D02*
X164044380Y-118282404D01*
X164520571Y-118330023D01*
X164472952Y-118282404D01*
X164425333Y-118187166D01*
X164425333Y-117949071D01*
X164472952Y-117853833D01*
X164520571Y-117806214D01*
X164615809Y-117758595D01*
X164853904Y-117758595D01*
X164949142Y-117806214D01*
X164996761Y-117853833D01*
X165044380Y-117949071D01*
X165044380Y-118187166D01*
X164996761Y-118282404D01*
X164949142Y-118330023D01*
X164044380Y-117472880D02*
X165044380Y-117139547D01*
X164044380Y-116806214D01*
D13*
X113971000Y-102114878D02*
X113971000Y-102914122D01*
X112851000Y-102114878D02*
X112851000Y-102914122D01*
X122480000Y-119488378D02*
X122480000Y-120287622D01*
X121360000Y-119488378D02*
X121360000Y-120287622D01*
X143001000Y-100555359D02*
X143001000Y-100862641D01*
X142241000Y-100555359D02*
X142241000Y-100862641D01*
X140715000Y-100555359D02*
X140715000Y-100862641D01*
X139955000Y-100555359D02*
X139955000Y-100862641D01*
X143581000Y-98917000D02*
X143581000Y-96232000D01*
X143581000Y-96232000D02*
X141661000Y-96232000D01*
X141661000Y-96232000D02*
X141661000Y-98917000D01*
X141295000Y-98917000D02*
X141295000Y-96232000D01*
X141295000Y-96232000D02*
X139375000Y-96232000D01*
X139375000Y-96232000D02*
X139375000Y-98917000D01*
X156818359Y-115696000D02*
X157125641Y-115696000D01*
X156818359Y-114936000D02*
X157125641Y-114936000D01*
X159868359Y-115696000D02*
X160175641Y-115696000D01*
X159868359Y-114936000D02*
X160175641Y-114936000D01*
X146940000Y-98398359D02*
X146940000Y-98705641D01*
X147700000Y-98398359D02*
X147700000Y-98705641D01*
X148464000Y-98398359D02*
X148464000Y-98705641D01*
X149224000Y-98398359D02*
X149224000Y-98705641D01*
X149988000Y-98398359D02*
X149988000Y-98705641D01*
X150748000Y-98398359D02*
X150748000Y-98705641D01*
X151237836Y-88794000D02*
X151022164Y-88794000D01*
X151237836Y-89514000D02*
X151022164Y-89514000D01*
X171002000Y-118558000D02*
X171002000Y-119888000D01*
X169672000Y-118558000D02*
X171002000Y-118558000D01*
X168402000Y-118558000D02*
X168402000Y-121218000D01*
X168402000Y-121218000D02*
X155642000Y-121218000D01*
X168402000Y-118558000D02*
X155642000Y-118558000D01*
X155642000Y-118558000D02*
X155642000Y-121218000D01*
X117201836Y-89768000D02*
X116986164Y-89768000D01*
X117201836Y-89048000D02*
X116986164Y-89048000D01*
X147935836Y-89514000D02*
X147720164Y-89514000D01*
X147935836Y-88794000D02*
X147720164Y-88794000D01*
X117201836Y-91038000D02*
X116986164Y-91038000D01*
X117201836Y-90318000D02*
X116986164Y-90318000D01*
X117201836Y-92308000D02*
X116986164Y-92308000D01*
X117201836Y-91588000D02*
X116986164Y-91588000D01*
X141105836Y-89514000D02*
X140890164Y-89514000D01*
X141105836Y-88794000D02*
X140890164Y-88794000D01*
X117201836Y-93578000D02*
X116986164Y-93578000D01*
X117201836Y-92858000D02*
X116986164Y-92858000D01*
X135997836Y-88794000D02*
X135782164Y-88794000D01*
X135997836Y-89514000D02*
X135782164Y-89514000D01*
X117201836Y-94848000D02*
X116986164Y-94848000D01*
X117201836Y-94128000D02*
X116986164Y-94128000D01*
X133732000Y-115977641D02*
X133732000Y-115670359D01*
X134492000Y-115977641D02*
X134492000Y-115670359D01*
X186843641Y-100710000D02*
X186536359Y-100710000D01*
X186843641Y-99950000D02*
X186536359Y-99950000D01*
X186843641Y-103250000D02*
X186536359Y-103250000D01*
X186843641Y-102490000D02*
X186536359Y-102490000D01*
X150475836Y-102722000D02*
X150260164Y-102722000D01*
X150475836Y-102002000D02*
X150260164Y-102002000D01*
X109291000Y-99947000D02*
X109291000Y-98487000D01*
X112451000Y-99947000D02*
X112451000Y-97787000D01*
X112451000Y-99947000D02*
X111521000Y-99947000D01*
X109291000Y-99947000D02*
X110221000Y-99947000D01*
X118464359Y-120522000D02*
X118771641Y-120522000D01*
X118464359Y-119762000D02*
X118771641Y-119762000D01*
X114908359Y-110362000D02*
X115215641Y-110362000D01*
X114908359Y-109602000D02*
X115215641Y-109602000D01*
X105066000Y-111124000D02*
X105066000Y-120524000D01*
X110866000Y-120524000D02*
X108866000Y-120524000D01*
X106966000Y-120524000D02*
X105066000Y-120524000D01*
X110866000Y-111124000D02*
X108866000Y-111124000D01*
X106966000Y-111124000D02*
X105066000Y-111124000D01*
X111151580Y-94232000D02*
X110870420Y-94232000D01*
X111151580Y-95252000D02*
X110870420Y-95252000D01*
X125322420Y-120144000D02*
X125603580Y-120144000D01*
X125322420Y-119124000D02*
X125603580Y-119124000D01*
X111151580Y-96137000D02*
X110870420Y-96137000D01*
X111151580Y-97157000D02*
X110870420Y-97157000D01*
X112901000Y-98906420D02*
X112901000Y-99187580D01*
X113921000Y-98906420D02*
X113921000Y-99187580D01*
X129316000Y-92300000D02*
G75*
G03*
X129316000Y-92300000I-1300000J0D01*
G01*
X135636000Y-94300000D02*
X135636000Y-114300000D01*
X133016000Y-89300000D02*
X135636000Y-94300000D01*
X123016000Y-89300000D02*
X133016000Y-89300000D01*
X120396000Y-94300000D02*
X123016000Y-89300000D01*
X120396000Y-114300000D02*
X120396000Y-94300000D01*
X135636000Y-114300000D02*
X120396000Y-114300000D01*
X181820000Y-112820000D02*
X181820000Y-109600000D01*
X184790000Y-109600000D02*
X184790000Y-96100000D01*
X181820000Y-96100000D02*
X181820000Y-92920000D01*
X155220000Y-92920000D02*
X155220000Y-96100000D01*
X184790000Y-109600000D02*
X181820000Y-109600000D01*
X184790000Y-96100000D02*
X181820000Y-96100000D01*
X155220000Y-92920000D02*
X181820000Y-92920000D01*
X155220000Y-96100000D02*
X152290000Y-96100000D01*
X152290000Y-107100000D02*
X152290000Y-96100000D01*
X155220000Y-107100000D02*
X152290000Y-107100000D01*
X155220000Y-107100000D02*
X155220000Y-112820000D01*
X181820000Y-112820000D02*
X155220000Y-112820000D01*
X152090000Y-98330000D02*
X152090000Y-95900000D01*
X152090000Y-95900000D02*
X154660000Y-95900000D01*
X151022000Y-103914000D02*
X151022000Y-104814000D01*
X151022000Y-103914000D02*
X150372000Y-103914000D01*
X137522000Y-103914000D02*
X137522000Y-104814000D01*
X138172000Y-103914000D02*
X137522000Y-103914000D01*
D11*
X114889571Y-103347833D02*
X114889571Y-103681166D01*
X115413380Y-103681166D02*
X114413380Y-103681166D01*
X114413380Y-103204976D01*
X114889571Y-102490690D02*
X114937190Y-102347833D01*
X114984809Y-102300214D01*
X115080047Y-102252595D01*
X115222904Y-102252595D01*
X115318142Y-102300214D01*
X115365761Y-102347833D01*
X115413380Y-102443071D01*
X115413380Y-102824023D01*
X114413380Y-102824023D01*
X114413380Y-102490690D01*
X114461000Y-102395452D01*
X114508619Y-102347833D01*
X114603857Y-102300214D01*
X114699095Y-102300214D01*
X114794333Y-102347833D01*
X114841952Y-102395452D01*
X114889571Y-102490690D01*
X114889571Y-102824023D01*
X114508619Y-101871642D02*
X114461000Y-101824023D01*
X114413380Y-101728785D01*
X114413380Y-101490690D01*
X114461000Y-101395452D01*
X114508619Y-101347833D01*
X114603857Y-101300214D01*
X114699095Y-101300214D01*
X114841952Y-101347833D01*
X115413380Y-101919261D01*
X115413380Y-101300214D01*
X123398571Y-120721333D02*
X123398571Y-121054666D01*
X123922380Y-121054666D02*
X122922380Y-121054666D01*
X122922380Y-120578476D01*
X123398571Y-119864190D02*
X123446190Y-119721333D01*
X123493809Y-119673714D01*
X123589047Y-119626095D01*
X123731904Y-119626095D01*
X123827142Y-119673714D01*
X123874761Y-119721333D01*
X123922380Y-119816571D01*
X123922380Y-120197523D01*
X122922380Y-120197523D01*
X122922380Y-119864190D01*
X122970000Y-119768952D01*
X123017619Y-119721333D01*
X123112857Y-119673714D01*
X123208095Y-119673714D01*
X123303333Y-119721333D01*
X123350952Y-119768952D01*
X123398571Y-119864190D01*
X123398571Y-120197523D01*
X123922380Y-118673714D02*
X123922380Y-119245142D01*
X123922380Y-118959428D02*
X122922380Y-118959428D01*
X123065238Y-119054666D01*
X123160476Y-119149904D01*
X123208095Y-119245142D01*
X144243380Y-101351857D02*
X143767190Y-101685190D01*
X144243380Y-101923285D02*
X143243380Y-101923285D01*
X143243380Y-101542333D01*
X143291000Y-101447095D01*
X143338619Y-101399476D01*
X143433857Y-101351857D01*
X143576714Y-101351857D01*
X143671952Y-101399476D01*
X143719571Y-101447095D01*
X143767190Y-101542333D01*
X143767190Y-101923285D01*
X144243380Y-100399476D02*
X144243380Y-100970904D01*
X144243380Y-100685190D02*
X143243380Y-100685190D01*
X143386238Y-100780428D01*
X143481476Y-100875666D01*
X143529095Y-100970904D01*
X143338619Y-100018523D02*
X143291000Y-99970904D01*
X143243380Y-99875666D01*
X143243380Y-99637571D01*
X143291000Y-99542333D01*
X143338619Y-99494714D01*
X143433857Y-99447095D01*
X143529095Y-99447095D01*
X143671952Y-99494714D01*
X144243380Y-100066142D01*
X144243380Y-99447095D01*
X141957380Y-101351857D02*
X141481190Y-101685190D01*
X141957380Y-101923285D02*
X140957380Y-101923285D01*
X140957380Y-101542333D01*
X141005000Y-101447095D01*
X141052619Y-101399476D01*
X141147857Y-101351857D01*
X141290714Y-101351857D01*
X141385952Y-101399476D01*
X141433571Y-101447095D01*
X141481190Y-101542333D01*
X141481190Y-101923285D01*
X141957380Y-100399476D02*
X141957380Y-100970904D01*
X141957380Y-100685190D02*
X140957380Y-100685190D01*
X141100238Y-100780428D01*
X141195476Y-100875666D01*
X141243095Y-100970904D01*
X141957380Y-99447095D02*
X141957380Y-100018523D01*
X141957380Y-99732809D02*
X140957380Y-99732809D01*
X141100238Y-99828047D01*
X141195476Y-99923285D01*
X141243095Y-100018523D01*
X144723380Y-98655095D02*
X143723380Y-98655095D01*
X143723380Y-98417000D01*
X143771000Y-98274142D01*
X143866238Y-98178904D01*
X143961476Y-98131285D01*
X144151952Y-98083666D01*
X144294809Y-98083666D01*
X144485285Y-98131285D01*
X144580523Y-98178904D01*
X144675761Y-98274142D01*
X144723380Y-98417000D01*
X144723380Y-98655095D01*
X143723380Y-97178904D02*
X143723380Y-97655095D01*
X144199571Y-97702714D01*
X144151952Y-97655095D01*
X144104333Y-97559857D01*
X144104333Y-97321761D01*
X144151952Y-97226523D01*
X144199571Y-97178904D01*
X144294809Y-97131285D01*
X144532904Y-97131285D01*
X144628142Y-97178904D01*
X144675761Y-97226523D01*
X144723380Y-97321761D01*
X144723380Y-97559857D01*
X144675761Y-97655095D01*
X144628142Y-97702714D01*
X139263380Y-98655095D02*
X138263380Y-98655095D01*
X138263380Y-98417000D01*
X138311000Y-98274142D01*
X138406238Y-98178904D01*
X138501476Y-98131285D01*
X138691952Y-98083666D01*
X138834809Y-98083666D01*
X139025285Y-98131285D01*
X139120523Y-98178904D01*
X139215761Y-98274142D01*
X139263380Y-98417000D01*
X139263380Y-98655095D01*
X138596714Y-97226523D02*
X139263380Y-97226523D01*
X138215761Y-97464619D02*
X138930047Y-97702714D01*
X138930047Y-97083666D01*
X156329142Y-114598380D02*
X155995809Y-114122190D01*
X155757714Y-114598380D02*
X155757714Y-113598380D01*
X156138666Y-113598380D01*
X156233904Y-113646000D01*
X156281523Y-113693619D01*
X156329142Y-113788857D01*
X156329142Y-113931714D01*
X156281523Y-114026952D01*
X156233904Y-114074571D01*
X156138666Y-114122190D01*
X155757714Y-114122190D01*
X157281523Y-114598380D02*
X156710095Y-114598380D01*
X156995809Y-114598380D02*
X156995809Y-113598380D01*
X156900571Y-113741238D01*
X156805333Y-113836476D01*
X156710095Y-113884095D01*
X157900571Y-113598380D02*
X157995809Y-113598380D01*
X158091047Y-113646000D01*
X158138666Y-113693619D01*
X158186285Y-113788857D01*
X158233904Y-113979333D01*
X158233904Y-114217428D01*
X158186285Y-114407904D01*
X158138666Y-114503142D01*
X158091047Y-114550761D01*
X157995809Y-114598380D01*
X157900571Y-114598380D01*
X157805333Y-114550761D01*
X157757714Y-114503142D01*
X157710095Y-114407904D01*
X157662476Y-114217428D01*
X157662476Y-113979333D01*
X157710095Y-113788857D01*
X157757714Y-113693619D01*
X157805333Y-113646000D01*
X157900571Y-113598380D01*
X159855333Y-114598380D02*
X159522000Y-114122190D01*
X159283904Y-114598380D02*
X159283904Y-113598380D01*
X159664857Y-113598380D01*
X159760095Y-113646000D01*
X159807714Y-113693619D01*
X159855333Y-113788857D01*
X159855333Y-113931714D01*
X159807714Y-114026952D01*
X159760095Y-114074571D01*
X159664857Y-114122190D01*
X159283904Y-114122190D01*
X160331523Y-114598380D02*
X160522000Y-114598380D01*
X160617238Y-114550761D01*
X160664857Y-114503142D01*
X160760095Y-114360285D01*
X160807714Y-114169809D01*
X160807714Y-113788857D01*
X160760095Y-113693619D01*
X160712476Y-113646000D01*
X160617238Y-113598380D01*
X160426761Y-113598380D01*
X160331523Y-113646000D01*
X160283904Y-113693619D01*
X160236285Y-113788857D01*
X160236285Y-114026952D01*
X160283904Y-114122190D01*
X160331523Y-114169809D01*
X160426761Y-114217428D01*
X160617238Y-114217428D01*
X160712476Y-114169809D01*
X160760095Y-114122190D01*
X160807714Y-114026952D01*
X147772380Y-96432666D02*
X147296190Y-96766000D01*
X147772380Y-97004095D02*
X146772380Y-97004095D01*
X146772380Y-96623142D01*
X146820000Y-96527904D01*
X146867619Y-96480285D01*
X146962857Y-96432666D01*
X147105714Y-96432666D01*
X147200952Y-96480285D01*
X147248571Y-96527904D01*
X147296190Y-96623142D01*
X147296190Y-97004095D01*
X147200952Y-95861238D02*
X147153333Y-95956476D01*
X147105714Y-96004095D01*
X147010476Y-96051714D01*
X146962857Y-96051714D01*
X146867619Y-96004095D01*
X146820000Y-95956476D01*
X146772380Y-95861238D01*
X146772380Y-95670761D01*
X146820000Y-95575523D01*
X146867619Y-95527904D01*
X146962857Y-95480285D01*
X147010476Y-95480285D01*
X147105714Y-95527904D01*
X147153333Y-95575523D01*
X147200952Y-95670761D01*
X147200952Y-95861238D01*
X147248571Y-95956476D01*
X147296190Y-96004095D01*
X147391428Y-96051714D01*
X147581904Y-96051714D01*
X147677142Y-96004095D01*
X147724761Y-95956476D01*
X147772380Y-95861238D01*
X147772380Y-95670761D01*
X147724761Y-95575523D01*
X147677142Y-95527904D01*
X147581904Y-95480285D01*
X147391428Y-95480285D01*
X147296190Y-95527904D01*
X147248571Y-95575523D01*
X147200952Y-95670761D01*
X149296380Y-96432666D02*
X148820190Y-96766000D01*
X149296380Y-97004095D02*
X148296380Y-97004095D01*
X148296380Y-96623142D01*
X148344000Y-96527904D01*
X148391619Y-96480285D01*
X148486857Y-96432666D01*
X148629714Y-96432666D01*
X148724952Y-96480285D01*
X148772571Y-96527904D01*
X148820190Y-96623142D01*
X148820190Y-97004095D01*
X148296380Y-96099333D02*
X148296380Y-95432666D01*
X149296380Y-95861238D01*
X150820380Y-96432666D02*
X150344190Y-96766000D01*
X150820380Y-97004095D02*
X149820380Y-97004095D01*
X149820380Y-96623142D01*
X149868000Y-96527904D01*
X149915619Y-96480285D01*
X150010857Y-96432666D01*
X150153714Y-96432666D01*
X150248952Y-96480285D01*
X150296571Y-96527904D01*
X150344190Y-96623142D01*
X150344190Y-97004095D01*
X149820380Y-95575523D02*
X149820380Y-95766000D01*
X149868000Y-95861238D01*
X149915619Y-95908857D01*
X150058476Y-96004095D01*
X150248952Y-96051714D01*
X150629904Y-96051714D01*
X150725142Y-96004095D01*
X150772761Y-95956476D01*
X150820380Y-95861238D01*
X150820380Y-95670761D01*
X150772761Y-95575523D01*
X150725142Y-95527904D01*
X150629904Y-95480285D01*
X150391809Y-95480285D01*
X150296571Y-95527904D01*
X150248952Y-95575523D01*
X150201333Y-95670761D01*
X150201333Y-95861238D01*
X150248952Y-95956476D01*
X150296571Y-96004095D01*
X150391809Y-96051714D01*
X150487142Y-90671142D02*
X150439523Y-90718761D01*
X150296666Y-90766380D01*
X150201428Y-90766380D01*
X150058571Y-90718761D01*
X149963333Y-90623523D01*
X149915714Y-90528285D01*
X149868095Y-90337809D01*
X149868095Y-90194952D01*
X149915714Y-90004476D01*
X149963333Y-89909238D01*
X150058571Y-89814000D01*
X150201428Y-89766380D01*
X150296666Y-89766380D01*
X150439523Y-89814000D01*
X150487142Y-89861619D01*
X151439523Y-90766380D02*
X150868095Y-90766380D01*
X151153809Y-90766380D02*
X151153809Y-89766380D01*
X151058571Y-89909238D01*
X150963333Y-90004476D01*
X150868095Y-90052095D01*
X152296666Y-90099714D02*
X152296666Y-90766380D01*
X152058571Y-89718761D02*
X151820476Y-90433047D01*
X152439523Y-90433047D01*
X171454380Y-120221333D02*
X172168666Y-120221333D01*
X172311523Y-120268952D01*
X172406761Y-120364190D01*
X172454380Y-120507047D01*
X172454380Y-120602285D01*
X171454380Y-119840380D02*
X171454380Y-119221333D01*
X171835333Y-119554666D01*
X171835333Y-119411809D01*
X171882952Y-119316571D01*
X171930571Y-119268952D01*
X172025809Y-119221333D01*
X172263904Y-119221333D01*
X172359142Y-119268952D01*
X172406761Y-119316571D01*
X172454380Y-119411809D01*
X172454380Y-119697523D01*
X172406761Y-119792761D01*
X172359142Y-119840380D01*
X174458380Y-114633333D02*
X175172666Y-114633333D01*
X175315523Y-114680952D01*
X175410761Y-114776190D01*
X175458380Y-114919047D01*
X175458380Y-115014285D01*
X174553619Y-114204761D02*
X174506000Y-114157142D01*
X174458380Y-114061904D01*
X174458380Y-113823809D01*
X174506000Y-113728571D01*
X174553619Y-113680952D01*
X174648857Y-113633333D01*
X174744095Y-113633333D01*
X174886952Y-113680952D01*
X175458380Y-114252380D01*
X175458380Y-113633333D01*
D14*
X175859309Y-118633857D02*
X175835500Y-118610047D01*
X175811690Y-118562428D01*
X175811690Y-118443380D01*
X175835500Y-118395761D01*
X175859309Y-118371952D01*
X175906928Y-118348142D01*
X175954547Y-118348142D01*
X176025976Y-118371952D01*
X176311690Y-118657666D01*
X176311690Y-118348142D01*
X179296190Y-118348142D02*
X179296190Y-118633857D01*
X179296190Y-118491000D02*
X178796190Y-118491000D01*
X178867619Y-118538619D01*
X178915238Y-118586238D01*
X178939047Y-118633857D01*
X175875190Y-115347761D02*
X175875190Y-115443000D01*
X175899000Y-115490619D01*
X175922809Y-115514428D01*
X175994238Y-115562047D01*
X176089476Y-115585857D01*
X176279952Y-115585857D01*
X176327571Y-115562047D01*
X176351380Y-115538238D01*
X176375190Y-115490619D01*
X176375190Y-115395380D01*
X176351380Y-115347761D01*
X176327571Y-115323952D01*
X176279952Y-115300142D01*
X176160904Y-115300142D01*
X176113285Y-115323952D01*
X176089476Y-115347761D01*
X176065666Y-115395380D01*
X176065666Y-115490619D01*
X176089476Y-115538238D01*
X176113285Y-115562047D01*
X176160904Y-115585857D01*
X178796190Y-115323952D02*
X178796190Y-115562047D01*
X179034285Y-115585857D01*
X179010476Y-115562047D01*
X178986666Y-115514428D01*
X178986666Y-115395380D01*
X179010476Y-115347761D01*
X179034285Y-115323952D01*
X179081904Y-115300142D01*
X179200952Y-115300142D01*
X179248571Y-115323952D01*
X179272380Y-115347761D01*
X179296190Y-115395380D01*
X179296190Y-115514428D01*
X179272380Y-115562047D01*
X179248571Y-115585857D01*
D11*
X119017023Y-89765142D02*
X118969404Y-89812761D01*
X118826547Y-89860380D01*
X118731309Y-89860380D01*
X118588452Y-89812761D01*
X118493214Y-89717523D01*
X118445595Y-89622285D01*
X118397976Y-89431809D01*
X118397976Y-89288952D01*
X118445595Y-89098476D01*
X118493214Y-89003238D01*
X118588452Y-88908000D01*
X118731309Y-88860380D01*
X118826547Y-88860380D01*
X118969404Y-88908000D01*
X119017023Y-88955619D01*
X119969404Y-89860380D02*
X119397976Y-89860380D01*
X119683690Y-89860380D02*
X119683690Y-88860380D01*
X119588452Y-89003238D01*
X119493214Y-89098476D01*
X119397976Y-89146095D01*
X120302738Y-88860380D02*
X120921785Y-88860380D01*
X120588452Y-89241333D01*
X120731309Y-89241333D01*
X120826547Y-89288952D01*
X120874166Y-89336571D01*
X120921785Y-89431809D01*
X120921785Y-89669904D01*
X120874166Y-89765142D01*
X120826547Y-89812761D01*
X120731309Y-89860380D01*
X120445595Y-89860380D01*
X120350357Y-89812761D01*
X120302738Y-89765142D01*
X147185142Y-90671142D02*
X147137523Y-90718761D01*
X146994666Y-90766380D01*
X146899428Y-90766380D01*
X146756571Y-90718761D01*
X146661333Y-90623523D01*
X146613714Y-90528285D01*
X146566095Y-90337809D01*
X146566095Y-90194952D01*
X146613714Y-90004476D01*
X146661333Y-89909238D01*
X146756571Y-89814000D01*
X146899428Y-89766380D01*
X146994666Y-89766380D01*
X147137523Y-89814000D01*
X147185142Y-89861619D01*
X148137523Y-90766380D02*
X147566095Y-90766380D01*
X147851809Y-90766380D02*
X147851809Y-89766380D01*
X147756571Y-89909238D01*
X147661333Y-90004476D01*
X147566095Y-90052095D01*
X148518476Y-89861619D02*
X148566095Y-89814000D01*
X148661333Y-89766380D01*
X148899428Y-89766380D01*
X148994666Y-89814000D01*
X149042285Y-89861619D01*
X149089904Y-89956857D01*
X149089904Y-90052095D01*
X149042285Y-90194952D01*
X148470857Y-90766380D01*
X149089904Y-90766380D01*
X119017023Y-91035142D02*
X118969404Y-91082761D01*
X118826547Y-91130380D01*
X118731309Y-91130380D01*
X118588452Y-91082761D01*
X118493214Y-90987523D01*
X118445595Y-90892285D01*
X118397976Y-90701809D01*
X118397976Y-90558952D01*
X118445595Y-90368476D01*
X118493214Y-90273238D01*
X118588452Y-90178000D01*
X118731309Y-90130380D01*
X118826547Y-90130380D01*
X118969404Y-90178000D01*
X119017023Y-90225619D01*
X119969404Y-91130380D02*
X119397976Y-91130380D01*
X119683690Y-91130380D02*
X119683690Y-90130380D01*
X119588452Y-90273238D01*
X119493214Y-90368476D01*
X119397976Y-90416095D01*
X120921785Y-91130380D02*
X120350357Y-91130380D01*
X120636071Y-91130380D02*
X120636071Y-90130380D01*
X120540833Y-90273238D01*
X120445595Y-90368476D01*
X120350357Y-90416095D01*
X119017023Y-92305142D02*
X118969404Y-92352761D01*
X118826547Y-92400380D01*
X118731309Y-92400380D01*
X118588452Y-92352761D01*
X118493214Y-92257523D01*
X118445595Y-92162285D01*
X118397976Y-91971809D01*
X118397976Y-91828952D01*
X118445595Y-91638476D01*
X118493214Y-91543238D01*
X118588452Y-91448000D01*
X118731309Y-91400380D01*
X118826547Y-91400380D01*
X118969404Y-91448000D01*
X119017023Y-91495619D01*
X119969404Y-92400380D02*
X119397976Y-92400380D01*
X119683690Y-92400380D02*
X119683690Y-91400380D01*
X119588452Y-91543238D01*
X119493214Y-91638476D01*
X119397976Y-91686095D01*
X120588452Y-91400380D02*
X120683690Y-91400380D01*
X120778928Y-91448000D01*
X120826547Y-91495619D01*
X120874166Y-91590857D01*
X120921785Y-91781333D01*
X120921785Y-92019428D01*
X120874166Y-92209904D01*
X120826547Y-92305142D01*
X120778928Y-92352761D01*
X120683690Y-92400380D01*
X120588452Y-92400380D01*
X120493214Y-92352761D01*
X120445595Y-92305142D01*
X120397976Y-92209904D01*
X120350357Y-92019428D01*
X120350357Y-91781333D01*
X120397976Y-91590857D01*
X120445595Y-91495619D01*
X120493214Y-91448000D01*
X120588452Y-91400380D01*
X142708333Y-89511142D02*
X142660714Y-89558761D01*
X142517857Y-89606380D01*
X142422619Y-89606380D01*
X142279761Y-89558761D01*
X142184523Y-89463523D01*
X142136904Y-89368285D01*
X142089285Y-89177809D01*
X142089285Y-89034952D01*
X142136904Y-88844476D01*
X142184523Y-88749238D01*
X142279761Y-88654000D01*
X142422619Y-88606380D01*
X142517857Y-88606380D01*
X142660714Y-88654000D01*
X142708333Y-88701619D01*
X143184523Y-89606380D02*
X143375000Y-89606380D01*
X143470238Y-89558761D01*
X143517857Y-89511142D01*
X143613095Y-89368285D01*
X143660714Y-89177809D01*
X143660714Y-88796857D01*
X143613095Y-88701619D01*
X143565476Y-88654000D01*
X143470238Y-88606380D01*
X143279761Y-88606380D01*
X143184523Y-88654000D01*
X143136904Y-88701619D01*
X143089285Y-88796857D01*
X143089285Y-89034952D01*
X143136904Y-89130190D01*
X143184523Y-89177809D01*
X143279761Y-89225428D01*
X143470238Y-89225428D01*
X143565476Y-89177809D01*
X143613095Y-89130190D01*
X143660714Y-89034952D01*
X119017023Y-93575142D02*
X118969404Y-93622761D01*
X118826547Y-93670380D01*
X118731309Y-93670380D01*
X118588452Y-93622761D01*
X118493214Y-93527523D01*
X118445595Y-93432285D01*
X118397976Y-93241809D01*
X118397976Y-93098952D01*
X118445595Y-92908476D01*
X118493214Y-92813238D01*
X118588452Y-92718000D01*
X118731309Y-92670380D01*
X118826547Y-92670380D01*
X118969404Y-92718000D01*
X119017023Y-92765619D01*
X119588452Y-93098952D02*
X119493214Y-93051333D01*
X119445595Y-93003714D01*
X119397976Y-92908476D01*
X119397976Y-92860857D01*
X119445595Y-92765619D01*
X119493214Y-92718000D01*
X119588452Y-92670380D01*
X119778928Y-92670380D01*
X119874166Y-92718000D01*
X119921785Y-92765619D01*
X119969404Y-92860857D01*
X119969404Y-92908476D01*
X119921785Y-93003714D01*
X119874166Y-93051333D01*
X119778928Y-93098952D01*
X119588452Y-93098952D01*
X119493214Y-93146571D01*
X119445595Y-93194190D01*
X119397976Y-93289428D01*
X119397976Y-93479904D01*
X119445595Y-93575142D01*
X119493214Y-93622761D01*
X119588452Y-93670380D01*
X119778928Y-93670380D01*
X119874166Y-93622761D01*
X119921785Y-93575142D01*
X119969404Y-93479904D01*
X119969404Y-93289428D01*
X119921785Y-93194190D01*
X119874166Y-93146571D01*
X119778928Y-93098952D01*
X137628333Y-89511142D02*
X137580714Y-89558761D01*
X137437857Y-89606380D01*
X137342619Y-89606380D01*
X137199761Y-89558761D01*
X137104523Y-89463523D01*
X137056904Y-89368285D01*
X137009285Y-89177809D01*
X137009285Y-89034952D01*
X137056904Y-88844476D01*
X137104523Y-88749238D01*
X137199761Y-88654000D01*
X137342619Y-88606380D01*
X137437857Y-88606380D01*
X137580714Y-88654000D01*
X137628333Y-88701619D01*
X137961666Y-88606380D02*
X138628333Y-88606380D01*
X138199761Y-89606380D01*
X119017023Y-94845142D02*
X118969404Y-94892761D01*
X118826547Y-94940380D01*
X118731309Y-94940380D01*
X118588452Y-94892761D01*
X118493214Y-94797523D01*
X118445595Y-94702285D01*
X118397976Y-94511809D01*
X118397976Y-94368952D01*
X118445595Y-94178476D01*
X118493214Y-94083238D01*
X118588452Y-93988000D01*
X118731309Y-93940380D01*
X118826547Y-93940380D01*
X118969404Y-93988000D01*
X119017023Y-94035619D01*
X119874166Y-93940380D02*
X119683690Y-93940380D01*
X119588452Y-93988000D01*
X119540833Y-94035619D01*
X119445595Y-94178476D01*
X119397976Y-94368952D01*
X119397976Y-94749904D01*
X119445595Y-94845142D01*
X119493214Y-94892761D01*
X119588452Y-94940380D01*
X119778928Y-94940380D01*
X119874166Y-94892761D01*
X119921785Y-94845142D01*
X119969404Y-94749904D01*
X119969404Y-94511809D01*
X119921785Y-94416571D01*
X119874166Y-94368952D01*
X119778928Y-94321333D01*
X119588452Y-94321333D01*
X119493214Y-94368952D01*
X119445595Y-94416571D01*
X119397976Y-94511809D01*
X135834380Y-115990666D02*
X135358190Y-116324000D01*
X135834380Y-116562095D02*
X134834380Y-116562095D01*
X134834380Y-116181142D01*
X134882000Y-116085904D01*
X134929619Y-116038285D01*
X135024857Y-115990666D01*
X135167714Y-115990666D01*
X135262952Y-116038285D01*
X135310571Y-116085904D01*
X135358190Y-116181142D01*
X135358190Y-116562095D01*
X134834380Y-115085904D02*
X134834380Y-115562095D01*
X135310571Y-115609714D01*
X135262952Y-115562095D01*
X135215333Y-115466857D01*
X135215333Y-115228761D01*
X135262952Y-115133523D01*
X135310571Y-115085904D01*
X135405809Y-115038285D01*
X135643904Y-115038285D01*
X135739142Y-115085904D01*
X135786761Y-115133523D01*
X135834380Y-115228761D01*
X135834380Y-115466857D01*
X135786761Y-115562095D01*
X135739142Y-115609714D01*
X186523333Y-101952380D02*
X186190000Y-101476190D01*
X185951904Y-101952380D02*
X185951904Y-100952380D01*
X186332857Y-100952380D01*
X186428095Y-101000000D01*
X186475714Y-101047619D01*
X186523333Y-101142857D01*
X186523333Y-101285714D01*
X186475714Y-101380952D01*
X186428095Y-101428571D01*
X186332857Y-101476190D01*
X185951904Y-101476190D01*
X187380476Y-101285714D02*
X187380476Y-101952380D01*
X187142380Y-100904761D02*
X186904285Y-101619047D01*
X187523333Y-101619047D01*
X186523333Y-104492380D02*
X186190000Y-104016190D01*
X185951904Y-104492380D02*
X185951904Y-103492380D01*
X186332857Y-103492380D01*
X186428095Y-103540000D01*
X186475714Y-103587619D01*
X186523333Y-103682857D01*
X186523333Y-103825714D01*
X186475714Y-103920952D01*
X186428095Y-103968571D01*
X186332857Y-104016190D01*
X185951904Y-104016190D01*
X186856666Y-103492380D02*
X187475714Y-103492380D01*
X187142380Y-103873333D01*
X187285238Y-103873333D01*
X187380476Y-103920952D01*
X187428095Y-103968571D01*
X187475714Y-104063809D01*
X187475714Y-104301904D01*
X187428095Y-104397142D01*
X187380476Y-104444761D01*
X187285238Y-104492380D01*
X186999523Y-104492380D01*
X186904285Y-104444761D01*
X186856666Y-104397142D01*
X148296333Y-102719142D02*
X148248714Y-102766761D01*
X148105857Y-102814380D01*
X148010619Y-102814380D01*
X147867761Y-102766761D01*
X147772523Y-102671523D01*
X147724904Y-102576285D01*
X147677285Y-102385809D01*
X147677285Y-102242952D01*
X147724904Y-102052476D01*
X147772523Y-101957238D01*
X147867761Y-101862000D01*
X148010619Y-101814380D01*
X148105857Y-101814380D01*
X148248714Y-101862000D01*
X148296333Y-101909619D01*
X149201095Y-101814380D02*
X148724904Y-101814380D01*
X148677285Y-102290571D01*
X148724904Y-102242952D01*
X148820142Y-102195333D01*
X149058238Y-102195333D01*
X149153476Y-102242952D01*
X149201095Y-102290571D01*
X149248714Y-102385809D01*
X149248714Y-102623904D01*
X149201095Y-102719142D01*
X149153476Y-102766761D01*
X149058238Y-102814380D01*
X148820142Y-102814380D01*
X148724904Y-102766761D01*
X148677285Y-102719142D01*
X109053380Y-101853904D02*
X109862904Y-101853904D01*
X109958142Y-101806285D01*
X110005761Y-101758666D01*
X110053380Y-101663428D01*
X110053380Y-101472952D01*
X110005761Y-101377714D01*
X109958142Y-101330095D01*
X109862904Y-101282476D01*
X109053380Y-101282476D01*
X109053380Y-100901523D02*
X109053380Y-100282476D01*
X109434333Y-100615809D01*
X109434333Y-100472952D01*
X109481952Y-100377714D01*
X109529571Y-100330095D01*
X109624809Y-100282476D01*
X109862904Y-100282476D01*
X109958142Y-100330095D01*
X110005761Y-100377714D01*
X110053380Y-100472952D01*
X110053380Y-100758666D01*
X110005761Y-100853904D01*
X109958142Y-100901523D01*
X118451333Y-119424380D02*
X118118000Y-118948190D01*
X117879904Y-119424380D02*
X117879904Y-118424380D01*
X118260857Y-118424380D01*
X118356095Y-118472000D01*
X118403714Y-118519619D01*
X118451333Y-118614857D01*
X118451333Y-118757714D01*
X118403714Y-118852952D01*
X118356095Y-118900571D01*
X118260857Y-118948190D01*
X117879904Y-118948190D01*
X118832285Y-118519619D02*
X118879904Y-118472000D01*
X118975142Y-118424380D01*
X119213238Y-118424380D01*
X119308476Y-118472000D01*
X119356095Y-118519619D01*
X119403714Y-118614857D01*
X119403714Y-118710095D01*
X119356095Y-118852952D01*
X118784666Y-119424380D01*
X119403714Y-119424380D01*
X114895333Y-109264380D02*
X114562000Y-108788190D01*
X114323904Y-109264380D02*
X114323904Y-108264380D01*
X114704857Y-108264380D01*
X114800095Y-108312000D01*
X114847714Y-108359619D01*
X114895333Y-108454857D01*
X114895333Y-108597714D01*
X114847714Y-108692952D01*
X114800095Y-108740571D01*
X114704857Y-108788190D01*
X114323904Y-108788190D01*
X115847714Y-109264380D02*
X115276285Y-109264380D01*
X115562000Y-109264380D02*
X115562000Y-108264380D01*
X115466761Y-108407238D01*
X115371523Y-108502476D01*
X115276285Y-108550095D01*
X114063380Y-116157333D02*
X114777666Y-116157333D01*
X114920523Y-116204952D01*
X115015761Y-116300190D01*
X115063380Y-116443047D01*
X115063380Y-116538285D01*
X115063380Y-115157333D02*
X115063380Y-115728761D01*
X115063380Y-115443047D02*
X114063380Y-115443047D01*
X114206238Y-115538285D01*
X114301476Y-115633523D01*
X114349095Y-115728761D01*
X108444333Y-95099142D02*
X108396714Y-95146761D01*
X108253857Y-95194380D01*
X108158619Y-95194380D01*
X108015761Y-95146761D01*
X107920523Y-95051523D01*
X107872904Y-94956285D01*
X107825285Y-94765809D01*
X107825285Y-94622952D01*
X107872904Y-94432476D01*
X107920523Y-94337238D01*
X108015761Y-94242000D01*
X108158619Y-94194380D01*
X108253857Y-94194380D01*
X108396714Y-94242000D01*
X108444333Y-94289619D01*
X109301476Y-94527714D02*
X109301476Y-95194380D01*
X109063380Y-94146761D02*
X108825285Y-94861047D01*
X109444333Y-94861047D01*
X125296333Y-118561142D02*
X125248714Y-118608761D01*
X125105857Y-118656380D01*
X125010619Y-118656380D01*
X124867761Y-118608761D01*
X124772523Y-118513523D01*
X124724904Y-118418285D01*
X124677285Y-118227809D01*
X124677285Y-118084952D01*
X124724904Y-117894476D01*
X124772523Y-117799238D01*
X124867761Y-117704000D01*
X125010619Y-117656380D01*
X125105857Y-117656380D01*
X125248714Y-117704000D01*
X125296333Y-117751619D01*
X125629666Y-117656380D02*
X126248714Y-117656380D01*
X125915380Y-118037333D01*
X126058238Y-118037333D01*
X126153476Y-118084952D01*
X126201095Y-118132571D01*
X126248714Y-118227809D01*
X126248714Y-118465904D01*
X126201095Y-118561142D01*
X126153476Y-118608761D01*
X126058238Y-118656380D01*
X125772523Y-118656380D01*
X125677285Y-118608761D01*
X125629666Y-118561142D01*
X108444333Y-97004142D02*
X108396714Y-97051761D01*
X108253857Y-97099380D01*
X108158619Y-97099380D01*
X108015761Y-97051761D01*
X107920523Y-96956523D01*
X107872904Y-96861285D01*
X107825285Y-96670809D01*
X107825285Y-96527952D01*
X107872904Y-96337476D01*
X107920523Y-96242238D01*
X108015761Y-96147000D01*
X108158619Y-96099380D01*
X108253857Y-96099380D01*
X108396714Y-96147000D01*
X108444333Y-96194619D01*
X108825285Y-96194619D02*
X108872904Y-96147000D01*
X108968142Y-96099380D01*
X109206238Y-96099380D01*
X109301476Y-96147000D01*
X109349095Y-96194619D01*
X109396714Y-96289857D01*
X109396714Y-96385095D01*
X109349095Y-96527952D01*
X108777666Y-97099380D01*
X109396714Y-97099380D01*
X115198142Y-99213666D02*
X115245761Y-99261285D01*
X115293380Y-99404142D01*
X115293380Y-99499380D01*
X115245761Y-99642238D01*
X115150523Y-99737476D01*
X115055285Y-99785095D01*
X114864809Y-99832714D01*
X114721952Y-99832714D01*
X114531476Y-99785095D01*
X114436238Y-99737476D01*
X114341000Y-99642238D01*
X114293380Y-99499380D01*
X114293380Y-99404142D01*
X114341000Y-99261285D01*
X114388619Y-99213666D01*
X115293380Y-98261285D02*
X115293380Y-98832714D01*
X115293380Y-98547000D02*
X114293380Y-98547000D01*
X114436238Y-98642238D01*
X114531476Y-98737476D01*
X114579095Y-98832714D01*
X136104380Y-97789904D02*
X136913904Y-97789904D01*
X137009142Y-97742285D01*
X137056761Y-97694666D01*
X137104380Y-97599428D01*
X137104380Y-97408952D01*
X137056761Y-97313714D01*
X137009142Y-97266095D01*
X136913904Y-97218476D01*
X136104380Y-97218476D01*
X136199619Y-96789904D02*
X136152000Y-96742285D01*
X136104380Y-96647047D01*
X136104380Y-96408952D01*
X136152000Y-96313714D01*
X136199619Y-96266095D01*
X136294857Y-96218476D01*
X136390095Y-96218476D01*
X136532952Y-96266095D01*
X137104380Y-96837523D01*
X137104380Y-96218476D01*
X167808095Y-113282380D02*
X167808095Y-114091904D01*
X167855714Y-114187142D01*
X167903333Y-114234761D01*
X167998571Y-114282380D01*
X168189047Y-114282380D01*
X168284285Y-114234761D01*
X168331904Y-114187142D01*
X168379523Y-114091904D01*
X168379523Y-113282380D01*
X169379523Y-114282380D02*
X168808095Y-114282380D01*
X169093809Y-114282380D02*
X169093809Y-113282380D01*
X168998571Y-113425238D01*
X168903333Y-113520476D01*
X168808095Y-113568095D01*
X163290952Y-103274761D02*
X163433809Y-103322380D01*
X163671904Y-103322380D01*
X163767142Y-103274761D01*
X163814761Y-103227142D01*
X163862380Y-103131904D01*
X163862380Y-103036666D01*
X163814761Y-102941428D01*
X163767142Y-102893809D01*
X163671904Y-102846190D01*
X163481428Y-102798571D01*
X163386190Y-102750952D01*
X163338571Y-102703333D01*
X163290952Y-102608095D01*
X163290952Y-102512857D01*
X163338571Y-102417619D01*
X163386190Y-102370000D01*
X163481428Y-102322380D01*
X163719523Y-102322380D01*
X163862380Y-102370000D01*
X164671904Y-103274761D02*
X164576666Y-103322380D01*
X164386190Y-103322380D01*
X164290952Y-103274761D01*
X164243333Y-103179523D01*
X164243333Y-102798571D01*
X164290952Y-102703333D01*
X164386190Y-102655714D01*
X164576666Y-102655714D01*
X164671904Y-102703333D01*
X164719523Y-102798571D01*
X164719523Y-102893809D01*
X164243333Y-102989047D01*
X165148095Y-102655714D02*
X165148095Y-103322380D01*
X165148095Y-102750952D02*
X165195714Y-102703333D01*
X165290952Y-102655714D01*
X165433809Y-102655714D01*
X165529047Y-102703333D01*
X165576666Y-102798571D01*
X165576666Y-103322380D01*
X166005238Y-103274761D02*
X166100476Y-103322380D01*
X166290952Y-103322380D01*
X166386190Y-103274761D01*
X166433809Y-103179523D01*
X166433809Y-103131904D01*
X166386190Y-103036666D01*
X166290952Y-102989047D01*
X166148095Y-102989047D01*
X166052857Y-102941428D01*
X166005238Y-102846190D01*
X166005238Y-102798571D01*
X166052857Y-102703333D01*
X166148095Y-102655714D01*
X166290952Y-102655714D01*
X166386190Y-102703333D01*
X167243333Y-103274761D02*
X167148095Y-103322380D01*
X166957619Y-103322380D01*
X166862380Y-103274761D01*
X166814761Y-103179523D01*
X166814761Y-102798571D01*
X166862380Y-102703333D01*
X166957619Y-102655714D01*
X167148095Y-102655714D01*
X167243333Y-102703333D01*
X167290952Y-102798571D01*
X167290952Y-102893809D01*
X166814761Y-102989047D01*
X168148095Y-103322380D02*
X168148095Y-102798571D01*
X168100476Y-102703333D01*
X168005238Y-102655714D01*
X167814761Y-102655714D01*
X167719523Y-102703333D01*
X168148095Y-103274761D02*
X168052857Y-103322380D01*
X167814761Y-103322380D01*
X167719523Y-103274761D01*
X167671904Y-103179523D01*
X167671904Y-103084285D01*
X167719523Y-102989047D01*
X167814761Y-102941428D01*
X168052857Y-102941428D01*
X168148095Y-102893809D01*
X168624285Y-103322380D02*
X168624285Y-102655714D01*
X168624285Y-102322380D02*
X168576666Y-102370000D01*
X168624285Y-102417619D01*
X168671904Y-102370000D01*
X168624285Y-102322380D01*
X168624285Y-102417619D01*
X169100476Y-103322380D02*
X169100476Y-102655714D01*
X169100476Y-102846190D02*
X169148095Y-102750952D01*
X169195714Y-102703333D01*
X169290952Y-102655714D01*
X169386190Y-102655714D01*
X170433809Y-103274761D02*
X170576666Y-103322380D01*
X170814761Y-103322380D01*
X170910000Y-103274761D01*
X170957619Y-103227142D01*
X171005238Y-103131904D01*
X171005238Y-103036666D01*
X170957619Y-102941428D01*
X170910000Y-102893809D01*
X170814761Y-102846190D01*
X170624285Y-102798571D01*
X170529047Y-102750952D01*
X170481428Y-102703333D01*
X170433809Y-102608095D01*
X170433809Y-102512857D01*
X170481428Y-102417619D01*
X170529047Y-102370000D01*
X170624285Y-102322380D01*
X170862380Y-102322380D01*
X171005238Y-102370000D01*
X171576666Y-102750952D02*
X171481428Y-102703333D01*
X171433809Y-102655714D01*
X171386190Y-102560476D01*
X171386190Y-102512857D01*
X171433809Y-102417619D01*
X171481428Y-102370000D01*
X171576666Y-102322380D01*
X171767142Y-102322380D01*
X171862380Y-102370000D01*
X171910000Y-102417619D01*
X171957619Y-102512857D01*
X171957619Y-102560476D01*
X171910000Y-102655714D01*
X171862380Y-102703333D01*
X171767142Y-102750952D01*
X171576666Y-102750952D01*
X171481428Y-102798571D01*
X171433809Y-102846190D01*
X171386190Y-102941428D01*
X171386190Y-103131904D01*
X171433809Y-103227142D01*
X171481428Y-103274761D01*
X171576666Y-103322380D01*
X171767142Y-103322380D01*
X171862380Y-103274761D01*
X171910000Y-103227142D01*
X171957619Y-103131904D01*
X171957619Y-102941428D01*
X171910000Y-102846190D01*
X171862380Y-102798571D01*
X171767142Y-102750952D01*
X173624285Y-103322380D02*
X173148095Y-103322380D01*
X173148095Y-102322380D01*
X173957619Y-103322380D02*
X173957619Y-102322380D01*
X174338571Y-102322380D01*
X174433809Y-102370000D01*
X174481428Y-102417619D01*
X174529047Y-102512857D01*
X174529047Y-102655714D01*
X174481428Y-102750952D01*
X174433809Y-102798571D01*
X174338571Y-102846190D01*
X173957619Y-102846190D01*
X137453666Y-103231285D02*
X137453666Y-102755095D01*
X137739380Y-103326523D02*
X136739380Y-102993190D01*
X137739380Y-102659857D01*
X137739380Y-101802714D02*
X137739380Y-102374142D01*
X137739380Y-102088428D02*
X136739380Y-102088428D01*
X136882238Y-102183666D01*
X136977476Y-102278904D01*
X137025095Y-102374142D01*
X145629142Y-115275904D02*
X145676761Y-115323523D01*
X145724380Y-115466380D01*
X145724380Y-115561619D01*
X145676761Y-115704476D01*
X145581523Y-115799714D01*
X145486285Y-115847333D01*
X145295809Y-115894952D01*
X145152952Y-115894952D01*
X144962476Y-115847333D01*
X144867238Y-115799714D01*
X144772000Y-115704476D01*
X144724380Y-115561619D01*
X144724380Y-115466380D01*
X144772000Y-115323523D01*
X144819619Y-115275904D01*
X145724380Y-114704476D02*
X145676761Y-114799714D01*
X145629142Y-114847333D01*
X145533904Y-114894952D01*
X145248190Y-114894952D01*
X145152952Y-114847333D01*
X145105333Y-114799714D01*
X145057714Y-114704476D01*
X145057714Y-114561619D01*
X145105333Y-114466380D01*
X145152952Y-114418761D01*
X145248190Y-114371142D01*
X145533904Y-114371142D01*
X145629142Y-114418761D01*
X145676761Y-114466380D01*
X145724380Y-114561619D01*
X145724380Y-114704476D01*
X145724380Y-113942571D02*
X145057714Y-113942571D01*
X145248190Y-113942571D02*
X145152952Y-113894952D01*
X145105333Y-113847333D01*
X145057714Y-113752095D01*
X145057714Y-113656857D01*
X145676761Y-112942571D02*
X145724380Y-113037809D01*
X145724380Y-113228285D01*
X145676761Y-113323523D01*
X145581523Y-113371142D01*
X145200571Y-113371142D01*
X145105333Y-113323523D01*
X145057714Y-113228285D01*
X145057714Y-113037809D01*
X145105333Y-112942571D01*
X145200571Y-112894952D01*
X145295809Y-112894952D01*
X145391047Y-113371142D01*
X144724380Y-111990190D02*
X144724380Y-112466380D01*
X145200571Y-112514000D01*
X145152952Y-112466380D01*
X145105333Y-112371142D01*
X145105333Y-112133047D01*
X145152952Y-112037809D01*
X145200571Y-111990190D01*
X145295809Y-111942571D01*
X145533904Y-111942571D01*
X145629142Y-111990190D01*
X145676761Y-112037809D01*
X145724380Y-112133047D01*
X145724380Y-112371142D01*
X145676761Y-112466380D01*
X145629142Y-112514000D01*
X144819619Y-111561619D02*
X144772000Y-111514000D01*
X144724380Y-111418761D01*
X144724380Y-111180666D01*
X144772000Y-111085428D01*
X144819619Y-111037809D01*
X144914857Y-110990190D01*
X145010095Y-110990190D01*
X145152952Y-111037809D01*
X145724380Y-111609238D01*
X145724380Y-110990190D01*
X145152952Y-110418761D02*
X145105333Y-110514000D01*
X145057714Y-110561619D01*
X144962476Y-110609238D01*
X144914857Y-110609238D01*
X144819619Y-110561619D01*
X144772000Y-110514000D01*
X144724380Y-110418761D01*
X144724380Y-110228285D01*
X144772000Y-110133047D01*
X144819619Y-110085428D01*
X144914857Y-110037809D01*
X144962476Y-110037809D01*
X145057714Y-110085428D01*
X145105333Y-110133047D01*
X145152952Y-110228285D01*
X145152952Y-110418761D01*
X145200571Y-110514000D01*
X145248190Y-110561619D01*
X145343428Y-110609238D01*
X145533904Y-110609238D01*
X145629142Y-110561619D01*
X145676761Y-110514000D01*
X145724380Y-110418761D01*
X145724380Y-110228285D01*
X145676761Y-110133047D01*
X145629142Y-110085428D01*
X145533904Y-110037809D01*
X145343428Y-110037809D01*
X145248190Y-110085428D01*
X145200571Y-110133047D01*
X145152952Y-110228285D01*
X145057714Y-109180666D02*
X145724380Y-109180666D01*
X144676761Y-109418761D02*
X145391047Y-109656857D01*
X145391047Y-109037809D01*
X144724380Y-108466380D02*
X144724380Y-108371142D01*
X144772000Y-108275904D01*
X144819619Y-108228285D01*
X144914857Y-108180666D01*
X145105333Y-108133047D01*
X145343428Y-108133047D01*
X145533904Y-108180666D01*
X145629142Y-108228285D01*
X145676761Y-108275904D01*
X145724380Y-108371142D01*
X145724380Y-108466380D01*
X145676761Y-108561619D01*
X145629142Y-108609238D01*
X145533904Y-108656857D01*
X145343428Y-108704476D01*
X145105333Y-108704476D01*
X144914857Y-108656857D01*
X144819619Y-108609238D01*
X144772000Y-108561619D01*
X144724380Y-108466380D01*
X142724380Y-115752095D02*
X143724380Y-115514000D01*
X143010095Y-115323523D01*
X143724380Y-115133047D01*
X142724380Y-114894952D01*
X143724380Y-114085428D02*
X143200571Y-114085428D01*
X143105333Y-114133047D01*
X143057714Y-114228285D01*
X143057714Y-114418761D01*
X143105333Y-114514000D01*
X143676761Y-114085428D02*
X143724380Y-114180666D01*
X143724380Y-114418761D01*
X143676761Y-114514000D01*
X143581523Y-114561619D01*
X143486285Y-114561619D01*
X143391047Y-114514000D01*
X143343428Y-114418761D01*
X143343428Y-114180666D01*
X143295809Y-114085428D01*
X143057714Y-113704476D02*
X143724380Y-113466380D01*
X143057714Y-113228285D01*
X143676761Y-112466380D02*
X143724380Y-112561619D01*
X143724380Y-112752095D01*
X143676761Y-112847333D01*
X143581523Y-112894952D01*
X143200571Y-112894952D01*
X143105333Y-112847333D01*
X143057714Y-112752095D01*
X143057714Y-112561619D01*
X143105333Y-112466380D01*
X143200571Y-112418761D01*
X143295809Y-112418761D01*
X143391047Y-112894952D01*
X143676761Y-112037809D02*
X143724380Y-111942571D01*
X143724380Y-111752095D01*
X143676761Y-111656857D01*
X143581523Y-111609238D01*
X143533904Y-111609238D01*
X143438666Y-111656857D01*
X143391047Y-111752095D01*
X143391047Y-111894952D01*
X143343428Y-111990190D01*
X143248190Y-112037809D01*
X143200571Y-112037809D01*
X143105333Y-111990190D01*
X143057714Y-111894952D01*
X143057714Y-111752095D01*
X143105333Y-111656857D01*
X143724380Y-111180666D02*
X142724380Y-111180666D01*
X143724380Y-110752095D02*
X143200571Y-110752095D01*
X143105333Y-110799714D01*
X143057714Y-110894952D01*
X143057714Y-111037809D01*
X143105333Y-111133047D01*
X143152952Y-111180666D01*
X143724380Y-109847333D02*
X143200571Y-109847333D01*
X143105333Y-109894952D01*
X143057714Y-109990190D01*
X143057714Y-110180666D01*
X143105333Y-110275904D01*
X143676761Y-109847333D02*
X143724380Y-109942571D01*
X143724380Y-110180666D01*
X143676761Y-110275904D01*
X143581523Y-110323523D01*
X143486285Y-110323523D01*
X143391047Y-110275904D01*
X143343428Y-110180666D01*
X143343428Y-109942571D01*
X143295809Y-109847333D01*
X143724380Y-109371142D02*
X143057714Y-109371142D01*
X143248190Y-109371142D02*
X143152952Y-109323523D01*
X143105333Y-109275904D01*
X143057714Y-109180666D01*
X143057714Y-109085428D01*
X143676761Y-108371142D02*
X143724380Y-108466380D01*
X143724380Y-108656857D01*
X143676761Y-108752095D01*
X143581523Y-108799714D01*
X143200571Y-108799714D01*
X143105333Y-108752095D01*
X143057714Y-108656857D01*
X143057714Y-108466380D01*
X143105333Y-108371142D01*
X143200571Y-108323523D01*
X143295809Y-108323523D01*
X143391047Y-108799714D01*
%LPC*%
G36*
G01*
X113029750Y-103139500D02*
X113792250Y-103139500D01*
G75*
G02*
X114011000Y-103358250I0J-218750D01*
G01*
X114011000Y-103795750D01*
G75*
G02*
X113792250Y-104014500I-218750J0D01*
G01*
X113029750Y-104014500D01*
G75*
G02*
X112811000Y-103795750I0J218750D01*
G01*
X112811000Y-103358250D01*
G75*
G02*
X113029750Y-103139500I218750J0D01*
G01*
G37*
G36*
G01*
X113029750Y-101014500D02*
X113792250Y-101014500D01*
G75*
G02*
X114011000Y-101233250I0J-218750D01*
G01*
X114011000Y-101670750D01*
G75*
G02*
X113792250Y-101889500I-218750J0D01*
G01*
X113029750Y-101889500D01*
G75*
G02*
X112811000Y-101670750I0J218750D01*
G01*
X112811000Y-101233250D01*
G75*
G02*
X113029750Y-101014500I218750J0D01*
G01*
G37*
G36*
G01*
X121538750Y-120513000D02*
X122301250Y-120513000D01*
G75*
G02*
X122520000Y-120731750I0J-218750D01*
G01*
X122520000Y-121169250D01*
G75*
G02*
X122301250Y-121388000I-218750J0D01*
G01*
X121538750Y-121388000D01*
G75*
G02*
X121320000Y-121169250I0J218750D01*
G01*
X121320000Y-120731750D01*
G75*
G02*
X121538750Y-120513000I218750J0D01*
G01*
G37*
G36*
G01*
X121538750Y-118388000D02*
X122301250Y-118388000D01*
G75*
G02*
X122520000Y-118606750I0J-218750D01*
G01*
X122520000Y-119044250D01*
G75*
G02*
X122301250Y-119263000I-218750J0D01*
G01*
X121538750Y-119263000D01*
G75*
G02*
X121320000Y-119044250I0J218750D01*
G01*
X121320000Y-118606750D01*
G75*
G02*
X121538750Y-118388000I218750J0D01*
G01*
G37*
G36*
G01*
X142436000Y-100949000D02*
X142806000Y-100949000D01*
G75*
G02*
X142941000Y-101084000I0J-135000D01*
G01*
X142941000Y-101354000D01*
G75*
G02*
X142806000Y-101489000I-135000J0D01*
G01*
X142436000Y-101489000D01*
G75*
G02*
X142301000Y-101354000I0J135000D01*
G01*
X142301000Y-101084000D01*
G75*
G02*
X142436000Y-100949000I135000J0D01*
G01*
G37*
G36*
G01*
X142436000Y-99929000D02*
X142806000Y-99929000D01*
G75*
G02*
X142941000Y-100064000I0J-135000D01*
G01*
X142941000Y-100334000D01*
G75*
G02*
X142806000Y-100469000I-135000J0D01*
G01*
X142436000Y-100469000D01*
G75*
G02*
X142301000Y-100334000I0J135000D01*
G01*
X142301000Y-100064000D01*
G75*
G02*
X142436000Y-99929000I135000J0D01*
G01*
G37*
G36*
G01*
X140150000Y-100949000D02*
X140520000Y-100949000D01*
G75*
G02*
X140655000Y-101084000I0J-135000D01*
G01*
X140655000Y-101354000D01*
G75*
G02*
X140520000Y-101489000I-135000J0D01*
G01*
X140150000Y-101489000D01*
G75*
G02*
X140015000Y-101354000I0J135000D01*
G01*
X140015000Y-101084000D01*
G75*
G02*
X140150000Y-100949000I135000J0D01*
G01*
G37*
G36*
G01*
X140150000Y-99929000D02*
X140520000Y-99929000D01*
G75*
G02*
X140655000Y-100064000I0J-135000D01*
G01*
X140655000Y-100334000D01*
G75*
G02*
X140520000Y-100469000I-135000J0D01*
G01*
X140150000Y-100469000D01*
G75*
G02*
X140015000Y-100334000I0J135000D01*
G01*
X140015000Y-100064000D01*
G75*
G02*
X140150000Y-99929000I135000J0D01*
G01*
G37*
G36*
G01*
X142164750Y-98367000D02*
X143077250Y-98367000D01*
G75*
G02*
X143321000Y-98610750I0J-243750D01*
G01*
X143321000Y-99098250D01*
G75*
G02*
X143077250Y-99342000I-243750J0D01*
G01*
X142164750Y-99342000D01*
G75*
G02*
X141921000Y-99098250I0J243750D01*
G01*
X141921000Y-98610750D01*
G75*
G02*
X142164750Y-98367000I243750J0D01*
G01*
G37*
G36*
G01*
X142164750Y-96492000D02*
X143077250Y-96492000D01*
G75*
G02*
X143321000Y-96735750I0J-243750D01*
G01*
X143321000Y-97223250D01*
G75*
G02*
X143077250Y-97467000I-243750J0D01*
G01*
X142164750Y-97467000D01*
G75*
G02*
X141921000Y-97223250I0J243750D01*
G01*
X141921000Y-96735750D01*
G75*
G02*
X142164750Y-96492000I243750J0D01*
G01*
G37*
G36*
G01*
X139878750Y-98367000D02*
X140791250Y-98367000D01*
G75*
G02*
X141035000Y-98610750I0J-243750D01*
G01*
X141035000Y-99098250D01*
G75*
G02*
X140791250Y-99342000I-243750J0D01*
G01*
X139878750Y-99342000D01*
G75*
G02*
X139635000Y-99098250I0J243750D01*
G01*
X139635000Y-98610750D01*
G75*
G02*
X139878750Y-98367000I243750J0D01*
G01*
G37*
G36*
G01*
X139878750Y-96492000D02*
X140791250Y-96492000D01*
G75*
G02*
X141035000Y-96735750I0J-243750D01*
G01*
X141035000Y-97223250D01*
G75*
G02*
X140791250Y-97467000I-243750J0D01*
G01*
X139878750Y-97467000D01*
G75*
G02*
X139635000Y-97223250I0J243750D01*
G01*
X139635000Y-96735750D01*
G75*
G02*
X139878750Y-96492000I243750J0D01*
G01*
G37*
G36*
G01*
X157212000Y-115501000D02*
X157212000Y-115131000D01*
G75*
G02*
X157347000Y-114996000I135000J0D01*
G01*
X157617000Y-114996000D01*
G75*
G02*
X157752000Y-115131000I0J-135000D01*
G01*
X157752000Y-115501000D01*
G75*
G02*
X157617000Y-115636000I-135000J0D01*
G01*
X157347000Y-115636000D01*
G75*
G02*
X157212000Y-115501000I0J135000D01*
G01*
G37*
G36*
G01*
X156192000Y-115501000D02*
X156192000Y-115131000D01*
G75*
G02*
X156327000Y-114996000I135000J0D01*
G01*
X156597000Y-114996000D01*
G75*
G02*
X156732000Y-115131000I0J-135000D01*
G01*
X156732000Y-115501000D01*
G75*
G02*
X156597000Y-115636000I-135000J0D01*
G01*
X156327000Y-115636000D01*
G75*
G02*
X156192000Y-115501000I0J135000D01*
G01*
G37*
G36*
G01*
X160262000Y-115501000D02*
X160262000Y-115131000D01*
G75*
G02*
X160397000Y-114996000I135000J0D01*
G01*
X160667000Y-114996000D01*
G75*
G02*
X160802000Y-115131000I0J-135000D01*
G01*
X160802000Y-115501000D01*
G75*
G02*
X160667000Y-115636000I-135000J0D01*
G01*
X160397000Y-115636000D01*
G75*
G02*
X160262000Y-115501000I0J135000D01*
G01*
G37*
G36*
G01*
X159242000Y-115501000D02*
X159242000Y-115131000D01*
G75*
G02*
X159377000Y-114996000I135000J0D01*
G01*
X159647000Y-114996000D01*
G75*
G02*
X159782000Y-115131000I0J-135000D01*
G01*
X159782000Y-115501000D01*
G75*
G02*
X159647000Y-115636000I-135000J0D01*
G01*
X159377000Y-115636000D01*
G75*
G02*
X159242000Y-115501000I0J135000D01*
G01*
G37*
D15*
X184150000Y-115570000D03*
X176530000Y-88900000D03*
X110490000Y-106680000D03*
G36*
G01*
X147135000Y-98792000D02*
X147505000Y-98792000D01*
G75*
G02*
X147640000Y-98927000I0J-135000D01*
G01*
X147640000Y-99197000D01*
G75*
G02*
X147505000Y-99332000I-135000J0D01*
G01*
X147135000Y-99332000D01*
G75*
G02*
X147000000Y-99197000I0J135000D01*
G01*
X147000000Y-98927000D01*
G75*
G02*
X147135000Y-98792000I135000J0D01*
G01*
G37*
G36*
G01*
X147135000Y-97772000D02*
X147505000Y-97772000D01*
G75*
G02*
X147640000Y-97907000I0J-135000D01*
G01*
X147640000Y-98177000D01*
G75*
G02*
X147505000Y-98312000I-135000J0D01*
G01*
X147135000Y-98312000D01*
G75*
G02*
X147000000Y-98177000I0J135000D01*
G01*
X147000000Y-97907000D01*
G75*
G02*
X147135000Y-97772000I135000J0D01*
G01*
G37*
G36*
G01*
X148659000Y-98792000D02*
X149029000Y-98792000D01*
G75*
G02*
X149164000Y-98927000I0J-135000D01*
G01*
X149164000Y-99197000D01*
G75*
G02*
X149029000Y-99332000I-135000J0D01*
G01*
X148659000Y-99332000D01*
G75*
G02*
X148524000Y-99197000I0J135000D01*
G01*
X148524000Y-98927000D01*
G75*
G02*
X148659000Y-98792000I135000J0D01*
G01*
G37*
G36*
G01*
X148659000Y-97772000D02*
X149029000Y-97772000D01*
G75*
G02*
X149164000Y-97907000I0J-135000D01*
G01*
X149164000Y-98177000D01*
G75*
G02*
X149029000Y-98312000I-135000J0D01*
G01*
X148659000Y-98312000D01*
G75*
G02*
X148524000Y-98177000I0J135000D01*
G01*
X148524000Y-97907000D01*
G75*
G02*
X148659000Y-97772000I135000J0D01*
G01*
G37*
G36*
G01*
X150183000Y-98792000D02*
X150553000Y-98792000D01*
G75*
G02*
X150688000Y-98927000I0J-135000D01*
G01*
X150688000Y-99197000D01*
G75*
G02*
X150553000Y-99332000I-135000J0D01*
G01*
X150183000Y-99332000D01*
G75*
G02*
X150048000Y-99197000I0J135000D01*
G01*
X150048000Y-98927000D01*
G75*
G02*
X150183000Y-98792000I135000J0D01*
G01*
G37*
G36*
G01*
X150183000Y-97772000D02*
X150553000Y-97772000D01*
G75*
G02*
X150688000Y-97907000I0J-135000D01*
G01*
X150688000Y-98177000D01*
G75*
G02*
X150553000Y-98312000I-135000J0D01*
G01*
X150183000Y-98312000D01*
G75*
G02*
X150048000Y-98177000I0J135000D01*
G01*
X150048000Y-97907000D01*
G75*
G02*
X150183000Y-97772000I135000J0D01*
G01*
G37*
D16*
X177800000Y-96150000D03*
D17*
X177800000Y-98690000D03*
D16*
X177800000Y-102050000D03*
D17*
X177800000Y-104590000D03*
D16*
X177800000Y-107950000D03*
D17*
X177800000Y-110490000D03*
G36*
G01*
X150930000Y-88984000D02*
X150930000Y-89324000D01*
G75*
G02*
X150790000Y-89464000I-140000J0D01*
G01*
X150510000Y-89464000D01*
G75*
G02*
X150370000Y-89324000I0J140000D01*
G01*
X150370000Y-88984000D01*
G75*
G02*
X150510000Y-88844000I140000J0D01*
G01*
X150790000Y-88844000D01*
G75*
G02*
X150930000Y-88984000I0J-140000D01*
G01*
G37*
G36*
G01*
X151890000Y-88984000D02*
X151890000Y-89324000D01*
G75*
G02*
X151750000Y-89464000I-140000J0D01*
G01*
X151470000Y-89464000D01*
G75*
G02*
X151330000Y-89324000I0J140000D01*
G01*
X151330000Y-88984000D01*
G75*
G02*
X151470000Y-88844000I140000J0D01*
G01*
X151750000Y-88844000D01*
G75*
G02*
X151890000Y-88984000I0J-140000D01*
G01*
G37*
D18*
X156972000Y-119888000D03*
X159512000Y-119888000D03*
X162052000Y-119888000D03*
X164592000Y-119888000D03*
X167132000Y-119888000D03*
D19*
X169672000Y-119888000D03*
D20*
X178181000Y-118491000D03*
X178181000Y-117221000D03*
X178181000Y-115951000D03*
X176911000Y-115951000D03*
X176911000Y-117221000D03*
X176911000Y-118491000D03*
D21*
X177546000Y-119761000D03*
X176531000Y-114681000D03*
X178561000Y-114681000D03*
D22*
X175006000Y-116586000D03*
X180086000Y-116586000D03*
X180086000Y-119761000D03*
X175006000Y-119761000D03*
G36*
G01*
X116894000Y-89238000D02*
X116894000Y-89578000D01*
G75*
G02*
X116754000Y-89718000I-140000J0D01*
G01*
X116474000Y-89718000D01*
G75*
G02*
X116334000Y-89578000I0J140000D01*
G01*
X116334000Y-89238000D01*
G75*
G02*
X116474000Y-89098000I140000J0D01*
G01*
X116754000Y-89098000D01*
G75*
G02*
X116894000Y-89238000I0J-140000D01*
G01*
G37*
G36*
G01*
X117854000Y-89238000D02*
X117854000Y-89578000D01*
G75*
G02*
X117714000Y-89718000I-140000J0D01*
G01*
X117434000Y-89718000D01*
G75*
G02*
X117294000Y-89578000I0J140000D01*
G01*
X117294000Y-89238000D01*
G75*
G02*
X117434000Y-89098000I140000J0D01*
G01*
X117714000Y-89098000D01*
G75*
G02*
X117854000Y-89238000I0J-140000D01*
G01*
G37*
G36*
G01*
X147628000Y-88984000D02*
X147628000Y-89324000D01*
G75*
G02*
X147488000Y-89464000I-140000J0D01*
G01*
X147208000Y-89464000D01*
G75*
G02*
X147068000Y-89324000I0J140000D01*
G01*
X147068000Y-88984000D01*
G75*
G02*
X147208000Y-88844000I140000J0D01*
G01*
X147488000Y-88844000D01*
G75*
G02*
X147628000Y-88984000I0J-140000D01*
G01*
G37*
G36*
G01*
X148588000Y-88984000D02*
X148588000Y-89324000D01*
G75*
G02*
X148448000Y-89464000I-140000J0D01*
G01*
X148168000Y-89464000D01*
G75*
G02*
X148028000Y-89324000I0J140000D01*
G01*
X148028000Y-88984000D01*
G75*
G02*
X148168000Y-88844000I140000J0D01*
G01*
X148448000Y-88844000D01*
G75*
G02*
X148588000Y-88984000I0J-140000D01*
G01*
G37*
G36*
G01*
X116894000Y-90508000D02*
X116894000Y-90848000D01*
G75*
G02*
X116754000Y-90988000I-140000J0D01*
G01*
X116474000Y-90988000D01*
G75*
G02*
X116334000Y-90848000I0J140000D01*
G01*
X116334000Y-90508000D01*
G75*
G02*
X116474000Y-90368000I140000J0D01*
G01*
X116754000Y-90368000D01*
G75*
G02*
X116894000Y-90508000I0J-140000D01*
G01*
G37*
G36*
G01*
X117854000Y-90508000D02*
X117854000Y-90848000D01*
G75*
G02*
X117714000Y-90988000I-140000J0D01*
G01*
X117434000Y-90988000D01*
G75*
G02*
X117294000Y-90848000I0J140000D01*
G01*
X117294000Y-90508000D01*
G75*
G02*
X117434000Y-90368000I140000J0D01*
G01*
X117714000Y-90368000D01*
G75*
G02*
X117854000Y-90508000I0J-140000D01*
G01*
G37*
G36*
G01*
X116894000Y-91778000D02*
X116894000Y-92118000D01*
G75*
G02*
X116754000Y-92258000I-140000J0D01*
G01*
X116474000Y-92258000D01*
G75*
G02*
X116334000Y-92118000I0J140000D01*
G01*
X116334000Y-91778000D01*
G75*
G02*
X116474000Y-91638000I140000J0D01*
G01*
X116754000Y-91638000D01*
G75*
G02*
X116894000Y-91778000I0J-140000D01*
G01*
G37*
G36*
G01*
X117854000Y-91778000D02*
X117854000Y-92118000D01*
G75*
G02*
X117714000Y-92258000I-140000J0D01*
G01*
X117434000Y-92258000D01*
G75*
G02*
X117294000Y-92118000I0J140000D01*
G01*
X117294000Y-91778000D01*
G75*
G02*
X117434000Y-91638000I140000J0D01*
G01*
X117714000Y-91638000D01*
G75*
G02*
X117854000Y-91778000I0J-140000D01*
G01*
G37*
G36*
G01*
X140798000Y-88984000D02*
X140798000Y-89324000D01*
G75*
G02*
X140658000Y-89464000I-140000J0D01*
G01*
X140378000Y-89464000D01*
G75*
G02*
X140238000Y-89324000I0J140000D01*
G01*
X140238000Y-88984000D01*
G75*
G02*
X140378000Y-88844000I140000J0D01*
G01*
X140658000Y-88844000D01*
G75*
G02*
X140798000Y-88984000I0J-140000D01*
G01*
G37*
G36*
G01*
X141758000Y-88984000D02*
X141758000Y-89324000D01*
G75*
G02*
X141618000Y-89464000I-140000J0D01*
G01*
X141338000Y-89464000D01*
G75*
G02*
X141198000Y-89324000I0J140000D01*
G01*
X141198000Y-88984000D01*
G75*
G02*
X141338000Y-88844000I140000J0D01*
G01*
X141618000Y-88844000D01*
G75*
G02*
X141758000Y-88984000I0J-140000D01*
G01*
G37*
G36*
G01*
X116894000Y-93048000D02*
X116894000Y-93388000D01*
G75*
G02*
X116754000Y-93528000I-140000J0D01*
G01*
X116474000Y-93528000D01*
G75*
G02*
X116334000Y-93388000I0J140000D01*
G01*
X116334000Y-93048000D01*
G75*
G02*
X116474000Y-92908000I140000J0D01*
G01*
X116754000Y-92908000D01*
G75*
G02*
X116894000Y-93048000I0J-140000D01*
G01*
G37*
G36*
G01*
X117854000Y-93048000D02*
X117854000Y-93388000D01*
G75*
G02*
X117714000Y-93528000I-140000J0D01*
G01*
X117434000Y-93528000D01*
G75*
G02*
X117294000Y-93388000I0J140000D01*
G01*
X117294000Y-93048000D01*
G75*
G02*
X117434000Y-92908000I140000J0D01*
G01*
X117714000Y-92908000D01*
G75*
G02*
X117854000Y-93048000I0J-140000D01*
G01*
G37*
G36*
G01*
X136650000Y-88984000D02*
X136650000Y-89324000D01*
G75*
G02*
X136510000Y-89464000I-140000J0D01*
G01*
X136230000Y-89464000D01*
G75*
G02*
X136090000Y-89324000I0J140000D01*
G01*
X136090000Y-88984000D01*
G75*
G02*
X136230000Y-88844000I140000J0D01*
G01*
X136510000Y-88844000D01*
G75*
G02*
X136650000Y-88984000I0J-140000D01*
G01*
G37*
G36*
G01*
X135690000Y-88984000D02*
X135690000Y-89324000D01*
G75*
G02*
X135550000Y-89464000I-140000J0D01*
G01*
X135270000Y-89464000D01*
G75*
G02*
X135130000Y-89324000I0J140000D01*
G01*
X135130000Y-88984000D01*
G75*
G02*
X135270000Y-88844000I140000J0D01*
G01*
X135550000Y-88844000D01*
G75*
G02*
X135690000Y-88984000I0J-140000D01*
G01*
G37*
G36*
G01*
X116894000Y-94318000D02*
X116894000Y-94658000D01*
G75*
G02*
X116754000Y-94798000I-140000J0D01*
G01*
X116474000Y-94798000D01*
G75*
G02*
X116334000Y-94658000I0J140000D01*
G01*
X116334000Y-94318000D01*
G75*
G02*
X116474000Y-94178000I140000J0D01*
G01*
X116754000Y-94178000D01*
G75*
G02*
X116894000Y-94318000I0J-140000D01*
G01*
G37*
G36*
G01*
X117854000Y-94318000D02*
X117854000Y-94658000D01*
G75*
G02*
X117714000Y-94798000I-140000J0D01*
G01*
X117434000Y-94798000D01*
G75*
G02*
X117294000Y-94658000I0J140000D01*
G01*
X117294000Y-94318000D01*
G75*
G02*
X117434000Y-94178000I140000J0D01*
G01*
X117714000Y-94178000D01*
G75*
G02*
X117854000Y-94318000I0J-140000D01*
G01*
G37*
G36*
G01*
X134297000Y-115584000D02*
X133927000Y-115584000D01*
G75*
G02*
X133792000Y-115449000I0J135000D01*
G01*
X133792000Y-115179000D01*
G75*
G02*
X133927000Y-115044000I135000J0D01*
G01*
X134297000Y-115044000D01*
G75*
G02*
X134432000Y-115179000I0J-135000D01*
G01*
X134432000Y-115449000D01*
G75*
G02*
X134297000Y-115584000I-135000J0D01*
G01*
G37*
G36*
G01*
X134297000Y-116604000D02*
X133927000Y-116604000D01*
G75*
G02*
X133792000Y-116469000I0J135000D01*
G01*
X133792000Y-116199000D01*
G75*
G02*
X133927000Y-116064000I135000J0D01*
G01*
X134297000Y-116064000D01*
G75*
G02*
X134432000Y-116199000I0J-135000D01*
G01*
X134432000Y-116469000D01*
G75*
G02*
X134297000Y-116604000I-135000J0D01*
G01*
G37*
G36*
G01*
X186450000Y-100145000D02*
X186450000Y-100515000D01*
G75*
G02*
X186315000Y-100650000I-135000J0D01*
G01*
X186045000Y-100650000D01*
G75*
G02*
X185910000Y-100515000I0J135000D01*
G01*
X185910000Y-100145000D01*
G75*
G02*
X186045000Y-100010000I135000J0D01*
G01*
X186315000Y-100010000D01*
G75*
G02*
X186450000Y-100145000I0J-135000D01*
G01*
G37*
G36*
G01*
X187470000Y-100145000D02*
X187470000Y-100515000D01*
G75*
G02*
X187335000Y-100650000I-135000J0D01*
G01*
X187065000Y-100650000D01*
G75*
G02*
X186930000Y-100515000I0J135000D01*
G01*
X186930000Y-100145000D01*
G75*
G02*
X187065000Y-100010000I135000J0D01*
G01*
X187335000Y-100010000D01*
G75*
G02*
X187470000Y-100145000I0J-135000D01*
G01*
G37*
G36*
G01*
X186450000Y-102685000D02*
X186450000Y-103055000D01*
G75*
G02*
X186315000Y-103190000I-135000J0D01*
G01*
X186045000Y-103190000D01*
G75*
G02*
X185910000Y-103055000I0J135000D01*
G01*
X185910000Y-102685000D01*
G75*
G02*
X186045000Y-102550000I135000J0D01*
G01*
X186315000Y-102550000D01*
G75*
G02*
X186450000Y-102685000I0J-135000D01*
G01*
G37*
G36*
G01*
X187470000Y-102685000D02*
X187470000Y-103055000D01*
G75*
G02*
X187335000Y-103190000I-135000J0D01*
G01*
X187065000Y-103190000D01*
G75*
G02*
X186930000Y-103055000I0J135000D01*
G01*
X186930000Y-102685000D01*
G75*
G02*
X187065000Y-102550000I135000J0D01*
G01*
X187335000Y-102550000D01*
G75*
G02*
X187470000Y-102685000I0J-135000D01*
G01*
G37*
G36*
G01*
X150168000Y-102192000D02*
X150168000Y-102532000D01*
G75*
G02*
X150028000Y-102672000I-140000J0D01*
G01*
X149748000Y-102672000D01*
G75*
G02*
X149608000Y-102532000I0J140000D01*
G01*
X149608000Y-102192000D01*
G75*
G02*
X149748000Y-102052000I140000J0D01*
G01*
X150028000Y-102052000D01*
G75*
G02*
X150168000Y-102192000I0J-140000D01*
G01*
G37*
G36*
G01*
X151128000Y-102192000D02*
X151128000Y-102532000D01*
G75*
G02*
X150988000Y-102672000I-140000J0D01*
G01*
X150708000Y-102672000D01*
G75*
G02*
X150568000Y-102532000I0J140000D01*
G01*
X150568000Y-102192000D01*
G75*
G02*
X150708000Y-102052000I140000J0D01*
G01*
X150988000Y-102052000D01*
G75*
G02*
X151128000Y-102192000I0J-140000D01*
G01*
G37*
D23*
X110871000Y-100187000D03*
X109921000Y-98187000D03*
X111821000Y-98187000D03*
G36*
G01*
X118858000Y-120327000D02*
X118858000Y-119957000D01*
G75*
G02*
X118993000Y-119822000I135000J0D01*
G01*
X119263000Y-119822000D01*
G75*
G02*
X119398000Y-119957000I0J-135000D01*
G01*
X119398000Y-120327000D01*
G75*
G02*
X119263000Y-120462000I-135000J0D01*
G01*
X118993000Y-120462000D01*
G75*
G02*
X118858000Y-120327000I0J135000D01*
G01*
G37*
G36*
G01*
X117838000Y-120327000D02*
X117838000Y-119957000D01*
G75*
G02*
X117973000Y-119822000I135000J0D01*
G01*
X118243000Y-119822000D01*
G75*
G02*
X118378000Y-119957000I0J-135000D01*
G01*
X118378000Y-120327000D01*
G75*
G02*
X118243000Y-120462000I-135000J0D01*
G01*
X117973000Y-120462000D01*
G75*
G02*
X117838000Y-120327000I0J135000D01*
G01*
G37*
G36*
G01*
X115302000Y-110167000D02*
X115302000Y-109797000D01*
G75*
G02*
X115437000Y-109662000I135000J0D01*
G01*
X115707000Y-109662000D01*
G75*
G02*
X115842000Y-109797000I0J-135000D01*
G01*
X115842000Y-110167000D01*
G75*
G02*
X115707000Y-110302000I-135000J0D01*
G01*
X115437000Y-110302000D01*
G75*
G02*
X115302000Y-110167000I0J135000D01*
G01*
G37*
G36*
G01*
X114282000Y-110167000D02*
X114282000Y-109797000D01*
G75*
G02*
X114417000Y-109662000I135000J0D01*
G01*
X114687000Y-109662000D01*
G75*
G02*
X114822000Y-109797000I0J-135000D01*
G01*
X114822000Y-110167000D01*
G75*
G02*
X114687000Y-110302000I-135000J0D01*
G01*
X114417000Y-110302000D01*
G75*
G02*
X114282000Y-110167000I0J135000D01*
G01*
G37*
D24*
X113011000Y-119074000D03*
X113011000Y-118274000D03*
X113011000Y-113374000D03*
X113011000Y-112574000D03*
X113011000Y-112574000D03*
X113011000Y-113374000D03*
X113011000Y-118274000D03*
X113011000Y-119074000D03*
D25*
X113011000Y-114074000D03*
X113011000Y-114574000D03*
X113011000Y-115074000D03*
X113011000Y-116074000D03*
X113011000Y-116574000D03*
X113011000Y-117074000D03*
X113011000Y-117574000D03*
X113011000Y-115574000D03*
D26*
X112096000Y-120144000D03*
X112096000Y-111504000D03*
D27*
X111566000Y-112934000D03*
D28*
X107916000Y-111504000D03*
D27*
X111566000Y-118714000D03*
D28*
X107916000Y-120144000D03*
G36*
G01*
X110686000Y-94492000D02*
X110686000Y-94992000D01*
G75*
G02*
X110461000Y-95217000I-225000J0D01*
G01*
X110011000Y-95217000D01*
G75*
G02*
X109786000Y-94992000I0J225000D01*
G01*
X109786000Y-94492000D01*
G75*
G02*
X110011000Y-94267000I225000J0D01*
G01*
X110461000Y-94267000D01*
G75*
G02*
X110686000Y-94492000I0J-225000D01*
G01*
G37*
G36*
G01*
X112236000Y-94492000D02*
X112236000Y-94992000D01*
G75*
G02*
X112011000Y-95217000I-225000J0D01*
G01*
X111561000Y-95217000D01*
G75*
G02*
X111336000Y-94992000I0J225000D01*
G01*
X111336000Y-94492000D01*
G75*
G02*
X111561000Y-94267000I225000J0D01*
G01*
X112011000Y-94267000D01*
G75*
G02*
X112236000Y-94492000I0J-225000D01*
G01*
G37*
G36*
G01*
X125788000Y-119884000D02*
X125788000Y-119384000D01*
G75*
G02*
X126013000Y-119159000I225000J0D01*
G01*
X126463000Y-119159000D01*
G75*
G02*
X126688000Y-119384000I0J-225000D01*
G01*
X126688000Y-119884000D01*
G75*
G02*
X126463000Y-120109000I-225000J0D01*
G01*
X126013000Y-120109000D01*
G75*
G02*
X125788000Y-119884000I0J225000D01*
G01*
G37*
G36*
G01*
X124238000Y-119884000D02*
X124238000Y-119384000D01*
G75*
G02*
X124463000Y-119159000I225000J0D01*
G01*
X124913000Y-119159000D01*
G75*
G02*
X125138000Y-119384000I0J-225000D01*
G01*
X125138000Y-119884000D01*
G75*
G02*
X124913000Y-120109000I-225000J0D01*
G01*
X124463000Y-120109000D01*
G75*
G02*
X124238000Y-119884000I0J225000D01*
G01*
G37*
G36*
G01*
X110686000Y-96397000D02*
X110686000Y-96897000D01*
G75*
G02*
X110461000Y-97122000I-225000J0D01*
G01*
X110011000Y-97122000D01*
G75*
G02*
X109786000Y-96897000I0J225000D01*
G01*
X109786000Y-96397000D01*
G75*
G02*
X110011000Y-96172000I225000J0D01*
G01*
X110461000Y-96172000D01*
G75*
G02*
X110686000Y-96397000I0J-225000D01*
G01*
G37*
G36*
G01*
X112236000Y-96397000D02*
X112236000Y-96897000D01*
G75*
G02*
X112011000Y-97122000I-225000J0D01*
G01*
X111561000Y-97122000D01*
G75*
G02*
X111336000Y-96897000I0J225000D01*
G01*
X111336000Y-96397000D01*
G75*
G02*
X111561000Y-96172000I225000J0D01*
G01*
X112011000Y-96172000D01*
G75*
G02*
X112236000Y-96397000I0J-225000D01*
G01*
G37*
G36*
G01*
X113161000Y-99372000D02*
X113661000Y-99372000D01*
G75*
G02*
X113886000Y-99597000I0J-225000D01*
G01*
X113886000Y-100047000D01*
G75*
G02*
X113661000Y-100272000I-225000J0D01*
G01*
X113161000Y-100272000D01*
G75*
G02*
X112936000Y-100047000I0J225000D01*
G01*
X112936000Y-99597000D01*
G75*
G02*
X113161000Y-99372000I225000J0D01*
G01*
G37*
G36*
G01*
X113161000Y-97822000D02*
X113661000Y-97822000D01*
G75*
G02*
X113886000Y-98047000I0J-225000D01*
G01*
X113886000Y-98497000D01*
G75*
G02*
X113661000Y-98722000I-225000J0D01*
G01*
X113161000Y-98722000D01*
G75*
G02*
X112936000Y-98497000I0J225000D01*
G01*
X112936000Y-98047000D01*
G75*
G02*
X113161000Y-97822000I225000J0D01*
G01*
G37*
D29*
X131826000Y-116840000D03*
X129286000Y-116840000D03*
X126746000Y-116840000D03*
X124206000Y-116840000D03*
D30*
X183370000Y-97790000D03*
X183370000Y-100330000D03*
X183370000Y-102870000D03*
X183370000Y-105410000D03*
X153670000Y-105410000D03*
D19*
X153670000Y-97790000D03*
D30*
X153670000Y-100330000D03*
X153670000Y-102870000D03*
X183370000Y-107950000D03*
D31*
X167640000Y-115570000D03*
D32*
X165100000Y-115570000D03*
D31*
X121920000Y-115570000D03*
X119380000Y-115570000D03*
X119380000Y-87630000D03*
X121920000Y-87630000D03*
X124460000Y-87630000D03*
X127000000Y-87630000D03*
X129540000Y-87630000D03*
X132080000Y-87630000D03*
X134620000Y-87630000D03*
X137160000Y-87630000D03*
X139700000Y-87630000D03*
X142240000Y-87630000D03*
X144780000Y-87630000D03*
X147320000Y-87630000D03*
X149860000Y-87630000D03*
X152400000Y-87630000D03*
X154940000Y-87630000D03*
X157480000Y-87630000D03*
X160020000Y-87630000D03*
X162560000Y-87630000D03*
X165100000Y-87630000D03*
X167640000Y-87630000D03*
G36*
G01*
X138604500Y-103149000D02*
X138939500Y-103149000D01*
G75*
G02*
X139107000Y-103316500I0J-167500D01*
G01*
X139107000Y-104511500D01*
G75*
G02*
X138939500Y-104679000I-167500J0D01*
G01*
X138604500Y-104679000D01*
G75*
G02*
X138437000Y-104511500I0J167500D01*
G01*
X138437000Y-103316500D01*
G75*
G02*
X138604500Y-103149000I167500J0D01*
G01*
G37*
G36*
G01*
X139704500Y-103149000D02*
X140039500Y-103149000D01*
G75*
G02*
X140207000Y-103316500I0J-167500D01*
G01*
X140207000Y-104511500D01*
G75*
G02*
X140039500Y-104679000I-167500J0D01*
G01*
X139704500Y-104679000D01*
G75*
G02*
X139537000Y-104511500I0J167500D01*
G01*
X139537000Y-103316500D01*
G75*
G02*
X139704500Y-103149000I167500J0D01*
G01*
G37*
G36*
G01*
X140804500Y-103149000D02*
X141139500Y-103149000D01*
G75*
G02*
X141307000Y-103316500I0J-167500D01*
G01*
X141307000Y-104511500D01*
G75*
G02*
X141139500Y-104679000I-167500J0D01*
G01*
X140804500Y-104679000D01*
G75*
G02*
X140637000Y-104511500I0J167500D01*
G01*
X140637000Y-103316500D01*
G75*
G02*
X140804500Y-103149000I167500J0D01*
G01*
G37*
G36*
G01*
X141904500Y-103149000D02*
X142239500Y-103149000D01*
G75*
G02*
X142407000Y-103316500I0J-167500D01*
G01*
X142407000Y-104511500D01*
G75*
G02*
X142239500Y-104679000I-167500J0D01*
G01*
X141904500Y-104679000D01*
G75*
G02*
X141737000Y-104511500I0J167500D01*
G01*
X141737000Y-103316500D01*
G75*
G02*
X141904500Y-103149000I167500J0D01*
G01*
G37*
G36*
G01*
X143004500Y-103149000D02*
X143339500Y-103149000D01*
G75*
G02*
X143507000Y-103316500I0J-167500D01*
G01*
X143507000Y-104511500D01*
G75*
G02*
X143339500Y-104679000I-167500J0D01*
G01*
X143004500Y-104679000D01*
G75*
G02*
X142837000Y-104511500I0J167500D01*
G01*
X142837000Y-103316500D01*
G75*
G02*
X143004500Y-103149000I167500J0D01*
G01*
G37*
G36*
G01*
X149604500Y-103149000D02*
X149939500Y-103149000D01*
G75*
G02*
X150107000Y-103316500I0J-167500D01*
G01*
X150107000Y-104511500D01*
G75*
G02*
X149939500Y-104679000I-167500J0D01*
G01*
X149604500Y-104679000D01*
G75*
G02*
X149437000Y-104511500I0J167500D01*
G01*
X149437000Y-103316500D01*
G75*
G02*
X149604500Y-103149000I167500J0D01*
G01*
G37*
G36*
G01*
X148504500Y-103149000D02*
X148839500Y-103149000D01*
G75*
G02*
X149007000Y-103316500I0J-167500D01*
G01*
X149007000Y-104511500D01*
G75*
G02*
X148839500Y-104679000I-167500J0D01*
G01*
X148504500Y-104679000D01*
G75*
G02*
X148337000Y-104511500I0J167500D01*
G01*
X148337000Y-103316500D01*
G75*
G02*
X148504500Y-103149000I167500J0D01*
G01*
G37*
G36*
G01*
X147404500Y-103149000D02*
X147739500Y-103149000D01*
G75*
G02*
X147907000Y-103316500I0J-167500D01*
G01*
X147907000Y-104511500D01*
G75*
G02*
X147739500Y-104679000I-167500J0D01*
G01*
X147404500Y-104679000D01*
G75*
G02*
X147237000Y-104511500I0J167500D01*
G01*
X147237000Y-103316500D01*
G75*
G02*
X147404500Y-103149000I167500J0D01*
G01*
G37*
G36*
G01*
X146304500Y-103149000D02*
X146639500Y-103149000D01*
G75*
G02*
X146807000Y-103316500I0J-167500D01*
G01*
X146807000Y-104511500D01*
G75*
G02*
X146639500Y-104679000I-167500J0D01*
G01*
X146304500Y-104679000D01*
G75*
G02*
X146137000Y-104511500I0J167500D01*
G01*
X146137000Y-103316500D01*
G75*
G02*
X146304500Y-103149000I167500J0D01*
G01*
G37*
G36*
G01*
X145204500Y-103149000D02*
X145539500Y-103149000D01*
G75*
G02*
X145707000Y-103316500I0J-167500D01*
G01*
X145707000Y-104511500D01*
G75*
G02*
X145539500Y-104679000I-167500J0D01*
G01*
X145204500Y-104679000D01*
G75*
G02*
X145037000Y-104511500I0J167500D01*
G01*
X145037000Y-103316500D01*
G75*
G02*
X145204500Y-103149000I167500J0D01*
G01*
G37*
G36*
G01*
X138287000Y-105246500D02*
X138287000Y-105581500D01*
G75*
G02*
X138119500Y-105749000I-167500J0D01*
G01*
X136924500Y-105749000D01*
G75*
G02*
X136757000Y-105581500I0J167500D01*
G01*
X136757000Y-105246500D01*
G75*
G02*
X136924500Y-105079000I167500J0D01*
G01*
X138119500Y-105079000D01*
G75*
G02*
X138287000Y-105246500I0J-167500D01*
G01*
G37*
G36*
G01*
X144104500Y-103149000D02*
X144439500Y-103149000D01*
G75*
G02*
X144607000Y-103316500I0J-167500D01*
G01*
X144607000Y-104511500D01*
G75*
G02*
X144439500Y-104679000I-167500J0D01*
G01*
X144104500Y-104679000D01*
G75*
G02*
X143937000Y-104511500I0J167500D01*
G01*
X143937000Y-103316500D01*
G75*
G02*
X144104500Y-103149000I167500J0D01*
G01*
G37*
G36*
G01*
X138287000Y-106346500D02*
X138287000Y-106681500D01*
G75*
G02*
X138119500Y-106849000I-167500J0D01*
G01*
X136924500Y-106849000D01*
G75*
G02*
X136757000Y-106681500I0J167500D01*
G01*
X136757000Y-106346500D01*
G75*
G02*
X136924500Y-106179000I167500J0D01*
G01*
X138119500Y-106179000D01*
G75*
G02*
X138287000Y-106346500I0J-167500D01*
G01*
G37*
G36*
G01*
X138287000Y-107446500D02*
X138287000Y-107781500D01*
G75*
G02*
X138119500Y-107949000I-167500J0D01*
G01*
X136924500Y-107949000D01*
G75*
G02*
X136757000Y-107781500I0J167500D01*
G01*
X136757000Y-107446500D01*
G75*
G02*
X136924500Y-107279000I167500J0D01*
G01*
X138119500Y-107279000D01*
G75*
G02*
X138287000Y-107446500I0J-167500D01*
G01*
G37*
G36*
G01*
X138287000Y-108546500D02*
X138287000Y-108881500D01*
G75*
G02*
X138119500Y-109049000I-167500J0D01*
G01*
X136924500Y-109049000D01*
G75*
G02*
X136757000Y-108881500I0J167500D01*
G01*
X136757000Y-108546500D01*
G75*
G02*
X136924500Y-108379000I167500J0D01*
G01*
X138119500Y-108379000D01*
G75*
G02*
X138287000Y-108546500I0J-167500D01*
G01*
G37*
G36*
G01*
X138287000Y-109646500D02*
X138287000Y-109981500D01*
G75*
G02*
X138119500Y-110149000I-167500J0D01*
G01*
X136924500Y-110149000D01*
G75*
G02*
X136757000Y-109981500I0J167500D01*
G01*
X136757000Y-109646500D01*
G75*
G02*
X136924500Y-109479000I167500J0D01*
G01*
X138119500Y-109479000D01*
G75*
G02*
X138287000Y-109646500I0J-167500D01*
G01*
G37*
G36*
G01*
X138287000Y-110746500D02*
X138287000Y-111081500D01*
G75*
G02*
X138119500Y-111249000I-167500J0D01*
G01*
X136924500Y-111249000D01*
G75*
G02*
X136757000Y-111081500I0J167500D01*
G01*
X136757000Y-110746500D01*
G75*
G02*
X136924500Y-110579000I167500J0D01*
G01*
X138119500Y-110579000D01*
G75*
G02*
X138287000Y-110746500I0J-167500D01*
G01*
G37*
G36*
G01*
X138287000Y-118446500D02*
X138287000Y-118781500D01*
G75*
G02*
X138119500Y-118949000I-167500J0D01*
G01*
X136924500Y-118949000D01*
G75*
G02*
X136757000Y-118781500I0J167500D01*
G01*
X136757000Y-118446500D01*
G75*
G02*
X136924500Y-118279000I167500J0D01*
G01*
X138119500Y-118279000D01*
G75*
G02*
X138287000Y-118446500I0J-167500D01*
G01*
G37*
G36*
G01*
X138287000Y-117346500D02*
X138287000Y-117681500D01*
G75*
G02*
X138119500Y-117849000I-167500J0D01*
G01*
X136924500Y-117849000D01*
G75*
G02*
X136757000Y-117681500I0J167500D01*
G01*
X136757000Y-117346500D01*
G75*
G02*
X136924500Y-117179000I167500J0D01*
G01*
X138119500Y-117179000D01*
G75*
G02*
X138287000Y-117346500I0J-167500D01*
G01*
G37*
G36*
G01*
X138287000Y-116246500D02*
X138287000Y-116581500D01*
G75*
G02*
X138119500Y-116749000I-167500J0D01*
G01*
X136924500Y-116749000D01*
G75*
G02*
X136757000Y-116581500I0J167500D01*
G01*
X136757000Y-116246500D01*
G75*
G02*
X136924500Y-116079000I167500J0D01*
G01*
X138119500Y-116079000D01*
G75*
G02*
X138287000Y-116246500I0J-167500D01*
G01*
G37*
G36*
G01*
X138287000Y-115146500D02*
X138287000Y-115481500D01*
G75*
G02*
X138119500Y-115649000I-167500J0D01*
G01*
X136924500Y-115649000D01*
G75*
G02*
X136757000Y-115481500I0J167500D01*
G01*
X136757000Y-115146500D01*
G75*
G02*
X136924500Y-114979000I167500J0D01*
G01*
X138119500Y-114979000D01*
G75*
G02*
X138287000Y-115146500I0J-167500D01*
G01*
G37*
G36*
G01*
X138287000Y-114046500D02*
X138287000Y-114381500D01*
G75*
G02*
X138119500Y-114549000I-167500J0D01*
G01*
X136924500Y-114549000D01*
G75*
G02*
X136757000Y-114381500I0J167500D01*
G01*
X136757000Y-114046500D01*
G75*
G02*
X136924500Y-113879000I167500J0D01*
G01*
X138119500Y-113879000D01*
G75*
G02*
X138287000Y-114046500I0J-167500D01*
G01*
G37*
G36*
G01*
X138287000Y-112946500D02*
X138287000Y-113281500D01*
G75*
G02*
X138119500Y-113449000I-167500J0D01*
G01*
X136924500Y-113449000D01*
G75*
G02*
X136757000Y-113281500I0J167500D01*
G01*
X136757000Y-112946500D01*
G75*
G02*
X136924500Y-112779000I167500J0D01*
G01*
X138119500Y-112779000D01*
G75*
G02*
X138287000Y-112946500I0J-167500D01*
G01*
G37*
G36*
G01*
X151787000Y-118446500D02*
X151787000Y-118781500D01*
G75*
G02*
X151619500Y-118949000I-167500J0D01*
G01*
X150424500Y-118949000D01*
G75*
G02*
X150257000Y-118781500I0J167500D01*
G01*
X150257000Y-118446500D01*
G75*
G02*
X150424500Y-118279000I167500J0D01*
G01*
X151619500Y-118279000D01*
G75*
G02*
X151787000Y-118446500I0J-167500D01*
G01*
G37*
G36*
G01*
X151787000Y-117346500D02*
X151787000Y-117681500D01*
G75*
G02*
X151619500Y-117849000I-167500J0D01*
G01*
X150424500Y-117849000D01*
G75*
G02*
X150257000Y-117681500I0J167500D01*
G01*
X150257000Y-117346500D01*
G75*
G02*
X150424500Y-117179000I167500J0D01*
G01*
X151619500Y-117179000D01*
G75*
G02*
X151787000Y-117346500I0J-167500D01*
G01*
G37*
G36*
G01*
X151787000Y-116246500D02*
X151787000Y-116581500D01*
G75*
G02*
X151619500Y-116749000I-167500J0D01*
G01*
X150424500Y-116749000D01*
G75*
G02*
X150257000Y-116581500I0J167500D01*
G01*
X150257000Y-116246500D01*
G75*
G02*
X150424500Y-116079000I167500J0D01*
G01*
X151619500Y-116079000D01*
G75*
G02*
X151787000Y-116246500I0J-167500D01*
G01*
G37*
G36*
G01*
X151787000Y-115146500D02*
X151787000Y-115481500D01*
G75*
G02*
X151619500Y-115649000I-167500J0D01*
G01*
X150424500Y-115649000D01*
G75*
G02*
X150257000Y-115481500I0J167500D01*
G01*
X150257000Y-115146500D01*
G75*
G02*
X150424500Y-114979000I167500J0D01*
G01*
X151619500Y-114979000D01*
G75*
G02*
X151787000Y-115146500I0J-167500D01*
G01*
G37*
G36*
G01*
X151787000Y-114046500D02*
X151787000Y-114381500D01*
G75*
G02*
X151619500Y-114549000I-167500J0D01*
G01*
X150424500Y-114549000D01*
G75*
G02*
X150257000Y-114381500I0J167500D01*
G01*
X150257000Y-114046500D01*
G75*
G02*
X150424500Y-113879000I167500J0D01*
G01*
X151619500Y-113879000D01*
G75*
G02*
X151787000Y-114046500I0J-167500D01*
G01*
G37*
G36*
G01*
X151787000Y-112946500D02*
X151787000Y-113281500D01*
G75*
G02*
X151619500Y-113449000I-167500J0D01*
G01*
X150424500Y-113449000D01*
G75*
G02*
X150257000Y-113281500I0J167500D01*
G01*
X150257000Y-112946500D01*
G75*
G02*
X150424500Y-112779000I167500J0D01*
G01*
X151619500Y-112779000D01*
G75*
G02*
X151787000Y-112946500I0J-167500D01*
G01*
G37*
G36*
G01*
X151787000Y-105246500D02*
X151787000Y-105581500D01*
G75*
G02*
X151619500Y-105749000I-167500J0D01*
G01*
X150424500Y-105749000D01*
G75*
G02*
X150257000Y-105581500I0J167500D01*
G01*
X150257000Y-105246500D01*
G75*
G02*
X150424500Y-105079000I167500J0D01*
G01*
X151619500Y-105079000D01*
G75*
G02*
X151787000Y-105246500I0J-167500D01*
G01*
G37*
G36*
G01*
X151787000Y-106346500D02*
X151787000Y-106681500D01*
G75*
G02*
X151619500Y-106849000I-167500J0D01*
G01*
X150424500Y-106849000D01*
G75*
G02*
X150257000Y-106681500I0J167500D01*
G01*
X150257000Y-106346500D01*
G75*
G02*
X150424500Y-106179000I167500J0D01*
G01*
X151619500Y-106179000D01*
G75*
G02*
X151787000Y-106346500I0J-167500D01*
G01*
G37*
G36*
G01*
X151787000Y-107446500D02*
X151787000Y-107781500D01*
G75*
G02*
X151619500Y-107949000I-167500J0D01*
G01*
X150424500Y-107949000D01*
G75*
G02*
X150257000Y-107781500I0J167500D01*
G01*
X150257000Y-107446500D01*
G75*
G02*
X150424500Y-107279000I167500J0D01*
G01*
X151619500Y-107279000D01*
G75*
G02*
X151787000Y-107446500I0J-167500D01*
G01*
G37*
G36*
G01*
X151787000Y-108546500D02*
X151787000Y-108881500D01*
G75*
G02*
X151619500Y-109049000I-167500J0D01*
G01*
X150424500Y-109049000D01*
G75*
G02*
X150257000Y-108881500I0J167500D01*
G01*
X150257000Y-108546500D01*
G75*
G02*
X150424500Y-108379000I167500J0D01*
G01*
X151619500Y-108379000D01*
G75*
G02*
X151787000Y-108546500I0J-167500D01*
G01*
G37*
G36*
G01*
X151787000Y-109646500D02*
X151787000Y-109981500D01*
G75*
G02*
X151619500Y-110149000I-167500J0D01*
G01*
X150424500Y-110149000D01*
G75*
G02*
X150257000Y-109981500I0J167500D01*
G01*
X150257000Y-109646500D01*
G75*
G02*
X150424500Y-109479000I167500J0D01*
G01*
X151619500Y-109479000D01*
G75*
G02*
X151787000Y-109646500I0J-167500D01*
G01*
G37*
G36*
G01*
X151787000Y-110746500D02*
X151787000Y-111081500D01*
G75*
G02*
X151619500Y-111249000I-167500J0D01*
G01*
X150424500Y-111249000D01*
G75*
G02*
X150257000Y-111081500I0J167500D01*
G01*
X150257000Y-110746500D01*
G75*
G02*
X150424500Y-110579000I167500J0D01*
G01*
X151619500Y-110579000D01*
G75*
G02*
X151787000Y-110746500I0J-167500D01*
G01*
G37*
G36*
G01*
X138287000Y-111846500D02*
X138287000Y-112181500D01*
G75*
G02*
X138119500Y-112349000I-167500J0D01*
G01*
X136924500Y-112349000D01*
G75*
G02*
X136757000Y-112181500I0J167500D01*
G01*
X136757000Y-111846500D01*
G75*
G02*
X136924500Y-111679000I167500J0D01*
G01*
X138119500Y-111679000D01*
G75*
G02*
X138287000Y-111846500I0J-167500D01*
G01*
G37*
G36*
G01*
X151787000Y-111846500D02*
X151787000Y-112181500D01*
G75*
G02*
X151619500Y-112349000I-167500J0D01*
G01*
X150424500Y-112349000D01*
G75*
G02*
X150257000Y-112181500I0J167500D01*
G01*
X150257000Y-111846500D01*
G75*
G02*
X150424500Y-111679000I167500J0D01*
G01*
X151619500Y-111679000D01*
G75*
G02*
X151787000Y-111846500I0J-167500D01*
G01*
G37*
M02*
